<?xml version="1.0" encoding="utf-8"?>
<!-- Generator: Adobe Illustrator 17.0.0, SVG Export Plug-In . SVG Version: 6.00 Build 0)  -->
<!DOCTYPE svg PUBLIC "-//W3C//DTD SVG 1.1//EN" "http://www.w3.org/Graphics/SVG/1.1/DTD/svg11.dtd">
<svg version="1.1" id="Layer_1" xmlns="http://www.w3.org/2000/svg" xmlns:xlink="http://www.w3.org/1999/xlink" x="0px" y="0px"
	 width="55.783px" height="52.718px" viewBox="0 0 55.783 52.718" enable-background="new 0 0 55.783 52.718" xml:space="preserve">
<path fill="#231F20" d="M55.731,42.732c-0.015-0.125-0.036-0.249-0.057-0.374c-0.034-0.188-0.064-0.366-0.069-0.547
	c-0.002-0.116-0.001-0.239-0.001-0.356c0.005-0.215,0.006-0.435-0.02-0.656c-0.045-0.26-0.121-0.504-0.196-0.741
	c-0.028-0.087-0.056-0.183-0.086-0.276c-0.056-0.163-0.103-0.337-0.147-0.501c-0.049-0.181-0.1-0.369-0.169-0.553
	c-0.035-0.093-0.068-0.181-0.099-0.271c-0.056-0.166-0.114-0.332-0.202-0.49c-0.175-0.272-0.405-0.504-0.627-0.73
	c-0.066-0.067-0.129-0.13-0.198-0.202c-0.097-0.083-0.186-0.173-0.279-0.269c-0.073-0.083-0.148-0.158-0.227-0.227
	c-0.131-0.135-0.289-0.224-0.441-0.31c-0.072-0.043-0.149-0.084-0.214-0.134c-0.201-0.132-0.424-0.243-0.707-0.341
	c-0.342-0.139-0.645-0.246-0.919-0.32c-0.128-0.034-0.252-0.092-0.384-0.148c-0.146-0.069-0.302-0.137-0.458-0.178
	c-0.118-0.035-0.295-0.057-0.526-0.057c-0.127,0-0.236,0.006-0.3,0.012h-0.013c-0.279,0.021-0.494,0.08-0.701,0.14
	c-0.111,0.032-0.217,0.061-0.328,0.083c-0.085,0.019-0.18,0.023-0.275,0.023c-0.138,0-0.28,0.002-0.416,0.054
	c-0.169,0.069-0.316,0.184-0.456,0.291c-0.077,0.063-0.162,0.129-0.244,0.182c-0.394,0.252-0.775,0.515-1.085,0.959
	c-0.102,0.145-0.251,0.377-0.356,0.658l-0.017,0.013c-0.032,0.03-0.305,0.474-0.296,0.637l-0.216,0.264
	c-0.064,0.084-0.115,0.178-0.164,0.262c-0.015,0.03-0.032,0.059-0.045,0.088c-0.01,0.014-0.045,0.036-0.073,0.053
	c-0.052,0.033-0.123,0.076-0.144,0.152c-0.029,0.105-0.032,0.209-0.036,0.311c-0.004,0.076-0.007,0.147-0.023,0.218
	c-0.002,0.048-0.012,0.488,0.045,0.616c0.026,0.058,0.029,0.113,0.026,0.183c-0.001,0.092,0.1,0.253,0.197,0.358
	c0.094,0.091,0.18,0.142,0.262,0.145c0.136-0.007,0.309-0.011,0.372-0.011c0.172-0.011,0.187-0.02,0.211-0.037
	c0.083-0.071,0.159-0.133,0.214-0.209c0.018-0.031,0.018-0.062-0.004-0.1c0.051-0.027,0.103-0.054,0.113-0.107
	c0.015-0.076,0.013-0.146,0.009-0.22c-0.002-0.04-0.004-0.079-0.004-0.098c0.008-0.037,0.021-0.074,0.036-0.109
	c0.017-0.037,0.034-0.08,0.043-0.12c0.01-0.035,0.007-0.071,0-0.101c-0.001-0.01-0.003-0.029-0.003-0.029
	c0.085-0.096,0.27-0.424,0.299-0.497c0.029-0.058,0.079-0.113,0.131-0.17l0.057-0.063c0.129-0.23,0.282-0.485,0.31-0.515
	c0.01-0.009,0.041-0.039,0.081-0.074c0.169-0.152,0.218-0.199,0.236-0.222c0.014-0.021,0.026-0.042,0.041-0.065
	c0.025-0.043,0.046-0.086,0.085-0.109c0.042-0.027,0.088-0.049,0.132-0.077c0.052-0.027,0.103-0.052,0.15-0.082
	c0.079-0.054,0.158-0.125,0.241-0.215c0.026-0.029,0.044-0.064,0.059-0.093c0.011-0.016,0.027-0.05,0.039-0.054
	c0.02-0.012,0.087-0.028,0.152-0.043c0.143-0.033,0.236-0.059,0.279-0.086c0.032-0.021,0.182-0.096,0.302-0.154
	c0.105-0.052,0.202-0.102,0.237-0.12c0,0,0.007-0.003,0.024-0.003h0.025c0.018,0,0.044,0,0.073-0.01l0.312-0.129
	c0.035-0.012,0.065-0.029,0.106-0.025l0.02,0.001c0.061,0,0.211-0.03,0.386-0.062c0.062-0.012,0.107-0.022,0.142-0.025
	c0.008-0.001,0.031-0.011,0.055-0.015l0.032,0.008c0.068,0.02,0.139,0.035,0.198,0.041c0.155,0.044,0.32,0.052,0.482,0.06
	c0.173,0.005,0.335,0.014,0.486,0.065c0.296,0.1,0.578,0.203,0.816,0.363c0.071,0.045,0.15,0.079,0.228,0.114
	c0.122,0.058,0.24,0.11,0.334,0.202c0,0,0.011,0.022,0.013,0.03c0.012,0.031,0.03,0.08,0.069,0.106
	c0.06,0.044,0.129,0.08,0.196,0.116c0.104,0.05,0.198,0.102,0.259,0.178c0.051,0.073,0.104,0.137,0.162,0.204
	c0.129,0.159,0.261,0.32,0.351,0.511c0.046,0.084,0.105,0.159,0.165,0.227c0.058,0.074,0.122,0.152,0.163,0.232
	c0.059,0.112,0.087,0.237,0.118,0.373c0.03,0.119,0.061,0.244,0.114,0.366l0.042,0.089c0.117,0.25,0.24,0.506,0.308,0.77
	c0.03,0.137,0.034,0.279,0.035,0.435c0,0.121,0,0.249,0.02,0.373c0.043,0.237,0.05,0.485,0.057,0.725
	c0.009,0.151,0.014,0.301,0.023,0.45c0.029,0.322,0.047,0.738-0.023,1.156c-0.023,0.17-0.065,0.343-0.106,0.505
	c-0.035,0.137-0.067,0.278-0.091,0.413c-0.063,0.273-0.148,0.545-0.235,0.809c-0.031,0.114-0.067,0.225-0.101,0.334
	c-0.076,0.226-0.178,0.451-0.274,0.667l-0.045,0.097c-0.226,0.641-0.48,1.321-0.882,1.897c-0.051,0.074-0.13,0.129-0.215,0.188
	c-0.058,0.035-0.116,0.077-0.162,0.121c-0.13,0.102-0.249,0.217-0.364,0.327c-0.159,0.152-0.314,0.302-0.499,0.419
	c-0.077,0.053-0.147,0.121-0.214,0.176c-0.052,0.049-0.104,0.095-0.154,0.136c-0.352,0.229-0.699,0.45-1.068,0.596l-0.568,0.236
	c-0.149,0.043-0.312,0.076-0.468,0.106l-0.137,0.027c-0.095,0.018-0.231,0.018-0.375,0.011c-0.151-0.003-0.301-0.007-0.42,0.016
	l-0.235,0.045c-0.442,0.079-0.863,0.161-1.26,0.133c-0.145-0.011-0.282-0.076-0.415-0.144l-0.097-0.046
	c-0.053-0.026-0.11-0.057-0.184-0.06c-0.091-0.002-0.176-0.019-0.268-0.037c-0.056-0.008-0.112-0.015-0.175-0.025L45.546,50.8
	l-0.376-0.108c-0.007-0.02-0.012-0.046-0.017-0.094l-0.011-0.069l-0.043-0.017c-0.502-0.192-1.786-1.48-2.154-2.089
	c-1.377-2.311-1.018-6.47-0.322-13.066c0.097-0.208,0.106-0.365,0.1-0.525c0.22-0.312,0.199-0.637,0.161-0.92
	c-0.03-0.209-0.03-0.209,0.318-0.931c0.07-0.156,0.183-0.387,0.109-0.646c0-0.017,0.011-0.058,0.036-0.136
	c0.043-0.126,0.1-0.298,0.089-0.509c0-0.023,0.011-0.07,0.013-0.086c0.027-0.137,0.062-0.321-0.009-0.503l-0.022-0.032
	c0.041-0.079,0.077-0.133,0.136-0.2c0.061-0.064,0.149-0.163,0.174-0.293l0.023-0.062c0.12-0.342,0.484-1.385,0.678-2.253
	c0.223-1.017,3.17-10.203,3.192-10.272c0.145-0.334,0.102-0.641,0.065-0.913l-0.027-0.179l0.016-0.137l-0.093-0.071
	c0.111-0.302-0.026-0.525-0.239-0.88l-0.19-0.311l-0.177-0.04c-0.399-0.056-4.023-0.61-7.846-3.321
	c-0.013-0.022-0.03-0.043-0.043-0.057c-0.009-0.008-0.018-0.019-0.026-0.032l-0.012-0.015l-0.02-0.009
	c-0.015-0.011-0.029-0.018-0.045-0.033l-0.002-0.001c0.186-0.744,0.393-1.632,0.521-2.603c0.014-0.15,0.057-0.285,0.102-0.422
	c0.031-0.111,0.067-0.227,0.089-0.354c0.095-0.592,0.154-1.222,0.179-1.859c0.01-0.201,0-0.402-0.01-0.594
	c-0.004-0.076-0.006-0.152-0.009-0.23c-0.024-0.588-0.076-1.363-0.268-2.16c-0.198-0.791-0.522-1.512-0.963-2.143l-0.069-0.103
	c-0.118-0.171-0.239-0.351-0.385-0.506c-0.172-0.225-0.377-0.404-0.605-0.531C37.096,0.174,36.491,0,35.904,0
	c-0.597,0.02-1.201,0.227-1.646,0.571c-0.417,0.275-0.706,0.514-0.947,0.768l-0.02,0.026c-0.094,0.106-0.189,0.214-0.262,0.344
	c-0.236,0.498-0.417,1.038-0.532,1.599c-0.081,0.353-0.179,0.768-0.232,1.194c-0.081,0.537-0.074,1.106,0.023,1.692
	c0.013,0.074,0.013,0.162,0.013,0.255C32.3,6.606,32.296,6.781,32.36,6.954c0.006,0.019,0.028,0.071,0.099,0.094
	c0.189,2.334,1.101,4.745,2.044,5.406l0.939,1.208c0.037,0.102,0.11,0.2,0.168,0.272l0.028,0.025
	c0.198,0.135,0.634,0.442,1.102,0.758c-0.124,0.347-0.251,0.691-0.381,1.037l-0.868,2.383c-0.06,0.157-0.112,0.315-0.162,0.476
	c-0.081,0.25-0.159,0.506-0.268,0.737c-0.1,0.213-0.225,0.42-0.345,0.619c-0.118,0.191-0.238,0.391-0.339,0.6
	c-0.109,0.228-0.196,0.47-0.281,0.705c-0.076,0.211-0.152,0.425-0.248,0.628c-0.196,0.447-0.431,0.885-0.659,1.286
	c-0.069,0.132-0.151,0.266-0.233,0.394c-0.098,0.155-0.198,0.315-0.282,0.488c-0.095,0.201-0.186,0.411-0.272,0.616
	c-0.11,0.258-0.227,0.527-0.353,0.785c-0.075,0.158-0.175,0.312-0.273,0.463c-0.063,0.093-0.128,0.198-0.185,0.295
	c-0.324,0.562-0.664,1.116-1.015,1.656l-0.12,0.179c-0.185,0.276-0.374,0.563-0.599,0.813c-0.254,0.301-0.556,0.563-0.82,0.777
	c-0.107,0.098-0.163,0.233-0.217,0.358c-0.092,0.225-0.161,0.365-0.377,0.381c-0.013,0-0.059,0.006-0.068,0.048
	c-0.222,0.302-0.477,0.592-0.773,0.878c-0.094,0.074-0.207,0.125-0.329,0.179c-0.13,0.062-0.264,0.119-0.367,0.209
	c-0.122,0.079-0.231,0.186-0.331,0.287c-0.123,0.118-0.235,0.236-0.372,0.307c-0.258,0.144-0.56,0.253-0.888,0.323
	c-0.163-0.171-0.312-0.391-0.45-0.666c-0.36-0.723-0.325-1.598-0.264-2.197c0.073-0.653,0.105-1.872,0.121-2.458
	c0.002-0.17,0.006-0.288,0.008-0.3c0.139-0.566,0.236-1.577,0.285-2.925c0.001-0.037,0.001-0.057,0.001-0.064
	c0.023-0.233,0.052-0.457,0.079-0.686c0.054-0.46,0.112-0.932,0.133-1.409c0.007-0.145,0.026-0.295,0.042-0.438
	c0.056-0.442,0.114-0.897-0.13-1.364c-0.212-0.392-0.318-0.84-0.425-1.275l-0.039-0.168c-0.05-0.205-0.081-0.418-0.109-0.623
	c-0.076-0.528-0.154-1.076-0.542-1.537c-0.164-0.194-0.361-0.362-0.55-0.523c-0.146-0.127-0.297-0.259-0.432-0.396
	c-0.302-0.319-0.903-0.568-1.362-0.568c-0.198,0-0.359,0.043-0.49,0.127l-0.276,0.188c-0.798,0.537-1.619,1.092-2.145,1.815
	c-0.563,0.777-0.979,1.654-1.384,2.505c-0.185,0.383-0.374,0.782-0.574,1.164c-0.27,0.516-0.875,1.47-1.239,2.044
	c-0.203,0.321-0.306,0.478-0.322,0.517l-0.161,0.318c-0.554,1.088-1.125,2.222-2.001,3.176c-0.167,0.185-0.275,0.41-0.378,0.638
	c-0.065,0.14-0.13,0.28-0.213,0.412c-0.121,0.204-0.284,0.395-0.468,0.56c-0.113,0.104-0.247,0.204-0.374,0.293
	c-0.187,0.14-0.381,0.281-0.531,0.456c-0.653,0.754-1.28,1.389-2.398,1.451H8.7c-0.941,0-2.242-2.554-2.378-3.479
	c-0.381-2.632-0.12-7.975-0.035-9.727L6.3,17.2c0.007-0.126,0.079-0.555,0.162-1.049c0.133-0.78,0.296-1.747,0.3-2.144
	c0-0.169,0.028-0.333,0.058-0.509c0.021-0.117,0.044-0.234,0.054-0.347c0.015-0.141,0.025-0.281,0.03-0.42
	c0.014-0.242,0.024-0.465,0.08-0.684c0.051-0.206,0.169-0.633,0.316-1.178C7.596,9.805,8,8.348,8.223,7.389
	c0.437-1.865,1.201-3.182,2.478-4.271c0.034-0.028,0.072-0.05,0.113-0.072c0.034-0.021,0.066-0.042,0.1-0.065
	c1.161-0.825,2.868-1.313,4.163-1.176c4.343,0.455,5.2,4.428,5.173,4.979c-0.032,0.546-0.061,1.197-0.061,1.829
	c0,1.348-0.737,3.456-2.381,5.124c-0.103,0.107-0.207,0.218-0.308,0.33c-0.25,0.275-0.508,0.552-0.812,0.756
	c-0.372,0.251-0.817,0.431-1.247,0.607c-0.1,0.041-0.203,0.08-0.297,0.119c-0.26,0.107-0.477,0.186-0.712,0.186
	c-0.145,0-0.285-0.03-0.423-0.092c-0.367-0.168-0.755-0.311-1.127-0.448c-0.274-0.095-0.549-0.199-0.817-0.306
	c-0.502-0.209-0.794-0.115-0.895,0.246c-0.066,0.24-0.002,0.543,0.171,0.818c0.172,0.273,0.426,0.459,0.68,0.501
	c0.131,0.023,0.291,0.083,0.479,0.152c0.421,0.154,0.993,0.369,1.784,0.369c0.311,0,0.638-0.035,0.971-0.101
	c0.527-0.106,1.009-0.361,1.481-0.61c0.127-0.068,0.258-0.139,0.39-0.203c2.292-1.143,4.026-4.482,4.209-5.213
	c0.142-0.596,0.178-1.207,0.217-1.801c0.014-0.258,0.033-0.522,0.058-0.787c-0.012-0.152-0.016-0.3-0.019-0.448
	c-0.01-0.327-0.02-0.64-0.083-0.945c-0.236-1.139-0.501-2.437-1.263-3.502c-0.386-0.534-0.94-0.986-1.475-1.428
	c-0.087-0.075-0.173-0.14-0.258-0.214c-0.922-0.774-2.008-1.135-3.42-1.135c-0.808,0-1.626,0.121-2.385,0.25
	c-0.924,0.153-1.857,0.466-2.705,0.9c-4.751,2.429-6.965,7.499-7.911,9.663c-0.087,0.206-0.169,0.385-0.233,0.527
	c-0.158,0.351-1.6,5.309-1.82,8.052c-0.06,0.728-0.047,1.48,0.029,2.23c0.211,2.052,0.615,5.565,0.962,6.083
	c0.066,0.097,0.1,0.211,0.134,0.334c0.035,0.122,0.069,0.248,0.138,0.36c0.178,0.279,0.449,0.895,0.684,1.437
	c0.231,0.531,0.375,0.863,0.45,0.957l0.018,0.016c0.228,0.173,0.444,0.379,0.653,0.636c0.539,0.407,1.123,0.757,1.69,1.088
	c0.352,0.209,0.713,0.424,1.061,0.651c0.471,0.313,1.061,0.341,1.631,0.068c0.188-0.083,0.381-0.145,0.59-0.207
	c0.398-0.122,0.81-0.244,1.146-0.593c0.507-0.532,1.183-1.028,1.95-1.44c0.634-0.344,1.031-0.795,1.331-1.5
	c0.08-0.185,0.244-0.344,0.417-0.512c0.083-0.084,0.174-0.171,0.25-0.262c0.096-0.109,0.182-0.232,0.266-0.349
	c0.073-0.104,0.144-0.203,0.204-0.271c0.188-0.218,0.365-0.417,0.52-0.592c0.401-0.454,0.665-0.752,0.756-0.915
	c0.349-0.603,0.679-1.228,0.996-1.836c0.132-0.248,0.261-0.498,0.394-0.748c0.019-0.035,0.034-0.076,0.052-0.114
	c0.044-0.099,0.085-0.2,0.154-0.247l0.085-0.057c0.203-0.138,0.44-0.3,0.634-0.3h0.025c0.269,0.009,0.398,0.209,0.423,0.644
	l0.009,0.218c0.016,0.288,0.031,0.579,0.059,0.87c0.067,0.627,0.137,1.21,0.217,1.782c0.024,0.154,0.039,0.313,0.047,0.47
	c0.037,0.405,0.073,0.825,0.258,1.184c0.117,0.23,0.296,0.599,0.467,0.959c0.297,0.615,0.48,0.996,0.537,1.067
	c0.197,0.251,0.384,0.513,0.543,0.738c0.482,0.679,0.997,1.219,1.573,1.647l0.033,0.016c0.373,0.069,0.755,0.207,1.127,0.41
	l0.031,0.01c0.631,0.082,1.263,0.166,1.895,0.246h0.006h0.012c1.173-0.157,2.128-0.468,2.91-0.97l0.299-0.19l-0.077,0.011
	c0.213-0.126,0.431-0.257,0.637-0.408c0.025-0.017,0.059-0.032,0.098-0.046c0.056-0.017,0.12-0.034,0.174-0.085
	c0.101-0.114,0.198-0.228,0.3-0.34c0.148-0.171,0.294-0.344,0.451-0.499c0.134-0.133,0.277-0.258,0.418-0.383
	c0.291-0.265,0.59-0.537,0.842-0.849c0.255-0.321,0.461-0.68,0.664-1.024c0.069-0.119,0.136-0.238,0.207-0.349
	c0.104-0.166,0.212-0.331,0.319-0.491c0.169-0.258,0.343-0.519,0.496-0.785c0.129-0.207,0.238-0.426,0.341-0.639
	c0.054-0.112,0.112-0.216,0.168-0.324c0.013-0.021,0.035-0.046,0.058-0.068c0.037-0.033,0.074-0.071,0.098-0.123
	c0.065-0.135,0.116-0.275,0.167-0.41c0.054-0.147,0.109-0.293,0.177-0.428c0.081-0.16,0.166-0.32,0.248-0.479
	c0.131-0.255,0.271-0.52,0.393-0.781c0.067-0.142,0.12-0.291,0.166-0.439c0.047-0.129,0.09-0.254,0.141-0.372
	c0.07-0.152,0.148-0.296,0.226-0.443c0.11-0.196,0.221-0.404,0.308-0.625c0.085-0.218,0.154-0.448,0.221-0.665
	c0.067-0.222,0.134-0.452,0.225-0.667c0.076-0.185,0.182-0.364,0.284-0.541c0.102-0.168,0.202-0.344,0.284-0.525
	c0.421-0.926,0.803-1.883,1.172-2.816l0.186-0.463c0.092-0.225,0.203-0.45,0.31-0.668c0.098-0.209,0.201-0.421,0.291-0.637
	c0.022-0.055,0.043-0.115,0.064-0.17c0.01-0.026,0.021-0.051,0.028-0.076c0.183,0.109,0.335,0.193,0.448,0.246
	c0.363,0.172,0.733,0.399,1.123,0.645c0.68,0.424,1.376,0.865,2.135,1.026c-1.601,3.962-1.803,5.213-1.879,5.684
	c-0.005,0.047-0.011,0.082-0.019,0.112c-0.454,0.758-1.582,4.043-1.594,4.075c-0.023,0.083-0.051,0.166-0.084,0.254
	c-0.063,0.177-0.116,0.339-0.149,0.524l-0.016,0.105c-0.053,0.308-0.1,0.602-0.225,0.87l-0.034,0.074
	c-0.07,0.127-0.143,0.281-0.146,0.464c-0.096,0.151-0.123,0.306-0.139,0.448l-0.004,0.018c-0.005,0.045-0.011,0.086-0.021,0.117
	c-0.045,0.115-0.055,0.248-0.029,0.379c-0.231,0.575-0.793,5.896-0.823,6.562c-0.165,0.263-0.105,0.598-0.049,0.907
	c0.022,0.138,0.076,0.421,0.033,0.493l-0.067,0.119l0.03,0.143c0.069,0.363,0.163,1.015,0.259,1.707l0.047,0.334
	c0.082,0.612,0.169,1.247,0.249,1.682c0.169,0.858,0.609,2.104,0.904,2.553c-0.013,0.256,0.144,0.408,0.228,0.486
	c0.005,0.01,0.02,0.019,0.031,0.035c0.007,0.006,0.013,0.014,0.013,0.014c0.055,0.393,0.987,2.227,0.994,2.237
	c0.147,0.189,0.258,0.317,0.365,0.438c0.166,0.19,0.252,0.284,0.395,0.65l0.115,0.154c0.134,0.126,0.253,0.275,0.355,0.404
	c0.216,0.265,0.487,0.597,0.862,0.782c0.029,0.034,0.068,0.087,0.125,0.132c0.458,0.348,2.009,1.242,2.639,1.494
	c0.037,0.013,0.094,0.041,0.168,0.076c0.287,0.133,0.826,0.381,1.273,0.473l0.13,0.056c0.154,0.072,0.315,0.141,0.482,0.186
	c0.505,0.122,0.889,0.169,1.241,0.169h0.097c0.15,0,0.298-0.023,0.441-0.046c0.133-0.025,0.263-0.045,0.395-0.045h0.105
	c0.543-0.006,1.055-0.011,1.623-0.136c0.255-0.035,0.474-0.172,0.684-0.304c0.121-0.079,0.239-0.152,0.362-0.206
	c0.494-0.223,0.951-0.518,1.378-0.801c0.568-0.414,1.084-0.893,1.532-1.43c0.263-0.375,0.463-0.695,0.635-1
	c0.056-0.096,0.115-0.185,0.181-0.281c0.077-0.106,0.156-0.216,0.215-0.334c0.084-0.139,0.121-0.298,0.157-0.452
	c0.018-0.079,0.034-0.154,0.058-0.229l0.187-0.545c0.025-0.111,0.05-0.226,0.076-0.34c0.055-0.262,0.113-0.54,0.182-0.801
	c0.179-0.544,0.24-1.09,0.273-1.545C55.8,43.639,55.8,43.165,55.731,42.732 M34.276,4.504c-0.135-0.475-0.175-0.967-0.123-1.478
	c0.159-0.321,0.301-0.547,0.455-0.738c0.3-0.344,0.655-0.583,0.991-0.659c0.041-0.006,0.081-0.017,0.122-0.028
	c0.079-0.018,0.15-0.038,0.226-0.027l0.009,0.005l0.01-0.003c0.129-0.01,0.247,0.01,0.351,0.075
	c0.455,0.211,0.857,0.658,1.192,1.315c0.035,0.065,0.072,0.124,0.112,0.188c0.176,0.299,0.362,0.614,0.474,0.959
	c0.186,0.649,0.23,1.364,0.248,1.911c0.027,0.89-0.046,1.766-0.13,2.666l-0.059,0.716c-0.024,0.198-0.065,0.463-0.13,0.729
	c-0.037,0.16-0.095,0.32-0.147,0.475c-0.046,0.13-0.093,0.266-0.13,0.407c-0.072-0.087-0.144-0.176-0.216-0.275
	c-0.004-0.009-0.01-0.017-0.03-0.035l-0.02-0.017c-0.211-0.135-0.407-0.302-0.579-0.484l-0.138-0.137v0.043
	c-2.118-1.995-2.654-4.417-2.487-5.581l0.004-0.012L34.276,4.504z"/>
</svg>
