<?xml version="1.0" encoding="utf-8"?>
<!-- Generator: Adobe Illustrator 17.0.0, SVG Export Plug-In . SVG Version: 6.00 Build 0)  -->
<!DOCTYPE svg PUBLIC "-//W3C//DTD SVG 1.1//EN" "http://www.w3.org/Graphics/SVG/1.1/DTD/svg11.dtd">
<svg version="1.1" id="Layer_1" xmlns="http://www.w3.org/2000/svg" xmlns:xlink="http://www.w3.org/1999/xlink" x="0px" y="0px"
	 width="840px" height="408px" viewBox="0 0 840 408" enable-background="new 0 0 840 408" xml:space="preserve">
<g>
	<g>
		<g>
			<path fill="#BA9262" d="M61.306,157.102c3.217-2.135,5.986-4.846,8.307-8.134c2.322-3.289,3.483-6.39,3.483-9.301
				c0-2.857-1.313-4.285-3.935-4.285c-1.415,0-2.864,0.384-4.35,1.147c-1.486,0.763-2.834,1.766-4.043,3.006
				c-1.212,1.24-2.307,2.596-3.291,4.067c-0.979,1.471-1.738,2.972-2.269,4.501c-0.535,1.529-0.802,2.913-0.802,4.153
				c0,0.201,0.043,0.606,0.129,1.212c0.03,0.662-0.259,0.994-0.865,0.994c-0.462,0-0.865-0.339-1.21-1.018
				c-0.347-0.677-0.522-1.563-0.522-2.659c0-2.568,0.932-5.264,2.79-8.091c1.863-2.827,4.184-5.178,6.965-7.052
				c2.786-1.876,5.43-2.812,7.94-2.812c1.904,0,3.526,0.585,4.867,1.751c1.341,1.169,2.012,2.963,2.012,5.387
				c0,2.51-0.785,5.156-2.359,7.938c-1.57,2.784-3.554,5.279-5.947,7.485c-2.394,2.206-5.107,4.03-8.134,5.473
				c-3.028,1.443-5.898,2.163-8.609,2.163c-2.538,0-4.651-0.671-6.34-2.012c-1.686-1.341-2.53-3.483-2.53-6.424
				c0-2.883,0.865-5.898,2.596-9.042c1.732-3.144,3.879-5.913,6.446-8.307c2.566-2.394,5.372-4.378,8.414-5.95
				c3.045-1.57,5.818-2.357,8.328-2.357c0.664,0,1.249,0.058,1.753,0.172c0.505,0.116,0.858,0.252,1.059,0.412
				c0.203,0.157,0.304,0.311,0.304,0.455c0,0.144-0.159,0.246-0.477,0.302c-2.452,0.058-5.128,0.837-8.026,2.335
				c-2.898,1.501-5.538,3.368-7.916,5.602c-2.379,2.236-4.363,4.781-5.95,7.636c-1.585,2.857-2.378,5.568-2.378,8.134
				c0,1.357,0.218,2.495,0.649,3.418c0.431,0.923,1.009,1.572,1.729,1.947c0.723,0.375,1.35,0.628,1.883,0.757
				c0.533,0.129,1.076,0.194,1.624,0.194C55.199,160.303,58.091,159.235,61.306,157.102z"/>
			<path fill="#BA9262" d="M76.065,150.18c-0.216-0.03-0.354-0.138-0.41-0.326c-0.058-0.187-0.015-0.41,0.129-0.671
				c1.385-2.018,2.495-3.922,3.332-5.71c-0.895-0.289-1.341-0.938-1.341-1.947c0-0.606,0.231-1.197,0.692-1.773
				c0.462-0.578,1.067-0.867,1.816-0.867c0.578,0,0.867,0.231,0.867,0.692c0,0.175-0.065,0.433-0.194,0.781
				c-0.129,0.345-0.196,0.591-0.196,0.735c0,0.403,0.246,0.604,0.735,0.604c0.117,0,0.311-0.022,0.585-0.065
				c0.274-0.043,0.541-0.065,0.8-0.065c0.895,0,1.6,0.224,2.122,0.671c0.518,0.448,0.776,1.031,0.776,1.753
				c0,1.124-0.806,2.926-2.422,5.409c-1.615,2.48-2.422,4.08-2.422,4.802c0,0.72,0.345,1.08,1.037,1.08
				c1.096,0,3.144-2.034,6.144-6.101c0.203-0.259,0.41-0.388,0.625-0.388c0.218,0,0.354,0.101,0.414,0.302
				c0.056,0.203,0,0.461-0.175,0.778c-0.144,0.231-0.347,0.526-0.606,0.888c-0.259,0.36-0.763,1.016-1.514,1.967
				c-0.75,0.953-1.479,1.79-2.184,2.51c-0.707,0.72-1.516,1.378-2.422,1.969c-0.91,0.591-1.725,0.886-2.445,0.886
				c-1.529,0-2.295-0.85-2.295-2.553c0-1.152,0.418-2.508,1.255-4.065c0.837-1.559,1.665-3.008,2.488-4.35
				c0.822-1.342,1.234-2.314,1.234-2.92c0-0.431-0.304-0.649-0.91-0.649c-0.114,0-0.289,0.009-0.518,0.022
				c-0.233,0.015-0.405,0.022-0.52,0.022c-0.462,0.837-1.016,1.775-1.667,2.812c-0.647,1.039-1.188,1.876-1.622,2.51l-0.606,0.951
				C76.477,150.107,76.28,150.208,76.065,150.18z"/>
			<path fill="#BA9262" d="M107.37,148.904c0.287,0.246,0.287,0.569,0,0.972c-0.144,0.231-0.347,0.535-0.606,0.91
				c-0.259,0.375-0.772,1.037-1.535,1.988c-0.763,0.953-1.507,1.79-2.23,2.51c-0.72,0.72-1.535,1.385-2.443,1.99
				c-0.908,0.606-1.723,0.908-2.443,0.908c-0.953,0-1.553-0.539-1.796-1.622c-0.246-1.082-0.093-2.07,0.455-2.963
				c-2.482,3.056-4.658,4.585-6.534,4.585c-1.126,0-2.012-0.425-2.661-1.277c-0.647-0.85-0.973-1.867-0.973-3.049
				c0-1.499,0.585-3.209,1.753-5.126c1.167-1.919,2.659-3.578,4.477-4.977c1.816-1.397,3.532-2.098,5.148-2.098
				c0.809,0,1.529,0.224,2.163,0.671c0.634,0.449,1.009,1.061,1.126,1.839l6.793-13.758c0.231-0.52,0.649-0.778,1.255-0.778h1.427
				c0.548,0,0.707,0.259,0.475,0.778l-10.946,22.455c-0.229,0.49-0.354,0.914-0.367,1.275c-0.013,0.362,0.052,0.606,0.194,0.738
				c0.145,0.129,0.332,0.194,0.563,0.194c1.009,0,2.957-1.962,5.842-5.885C106.795,148.752,107.081,148.658,107.37,148.904z
				 M96.685,151.564c1.96-2.337,2.942-4.47,2.942-6.403c0-1.328-0.505-1.99-1.514-1.99c-1.531,0-3.224,1.246-5.085,3.741
				c-1.859,2.495-2.791,4.565-2.791,6.208c0,0.576,0.145,1.046,0.431,1.406c0.289,0.36,0.664,0.541,1.126,0.541
				C93.092,155.069,94.723,153.9,96.685,151.564z"/>
			<path fill="#BA9262" d="M119.097,142.326c0.636,0.449,0.951,1.076,0.951,1.883c0,1.154-0.711,2.329-2.139,3.526
				c-1.428,1.197-3.368,1.796-5.82,1.796c-0.52,0-0.966-0.123-1.341-0.369c-0.375-0.244-0.563-0.511-0.563-0.8
				c0-0.203,0.129-0.302,0.39-0.302c0.172,0,0.425,0.022,0.757,0.065c0.332,0.043,0.584,0.065,0.757,0.065
				c1.585,0,2.898-0.492,3.938-1.471c1.037-0.981,1.557-1.818,1.557-2.51c0-0.778-0.446-1.169-1.341-1.169
				c-1.499,0-3.129,1.126-4.889,3.375c-1.76,2.251-2.639,4.27-2.639,6.058c0,0.837,0.237,1.479,0.714,1.926
				c0.477,0.446,1.119,0.671,1.926,0.671c1.24,0,2.711-0.492,4.412-1.471c1.704-0.981,3.304-2.452,4.805-4.414
				c0.172-0.259,0.367-0.382,0.582-0.367c0.216,0.013,0.345,0.123,0.388,0.324c0.045,0.203-0.004,0.449-0.151,0.735
				c-1.384,2.193-3.215,4.125-5.495,5.799c-2.277,1.671-4.397,2.508-6.357,2.508c-1.357,0-2.446-0.41-3.269-1.231
				c-0.819-0.824-1.231-1.883-1.231-3.181c0-1.385,0.49-2.914,1.471-4.587c1.184-1.99,2.754-3.741,4.716-5.255
				c1.962-1.514,3.778-2.273,5.452-2.273C117.654,141.655,118.463,141.88,119.097,142.326z"/>
			<path fill="#BA9262" d="M120.853,150.18c-0.218-0.03-0.354-0.138-0.412-0.326c-0.056-0.187-0.013-0.41,0.129-0.671
				c1.384-2.018,2.497-3.922,3.334-5.71c-0.897-0.289-1.341-0.938-1.341-1.947c0-0.606,0.229-1.197,0.69-1.773
				c0.462-0.578,1.067-0.867,1.818-0.867c0.576,0,0.865,0.231,0.865,0.692c0,0.175-0.065,0.433-0.194,0.781
				c-0.129,0.345-0.194,0.591-0.194,0.735c0,0.403,0.246,0.604,0.735,0.604c0.114,0,0.308-0.022,0.584-0.065
				c0.272-0.043,0.539-0.065,0.8-0.065c0.895,0,1.6,0.224,2.12,0.671c0.518,0.448,0.778,1.031,0.778,1.753
				c0,1.124-0.809,2.926-2.422,5.409c-1.617,2.48-2.424,4.08-2.424,4.802c0,0.72,0.345,1.08,1.039,1.08
				c1.095,0,3.144-2.034,6.142-6.101c0.203-0.259,0.412-0.388,0.628-0.388c0.218,0,0.354,0.101,0.412,0.302
				c0.056,0.203,0,0.461-0.172,0.778c-0.147,0.231-0.347,0.526-0.608,0.888c-0.259,0.36-0.763,1.016-1.514,1.967
				c-0.748,0.953-1.477,1.79-2.182,2.51c-0.707,0.72-1.516,1.378-2.424,1.969c-0.91,0.591-1.725,0.886-2.445,0.886
				c-1.527,0-2.292-0.85-2.292-2.553c0-1.152,0.418-2.508,1.255-4.065c0.835-1.559,1.665-3.008,2.486-4.35
				c0.824-1.342,1.234-2.314,1.234-2.92c0-0.431-0.302-0.649-0.908-0.649c-0.114,0-0.289,0.009-0.52,0.022
				c-0.231,0.015-0.403,0.022-0.518,0.022c-0.462,0.837-1.018,1.775-1.667,2.812c-0.649,1.039-1.19,1.876-1.624,2.51l-0.604,0.951
				C121.264,150.107,121.068,150.208,120.853,150.18z"/>
			<path fill="#BA9262" d="M160.031,143.95c0.175,0.662-0.015,1.341-0.563,2.034c-0.056,0.086-0.114,0.157-0.172,0.216
				c-1.24,1.298-2.739,2.163-4.498,2.596c-1.156,2.452-2.784,4.68-4.891,6.683c-2.105,2.006-4.253,2.965-6.446,2.879
				c-1.413-0.058-2.394-0.47-2.942-1.234c-0.548-0.766-0.809-1.809-0.778-3.138c0.028-1.76,0.649-3.59,1.859-5.495
				c1.212-1.902,2.769-3.418,4.673-4.541c0.981-0.578,1.818-0.867,2.51-0.867h0.043c0.692-0.951,1.803-1.428,3.332-1.428
				c1.065,0.03,1.932,0.369,2.596,1.018c0.662,0.649,1.009,1.52,1.037,2.618c0,0.462-0.086,0.994-0.261,1.6
				c1.617-0.461,2.885-1.455,3.808-2.984C159.658,143.445,159.887,143.458,160.031,143.95z M148.934,153.337
				c1.283-1.268,2.286-2.754,3.008-4.455c-2.482-0.433-3.722-1.775-3.722-4.024v-0.302c-1.326,0.923-2.51,2.219-3.547,3.892
				c-1.037,1.673-1.542,3.202-1.514,4.587c0,1.471,0.619,2.206,1.861,2.206C146.344,155.241,147.651,154.607,148.934,153.337z
				 M152.481,144.101c-0.216-0.418-0.554-0.628-1.016-0.628c-0.49,0.058-0.735,0.375-0.735,0.951c0,0.52,0.157,1.012,0.474,1.473
				c0.319,0.462,0.781,0.791,1.385,0.994c0.058-0.259,0.116-0.707,0.172-1.341C152.792,145.002,152.697,144.519,152.481,144.101z"/>
			<path fill="#BA9262" d="M162.802,143.473l-7.873,16.657c-1.412,3.03-3.375,5.337-5.885,6.922
				c-1.441,0.865-2.379,1.154-2.812,0.865c-0.317-0.201-0.086-0.662,0.694-1.384c1.988-1.902,3.662-4.296,5.016-7.181l7.487-15.878
				h-1.039c-0.52,0-0.707-0.216-0.563-0.649c0.261-0.489,0.662-0.778,1.212-0.865h1.08c0.664-1.384,1.32-2.611,1.969-3.677
				c0.649-1.067,1.421-2.165,2.314-3.289c0.895-1.126,1.928-2.085,3.094-2.877c1.167-0.794,2.43-1.378,3.785-1.753
				c1.645-0.462,2.812-0.477,3.506-0.043c0.375,0.231,0.332,0.447-0.129,0.649c-0.088,0.028-0.203,0.058-0.347,0.086
				c-1.471,0.289-2.972,1.024-4.501,2.206c-2.363,1.876-4.369,4.572-6.012,8.091l-0.304,0.606h3.03c0.548,0,0.763,0.216,0.647,0.649
				c-0.229,0.49-0.634,0.778-1.21,0.865H162.802z"/>
			<path fill="#BA9262" d="M178.769,143.473l-4.455,9.389c-0.317,0.748-0.388,1.305-0.216,1.665c0.172,0.36,0.518,0.541,1.039,0.541
				c0.604,0,1.535-0.621,2.791-1.861c1.253-1.24,2.415-2.581,3.48-4.024c0.173-0.259,0.369-0.388,0.585-0.388
				c0.218,0,0.354,0.101,0.412,0.302c0.056,0.203,0.013,0.461-0.129,0.778c-0.147,0.231-0.354,0.526-0.63,0.888
				c-0.272,0.36-0.807,1.016-1.6,1.967c-0.793,0.953-1.557,1.79-2.292,2.51s-1.563,1.378-2.486,1.969
				c-0.923,0.591-1.732,0.886-2.424,0.886c-1.268,0-2.07-0.541-2.402-1.622c-0.332-1.083-0.179-2.185,0.455-3.31l4.587-9.691h-1.384
				c-0.52,0-0.707-0.216-0.563-0.649c0.261-0.489,0.662-0.778,1.212-0.865h1.471l2.292-4.802c0.231-0.52,0.649-0.778,1.255-0.778
				h1.557c0.548,0,0.707,0.259,0.477,0.778l-2.292,4.802h2.726c0.548,0,0.763,0.216,0.647,0.649c-0.229,0.49-0.634,0.778-1.21,0.865
				H178.769z"/>
			<path fill="#BA9262" d="M188.809,151.564c0.778-1.501,1.557-2.892,2.335-4.175c0.779-1.283,1.169-2.228,1.169-2.834
				c0-0.462-0.304-0.692-0.908-0.692c-1.07,0-2.286,0.511-3.657,1.536c-1.369,1.024-2.385,2.243-3.049,3.655l-3.938,8.134
				c-0.231,0.52-0.649,0.779-1.255,0.779h-1.514c-0.548,0-0.708-0.259-0.475-0.779l12.934-26.781
				c0.231-0.52,0.649-0.778,1.255-0.778h1.514c0.548,0,0.708,0.259,0.477,0.778l-6.879,14.192c2.133-2.021,4.153-3.03,6.058-3.03
				c0.893,0,1.585,0.224,2.074,0.671c0.492,0.448,0.738,1.031,0.738,1.753c0,1.124-0.781,2.942-2.338,5.452
				c-1.557,2.508-2.335,4.123-2.335,4.846c0,0.72,0.347,1.08,1.037,1.08c0.606,0,1.514-0.641,2.726-1.926
				c1.212-1.283,2.394-2.702,3.549-4.261c0.173-0.259,0.367-0.382,0.582-0.367c0.216,0.013,0.354,0.123,0.412,0.324
				c0.058,0.203,0.015,0.449-0.131,0.735c-0.142,0.231-0.345,0.526-0.604,0.888c-0.259,0.36-0.781,1.016-1.557,1.967
				c-0.781,0.953-1.523,1.79-2.23,2.51s-1.52,1.378-2.443,1.969c-0.923,0.591-1.731,0.886-2.422,0.886
				c-1.531,0-2.295-0.85-2.295-2.553C187.641,154.392,188.029,153.063,188.809,151.564z"/>
			<path fill="#BA9262" d="M210.92,142.326c0.636,0.449,0.951,1.076,0.951,1.883c0,1.154-0.712,2.329-2.139,3.526
				c-1.428,1.197-3.368,1.796-5.82,1.796c-0.52,0-0.966-0.123-1.341-0.369c-0.375-0.244-0.563-0.511-0.563-0.8
				c0-0.203,0.129-0.302,0.39-0.302c0.172,0,0.425,0.022,0.757,0.065c0.332,0.043,0.584,0.065,0.757,0.065
				c1.585,0,2.898-0.492,3.938-1.471c1.037-0.981,1.557-1.818,1.557-2.51c0-0.778-0.446-1.169-1.341-1.169
				c-1.499,0-3.129,1.126-4.889,3.375c-1.76,2.251-2.64,4.27-2.64,6.058c0,0.837,0.237,1.479,0.714,1.926
				c0.477,0.446,1.119,0.671,1.926,0.671c1.24,0,2.711-0.492,4.412-1.471c1.704-0.981,3.304-2.452,4.805-4.414
				c0.172-0.259,0.367-0.382,0.582-0.367c0.216,0.013,0.345,0.123,0.388,0.324c0.045,0.203-0.004,0.449-0.151,0.735
				c-1.385,2.193-3.215,4.125-5.495,5.799c-2.277,1.671-4.397,2.508-6.357,2.508c-1.357,0-2.445-0.41-3.269-1.231
				c-0.819-0.824-1.231-1.883-1.231-3.181c0-1.385,0.49-2.914,1.471-4.587c1.184-1.99,2.754-3.741,4.716-5.255
				c1.962-1.514,3.778-2.273,5.451-2.273C209.477,141.655,210.286,141.88,210.92,142.326z"/>
			<path fill="#BA9262" d="M250.64,151.564c0.781-1.501,1.559-2.892,2.338-4.175c0.778-1.283,1.169-2.228,1.169-2.834
				c0-0.462-0.302-0.692-0.91-0.692c-0.979,0-2.09,0.475-3.33,1.428c-1.242,0.951-2.295,2.09-3.159,3.418l-4.11,8.479
				c-0.231,0.52-0.649,0.779-1.253,0.779h-1.516c-0.548,0-0.705-0.259-0.477-0.779l5.885-12.201
				c2.163-4.528,5.018-8.307,8.568-11.334c-0.953-0.203-2.396-0.535-4.328-0.996c-1.932-0.461-3.431-0.813-4.501-1.059
				c-1.065-0.246-2.264-0.477-3.588-0.692c-1.328-0.216-2.439-0.326-3.334-0.326c-2.594,0-4.945,0.375-7.052,1.126
				c-2.105,0.75-3.8,1.744-5.083,2.984c-1.283,1.242-2.286,2.581-3.008,4.024c-0.72,1.443-1.139,2.929-1.253,4.458
				c0,0.951,0.144,1.744,0.433,2.378c0.287,0.634,0.598,1.052,0.929,1.255c0.33,0.203,0.641,0.403,0.929,0.606
				c0.289,0.201,0.433,0.418,0.433,0.649c0,0.375-0.239,0.692-0.714,0.951c-0.477,0.259-1.018,0.39-1.622,0.39
				c-1.384,0-2.525-0.492-3.42-1.471c-0.893-0.981-1.341-2.251-1.341-3.808c0-1.846,0.621-3.728,1.861-5.646
				c1.24-1.919,2.885-3.649,4.932-5.193c2.049-1.542,4.55-2.797,7.507-3.763c2.957-0.966,6.021-1.449,9.193-1.449
				c1.298,0,2.726,0.179,4.283,0.541c1.559,0.36,3.534,0.923,5.928,1.686c2.396,0.763,4.125,1.292,5.193,1.578
				c3.202-2.191,6.519-3.302,9.95-3.33h0.347c1.182,0,2.363,0.274,3.548,0.822c1.182,0.548,1.775,1.412,1.775,2.594
				c0,0.895-0.615,1.682-1.842,2.359c-1.225,0.677-2.89,1.016-4.994,1.016h-0.043c-2.107,0-5.048-0.388-8.828-1.167
				c-2.797,2.45-5.148,5.68-7.052,9.691l-0.345,0.692c2.105-1.99,4.095-2.987,5.969-2.987c0.895,0,1.587,0.224,2.079,0.671
				c0.49,0.448,0.733,1.031,0.733,1.753c0,1.124-0.776,2.942-2.335,5.452c-1.557,2.508-2.335,4.123-2.335,4.846
				c0,0.72,0.345,1.08,1.039,1.08c0.604,0,1.514-0.641,2.726-1.926c1.21-1.283,2.394-2.702,3.545-4.261
				c0.173-0.259,0.369-0.382,0.587-0.367c0.216,0.013,0.352,0.123,0.41,0.324c0.056,0.203,0.013,0.449-0.129,0.735
				c-0.144,0.231-0.347,0.526-0.606,0.888c-0.261,0.36-0.778,1.016-1.559,1.967c-0.776,0.953-1.52,1.79-2.226,2.51
				c-0.707,0.72-1.522,1.378-2.445,1.969c-0.923,0.591-1.729,0.886-2.424,0.886c-1.527,0-2.292-0.85-2.292-2.553
				C249.473,154.392,249.863,153.063,250.64,151.564z M243.415,137.612c-0.837,1.022-1.535,2.025-2.098,3.006
				c-0.563,0.981-1.339,2.394-2.335,4.24c-0.996,1.846-1.768,3.246-2.316,4.197c-2.536,4.326-5.292,7.845-8.264,10.556
				c-2.075,1.876-4.153,2.972-6.228,3.289c-1.07,0.144-1.587,0.028-1.557-0.345c0.026-0.261,0.358-0.578,0.994-0.953
				c0.634-0.345,1.246-0.763,1.839-1.255c0.591-0.49,1.188-1.08,1.794-1.773s1.132-1.305,1.578-1.839
				c0.449-0.533,0.981-1.277,1.6-2.228c0.621-0.951,1.076-1.665,1.363-2.141c0.289-0.477,0.766-1.262,1.428-2.359
				c0.664-1.096,1.098-1.816,1.298-2.163c0.953-1.529,1.919-2.985,2.898-4.369c0.983-1.385,2.064-2.769,3.248-4.153
				c1.182-1.384,2.372-2.488,3.567-3.31c1.199-0.822,2.286-1.234,3.267-1.234c0.49,0,0.736,0.101,0.736,0.304
				c0,0.144-0.129,0.302-0.388,0.477C245.059,135.902,244.252,136.588,243.415,137.612z M267.557,132.767
				c0.462-0.332,0.692-0.701,0.692-1.104c0-0.865-1.022-1.341-3.071-1.428c-2.279,0-4.529,0.72-6.75,2.163
				c2.452,0.578,4.716,0.865,6.793,0.865C266.317,133.263,267.096,133.097,267.557,132.767z"/>
			<path fill="#BA9262" d="M269.187,148.817c0.304,0.244,0.282,0.597-0.065,1.059c-0.144,0.231-0.339,0.526-0.584,0.888
				c-0.246,0.36-0.742,1.016-1.492,1.967c-0.751,0.953-1.471,1.79-2.163,2.51s-1.486,1.378-2.379,1.969
				c-0.895,0.591-1.688,0.886-2.381,0.886c-1.24,0-2.012-0.533-2.316-1.6c-0.302-1.067-0.151-2.178,0.455-3.332l5.018-10.427
				c0.233-0.52,0.651-0.779,1.255-0.779h1.428c0.548,0,0.707,0.259,0.477,0.779l-4.889,10.124c-0.317,0.748-0.382,1.305-0.194,1.665
				c0.185,0.36,0.539,0.541,1.059,0.541c1.011,0,2.957-1.962,5.842-5.885C268.575,148.694,268.883,148.571,269.187,148.817z"/>
			<path fill="#BA9262" d="M268.454,150.288c-0.246,0.015-0.39-0.08-0.433-0.282c-0.043-0.201,0.037-0.475,0.237-0.822l3.722-5.234
				c0.172-1.876,0.505-3.159,0.996-3.851c0.576-0.837,1.225-1.197,1.945-1.08c0.634,0.086,0.837,0.518,0.606,1.296
				c-0.086,0.289-0.261,0.606-0.52,0.953c-0.028,0.058-0.475,0.692-1.341,1.904v0.216c-0.028,0.664,0.211,1.926,0.716,3.785
				c0.505,1.861,0.711,3.196,0.625,4.002c-0.056,0.634-0.289,1.341-0.692,2.12c-0.403,0.778-0.865,1.415-1.385,1.904
				c2.049-1.413,3.953-3.418,5.712-6.015c0.173-0.259,0.367-0.388,0.582-0.388c0.216,0,0.354,0.101,0.412,0.302
				c0.058,0.203,0.015,0.461-0.129,0.778c-1.788,2.799-3.772,4.904-5.95,6.316c-2.178,1.415-4.406,2.12-6.685,2.12h-0.345
				c-0.692,0-1.311-0.157-1.859-0.474c-0.55-0.317-0.91-0.779-1.082-1.385c-0.289-1.039-0.03-1.356,0.778-0.953
				c0.403,0.203,0.981,0.304,1.732,0.304c1.471,0,2.803-0.643,4-1.926c1.197-1.283,1.824-2.819,1.883-4.608
				c0.028-0.403,0.021-1.016-0.022-1.837c-0.043-0.822-0.065-1.406-0.065-1.753l-2.769,4.197
				C268.922,150.137,268.698,150.273,268.454,150.288z"/>
			<path fill="#BA9262" d="M284.569,143.473l-4.455,9.389c-0.317,0.748-0.388,1.305-0.216,1.665c0.172,0.36,0.518,0.541,1.039,0.541
				c0.604,0,1.535-0.621,2.791-1.861c1.253-1.24,2.415-2.581,3.48-4.024c0.173-0.259,0.369-0.388,0.585-0.388
				c0.218,0,0.354,0.101,0.412,0.302c0.056,0.203,0.013,0.461-0.129,0.778c-0.147,0.231-0.354,0.526-0.63,0.888
				c-0.272,0.36-0.807,1.016-1.6,1.967c-0.794,0.953-1.557,1.79-2.292,2.51c-0.735,0.72-1.563,1.378-2.486,1.969
				c-0.923,0.591-1.732,0.886-2.424,0.886c-1.268,0-2.07-0.541-2.402-1.622c-0.332-1.083-0.179-2.185,0.455-3.31l4.587-9.691h-1.385
				c-0.52,0-0.707-0.216-0.563-0.649c0.261-0.489,0.662-0.778,1.212-0.865h1.471l2.292-4.802c0.231-0.52,0.649-0.778,1.255-0.778
				h1.557c0.548,0,0.707,0.259,0.477,0.778l-2.292,4.802h2.726c0.548,0,0.763,0.216,0.647,0.649c-0.229,0.49-0.634,0.778-1.21,0.865
				H284.569z"/>
			<path fill="#BA9262" d="M296.081,148.925c0.317,0.231,0.345,0.548,0.086,0.951c-0.144,0.231-0.339,0.526-0.585,0.888
				c-0.244,0.36-0.744,1.016-1.492,1.967c-0.751,0.953-1.471,1.79-2.163,2.51c-0.692,0.72-1.486,1.378-2.381,1.969
				c-0.893,0.591-1.686,0.886-2.379,0.886c-1.24,0-2.025-0.541-2.357-1.622c-0.332-1.083-0.168-2.185,0.496-3.31l10.989-22.757
				c0.231-0.52,0.649-0.778,1.255-0.778h1.428c0.548,0,0.707,0.259,0.475,0.778l-10.858,22.455c-0.289,0.634-0.36,1.16-0.218,1.579
				c0.147,0.418,0.462,0.628,0.953,0.628c1.095,0,3.086-1.962,5.969-5.885C295.503,148.781,295.762,148.694,296.081,148.925z"/>
			<path fill="#BA9262" d="M307.894,142.326c0.634,0.449,0.951,1.076,0.951,1.883c0,1.154-0.714,2.329-2.141,3.526
				c-1.428,1.197-3.368,1.796-5.818,1.796c-0.52,0-0.966-0.123-1.341-0.369c-0.375-0.244-0.563-0.511-0.563-0.8
				c0-0.203,0.129-0.302,0.39-0.302c0.172,0,0.423,0.022,0.755,0.065c0.332,0.043,0.586,0.065,0.759,0.065
				c1.585,0,2.898-0.492,3.936-1.471c1.039-0.981,1.559-1.818,1.559-2.51c0-0.778-0.448-1.169-1.341-1.169
				c-1.501,0-3.131,1.126-4.891,3.375c-1.76,2.251-2.639,4.27-2.639,6.058c0,0.837,0.239,1.479,0.716,1.926
				c0.475,0.446,1.117,0.671,1.924,0.671c1.242,0,2.713-0.492,4.414-1.471c1.702-0.981,3.302-2.452,4.802-4.414
				c0.173-0.259,0.367-0.382,0.582-0.367c0.218,0.013,0.347,0.123,0.39,0.324c0.045,0.203-0.007,0.449-0.151,0.735
				c-1.384,2.193-3.215,4.125-5.495,5.799c-2.279,1.671-4.397,2.508-6.359,2.508c-1.357,0-2.446-0.41-3.267-1.231
				c-0.822-0.824-1.232-1.883-1.232-3.181c0-1.385,0.49-2.914,1.471-4.587c1.182-1.99,2.754-3.741,4.714-5.255
				c1.962-1.514,3.778-2.273,5.452-2.273C306.451,141.655,307.26,141.88,307.894,142.326z"/>
		</g>
	</g>
	<g>
		<g>
			<path fill="#BA9262" d="M117.245,363.691h-4.205l-12.408-17.757v17.757h-4.171v-24.955h4.207l12.44,17.752v-17.752h4.136V363.691
				z"/>
			<path fill="#BA9262" d="M134.859,342.907v6.236h10.375v4.136h-10.375v6.241h12.477v4.171h-16.648v-24.955h16.648v4.171H134.859z"
				/>
			<path fill="#BA9262" d="M186.849,363.691h-4.171v-15.328l-7.166,15.328h-3.92l-7.63-15.652v15.652h-4.17v-24.989h4.242
				l9.482,19.425l9.092-19.425h4.242V363.691z"/>
			<path fill="#BA9262" d="M211.448,364.01c-16.471,0-16.437-25.597,0-25.597C227.809,338.413,227.846,364.01,211.448,364.01z
				 M211.448,342.48c-10.767,0-10.804,17.502,0,17.502C222.248,359.982,222.248,342.48,211.448,342.48z"/>
			<path fill="#BA9262" d="M282.087,363.691h-4.171v-15.328l-7.166,15.328h-3.921l-7.629-15.652v15.652h-4.171v-24.989h4.242
				l9.482,19.425l9.092-19.425h4.242V363.691z"/>
			<path fill="#BA9262" d="M299.699,342.907v6.236h10.375v4.136h-10.375v6.241h12.477v4.171h-16.648v-24.955h16.648v4.171H299.699z"
				/>
			<path fill="#BA9262" d="M348.492,342.549v17.325h2.924v3.817h-10.019v-3.817h2.924v-17.325h-2.782v-3.812h9.732v3.812H348.492z"
				/>
			<path fill="#BA9262" d="M390.372,363.691h-4.171v-15.328l-7.166,15.328h-3.92l-7.629-15.652v15.652h-4.171v-24.989h4.242
				l9.482,19.425l9.092-19.425h4.242V363.691z"/>
			<path fill="#BA9262" d="M420.733,346.042c0,7.31-8.341,7.31-8.341,7.31h-4.171v10.407h-4.17v-25.024h8.341
				C412.392,338.736,420.733,338.736,420.733,346.042z M416.563,346.042c0-3.135-4.171-3.135-4.171-3.135h-4.171v6.275h4.171
				C412.392,349.182,416.563,349.182,416.563,346.042z"/>
			<path fill="#BA9262" d="M431.947,355.703v-16.967h4.17v16.967c0.216,2.89,2.532,4.17,5.171,4.17c2.601,0,5.204-1.389,5.204-4.17
				v-16.967h4.173v16.967c0,5.313-4.065,8.341-9.376,8.341C436.154,364.045,431.947,360.84,431.947,355.703z"/>
			<path fill="#BA9262" d="M485.063,363.691h-4.207l-12.404-17.757v17.757h-4.171v-24.955h4.205l12.443,17.752v-17.752h4.134
				V363.691z"/>
			<path fill="#BA9262" d="M502.914,342.907v6.236h10.375v4.136h-10.375v6.241h12.477v4.171h-16.648v-24.955h16.648v4.171H502.914z"
				/>
			<path fill="#BA9262" d="M559.653,359.52v4.171h-13.405v-24.955h4.171v20.784H559.653z"/>
			<path fill="#BA9262" d="M581.787,360.801h-8.768l-1.069,2.89h-4.492l9.946-25.666l9.982,25.666h-4.492L581.787,360.801z
				 M574.373,357.2h6.06l-3.03-8.66L574.373,357.2z"/>
			<path fill="#BA9262" d="M614.44,357.45l2.922,2.959c-2.245,2.247-5.348,3.636-8.805,3.636c-6.881,0-12.514-4.99-12.514-12.831
				c0-7.522,5.206-12.835,12.514-12.835c3.457,0,6.56,1.393,8.805,3.674l-2.922,2.92c-1.499-1.497-3.601-2.424-5.883-2.424
				c-5.135,0-8.272,3.636-8.272,8.665c0,5.348,3.672,8.66,8.272,8.66C610.839,359.874,612.941,358.947,614.44,357.45z"/>
			<path fill="#BA9262" d="M633.115,342.907v6.236h10.375v4.136h-10.375v6.241h12.477v4.171h-16.648v-24.955h16.648v4.171H633.115z"
				/>
			<path fill="#BA9262" d="M656.832,356.773h4.173c0.071,2.07,1.783,3.101,3.636,3.101c1.926,0,3.636-1.212,3.636-3.17
				c0-2.105-1.96-3.425-3.636-3.493c-0.213,0-1.926,0-3.744-0.819c-2.603-1.212-4.065-3.424-4.065-6.383
				c0-4.74,3.78-7.629,7.808-7.629c4.315,0,7.627,2.924,7.701,7.168h-4.136c-0.071-2.07-1.676-2.998-3.565-2.998
				c-1.96,0-3.636,1.143-3.636,3.459c0,2.066,1.783,3.174,3.636,3.174c0.179,0,1.926,0,3.707,0.819
				c2.639,1.212,4.065,3.744,4.065,6.702c0,4.774-3.744,7.341-7.772,7.341C660.328,363.941,656.905,361.444,656.832,356.773z"/>
			<path fill="#BA9262" d="M684.103,356.773h4.173c0.071,2.07,1.783,3.101,3.636,3.101c1.926,0,3.636-1.212,3.636-3.17
				c0-2.105-1.96-3.425-3.636-3.493c-0.214,0-1.926,0-3.744-0.819c-2.603-1.212-4.065-3.424-4.065-6.383
				c0-4.74,3.78-7.629,7.809-7.629c4.315,0,7.627,2.924,7.701,7.168h-4.136c-0.071-2.07-1.676-2.998-3.565-2.998
				c-1.96,0-3.636,1.143-3.636,3.459c0,2.066,1.783,3.174,3.636,3.174c0.179,0,1.926,0,3.707,0.819
				c2.64,1.212,4.065,3.744,4.065,6.702c0,4.774-3.744,7.341-7.772,7.341C687.598,363.941,684.176,361.444,684.103,356.773z"/>
			<path fill="#BA9262" d="M712.482,338.736h4.171v24.955h-4.171V338.736z"/>
			<path fill="#BA9262" d="M742.129,342.549h-5.24v21.142h-4.136v-21.142h-5.24v-3.812h14.617V342.549z"/>
		</g>
	</g>
	<rect x="507.613" y="184.251" fill="#FFFFFF" width="330.671" height="1.63"/>
	<rect x="507.613" y="306.816" fill="#FFFFFF" width="330.671" height="1.63"/>
	<rect x="512.103" y="101.014" fill="#0956A4" width="227.723" height="1.632"/>
	<rect x="91.553" y="101.014" fill="#0956A4" width="235.497" height="1.632"/>
	<g>
		<path fill="#BA9262" d="M739.203,208.46h5.764c1.729,0,2.847,1.074,2.847,2.732v69.453c0,1.661-1.117,2.732-2.847,2.732h-4.58
			h-1.184H736c-2.706,0-3.996-1.973-3.996-13.18v-17.677c0-8.201-3.67-13.704-10.938-16.432c8.393-2.04,12.087-6.776,12.087-15.024
			c0-11.602-7.56-16.553-25.278-16.553h-28.034v3.949h5.534c1.926,0,3.077,1.065,3.077,2.846v69.223
			c0,1.704-1.145,2.849-2.849,2.849h-5.762v3.949h26.335v-3.949h-5.764c-1.701,0-2.844-1.145-2.844-2.849v-42.912h9.504
			c10.793,0,15.82,4.736,15.82,14.903v17.677c0,7.354,1.216,17.129,11.731,17.129h4.58h1.184h25.151v-3.949h-5.762
			c-1.729,0-2.847-1.072-2.847-2.732v-69.453c0-1.658,1.117-2.732,2.847-2.732h5.762v-3.949h-26.335V208.46z M697.568,208.46h10.308
			c13.174,0,15.818,4.824,15.818,12.605c0,7.783-2.644,12.605-15.818,12.605h-10.308V208.46z"/>
		<path fill="#BA9262" d="M554.876,231.096c-11.608-3.166-15.358-4.675-15.358-10.457c0-8.151,7.765-13.844,18.886-13.844
			c18.589,0,20.033,15.423,20.033,20.15v7.929h3.942v-30.531h-3.942v4.035c0,1.238-0.582,1.238-0.895,1.238
			c-0.475,0-1.065-0.138-2.185-1.154c-3.399-2.914-7.776-5.609-16.726-5.609c-14.798,0-23.631,7.336-23.631,19.622
			c0,13.603,10.726,16.35,20.189,18.774c13.264,3.401,25.537,8.602,25.537,23.514c0,12.145-8.378,19.69-21.866,19.69
			c-13.487,0-21.867-7.854-21.867-20.493c0-7.037,2.693-13.241,7.386-17.019l1.052-0.847l-2.355-3.142l-1.126,0.886
			c-5.739,4.518-8.9,11.664-8.9,20.122c0,7.306,2.31,13.437,6.679,17.73c4.539,4.46,11.235,6.819,19.361,6.819
			c8.233,0,14.698-2.314,19.216-6.877c4.602-4.649,6.935-11.403,6.935-20.079C585.244,241.044,572.083,235.808,554.876,231.096z"/>
		<path fill="#BA9262" d="M637.603,208.291c-3.895-2.497-9.751-3.659-18.434-3.659h-29.132v3.942h5.751
			c2.26,0,2.844,0.561,2.844,2.728v69.223c0,2.312-0.533,2.842-2.844,2.842h-5.751v3.942h26.289v-3.942h-5.753
			c-1.753,0-2.842-1.089-2.842-2.842v-42.84h11.438c8.682,0,14.539-1.162,18.434-3.66c4.115-2.639,6.116-6.847,6.116-12.868
			C643.719,215.138,641.717,210.931,637.603,208.291z M619.169,233.742h-11.438v-25.168h11.438c11.153,0,15.106,3.293,15.106,12.583
			C634.275,230.449,630.323,233.742,619.169,233.742z"/>
		<path fill="#BA9262" d="M647.029,208.574h5.753c1.727,0,2.842,1.072,2.842,2.728v69.337c0,1.658-1.115,2.728-2.842,2.728h-5.753
			v3.942h26.289v-3.942h-5.753c-1.725,0-2.842-1.07-2.842-2.728v-69.337c0-1.656,1.117-2.728,2.842-2.728h5.753v-3.942h-26.289
			V208.574z"/>
		<path fill="#BA9262" d="M772.589,204.632v30.531h3.942v-17.327c0-5.281,3.782-9.262,8.8-9.262h10.176v71.836
			c0,1.796-1.16,2.957-2.954,2.957h-9.079v3.942h33.166v-3.942h-9.074c-1.796,0-2.959-1.16-2.959-2.957v-71.836h9.948
			c5.15,0,9.033,3.884,9.033,9.031v17.558h3.942v-30.531H772.589z"/>
	</g>
	<g>
		<path fill="#BA9262" d="M54.783,270.598v-17.987c0-8.341-3.735-13.939-11.127-16.717c8.537-2.072,12.296-6.892,12.296-15.283
			c0-11.802-7.69-16.84-25.716-16.84H1.716v4.018h5.628c1.96,0,3.131,1.082,3.131,2.896v70.424c0,1.732-1.167,2.896-2.898,2.896
			H1.716v4.018h26.79v-4.018h-5.863c-1.732,0-2.896-1.164-2.896-2.896v-43.655h9.672c10.979,0,16.092,4.815,16.092,15.158v17.987
			c0,7.479,1.238,17.424,11.936,17.424h5.863v-4.018h-4.462C56.094,284.005,54.783,282,54.783,270.598z M19.747,207.789h10.489
			c13.4,0,16.094,4.906,16.094,12.822c0,7.916-2.693,12.824-16.094,12.824H19.747V207.789z"/>
		<path fill="#BA9262" d="M103.698,202.253c-11.996,0-21.847,3.994-28.485,11.55c-6.687,7.612-10.079,18.429-10.079,32.153
			c0,13.67,3.392,24.454,10.079,32.049c6.642,7.548,16.493,11.535,28.485,11.535c11.996,0,21.847-3.994,28.487-11.55
			c6.687-7.61,10.077-18.429,10.077-32.153c0-13.67-3.39-24.454-10.079-32.051C125.541,206.241,115.69,202.253,103.698,202.253z
			 M103.698,206.271c17.851,0,28.94,15.162,28.94,39.567c0,24.478-11.089,39.686-28.94,39.686s-28.94-15.16-28.94-39.567
			C74.758,221.476,85.846,206.271,103.698,206.271z"/>
		<path fill="#BA9262" d="M175.303,281.461v-22.043l17.89-46.347c1.402-3.604,3.8-5.281,7.547-5.281h2.944v-4.018H182.5v4.018h4.343
			c0.988,0,1.792,0.377,2.264,1.061c0.554,0.804,0.608,1.971,0.147,3.19l-15.833,40.878l-19.742-43.194
			c-0.403-0.848-0.395-1.389-0.263-1.598c0.131-0.207,0.543-0.336,1.078-0.336h7.498v-4.018h-26.441v4.018h3.759
			c2.314,0,3.834,0.959,4.777,3.017l21.946,48.421v22.233c0,1.402-1.195,2.545-2.663,2.545h-6.096v4.018h26.79v-4.018h-6.094
			C176.5,284.005,175.303,282.862,175.303,281.461z"/>
		<path fill="#BA9262" d="M255.662,281.711l-25.899-77.939h-19.62v4.018h9.365c0.457,0,1.283,0.076,1.674,0.584
			c0.33,0.427,0.364,1.201,0.108,2.157l-19.268,68.196c-0.986,3.405-3.112,5.279-5.988,5.279h-4.462v4.018h21.537v-4.018h-4.345
			c-1.029,0-1.928-0.412-2.467-1.13c-0.608-0.811-0.74-1.96-0.364-3.248l5.311-18.817h27.793l7.159,21.591
			c0.149,0.423,0.132,0.768-0.052,1.026c-0.255,0.362-0.826,0.578-1.525,0.578h-7.381v4.018h26.79v-4.018h-4.46
			C257.985,284.005,256.167,283.302,255.662,281.711z M212.403,256.793l11.647-40.708l13.568,40.708H212.403z"/>
		<path fill="#BA9262" d="M308.381,272.116c0,6.888-4.902,11.889-11.656,11.889h-18.779v-73.204c0-1.887,1.126-3.012,3.013-3.012
			h9.249v-4.018h-30.294v4.018h5.861c1.814,0,2.898,1.126,2.898,3.012v70.191c0,1.887-1.085,3.012-2.898,3.012h-5.861v4.018h52.484
			v-38.469h-4.018V272.116z"/>
	</g>
	<g>
		<g>
			<rect x="357.592" y="118.349" fill="#BA9262" width="127.167" height="3.787"/>
			<rect x="356.962" y="149.273" fill="#BA9262" width="128.429" height="3.787"/>
			<polygon fill="#BA9262" points="360.167,140.188 360.167,142.148 365.314,142.148 365.314,140.188 363.811,140.188 
				363.811,131.288 365.239,131.288 365.239,129.328 360.24,129.328 360.24,131.288 361.668,131.288 361.668,140.188 			"/>
			<polygon fill="#BA9262" points="373.246,129.328 371.085,129.328 371.085,142.148 373.228,142.148 373.228,133.026 
				379.601,142.148 381.762,142.148 381.762,129.328 379.637,129.328 379.637,138.448 			"/>
			<path fill="#BA9262" d="M398.323,129.328v12.82h2.144c3.185,0,7.489-0.936,7.489-6.411c0-5.695-4.378-6.409-7.489-6.409H398.323z
				 M405.795,135.737c0,5.055-5.329,4.324-5.329,4.324v-8.645C400.467,131.415,405.795,130.609,405.795,135.737z"/>
			<polygon fill="#BA9262" points="422.668,131.47 422.668,129.328 414.115,129.328 414.115,142.148 422.668,142.148 
				422.668,140.005 416.256,140.005 416.256,136.8 421.585,136.8 421.585,134.676 416.256,134.676 416.256,131.47 			"/>
			<polygon fill="#BA9262" points="437.103,131.47 437.103,129.328 428.55,129.328 428.55,142.148 430.692,142.148 430.692,136.8 
				436.02,136.8 436.02,134.676 430.692,134.676 430.692,131.47 			"/>
			<polygon fill="#BA9262" points="451.39,131.47 451.39,129.328 442.839,129.328 442.839,142.148 451.39,142.148 451.39,140.005 
				444.978,140.005 444.978,136.8 450.309,136.8 450.309,134.676 444.978,134.676 444.978,131.47 			"/>
			<polygon fill="#BA9262" points="459.433,129.328 457.272,129.328 457.272,142.148 459.414,142.148 459.414,133.026 
				465.788,142.148 467.947,142.148 467.947,129.328 465.825,129.328 465.825,138.448 			"/>
			<path fill="#BA9262" d="M478.08,140.188c-0.953,0-1.831-0.533-1.868-1.594h-2.142c0.037,2.398,1.792,3.681,4.009,3.735
				c2.068,0,3.992-1.337,3.992-3.791c0-1.518-0.733-2.801-2.087-3.422c-0.917-0.423-1.814-0.423-1.904-0.423
				c-0.953,0-1.868-0.567-1.868-1.63c0-1.188,0.86-1.775,1.868-1.775c0.972,0,1.794,0.475,1.831,1.538h2.124
				c-0.037-2.18-1.738-3.681-3.955-3.681c-2.07,0-4.009,1.484-4.009,3.918c0,1.52,0.748,2.655,2.088,3.278
				c0.931,0.42,1.813,0.42,1.921,0.42c0.863,0.039,1.867,0.699,1.867,1.777C479.948,139.548,479.068,140.188,478.08,140.188z"/>
			<path fill="#BA9262" d="M356.995,115.447h53.034v-0.015l22.296,0.013v0.002h4.908l2.855,0.002v-0.002h45.266v-12.553
				c0.028-0.955,0.192-11.901-6.135-20.825c-6.426-9.062-18.537-15.578-19.044-15.85l-7.86-4.205h-19.99v29.257l-9.944-30.978
				c-0.013-0.198-0.041-0.388-0.039-0.597c0.021-3.03,2.972-5.613,6.191-5.613c2.549,0,2.372,3.953,5.751,4.621
				c3.377,0.668,5.574-4.207,5.574-4.207s-2.249,1.147-3.31,0c-0.832-0.893,0.343-3.368-2.176-4.802
				c-2.519-1.434-6.444-0.17-9.154,2.189c-1.259,1.096-2.178,2.355-2.78,3.709c0.904-3.433,2.706-6.909,2.644-10.869
				c-0.082-5.268-3.908-9.221-3.908-9.221s-3.826,3.953-3.91,9.221c-0.065,3.959,1.743,7.44,2.644,10.871
				c-0.6-1.357-1.52-2.616-2.777-3.711c-2.717-2.359-6.638-3.623-9.156-2.189c-2.516,1.434-1.343,3.91-2.172,4.802
				c-1.065,1.147-3.312,0-3.312,0s2.2,4.876,5.574,4.207c3.377-0.668,3.2-4.621,5.751-4.621c3.217,0,6.168,2.584,6.189,5.613
				c0.002,0.224-0.026,0.429-0.041,0.645l-9.937,30.924v-29.25h-20.075l-7.774,4.205c-0.513,0.272-12.622,6.789-19.044,15.848
				c-6.329,8.926-6.167,19.87-6.141,20.827V115.447z M425.95,104.121h-9.549c-1.861,0-3.375,1.512-3.375,3.377
				c0,1.231,0.666,2.297,1.65,2.887l-4.647-0.002h-0.317c0.11-0.069,0.214-0.14,0.317-0.22c0.802-0.617,1.326-1.576,1.326-2.665
				c0-0.725-0.231-1.389-0.617-1.939l10.442-32.492l10.433,32.498c-0.384,0.548-0.612,1.212-0.612,1.932
				c0,1.089,0.524,2.049,1.324,2.665c0.11,0.086,0.226,0.162,0.345,0.233h-0.345l-4.662-0.002c0.992-0.589,1.665-1.658,1.665-2.896
				C429.327,105.633,427.813,104.121,425.95,104.121z M480.308,102.763v1.402c-0.145-0.017-0.289-0.043-0.44-0.043h-9.547
				c-1.865,0-3.377,1.512-3.377,3.377c0,1.24,0.677,2.314,1.676,2.901h-5.022c0.998-0.587,1.673-1.661,1.673-2.901
				c0-1.865-1.51-3.377-3.377-3.377h-9.547c-1.865,0-3.377,1.512-3.377,3.377c0,1.24,0.677,2.314,1.675,2.901h-5.02
				c0.996-0.587,1.676-1.661,1.676-2.901c0-1.865-1.516-3.377-3.377-3.377h-6.551V67.064h0.617
				c12.857,12.469,13.226,33.678,13.226,33.678h12.119c0-1.919-0.108-3.763-0.291-5.54l5.628-1.143l-1.434,7.048h7.284l-1.393-6.843
				l6.396,1.3C480.388,99.621,480.31,102.711,480.308,102.763z M469.213,89.998h3.578v3.826h-3.578V89.998z M473.336,89.763
				l1.139-5.615c0.216,0.278,0.423,0.556,0.623,0.841c0.906,1.275,1.65,2.611,2.268,3.955L473.336,89.763z M467.483,82.716
				l1.393,6.845l-6.948-1.415v0.475c-2.665-11.265-8.419-18.692-10.979-21.556h0.101l6.745,3.61
				c0.104,0.054,9.478,5.107,15.507,12.042H467.483z M391.457,67.064c-2.577,2.86-8.361,10.265-11.034,21.53v-0.203l-6.743,1.372
				l1.432-7.05h-6.06c6.027-6.933,15.399-11.986,15.516-12.048l6.666-3.601H391.457z M373.136,93.824h-3.578v-3.826h3.578V93.824z
				 M368.072,83.902l1.149,5.659l-4.132-0.841c0.597-1.268,1.309-2.528,2.165-3.733C367.514,84.62,367.79,84.26,368.072,83.902z
				 M369.017,94.059l-1.434,7.05h7.283l-1.391-6.845l5.807,1.182c-0.166,1.682-0.265,3.422-0.265,5.234l12.184,0.062
				c0,0,0.371-21.209,13.226-33.678h0.554v37.057h-6.551c-1.863,0-3.375,1.512-3.375,3.377c0,1.24,0.677,2.314,1.676,2.901h-5.022
				c0.999-0.587,1.676-1.661,1.676-2.901c0-1.865-1.512-3.377-3.377-3.377h-9.547c-1.866,0-3.379,1.512-3.379,3.377
				c0,1.24,0.677,2.314,1.676,2.901h-5.022c0.998-0.587,1.676-1.661,1.676-2.901c0-1.865-1.512-3.377-3.375-3.377h-9.549
				c-0.151,0-0.295,0.026-0.442,0.045v-1.397c-0.002-0.058-0.084-3.278,0.839-7.464L369.017,94.059z"/>
			<polygon fill="#BA9262" points="414.667,101.887 427.681,101.896 421.177,81.636 			"/>
			<path fill="#BA9262" d="M485.535,264.774l0.002-108.453H357.18v0.88h-0.293v108.453c-0.028,0.959-0.19,11.906,6.137,20.827
				c6.422,9.061,18.533,15.576,19.042,15.848l39.209,20.98l38.784-20.978c0.511-0.274,12.622-6.789,19.046-15.848
				c2.004-2.825,3.356-5.85,4.268-8.701C485.645,271.267,485.554,265.462,485.535,264.774z M434.694,266.684
				c-0.293-0.108-1.328-0.647-1.369-0.843c-0.006-0.032,0.004-0.08,0.032-0.106c0.028-0.032,0.093-0.037,0.132-0.006
				c0.132,0.103,0.927,0.524,1.292,0.627c0.433,0.101,1.016,0.27,1.182,0.319c0.515,0.151,0.684,0.209,0.731,0.263
				c0.129,0.026,0.259,0.05,0.362,0.078c0.608,0.196,1.32,0.477,1.9,0.716c-0.455-0.328-0.897-0.675-1.294-1.072
				c-1.878-1.695-3.047-3.763-3.78-5.699c-0.088-0.069-0.211-0.199-0.442-0.451c-0.151-0.166-0.323-0.354-0.399-0.414
				c-0.149-0.123-0.509-0.259-0.802-0.369c-0.246-0.095-0.472-0.179-0.595-0.259c-0.03-0.017-0.043-0.054-0.039-0.091l-0.104-0.067
				l0.123,0.019c0.026-0.032,0.062-0.043,0.08-0.045c0.19,0.028,1.106,0.179,1.538,0.543c0.104,0.069,0.218,0.155,0.33,0.25
				c-0.448-1.393-0.681-2.668-0.798-3.619c-0.136-2.875-1.648-4.41-1.661-4.425l-0.077-0.076h0.013h-0.002l-0.024-0.026l0.017-0.028
				c0.022-0.037,0.061-0.061,0.106-0.061c0.265,0,1.727,1.594,1.93,4.583c0.265,1.85,1.001,4.958,2.978,7.677
				c-0.103-0.513-0.175-1.057-0.183-1.43c-0.004-0.66,0.25-2.133,1.236-2.984c0.511-0.427,1.143-0.641,1.876-0.641
				c0.136,0,0.248,0.007,0.324,0.011l0.015,0.002c0.041,0.002,0.065,0.004,0.086,0.004c0.052,0,0.097,0.039,0.104,0.088
				c0.004,0.026-0.004,0.054-0.019,0.076c-0.015,0.019-0.037,0.032-0.062,0.034c-0.011,0.002-0.03,0.004-0.058,0.004l-0.149-0.002
				c-0.781,0-1.419,0.226-1.893,0.677c-0.964,0.919-0.994,2.547-0.994,2.728c0.013,0.435,0.17,1.044,0.308,1.578
				c0.097,0.371,0.162,0.638,0.19,0.83c0.362,0.41,0.755,0.804,1.186,1.177c1.246,1.227,2.916,2.025,4.529,2.799
				c1.061,0.507,2.133,1.029,3.099,1.671c-0.341-0.418-0.688-0.867-0.994-1.311c-0.285-0.418-0.535-0.837-0.748-1.253
				c-0.142-0.095-0.382-0.373-0.873-1.007c-0.093-0.116-0.172-0.218-0.209-0.259c-0.16-0.257-0.863-0.955-1.037-1.121
				c-0.037-0.034-0.041-0.093-0.009-0.134c0.03-0.041,0.095-0.054,0.134-0.022c0.205,0.125,1.009,0.798,1.175,1.07
				c0.03,0.037,0.097,0.108,0.177,0.196l0.091,0.099c0.03,0.034,0.054,0.058,0.08,0.091c-0.3-0.839-0.44-1.645-0.401-2.381
				c0.097-1.779,0.613-3.095,0.781-3.528l0.011-0.028c0.015-0.039,0.028-0.069,0.037-0.091c0.013-0.039,0.052-0.065,0.097-0.065
				c0.032,0,0.062,0.015,0.08,0.039c0.034,0.047,0.03,0.062-0.045,0.315c-0.153,0.513-0.561,1.868-0.554,3.364
				c-0.002,0.576,0.112,1.145,0.282,1.684c0.011,0.034,0.019,0.071,0.032,0.106l0.002,0.009c0.013,0.043,0.024,0.086,0.039,0.129
				c0.369,1.046,0.942,1.939,1.341,2.426c0.386,0.483,0.813,1.041,1.186,1.544c0.006,0.032,0.013,0.065,0.017,0.097
				c0,0,0.002,0.017,0.004,0.028c0.004,0.024,0.009,0.045,0.013,0.071c0.002,0.009,0.002,0.017,0.006,0.026
				c0,0.009,0,0.017,0.002,0.028c0.006,0.024,0.009,0.045,0.013,0.071c0.002,0.009,0.002,0.017,0.004,0.024
				c0.007,0.032,0.011,0.067,0.017,0.099c0.015,0.088,0.03,0.177,0.045,0.265c0.002,0.015,0.004,0.03,0.007,0.045l0.004,0.019
				c0.002,0.019,0.007,0.039,0.011,0.06v0.002c0,0.009,0.002,0.015,0.002,0.022c0.004,0.019,0.009,0.039,0.011,0.058l0.004,0.022
				c0,0,0.002,0.013,0.002,0.019c0.004,0.019,0.009,0.041,0.011,0.06c0.002,0.007,0.002,0.013,0.004,0.019
				c0.004,0.026,0.009,0.052,0.013,0.078c0.034,0.198,0.069,0.397,0.101,0.595c0.004,0.024,0.009,0.05,0.013,0.076
				c0.004,0.017,0.006,0.034,0.009,0.052c0,0,0.002,0.015,0.004,0.024c-1.098-1.173-2.657-1.967-4.287-2.788l0.009-0.045
				l-0.019,0.039c-0.477-0.237-0.953-0.483-1.425-0.737c-0.31-0.024-1.104-0.345-2.023-0.716c-0.66-0.269-1.408-0.572-1.96-0.748
				l-0.028-0.007c-0.25-0.062-0.621-0.153-1.065-0.153c-0.248,0-0.492,0.028-0.723,0.084c-0.455,0.123-0.938,0.343-1.449,0.578
				c-0.345,0.155-0.727,0.332-1.095,0.47c-0.923,0.459-1.839,0.556-2.445,0.556c-0.449,0-0.945-0.06-1.102-0.136
				c-0.026-0.011-0.045-0.024-0.056-0.041l-0.007-0.013c-0.011-0.024-0.013-0.045-0.009-0.067c0.004-0.011,0.007-0.019,0.013-0.028
				l0.006-0.011c0.039-0.045,0.093-0.05,0.132-0.024l0.009,0.004c0.073,0.024,0.369,0.077,0.806,0.077
				c0.625,0,1.57-0.108,2.519-0.625c0.358-0.151,0.707-0.323,1.014-0.479c0.505-0.252,1.029-0.513,1.557-0.673
				c0.095-0.026,0.194-0.041,0.291-0.058C435.067,266.835,434.847,266.747,434.694,266.684z M453.481,258.455
				c-0.72-2.13-1.952-3.856-2.417-4.507c-0.231-0.326-0.246-0.345-0.22-0.423c0.011-0.039,0.043-0.071,0.082-0.084
				c0.013-0.004,0.026-0.006,0.043-0.006c0.039,0,0.076,0.017,0.101,0.049c0.024,0.032,0.069,0.084,0.127,0.155
				c0.453,0.535,1.82,2.157,2.814,4.626c0.477,1.186,0.606,2.476,0.571,3.692c0.047-0.103,0.086-0.202,0.136-0.313l0.052-0.116
				c0.078-0.177,0.144-0.33,0.179-0.42c0.095-0.447,0.908-1.786,1.145-2.07c0.043-0.047,0.119-0.058,0.17-0.024
				c0.056,0.037,0.073,0.108,0.041,0.166c-0.168,0.321-0.83,1.658-0.927,2.079c-0.034,0.091-0.088,0.246-0.155,0.44l-0.013,0.039
				c-0.401,1.165-0.606,1.68-0.768,1.876c-0.123,0.833-0.293,1.579-0.451,2.139c-0.216,0.77-0.507,1.633-0.815,2.448
				c1.074-1.415,2.383-2.7,3.672-3.964c1.924-1.883,3.912-3.83,5.083-6.17c0.435-0.744,0.806-1.501,1.124-2.264
				c-0.054-0.289-0.091-0.705-0.134-1.274l-0.002-0.015c-0.065-0.828-0.136-1.764-0.332-2.394c-0.088-0.259-0.916-2.566-2.743-3.407
				c-0.464-0.211-0.966-0.319-1.497-0.319c-0.766,0-1.402,0.224-1.671,0.319l-0.015,0.006c-0.071,0.024-0.119,0.041-0.147,0.045
				c-0.067,0.017-0.134-0.034-0.149-0.099c-0.013-0.071,0.03-0.138,0.097-0.153c0.013-0.002,0.043-0.015,0.076-0.03l0.041-0.015
				c0.311-0.136,1.046-0.449,1.991-0.449c0.498,0,0.986,0.091,1.445,0.267c1.809,0.727,2.881,2.687,3.194,3.623
				c0.19,0.608,0.358,1.436,0.451,2.208c1.529-4.863,1.061-9.685,0.537-12.469c-1.031-3.86-0.101-6.689,0.354-7.28
				c0.073-0.097,0.14-0.14,0.211-0.14h0.045l0.091,0.056v0.002l0.084,0.054h-0.123l-0.039,0.047l-0.017,0.084l-0.017,0.009
				c-0.233,0.127-1.393,2.907-0.19,7.082c0.3,1.428,0.593,3.39,0.625,5.624c0.125-0.211,0.261-0.418,0.397-0.597
				c0.429-0.725,1.745-1.421,1.893-1.497c0.045-0.024,0.104-0.011,0.142,0.024l0.078-0.041l-0.054,0.069
				c0.026,0.045,0.028,0.101-0.006,0.142c-0.134,0.17-0.416,0.403-0.718,0.653l-0.017,0.013c-0.373,0.308-0.798,0.66-0.944,0.899
				c-0.08,0.121-0.22,0.44-0.371,0.785c-0.207,0.477-0.326,0.731-0.412,0.869c-0.106,3.107-0.766,6.614-2.614,9.937
				c-0.39,0.793-0.867,1.54-1.387,2.255c0.725-0.636,1.652-1.425,2.448-2.018c0.112-0.073,0.28-0.181,0.487-0.298
				c0.032-0.082,0.216-0.231,0.91-0.722c0.425-0.3,1.05-0.729,1.529-1.029c0.479-0.328,1.393-1.302,1.54-1.52
				c0.03-0.05,0.104-0.071,0.16-0.045c0.039,0.017,0.078,0.071,0.084,0.116c0.032,0.267-1.126,1.514-1.525,1.833
				c-0.267,0.237-0.533,0.466-0.789,0.677c0.157-0.026,0.321-0.045,0.492-0.056c0.086-0.002,0.17-0.004,0.254-0.004
				c0.753,0,1.57,0.11,2.288,0.207c0.546,0.073,1.111,0.151,1.663,0.19c0.425,0.069,0.852,0.106,1.274,0.106
				c2.051,0,3.56-0.806,3.75-0.947c0,0,0.004-0.004,0.004-0.009c0.034-0.045,0.099-0.061,0.151-0.043l0.009-0.007l0.03,0.03
				c0.013,0.011,0.022,0.024,0.028,0.037c0.015,0.03,0.019,0.062,0.013,0.091l-0.004,0.019c-0.009,0.017-0.019,0.03-0.032,0.041
				c-0.194,0.211-1.921,1.203-4.229,1.203c-0.345,0-0.692-0.024-1.033-0.069c-0.582-0.017-1.199-0.08-1.747-0.134l-0.011-0.002
				c-0.673-0.067-1.307-0.132-1.9-0.132c-0.159,0-0.315,0.007-0.462,0.015c-1.182,0.106-2.055,0.666-2.523,0.968l-0.043,0.026
				c-0.677,0.507-1.557,1.268-2.409,2.006l-0.011,0.009c-1.29,1.117-2.107,1.814-2.514,1.992c-0.556,0.6-1.124,1.182-1.689,1.758
				c-2.437,2.484-4.74,4.841-5.359,7.867c-0.007-0.041-0.013-0.08-0.019-0.119c-0.007-0.037-0.013-0.073-0.019-0.108l-0.002-0.011
				c-0.004-0.032-0.009-0.062-0.015-0.093c-0.007-0.039-0.013-0.078-0.019-0.116l-0.002-0.007c-0.004-0.03-0.009-0.06-0.015-0.093
				c-0.007-0.032-0.011-0.064-0.017-0.099c-0.037-0.22-0.075-0.44-0.112-0.66c-0.019-0.106-0.039-0.216-0.056-0.321
				c-0.002-0.019-0.007-0.037-0.009-0.054c-0.002-0.015-0.007-0.03-0.009-0.047l0,0v-0.006c-0.004-0.017-0.007-0.035-0.011-0.052
				c0,0-0.002-0.015-0.004-0.024c0-0.011-0.002-0.022-0.004-0.032c0,0,0-0.006-0.002-0.009c0,0-0.002-0.024-0.006-0.037v-0.006
				c0-0.006-0.002-0.013-0.002-0.013c-0.002-0.019-0.006-0.03-0.009-0.043V270.9c-0.004-0.028-0.011-0.056-0.015-0.084v-0.004
				c-0.002-0.011-0.004-0.022-0.004-0.03c-0.002-0.015-0.004-0.028-0.006-0.041c-0.004-0.024-0.009-0.045-0.013-0.069v-0.006
				c-0.006-0.032-0.011-0.065-0.017-0.097c0,0,0-0.004-0.002-0.007c-0.004-0.034-0.011-0.067-0.017-0.101
				c-0.006-0.037-0.011-0.073-0.017-0.11c0.076-0.297,0.188-0.688,0.345-1.207c0.328-1.083,0.794-2.484,1.214-3.655
				C453.701,264.082,454.361,261.017,453.481,258.455z M452.435,275.168c-0.004-0.024-0.009-0.047-0.011-0.071l-0.002-0.004
				c-0.002-0.024-0.006-0.045-0.011-0.069c-0.004-0.024-0.009-0.045-0.013-0.067v-0.007c-0.004-0.024-0.009-0.045-0.011-0.067
				c-0.004-0.026-0.009-0.05-0.013-0.073c-0.037-0.22-0.073-0.436-0.11-0.656c-0.004-0.022-0.006-0.043-0.011-0.062
				c-0.004-0.019-0.007-0.037-0.011-0.056c0,0,0-0.007,0-0.009c-0.002-0.017-0.007-0.035-0.009-0.052
				c-0.004-0.019-0.007-0.039-0.011-0.058c0,0,0-0.004-0.002-0.007c-0.002-0.019-0.004-0.039-0.009-0.056
				c-0.002-0.021-0.006-0.043-0.011-0.062c0.302-0.444,0.666-0.908,1.106-1.382c0.6-0.591,2.062-0.988,3.638-0.988
				c1.139,0,2.23,0.205,3.161,0.593c2.387,0.798,3.884,2.549,4.16,2.894l0.006,0.004l0.267,0.224l-0.423-0.009l-0.039-0.045
				c-0.175-0.192-1.768-1.9-4.149-2.543c-0.781-0.267-1.634-0.403-2.538-0.403c-1.716,0-3.105,0.481-3.539,0.934
				c-0.468,0.416-0.962,1.272-1.408,2.169C452.444,275.215,452.44,275.192,452.435,275.168z M442.153,274.65
				c1.059-0.934,2.543-1.354,3.541-1.354c0.347,0,0.636,0.052,0.832,0.147c0.112,0.061,0.205,0.125,0.31,0.185
				c0.002,0.019,0.007,0.039,0.009,0.058c0,0,0.002,0.011,0.004,0.017c0.002,0.011,0.004,0.026,0.006,0.039l0.002,0.013
				c0.002,0.011,0.002,0.015,0.002,0.015c0.002,0.019,0.006,0.034,0.009,0.047c0,0,0,0.011,0.002,0.017
				c0.004,0.017,0.006,0.034,0.009,0.054c0.015,0.084,0.03,0.17,0.045,0.252c0.002,0.022,0.006,0.043,0.009,0.062
				c0.002,0.007,0.002,0.011,0.002,0.017c0.004,0.015,0.006,0.03,0.009,0.045c0,0.006,0.004,0.013,0.004,0.013l0.002,0.022
				c0.002,0.017,0.006,0.034,0.009,0.05l0.002,0.019c0.004,0.022,0.009,0.043,0.013,0.065c-0.235-0.19-0.459-0.345-0.653-0.427
				c-0.162-0.084-0.429-0.129-0.757-0.129c-0.813,0-2.133,0.287-3.17,1.093c-1.38,0.929-2.001,2.331-2.068,2.489l-0.024,0.065
				l-0.201-0.007l0.054-0.177h0.002C440.286,277.003,440.86,275.64,442.153,274.65z M369.379,162.251l21.476,22.138l21.474-22.138
				l0.854-0.88h5.876v0.88v6.741l-21.571,22.238l21.571,22.237v6.845h-6.629l-21.575-22.242l-21.578,22.242h-7.052v-6.411v-0.08
				l21.994-22.591l-21.992-22.671v-0.024v-6.284v-0.88h6.299L369.379,162.251z M374.568,242.42c0.002,0,0.006,0,0.011,0
				l31.717-0.233l-0.822,3.576c-1.385-0.589-3.554-1.253-5.9-0.971c-5.005,0.606-6.424,3.414-7.056,5.475
				c-0.446,1.456-0.401,4.6,1.111,6.713c0.968,1.354,2.394,2.098,4.121,2.154c1.335,0.045,2.398-0.013,3.246-0.127l-1.27,3.189
				c-1.949,0.414-8.492,1.21-13.353-5.242c-0.129-0.172-0.3-0.285-0.483-0.369c-0.222-0.351-0.615-0.584-1.085-0.593
				c-0.69,0.013-1.242,0.582-1.229,1.277c0.065,3.521,2.359,7.936,3.187,9.143c1.52,2.221,3.407,4.162,5.227,6.04
				c2.631,2.706,5.113,5.264,6.569,8.568c1.003,2.273,1.227,4.453,0.72,7.121c-0.026,0.136-0.056,0.276-0.086,0.412
				c-0.041,0.19-0.076,0.375-0.123,0.567c-0.248,1.027-0.64,2.057-1.054,3.153c-0.274,0.722-0.552,1.455-0.796,2.204
				c-2.799-3.808-6.698-6.111-10.782-8.522l-0.425-0.252c-0.798-0.472-1.587-1.061-2.357-1.734
				c-0.006-0.006-0.015-0.013-0.024-0.019c-2.763-2.428-5.214-5.995-6.489-9.605c-0.848-2.396-0.822-5.266-0.666-8.009
				c0.024-0.436,0.483-2.32,0.819-3.694c0.472-1.939,0.744-3.058,0.809-3.761c1.785-0.395,2.984-0.813,3.135-0.869
				c0.556-0.198,0.899-0.759,0.819-1.345c-0.078-0.587-0.556-1.037-1.145-1.083c-4.902-0.371-8.512-1.889-10.737-4.507
				c-2.663-3.138-2.491-6.86-2.428-7.574c0.345-3.959,1.822-6.825,4.388-8.518c4.419-2.909,10.183-1.108,12.055,1.361
				c0.863,1.139,1.149,2.543,1.24,3.489l-10.873,0.08c-0.692,0.004-1.251,0.569-1.244,1.264
				C373.319,241.866,373.88,242.42,374.568,242.42z M403.417,306.989l-18.679-9.993c-0.114-0.062-11.578-6.241-17.301-14.315
				c-5.471-7.714-5.212-17.681-5.21-17.776v-8.154c1.945,1.544,4.263,2.325,6.599,2.657c-0.254,0.75-0.839,1.691-1.419,2.611
				c-0.662,1.054-1.345,2.141-1.822,3.325c-1.218,3.006-1.535,8.098,0.272,11.61c1.617,3.146,3.146,5.02,7.011,6.523
				c1.078,0.418,2.48,0.645,3.966,0.884c2.077,0.334,4.658,0.753,5.385,1.708c0.138,0.183,0.319,0.31,0.517,0.395
				c0.656,0.52,1.324,0.992,2.001,1.393l0.427,0.252c4.852,2.864,9.042,5.339,11.485,10.217c0.216,0.431,0.651,0.694,1.121,0.694
				c0.076,0,0.153-0.009,0.231-0.022c0.55-0.106,0.964-0.561,1.016-1.117c0.144-1.563,0.727-3.099,1.341-4.723
				c0.164-0.431,0.328-0.867,0.483-1.307C402.332,294.904,404.331,300.457,403.417,306.989z M371.768,259.62
				c1.307,0,2.568-0.11,3.726-0.27c-0.149,0.71-0.42,1.816-0.634,2.696c-0.528,2.167-0.854,3.528-0.888,4.147
				c-0.168,3.006-0.188,6.174,0.806,8.986c0.86,2.441,2.18,4.824,3.765,6.931c-0.436-0.076-0.876-0.149-1.313-0.22
				c-1.35-0.218-2.624-0.425-3.455-0.748c-3.174-1.233-4.278-2.581-5.693-5.331c-1.393-2.711-1.177-7.056-0.177-9.527
				c0.395-0.975,1.018-1.969,1.622-2.928c0.806-1.285,1.57-2.519,1.835-3.748C371.499,259.611,371.635,259.62,371.768,259.62z
				 M401.961,287.132c0.267-2.549-0.095-4.82-1.109-7.123c-1.637-3.716-4.397-6.556-7.062-9.303c-1.831-1.885-3.56-3.664-4.96-5.708
				c-0.412-0.602-1.167-2.029-1.779-3.642c0.548,0.459,1.184,0.944,1.93,1.438c1.372,1.41,4.684,4.192,6.526,5.365l0.44,0.28
				c2.204,1.4,4.483,2.849,6.17,4.706c3.498,3.851,4.49,8.302,2.95,13.228l-0.209,0.645c-0.129,0.392-0.259,0.791-0.375,1.201
				c-0.17-0.06-0.341-0.116-0.511-0.172c-0.772-0.257-1.505-0.5-1.988-0.893C401.978,287.145,401.968,287.139,401.961,287.132z
				 M365.254,243.285c-0.078,0.888-0.295,5.516,3.015,9.415c1.609,1.893,3.767,3.304,6.45,4.218
				c-1.313,0.162-2.756,0.244-4.203,0.153c-0.162-0.009-0.326-0.024-0.487-0.039c-2.253-0.201-4.494-0.837-6.277-2.267
				c-0.574-0.459-1.078-0.992-1.525-1.589V236.88c0.675-0.675,1.559-1.341,2.739-1.887c1.807-0.832,3.411-1.173,4.692-1.279
				C367.098,235.879,365.618,239.092,365.254,243.285z M419.06,315.36l-13.284-7.108c1.425-7.893-1.121-14.522-2.877-17.925
				c0.093,0.03,0.19,0.065,0.28,0.095c0.597,0.201,1.162,0.388,1.563,0.634c0.201,0.121,0.427,0.183,0.653,0.183
				c0.188,0,0.38-0.043,0.554-0.132c0.384-0.187,0.645-0.563,0.692-0.988c0.08-0.742,0.33-1.51,0.597-2.325
				c0.073-0.224,0.147-0.448,0.216-0.673c1.801-5.753,0.598-11.168-3.485-15.664c-1.911-2.105-4.337-3.647-6.681-5.137l-0.438-0.276
				c-0.47-0.3-1.072-0.735-1.714-1.234c3.334,0.401,5.835-0.343,5.883-0.358c0.362-0.112,0.653-0.384,0.794-0.733l2.491-6.254
				c0.239-0.599,0.054-1.371-0.518-1.667c-0.554-0.289-1.167-0.205-1.522,0.293c-0.248,0.136-1.385,0.634-4.434,0.537
				c-0.947-0.03-1.654-0.392-2.165-1.108c-0.968-1.354-1.005-3.698-0.753-4.522c0.517-1.682,1.475-3.297,4.96-3.72
				c2.987-0.362,5.766,1.361,5.792,1.378c0.343,0.218,0.772,0.254,1.147,0.101c0.375-0.155,0.653-0.483,0.744-0.88l1.538-6.676
				c0.086-0.375-0.004-0.768-0.244-1.065c-0.239-0.298-0.6-0.47-0.977-0.47c-0.004,0-0.006,0-0.011,0l-19.917,0.147
				c-0.099-1.274-0.472-3.286-1.76-4.986c-2.405-3.17-7.811-4.835-12.622-3.282c-0.703-0.205-4.591-1.162-9.65,1.171
				c-0.625,0.291-1.18,0.61-1.689,0.947v-8.304h56.834V315.36z M475.281,282.681c-5.725,8.074-17.189,14.252-17.316,14.321
				l-3.5,1.893c0.149-6.359-0.33-12.009-1.05-17.323c1.995-1.009,4.546-1.389,7.248-0.298c0.852-1.436-3.647-6.187,6.769-4.544
				c-0.606-2.144-8.484-4.376-1.578-7.403c-6.694-0.502,2.734-10.498,6.614-4.313c-0.002-4.255,3.416-5.76,6.387-10.847
				c-5.991,5.152-7.735-3.315-4.537-6.776c-2.95-0.457-2.642-8.716-2.642-8.716s-7.774-0.145-1.596-11.977
				c-3.349,3.036-5.417,1.803-2.469-3.405c-4,4.207-4.572,2.137-4.572,2.137s2.532,11.841-3.241,7.466
				c-1.613,1.505,3.226,9.661-2.95,7.017c0.013,2.56,5.607,5.861-4.408,9.26c9.696,0.539,7.472,14.798-1.289,2.984
				c-1.484,1.393-1.285,4.882-1.098,8.059c-0.401-3.125-0.723-6.375-0.88-9.84c-0.731-16.092,3.323-28.493,4.401-31.471
				c-0.783,0.047-1.505,0.073-2.178,0.073l-1.119-0.03c-0.768-0.022-1.512-0.078-2.24-0.147c-1.639,4.994-4.805,16.79-4.121,31.814
				c0.196,4.315,0.625,8.285,1.154,12.068c-0.328-1.154-0.789-2.111-1.536-2.447c-2.98,9.322-7.444,0.819-1.453-1.6
				c-7.036,0.009-4.222-3.271-4.764-4.886c-3.325,2.991-2.027-3.187-3.368-3.789c-2.698,3.998-3.644-4.004-3.644-4.004
				s0.086,1.427-3.34-0.365c2.976,2.648,1.941,3.871-0.821,2.676c6.433,6.125,1.568,7.886,1.568,7.886s1.965,5.137,0.209,6.058
				c2.756,1.497,3.476,7.2-1.404,5.242c2.965,2.566,5.443,2.78,6.353,5.46c1.115-4.729,9.202-0.457,5.094,1.298
				c4.999,0.423,0.518,3.519,0.595,5.001c6.206-3.271,4.395,0.686,5.24,1.406c1.249-1.078,2.657-1.46,3.957-1.423
				c1.074,6.935,1.805,14.026,1.328,22.61l-24.974,13.506V225.36h0.093v-5.048h-0.093v-58.061h56.088l-0.002,103.442v0.092
				c0.002,0.069,0.142,4.852-1.6,10.364C477.83,278.327,476.769,280.583,475.281,282.681z"/>
			<path fill="#BA9262" d="M443.171,186.753c0.214-0.062,0.427-0.125,0.651-0.185c0.043-0.013,0.082-0.026,0.125-0.039
				c0.002,0.002,0.002,0.004,0.004,0.004c0.108,0.082,0.222,0.172,0.332,0.254c0.507,0.39,1.031,0.802,1.574,1.24
				c0.086,0.069,0.168,0.131,0.254,0.203c0.306-0.257,0.61-0.496,0.916-0.74c0.39-0.315,0.776-0.621,1.162-0.919
				c0.41-0.315,0.819-0.628,1.227-0.923c0.015-0.011,0.03-0.024,0.045-0.034c-0.017,0-0.033,0.002-0.048,0.002
				c-0.31-4.792-0.619-9.583-0.932-14.373c-0.364-0.621-0.742-1.236-1.128-1.846c-0.282,0.669-0.552,1.339-0.804,2.012
				c0.515,4.777,1.033,9.553,1.551,14.332c-0.449,0.052-0.886,0.112-1.311,0.183c-0.72-4.757-1.443-9.512-2.165-14.265
				c-0.418-0.584-0.846-1.167-1.29-1.74c-0.224,0.69-0.431,1.382-0.628,2.074c0.927,4.723,1.857,9.45,2.784,14.172
				c-0.446,0.095-0.876,0.194-1.287,0.302c-1.134-4.686-2.268-9.372-3.401-14.058c-0.466-0.548-0.947-1.089-1.438-1.62
				c-0.164,0.707-0.315,1.412-0.451,2.122c1.335,4.636,2.674,9.273,4.009,13.911C443.005,186.8,443.091,186.776,443.171,186.753z"/>
			<path fill="#BA9262" d="M439.494,195.853c-1.635,1.766-3.15,3.563-4.507,5.341c-0.097,0.132-0.19,0.257-0.289,0.386
				c0.097,0.127,0.183,0.246,0.28,0.375c1.318,1.749,2.799,3.528,4.406,5.305c0.114-0.125,0.222-0.248,0.339-0.375
				c1.583-1.762,3.28-3.575,5.061-5.413c-1.751-1.811-3.42-3.578-4.969-5.264C439.708,196.086,439.6,195.974,439.494,195.853z"/>
			<path fill="#BA9262" d="M464.855,208.565c-0.817,0.953-1.68,1.913-2.581,2.862c-0.912,0.956-1.842,1.874-2.78,2.762
				c0.787,0.735,1.527,1.406,2.21,2.027c0.658-0.282,1.268-0.61,1.854-0.96l0.597,0.72l3.979,4.8l-3.071-5.413l-0.453-0.798
				c0.811-0.591,1.527-1.259,2.148-2.003l0.815,0.451l5.712,3.144l-5.035-4.063l-0.716-0.578l-0.936-0.755
				C466.066,210.066,465.499,209.344,464.855,208.565z"/>
			<path fill="#BA9262" d="M445.921,213.799c0.123-0.112,0.248-0.222,0.373-0.337c1.76-1.583,3.573-3.286,5.411-5.068
				c-1.003-0.975-2.021-1.975-3.056-3.006c-1.039-1.035-2.051-2.057-3.036-3.069c-1.801,1.839-3.519,3.647-5.13,5.393
				c-0.116,0.125-0.226,0.246-0.343,0.373c0.91,0.981,1.855,1.958,2.836,2.926C443.954,211.983,444.94,212.908,445.921,213.799z"/>
			<path fill="#BA9262" d="M455.614,204.518c1.009-1.029,1.984-2.042,2.929-3.034c-0.953-1.005-1.941-2.023-2.954-3.045
				c-1.018-1.026-2.038-2.023-3.045-2.995c-0.992,0.953-2.006,1.939-3.036,2.959c-1.039,1.026-2.057,2.047-3.058,3.062
				c0.996,1.011,2.012,2.034,3.049,3.071c1.039,1.035,2.062,2.044,3.06,3.024C453.572,206.568,454.594,205.553,455.614,204.518z"/>
			<path fill="#BA9262" d="M448.662,197.569c1.026-1.013,2.04-1.988,3.036-2.933c-1.816-1.716-3.597-3.332-5.316-4.813
				c-0.084-0.071-0.164-0.138-0.244-0.207c-0.041-0.034-0.08-0.069-0.121-0.104c-0.062,0.056-0.125,0.116-0.19,0.172
				c-0.912,0.794-1.82,1.622-2.732,2.495c-0.977,0.938-1.924,1.893-2.84,2.857c0.11,0.116,0.218,0.231,0.332,0.354
				c1.572,1.669,3.26,3.42,5.029,5.227C446.609,199.605,447.624,198.59,448.662,197.569z"/>
			<path fill="#BA9262" d="M446.005,215.173c-0.802,0.688-1.566,1.324-2.297,1.917l-0.308-0.067l-0.011-0.002l-0.05-0.011
				l-0.168,0.912l-1.262,6.845l2.366-6.571l0.31-0.865c1.18,0.272,2.433,0.461,3.752,0.578c0.358,0.03,0.725,0.049,1.089,0.071
				c-0.287-0.222-0.58-0.459-0.869-0.692C447.711,216.615,446.859,215.917,446.005,215.173z"/>
			<path fill="#BA9262" d="M469.355,202.564c-0.004-0.069-0.015-0.134-0.022-0.203c0.007,0.069,0.013,0.136,0.019,0.205
				L469.355,202.564z"/>
			<path fill="#BA9262" d="M467.897,210.925c-0.004-0.004-0.006-0.009-0.009-0.011c-0.116,0.203-0.226,0.41-0.354,0.604
				C467.658,211.321,467.785,211.127,467.897,210.925z"/>
			<path fill="#BA9262" d="M465.527,207.77c0.895,1.13,1.684,2.176,2.361,3.144c0.591-1.05,1.031-2.21,1.281-3.491l0.932,0.121
				l5.663,0.723l-5.51-1.723l-0.899-0.28c0.05-0.455,0.086-0.921,0.093-1.402c0.009-0.783-0.032-1.544-0.095-2.295
				c-0.024,0.041-0.049,0.084-0.08,0.127C468.199,204.358,466.936,206.062,465.527,207.77z"/>
			<path fill="#BA9262" d="M457.684,214.019c-1.635-1.486-3.36-3.101-5.141-4.813c-1.833,1.766-3.651,3.444-5.423,5.001
				c-0.127,0.11-0.25,0.218-0.38,0.328c0.725,0.636,1.445,1.251,2.161,1.839c0.705,0.58,1.406,1.136,2.1,1.667
				c0.134,0.002,0.261,0.011,0.395,0.011c0.647,0,1.281-0.019,1.902-0.052c0.149-0.006,0.293-0.022,0.44-0.032
				c1.438-1.121,2.875-2.337,4.291-3.638C457.911,214.226,457.805,214.127,457.684,214.019z"/>
			<path fill="#BA9262" d="M437.265,190.091l-0.804-0.448l-5.963-3.325l5.398,4.395l0.737,0.6c-0.125,0.25-0.252,0.517-0.382,0.8
				c0.132-0.285,0.259-0.548,0.384-0.798l0.74,0.602c0.688,0.763,1.419,1.561,2.238,2.439c0.906-0.951,1.837-1.896,2.804-2.821
				c0.492-0.47,0.983-0.927,1.475-1.374c0.332-0.3,0.664-0.589,0.996-0.878c0.138-0.123,0.278-0.25,0.42-0.371
				c-0.22-0.185-0.427-0.351-0.638-0.526c-0.582-0.481-1.147-0.934-1.686-1.357c-0.065-0.052-0.136-0.108-0.201-0.16
				c-0.395,0.123-0.77,0.248-1.121,0.373c-1.538-4.583-3.075-9.165-4.615-13.75c-0.517-0.502-1.044-0.998-1.581-1.49
				c-0.108,0.725-0.192,1.441-0.272,2.157c1.742,4.52,3.483,9.04,5.225,13.56c-0.472,0.194-0.882,0.375-1.223,0.539
				c-1.945-4.449-3.886-8.897-5.829-13.348c-0.556-0.455-1.128-0.901-1.71-1.339c-0.047,0.727-0.077,1.451-0.091,2.174
				c2.146,4.378,4.289,8.753,6.435,13.131c-0.011,0.004-0.032,0.017-0.032,0.017S437.687,189.323,437.265,190.091z"/>
			<path fill="#BA9262" d="M458.832,213.575c0.955-0.899,1.9-1.833,2.825-2.803c0.921-0.96,1.794-1.928,2.624-2.892
				c-0.099-0.119-0.192-0.233-0.295-0.354c-1.417-1.671-2.976-3.416-4.652-5.206c-0.936,0.999-1.902,2.008-2.9,3.032
				c-1.016,1.033-2.027,2.038-3.041,3.025c1.781,1.729,3.489,3.368,5.104,4.882C458.612,213.368,458.719,213.467,458.832,213.575z"
				/>
			<path fill="#BA9262" d="M464.143,195.301c-0.843-0.951-1.723-1.9-2.646-2.836c-0.753-0.766-1.518-1.494-2.286-2.206
				c-0.091-0.082-0.179-0.168-0.269-0.25c-0.089-0.082-0.175-0.166-0.265-0.248c-0.099,0.091-0.196,0.175-0.295,0.263
				c-0.009,0.011-0.019,0.019-0.03,0.028c-1.572,1.402-3.243,2.948-4.986,4.606c1.007,0.957,2.018,1.947,3.03,2.967
				c1.009,1.018,1.984,2.029,2.926,3.03c1.639-1.745,3.161-3.431,4.537-5.022C463.955,195.521,464.046,195.413,464.143,195.301z"/>
			<path fill="#BA9262" d="M433.534,201.47c0.004,0.007,0.006,0.011,0.011,0.017c0.013-0.101,0.017-0.203,0.03-0.302
				C433.562,201.281,433.545,201.374,433.534,201.47z"/>
			<path fill="#BA9262" d="M433.545,201.488c-0.011,0.086-0.017,0.175-0.026,0.263c0.034-0.05,0.067-0.099,0.101-0.151
				C433.596,201.561,433.571,201.525,433.545,201.488z"/>
			<path fill="#BA9262" d="M433.375,203.429c0.002-0.004,0.004-0.009,0.006-0.013c0.004-0.058,0.002-0.114,0.006-0.17
				C433.383,203.306,433.377,203.366,433.375,203.429z"/>
			<path fill="#BA9262" d="M433.387,203.245c0.013-0.259,0.037-0.511,0.056-0.766C433.422,202.734,433.4,202.987,433.387,203.245z"
				/>
			<path fill="#BA9262" d="M433.497,201.783c-0.026,0.229-0.034,0.464-0.054,0.697c0.024-0.244,0.047-0.487,0.076-0.729
				C433.51,201.762,433.504,201.773,433.497,201.783z"/>
			<path fill="#BA9262" d="M445.19,214.448c-0.975-0.876-1.949-1.788-2.913-2.743c-0.968-0.957-1.9-1.926-2.795-2.898
				c-1.262,1.387-2.368,2.646-3.338,3.793l-0.645-0.776c0.936-1.167,2.008-2.441,3.237-3.834c-1.581-1.762-3.03-3.534-4.321-5.283
				c-0.091-0.125-0.179-0.248-0.27-0.375c-0.267,0.367-0.518,0.729-0.763,1.085c-0.022,0.477-0.045,0.955-0.039,1.445
				c0.006,0.522,0.043,1.029,0.099,1.518l-0.895,0.28l-5.137,1.606l5.288-0.677l0.932-0.117c0.321,1.607,0.912,3.041,1.768,4.283
				l-0.714,0.569l-4.798,3.834l5.449-2.98l0.826-0.451c0.66,0.761,1.421,1.447,2.286,2.044l-0.451,0.796l-2.956,5.21l3.849-4.643
				l0.595-0.72c0.923,0.524,1.926,0.977,3.019,1.343C443.346,216.053,444.237,215.289,445.19,214.448z"/>
			<path fill="#BA9262" d="M449.451,218c0.147,0.009,0.302,0.006,0.449,0.013c-0.16-0.009-0.313-0.024-0.472-0.032
				C449.436,217.987,449.444,217.994,449.451,218z"/>
			<path fill="#BA9262" d="M450.738,185.754c-0.414,0.302-0.832,0.619-1.253,0.938c-0.393,0.3-0.785,0.608-1.18,0.925
				c-0.373,0.295-0.744,0.595-1.119,0.908c-0.121,0.101-0.241,0.19-0.362,0.293c0.125,0.101,0.246,0.198,0.371,0.302
				c0.03,0.028,0.065,0.056,0.095,0.082c0.073,0.06,0.144,0.123,0.216,0.183c1.635,1.378,3.312,2.879,5.018,4.475
				c1.585-1.488,3.114-2.872,4.578-4.145c0.149-0.129,0.3-0.261,0.444-0.388c0.114-0.095,0.22-0.185,0.332-0.282
				c-0.328-0.289-0.658-0.554-0.986-0.832c-0.369-0.313-0.735-0.636-1.106-0.936c-0.388-0.313-0.779-0.602-1.167-0.904
				c-0.319-0.244-0.634-0.498-0.953-0.733c0,0-0.002-0.002-0.002-0.004c0.028,0.004,0.056,0.009,0.084,0.011
				c0.319,0.028,0.628,0.065,0.938,0.101c0.14,0.015,0.287,0.026,0.425,0.045c-0.14-0.019-0.282-0.037-0.425-0.054
				c0.518-4.777,1.033-9.553,1.548-14.33c-0.252-0.673-0.522-1.343-0.8-2.012c-0.395,0.61-0.772,1.225-1.134,1.846
				c-0.31,4.789-0.621,9.581-0.929,14.373c-0.431-0.03-0.869-0.05-1.315-0.061c0.101-4.798,0.203-9.596,0.306-14.399
				c-0.306-0.647-0.632-1.294-0.966-1.934c-0.341,0.641-0.664,1.287-0.973,1.934c0.106,4.802,0.207,9.601,0.31,14.399
				c-0.405,0.009-0.804,0.026-1.197,0.052c0.392-0.026,0.794-0.041,1.197-0.05c0.034-0.002,0.067-0.004,0.101-0.004
				c0.062-0.002,0.121-0.009,0.183-0.009c-0.002,0-0.002,0.004-0.004,0.004C450.924,185.614,450.831,185.69,450.738,185.754z"/>
			<path fill="#BA9262" d="M455.219,185.806c0.235,0.179,0.47,0.371,0.705,0.554c0.386,0.3,0.768,0.6,1.152,0.914
				c0.364,0.298,0.729,0.606,1.091,0.919c0.121,0.101,0.239,0.198,0.358,0.302c0.388-0.33,0.759-0.636,1.121-0.934
				c0.242-0.196,0.481-0.392,0.714-0.578c-0.164-0.054-0.33-0.106-0.5-0.157c1.337-4.636,2.674-9.275,4.009-13.914
				c-0.136-0.71-0.285-1.415-0.448-2.122c-0.492,0.53-0.973,1.072-1.438,1.62c-1.132,4.686-2.264,9.374-3.396,14.058
				c-0.414-0.108-0.845-0.207-1.292-0.302c0.927-4.725,1.852-9.45,2.782-14.172c-0.192-0.692-0.401-1.384-0.625-2.074
				c-0.444,0.573-0.873,1.156-1.292,1.74c-0.725,4.753-1.445,9.508-2.165,14.263C455.739,185.882,455.48,185.843,455.219,185.806z"
				/>
			<path fill="#BA9262" d="M460.406,186.998c0.254,0.082,0.483,0.166,0.714,0.25c0.108,0.037,0.231,0.076,0.332,0.114
				c-0.166,0.138-0.345,0.293-0.518,0.438c-0.513,0.436-1.044,0.893-1.615,1.395c0.291,0.265,0.582,0.541,0.873,0.815
				c0.317,0.295,0.632,0.597,0.947,0.904l0,0c0.319,0.31,0.64,0.619,0.955,0.94c0.908,0.923,1.775,1.859,2.601,2.803
				c0.718-0.85,1.352-1.633,1.926-2.363c-0.119-0.261-0.235-0.515-0.349-0.751l0.735-0.6l5.669-4.628l-6.258,3.489l-0.806,0.448
				c-0.47-0.869-0.794-1.363-0.794-1.363s-0.022-0.011-0.03-0.017c2.144-4.378,4.289-8.753,6.431-13.131
				c-0.013-0.723-0.043-1.447-0.088-2.174c-0.582,0.438-1.152,0.884-1.712,1.339c-1.941,4.451-3.882,8.9-5.825,13.348
				c-0.343-0.164-0.75-0.345-1.225-0.539c1.742-4.52,3.485-9.04,5.225-13.56c-0.078-0.716-0.168-1.432-0.272-2.157
				c-0.537,0.492-1.065,0.988-1.581,1.49c-1.538,4.583-3.08,9.167-4.619,13.748C460.895,187.158,460.652,187.078,460.406,186.998z"
				/>
			<path fill="#BA9262" d="M470.136,201.104l6.191-1.43l-6.361,0.304l-0.923,0.043c-0.25-1.43-0.597-2.773-0.986-3.998l0.83-0.412
				l5.859-2.9l-6.23,1.818l-0.88,0.257c-0.19-0.528-0.386-1.018-0.58-1.486c-0.509,0.673-1.063,1.384-1.682,2.148
				c1.294,1.523,2.463,3.06,3.498,4.583l-0.906,0.043c-0.951-1.32-1.995-2.648-3.131-3.97c-0.088,0.11-0.179,0.22-0.276,0.336
				c-1.343,1.609-2.84,3.302-4.455,5.055c1.654,1.786,3.187,3.539,4.576,5.225c0.095,0.121,0.188,0.237,0.285,0.356
				c1.436-1.721,2.73-3.431,3.841-5.098c0.082-0.121,0.153-0.237,0.229-0.356c-0.047-0.076-0.099-0.153-0.149-0.229l0.343-0.08
				c0.043,0.345,0.076,0.694,0.106,1.048c-0.032-0.352-0.056-0.705-0.099-1.048L470.136,201.104z"/>
			<path fill="#BA9262" d="M459.854,216.887c0.263-0.082,0.522-0.168,0.776-0.259c-0.608-0.526-1.249-1.087-1.936-1.697
				c-1.124,1.024-2.26,1.993-3.409,2.905c1.126-0.129,2.197-0.321,3.218-0.569l0.321,0.876l2.441,6.625l-1.246-6.961
				L459.854,216.887z"/>
			<path fill="#BA9262" d="M433.894,201.216l0.267-0.369c0.002,0.002,0.002,0.004,0.002,0.004c0.097-0.129,0.186-0.259,0.282-0.388
				c1.326-1.777,2.812-3.556,4.419-5.305c-0.981-1.08-1.855-2.077-2.635-2.997c-0.343,0.742-0.696,1.581-1.042,2.523l-0.882-0.259
				l-5.881-1.714l5.529,2.737l0.83,0.414c-0.405,1.251-0.766,2.631-1.026,4.104l-0.927-0.041l-5.987-0.25l5.829,1.274l0.906,0.199
				c-0.002,0.013-0.002,0.026-0.004,0.039c0.002-0.013,0.004-0.026,0.004-0.039L433.894,201.216z"/>
			<path fill="#BA9262" d="M397.329,253.763c7.865-0.403,17.713,2.538,19.842-5.223
				C411.758,251.811,400.577,247.453,397.329,253.763z"/>
			<polygon fill="#BA9262" points="388.293,244.667 388.69,244.339 388.237,244.356 382.324,244.55 385.324,247.104 			"/>
		</g>
		<g>
			<rect x="362.073" y="160.146" fill="#0956A4" width="56.941" height="60.338"/>
			<polygon fill="#FFFFFF" points="418.883,212.19 397.771,190.427 418.883,168.664 418.883,160.131 414.348,160.131 
				391.364,183.822 368.383,160.131 362.207,160.131 362.207,166.974 384.957,190.427 362.207,213.881 362.207,220.434 
				368.665,220.434 391.364,197.033 414.065,220.434 418.883,220.434 			"/>
		</g>
	</g>
	<g>
		<path fill="#BA9262" d="M293.689,56.3l1.525-1.395c0.72,0.733,1.691,0.539,2.368-0.082c0.705-0.645,0.914-1.673,0.259-2.39
			c-0.705-0.77-1.85-0.584-2.489-0.049c-0.078,0.071-0.703,0.645-1.643,0.953c-1.359,0.427-2.631,0.108-3.623-0.975
			c-1.585-1.734-1.169-4.054,0.304-5.402c1.578-1.445,3.767-1.483,5.214,0.043l-1.512,1.384c-0.72-0.733-1.617-0.535-2.307,0.097
			c-0.716,0.655-0.949,1.635-0.172,2.482c0.692,0.757,1.712,0.565,2.392-0.056c0.067-0.061,0.705-0.645,1.63-0.94
			c1.369-0.44,2.728-0.004,3.718,1.078c1.598,1.747,1.1,3.951-0.373,5.298C297.366,57.754,295.278,57.985,293.689,56.3z"/>
		<path fill="#BA9262" d="M306.775,36.58l4.93,7.026l1.184-0.833l1.087,1.546l-4.063,2.851l-1.085-1.546l1.184-0.833l-4.927-7.026
			l-1.128,0.791l-1.085-1.546l3.946-2.769l1.085,1.546L306.775,36.58z"/>
		<path fill="#BA9262" d="M332.417,33.593l-1.842,0.979l-9.557-4.884l4.127,7.77l-1.824,0.968l-5.801-10.92l1.839-0.977l9.573,4.876
			l-4.128-7.77l1.809-0.962L332.417,33.593z"/>
		<path fill="#BA9262" d="M350.113,22.862l1.874,0.856c-0.645,1.434-1.837,2.624-3.44,3.233c-3.185,1.21-6.672-0.112-8.05-3.746
			c-1.322-3.483,0.153-6.858,3.539-8.143c1.6-0.608,3.282-0.509,4.723,0.153l-0.839,1.867c-0.955-0.431-2.094-0.49-3.15-0.089
			c-2.376,0.901-3.192,3.138-2.308,5.467c0.94,2.476,3.224,3.366,5.353,2.558C348.871,24.618,349.682,23.818,350.113,22.862z"/>
		<path fill="#BA9262" d="M362.444,11.513l0.785,2.991l4.971-1.305l0.52,1.982l-4.971,1.303l0.783,2.991l5.98-1.57l0.524,1.999
			l-7.977,2.094l-3.138-11.958l7.979-2.094l0.524,1.999L362.444,11.513z"/>
		<path fill="#BA9262" d="M409.351,14.396l-2.061,0.168l-0.623-7.578l-2.92,7.869l-1.939,0.159L397.4,7.59l0.638,7.735l-2.062,0.17
			l-1.018-12.354l2.098-0.172l5.477,9.219l3.703-9.974l2.098-0.173L409.351,14.396z"/>
		<path fill="#BA9262" d="M429.389,11.213l1.421,1.494c-1.134,1.091-2.685,1.749-4.397,1.717c-3.407-0.065-6.15-2.59-6.075-6.474
			c0.071-3.726,2.698-6.308,6.319-6.239c1.714,0.032,3.237,0.751,4.328,1.902l-1.477,1.421c-0.727-0.757-1.76-1.236-2.89-1.257
			c-2.543-0.047-4.13,1.723-4.177,4.214c-0.052,2.648,1.734,4.324,4.013,4.367C427.584,12.38,428.635,11.942,429.389,11.213z"/>
		<path fill="#BA9262" d="M454.708,16.645l-2.051-0.252l0.927-7.535l-4.447,7.101l-1.928-0.237l-2.804-8.153l-0.947,7.692
			l-2.051-0.252l1.514-12.283l2.083,0.257l3.485,10.125l5.646-9.001l2.083,0.257L454.708,16.645z"/>
		<path fill="#BA9262" d="M470.425,13.438l-2.901-7.028l2.463,0.571l2.079,5.023l4.067-3.591l2.463,0.573l-5.708,5.025l2.9,7.028
			l-2.463-0.573l-2.061-5.018l-4.085,3.588l-2.463-0.573L470.425,13.438z"/>
		<path fill="#BA9262" d="M494.769,23.874l0.882,1.863c-1.417,0.684-3.095,0.826-4.714,0.261c-3.22-1.126-5.037-4.382-3.754-8.05
			c1.229-3.519,4.533-5.154,7.953-3.959c1.617,0.565,2.84,1.723,3.519,3.157l-1.846,0.891c-0.457-0.944-1.29-1.723-2.357-2.096
			c-2.4-0.839-4.464,0.349-5.285,2.7c-0.876,2.501,0.302,4.654,2.454,5.406C492.686,24.419,493.822,24.329,494.769,23.874z"/>
		<path fill="#BA9262" d="M517.891,23.886l-9.998,9.493l1.091-13.75L517.891,23.886z M510.294,28.359l3.974-3.935l-3.427-1.637
			L510.294,28.359z"/>
		<path fill="#BA9262" d="M528.941,32.372l-4.488,7.319l1.235,0.757l-0.988,1.611l-4.233-2.594l0.988-1.611l1.236,0.757l4.486-7.319
			l-1.173-0.72l0.988-1.613l4.11,2.521l-0.988,1.611L528.941,32.372z"/>
		<path fill="#BA9262" d="M541.892,41.369l-5.223,6.812l1.149,0.882l-1.149,1.499l-3.94-3.021l1.149-1.499l1.152,0.882l5.223-6.812
			l-1.095-0.839l1.152-1.501l3.826,2.935l-1.15,1.501L541.892,41.369z"/>
		<path fill="#BA9262" d="M553.822,51.789l-5.978,6.159l1.039,1.007l-1.315,1.356l-3.56-3.457l1.315-1.354l1.039,1.007l5.976-6.157
			l-0.988-0.96l1.315-1.354l3.459,3.356l-1.315,1.356L553.822,51.789z"/>
	</g>
	<g>
		<g>
			<path fill="#BA9262" d="M577.185,130.537c-0.013,0-0.022-0.013-0.022-0.043c0-0.231,0.175-0.345,0.522-0.345
				c0.49,0,0.972,0.151,1.449,0.453c0.474,0.304,0.711,0.759,0.711,1.363c0,0.781-0.41,1.501-1.231,2.165
				c-0.822,0.662-2.258,0.994-4.306,0.994c-1.988,0-5.012-0.612-9.061-1.839c-4.054-1.225-7.466-1.924-10.235-2.098
				c-2.708-0.172-5.227,0.009-7.547,0.541c-2.323,0.535-4.248,1.32-5.775,2.359c-1.531,1.037-2.719,2.249-3.571,3.634
				c-0.849,1.385-1.277,2.84-1.277,4.369c0,0.809,0.125,1.492,0.369,2.055c0.244,0.563,0.541,0.973,0.886,1.234
				c0.347,0.259,0.692,0.474,1.039,0.649c0.345,0.173,0.643,0.339,0.886,0.496c0.244,0.16,0.369,0.341,0.369,0.541
				c0,0.317-0.224,0.569-0.673,0.757c-0.444,0.188-1.001,0.283-1.665,0.283c-1.384,0-2.603-0.513-3.655-1.535
				c-1.055-1.024-1.581-2.402-1.581-4.132c0-2.482,1.169-4.824,3.506-7.032c2.336-2.206,5.393-3.929,9.172-5.169
				c3.778-1.24,7.657-1.775,11.638-1.6c2.277,0.086,4.529,0.431,6.75,1.037c2.221,0.606,4.218,1.184,5.991,1.732
				c1.773,0.548,3.325,0.821,4.652,0.821c1.846,0,2.769-0.418,2.769-1.255c0-0.145-0.028-0.274-0.086-0.39
				C577.209,130.552,577.202,130.537,577.185,130.537z M556.593,137.612c-0.822,1.022-1.499,2.025-2.034,3.006
				c-0.535,0.981-1.283,2.4-2.249,4.261c-0.968,1.861-1.71,3.252-2.228,4.175c-2.51,4.384-5.206,7.903-8.091,10.556
				c-2.049,1.876-4.11,2.972-6.187,3.289c-1.037,0.144-1.542,0.028-1.514-0.345c0-0.261,0.317-0.578,0.951-0.953
				c0.72-0.403,1.458-0.951,2.208-1.643c0.748-0.692,1.367-1.313,1.859-1.861c0.492-0.548,1.117-1.398,1.881-2.553
				c0.766-1.152,1.285-1.954,1.559-2.4c0.274-0.447,0.837-1.391,1.689-2.834c0.849-1.443,1.333-2.264,1.449-2.467
				c0.923-1.529,1.867-2.985,2.834-4.369c0.966-1.385,2.025-2.769,3.179-4.153c1.154-1.384,2.322-2.488,3.504-3.31
				c1.184-0.822,2.264-1.234,3.245-1.234c0.492,0,0.735,0.101,0.735,0.304c0,0.144-0.129,0.302-0.39,0.477
				C558.217,135.902,557.414,136.588,556.593,137.612z"/>
			<path fill="#BA9262" d="M555.428,150.18c-0.218-0.03-0.354-0.138-0.412-0.326c-0.056-0.187-0.013-0.41,0.129-0.671
				c1.384-2.018,2.497-3.922,3.334-5.71c-0.897-0.289-1.341-0.938-1.341-1.947c0-0.606,0.229-1.197,0.69-1.773
				c0.462-0.578,1.067-0.867,1.818-0.867c0.576,0,0.865,0.231,0.865,0.692c0,0.175-0.065,0.433-0.194,0.781
				c-0.129,0.345-0.194,0.591-0.194,0.735c0,0.403,0.246,0.604,0.735,0.604c0.114,0,0.308-0.022,0.584-0.065
				c0.272-0.043,0.539-0.065,0.8-0.065c0.895,0,1.6,0.224,2.12,0.671c0.518,0.448,0.779,1.031,0.779,1.753
				c0,1.124-0.809,2.926-2.422,5.409c-1.617,2.48-2.424,4.08-2.424,4.802c0,0.72,0.345,1.08,1.039,1.08
				c1.095,0,3.144-2.034,6.142-6.101c0.203-0.259,0.412-0.388,0.627-0.388c0.218,0,0.354,0.101,0.412,0.302
				c0.056,0.203,0,0.461-0.173,0.778c-0.147,0.231-0.347,0.526-0.608,0.888c-0.259,0.36-0.763,1.016-1.514,1.967
				c-0.748,0.953-1.477,1.79-2.182,2.51c-0.707,0.72-1.516,1.378-2.424,1.969c-0.91,0.591-1.725,0.886-2.446,0.886
				c-1.527,0-2.292-0.85-2.292-2.553c0-1.152,0.418-2.508,1.255-4.065c0.835-1.559,1.665-3.008,2.486-4.35
				c0.824-1.342,1.234-2.314,1.234-2.92c0-0.431-0.302-0.649-0.908-0.649c-0.114,0-0.289,0.009-0.52,0.022
				c-0.231,0.015-0.403,0.022-0.518,0.022c-0.462,0.837-1.018,1.775-1.667,2.812c-0.649,1.039-1.19,1.876-1.624,2.51l-0.604,0.951
				C555.84,150.107,555.644,150.208,555.428,150.18z"/>
			<path fill="#BA9262" d="M586.387,148.817c0.231,0.013,0.373,0.114,0.433,0.302c0.056,0.188,0,0.44-0.175,0.757
				c-0.144,0.231-0.347,0.535-0.606,0.91c-0.259,0.375-0.763,1.037-1.514,1.988c-0.751,0.953-1.479,1.79-2.185,2.51
				s-1.507,1.385-2.4,1.99c-0.895,0.606-1.688,0.908-2.381,0.908c-0.953,0-1.551-0.539-1.794-1.622
				c-0.246-1.082-0.095-2.07,0.453-2.963c-2.48,3.056-4.658,4.585-6.534,4.585c-1.152,0-2.047-0.425-2.681-1.277
				c-0.636-0.85-0.951-1.924-0.951-3.222c0-2.394,1.281-4.997,3.849-7.809c2.568-2.814,5.076-4.22,7.528-4.22
				c0.806,0,1.529,0.224,2.163,0.671c0.634,0.449,1.009,1.061,1.124,1.839l0.694-1.428c0.229-0.52,0.647-0.779,1.255-0.779h1.253
				c0.55,0,0.707,0.259,0.477,0.779l-4.846,10.124c-0.231,0.49-0.354,0.914-0.369,1.275c-0.013,0.362,0.052,0.606,0.194,0.738
				c0.147,0.129,0.332,0.194,0.565,0.194c1.009,0,2.954-1.962,5.84-5.885C585.953,148.925,586.156,148.802,586.387,148.817z
				 M576.133,151.564c1.962-2.337,2.941-4.47,2.941-6.403c0-1.328-0.505-1.99-1.514-1.99c-1.529,0-3.222,1.246-5.085,3.741
				c-1.859,2.495-2.79,4.565-2.79,6.208c0,0.576,0.147,1.046,0.435,1.406c0.287,0.36,0.662,0.541,1.124,0.541
				C572.542,155.069,574.17,153.9,576.133,151.564z"/>
			<path fill="#BA9262" d="M605.038,148.904c0.287,0.246,0.287,0.569,0,0.972c-0.147,0.231-0.347,0.535-0.608,0.91
				c-0.259,0.375-0.772,1.037-1.535,1.988c-0.763,0.953-1.505,1.79-2.228,2.51c-0.722,0.72-1.535,1.385-2.443,1.99
				c-0.91,0.606-1.725,0.908-2.445,0.908c-0.953,0-1.551-0.539-1.794-1.622c-0.246-1.082-0.095-2.07,0.453-2.963
				c-2.48,3.056-4.658,4.585-6.534,4.585c-1.124,0-2.01-0.425-2.661-1.277c-0.647-0.85-0.971-1.867-0.971-3.049
				c0-1.499,0.582-3.209,1.751-5.126c1.169-1.919,2.661-3.578,4.477-4.977c1.818-1.397,3.534-2.098,5.15-2.098
				c0.806,0,1.527,0.224,2.163,0.671c0.634,0.449,1.009,1.061,1.124,1.839l6.793-13.758c0.233-0.52,0.649-0.778,1.255-0.778h1.428
				c0.548,0,0.707,0.259,0.477,0.778l-10.946,22.455c-0.231,0.49-0.354,0.914-0.369,1.275c-0.013,0.362,0.052,0.606,0.196,0.738
				c0.145,0.129,0.33,0.194,0.563,0.194c1.009,0,2.954-1.962,5.84-5.885C604.46,148.752,604.749,148.658,605.038,148.904z
				 M594.351,151.564c1.963-2.337,2.941-4.47,2.941-6.403c0-1.328-0.505-1.99-1.514-1.99c-1.529,0-3.222,1.246-5.085,3.741
				c-1.859,2.495-2.79,4.565-2.79,6.208c0,0.576,0.147,1.046,0.433,1.406c0.289,0.36,0.664,0.541,1.125,0.541
				C590.758,155.069,592.388,153.9,594.351,151.564z"/>
			<path fill="#BA9262" d="M613.194,148.817c0.304,0.244,0.282,0.597-0.065,1.059c-0.142,0.231-0.336,0.526-0.582,0.888
				c-0.246,0.36-0.744,1.016-1.492,1.967c-0.75,0.953-1.471,1.79-2.165,2.51c-0.69,0.72-1.484,1.378-2.379,1.969
				c-0.895,0.591-1.688,0.886-2.378,0.886c-1.242,0-2.027-0.541-2.359-1.622c-0.332-1.083-0.166-2.185,0.498-3.31l5.018-10.427
				c0.231-0.52,0.649-0.779,1.255-0.779h1.428c0.548,0,0.707,0.259,0.475,0.779l-4.887,10.124c-0.319,0.748-0.384,1.305-0.196,1.665
				c0.188,0.36,0.541,0.541,1.061,0.541c1.009,0,2.956-1.962,5.84-5.885C612.581,148.694,612.892,148.571,613.194,148.817z
				 M610.858,134.28c0.563-0.418,1.147-0.628,1.753-0.628c0.604,0,1.037,0.209,1.298,0.628c0.259,0.418,0.272,0.929,0.043,1.535
				c-0.203,0.606-0.606,1.111-1.212,1.514c-0.606,0.403-1.212,0.606-1.818,0.606c-0.606,0-1.024-0.203-1.253-0.606
				c-0.233-0.403-0.233-0.908,0-1.514C609.899,135.21,610.295,134.699,610.858,134.28z"/>
			<path fill="#BA9262" d="M618.193,143.473l-4.455,9.389c-0.317,0.748-0.388,1.305-0.216,1.665c0.173,0.36,0.518,0.541,1.039,0.541
				c0.604,0,1.535-0.621,2.791-1.861c1.253-1.24,2.415-2.581,3.481-4.024c0.172-0.259,0.369-0.388,0.584-0.388
				c0.218,0,0.354,0.101,0.412,0.302c0.056,0.203,0.013,0.461-0.129,0.778c-0.147,0.231-0.354,0.526-0.63,0.888
				c-0.272,0.36-0.806,1.016-1.6,1.967c-0.794,0.953-1.557,1.79-2.292,2.51c-0.735,0.72-1.563,1.378-2.487,1.969
				c-0.923,0.591-1.732,0.886-2.424,0.886c-1.268,0-2.07-0.541-2.402-1.622c-0.332-1.083-0.179-2.185,0.455-3.31l4.587-9.691h-1.385
				c-0.52,0-0.707-0.216-0.563-0.649c0.261-0.489,0.662-0.778,1.212-0.865h1.471l2.292-4.802c0.231-0.52,0.649-0.778,1.255-0.778
				h1.557c0.548,0,0.707,0.259,0.477,0.778l-2.292,4.802h2.726c0.548,0,0.763,0.216,0.647,0.649c-0.229,0.49-0.634,0.778-1.21,0.865
				H618.193z"/>
			<path fill="#BA9262" d="M629.855,148.817c0.302,0.244,0.28,0.597-0.065,1.059c-0.144,0.231-0.339,0.526-0.584,0.888
				c-0.244,0.36-0.744,1.016-1.492,1.967c-0.751,0.953-1.471,1.79-2.163,2.51c-0.692,0.72-1.486,1.378-2.381,1.969
				c-0.893,0.591-1.686,0.886-2.379,0.886c-1.24,0-2.025-0.541-2.357-1.622c-0.332-1.083-0.168-2.185,0.496-3.31l5.02-10.427
				c0.229-0.52,0.647-0.779,1.255-0.779h1.428c0.548,0,0.705,0.259,0.475,0.779l-4.889,10.124c-0.317,0.748-0.382,1.305-0.196,1.665
				c0.19,0.36,0.543,0.541,1.061,0.541c1.009,0,2.957-1.962,5.84-5.885C629.242,148.694,629.553,148.571,629.855,148.817z
				 M627.517,134.28c0.565-0.418,1.147-0.628,1.753-0.628c0.606,0,1.037,0.209,1.298,0.628c0.261,0.418,0.274,0.929,0.043,1.535
				c-0.201,0.606-0.606,1.111-1.21,1.514c-0.608,0.403-1.212,0.606-1.818,0.606c-0.606,0-1.024-0.203-1.255-0.606
				c-0.231-0.403-0.231-0.908,0-1.514S626.956,134.699,627.517,134.28z"/>
			<path fill="#BA9262" d="M647.701,143.95c0.175,0.662-0.013,1.341-0.561,2.034c-0.058,0.086-0.116,0.157-0.172,0.216
				c-1.242,1.298-2.741,2.163-4.501,2.596c-1.154,2.452-2.784,4.68-4.889,6.683c-2.105,2.006-4.255,2.965-6.448,2.879
				c-1.41-0.058-2.393-0.47-2.941-1.234c-0.548-0.766-0.806-1.809-0.776-3.138c0.026-1.76,0.647-3.59,1.859-5.495
				c1.212-1.902,2.769-3.418,4.673-4.541c0.981-0.578,1.818-0.867,2.508-0.867h0.043c0.695-0.951,1.803-1.428,3.332-1.428
				c1.067,0.03,1.934,0.369,2.596,1.018c0.662,0.649,1.009,1.52,1.037,2.618c0,0.462-0.086,0.994-0.259,1.6
				c1.615-0.461,2.886-1.455,3.808-2.984C647.328,143.445,647.559,143.458,647.701,143.95z M636.604,153.337
				c1.285-1.268,2.286-2.754,3.008-4.455c-2.482-0.433-3.72-1.775-3.72-4.024v-0.302c-1.328,0.923-2.51,2.219-3.549,3.892
				c-1.037,1.673-1.542,3.202-1.514,4.587c0,1.471,0.621,2.206,1.861,2.206C634.017,155.241,635.323,154.607,636.604,153.337z
				 M640.154,144.101c-0.216-0.418-0.557-0.628-1.018-0.628c-0.489,0.058-0.735,0.375-0.735,0.951c0,0.52,0.16,1.012,0.477,1.473
				c0.317,0.462,0.778,0.791,1.384,0.994c0.056-0.259,0.116-0.707,0.172-1.341C640.464,145.002,640.37,144.519,640.154,144.101z"/>
			<path fill="#BA9262" d="M640.999,157.967c-0.548,0-0.707-0.259-0.475-0.779l7.009-14.45c0.229-0.52,0.647-0.779,1.255-0.779
				h1.296c0.55,0,0.708,0.259,0.477,0.779l-1.126,2.249c2.221-2.277,4.341-3.418,6.362-3.418c0.923,0,1.643,0.224,2.161,0.671
				c0.522,0.448,0.781,1.031,0.781,1.753c0,1.124-0.729,2.942-2.187,5.452c-1.456,2.508-2.182,4.123-2.182,4.846
				c0,0.72,0.345,1.08,1.037,1.08c1.037,0,3.073-2.062,6.101-6.187c0.203-0.259,0.41-0.388,0.625-0.388
				c0.218,0,0.354,0.101,0.412,0.302c0.058,0.203,0,0.461-0.172,0.778c-0.144,0.231-0.347,0.526-0.606,0.888
				c-0.259,0.36-0.772,1.016-1.535,1.967c-0.763,0.953-1.501,1.79-2.208,2.51c-0.705,0.72-1.514,1.378-2.422,1.969
				c-0.908,0.591-1.723,0.886-2.443,0.886c-1.529,0-2.294-0.85-2.294-2.553c0-1.152,0.369-2.48,1.104-3.979
				c0.735-1.501,1.462-2.892,2.184-4.175c0.722-1.283,1.08-2.228,1.08-2.834c0-0.462-0.302-0.692-0.906-0.692
				c-1.039,0-2.199,0.539-3.485,1.622c-1.283,1.083-2.372,2.357-3.265,3.83l-3.808,7.873c-0.231,0.52-0.649,0.779-1.255,0.779
				H640.999z"/>
			<path fill="#BA9262" d="M661.706,150.288c-0.246,0.015-0.392-0.08-0.435-0.282c-0.043-0.201,0.039-0.475,0.239-0.822l3.72-5.234
				c0.173-1.876,0.505-3.159,0.996-3.851c0.578-0.837,1.225-1.197,1.945-1.08c0.636,0.086,0.837,0.518,0.608,1.296
				c-0.086,0.289-0.261,0.606-0.52,0.953c-0.028,0.058-0.477,0.692-1.341,1.904v0.216c-0.028,0.692,0.188,1.904,0.649,3.634
				c0.462,1.732,0.692,2.972,0.692,3.722c0,2.163-0.772,3.966-2.314,5.406c-1.544,1.443-3.399,2.163-5.559,2.163
				c-2.021,0-3.202-0.619-3.549-1.859c-0.289-1.039-0.028-1.356,0.781-0.953c0.401,0.203,0.979,0.304,1.729,0.304
				c1.471,0,2.803-0.643,4.002-1.926c1.195-1.283,1.824-2.819,1.88-4.608c0.03-0.403,0.022-1.016-0.021-1.837
				c-0.043-0.822-0.065-1.406-0.065-1.753l-2.769,4.197C662.172,150.137,661.949,150.273,661.706,150.288z"/>
			<path fill="#BA9262" d="M698.59,143.95c0.172,0.662-0.013,1.341-0.561,2.034c-0.06,0.086-0.117,0.157-0.175,0.216
				c-1.24,1.298-2.741,2.163-4.501,2.596c-1.152,2.452-2.782,4.68-4.887,6.683c-2.107,2.006-4.257,2.965-6.448,2.879
				c-1.413-0.058-2.394-0.47-2.942-1.234c-0.548-0.766-0.806-1.809-0.778-3.138c0.028-1.76,0.649-3.59,1.861-5.495
				c1.21-1.902,2.769-3.418,4.671-4.541c0.981-0.578,1.818-0.867,2.51-0.867h0.043c0.692-0.951,1.803-1.428,3.332-1.428
				c1.067,0.03,1.932,0.369,2.594,1.018c0.664,0.649,1.009,1.52,1.039,2.618c0,0.462-0.086,0.994-0.259,1.6
				c1.613-0.461,2.883-1.455,3.806-2.984C698.215,143.445,698.448,143.458,698.59,143.95z M687.493,153.337
				c1.285-1.268,2.286-2.754,3.006-4.455c-2.48-0.433-3.72-1.775-3.72-4.024v-0.302c-1.326,0.923-2.508,2.219-3.547,3.892
				c-1.039,1.673-1.544,3.202-1.514,4.587c0,1.471,0.621,2.206,1.859,2.206C684.905,155.241,686.21,154.607,687.493,153.337z
				 M691.04,144.101c-0.216-0.418-0.554-0.628-1.016-0.628c-0.492,0.058-0.738,0.375-0.738,0.951c0,0.52,0.159,1.012,0.479,1.473
				c0.315,0.462,0.776,0.791,1.384,0.994c0.056-0.259,0.114-0.707,0.173-1.341C691.351,145.002,691.258,144.519,691.04,144.101z"/>
			<path fill="#BA9262" d="M701.361,143.473l-7.873,16.657c-1.415,3.03-3.375,5.337-5.883,6.922
				c-1.445,0.865-2.381,1.154-2.812,0.865c-0.319-0.201-0.088-0.662,0.69-1.384c1.99-1.902,3.664-4.296,5.02-7.181l7.483-15.878
				h-1.037c-0.52,0-0.707-0.216-0.563-0.649c0.259-0.489,0.664-0.778,1.212-0.865h1.083c0.662-1.384,1.32-2.611,1.967-3.677
				c0.649-1.067,1.421-2.165,2.316-3.289c0.893-1.126,1.924-2.085,3.092-2.877c1.169-0.794,2.43-1.378,3.787-1.753
				c1.643-0.462,2.812-0.477,3.502-0.043c0.375,0.231,0.332,0.447-0.129,0.649c-0.086,0.028-0.201,0.058-0.345,0.086
				c-1.471,0.289-2.972,1.024-4.498,2.206c-2.368,1.876-4.371,4.572-6.017,8.091l-0.302,0.606h3.028c0.55,0,0.766,0.216,0.651,0.649
				c-0.233,0.49-0.634,0.778-1.212,0.865H701.361z"/>
			<path fill="#BA9262" d="M740.693,148.925c0.201,0.028,0.33,0.129,0.388,0.302c0.056,0.175,0.028,0.39-0.086,0.649
				c-2.366,3.722-5.452,6.845-9.26,9.368c-3.806,2.523-7.44,3.785-10.903,3.785c-3.114,0-5.624-0.791-7.526-2.379
				c-1.904-1.587-2.769-4.067-2.596-7.442c0.173-2.741,0.996-5.464,2.467-8.177c-2.54-1.413-3.778-3.36-3.722-5.84
				c0.058-2.48,1.024-4.427,2.898-5.842c1.76-1.326,3.519-1.831,5.279-1.514c0.837,0.144,1.24,0.375,1.212,0.692
				c0,0.175-0.172,0.304-0.52,0.39c-1.673,0.49-2.978,1.333-3.914,2.53c-0.94,1.199-1.436,2.504-1.494,3.916
				c-0.086,1.412,0.418,2.624,1.516,3.634c2.769-4.067,6.461-7.47,11.076-10.209c4.615-2.741,8.997-4.11,13.15-4.11
				c2.135,0.028,3.864,0.474,5.193,1.341c1.326,0.865,1.975,2.12,1.945,3.763c-0.026,2.335-1.339,4.557-3.936,6.664
				c-2.596,2.105-5.674,3.741-9.236,4.91c-3.563,1.167-6.959,1.751-10.189,1.751c-2.135,0-4.067-0.244-5.799-0.735
				c-1.037,2.193-1.613,4.341-1.729,6.448c-0.086,1.615,0.086,2.978,0.52,4.087c0.433,1.111,1.037,1.904,1.818,2.381
				c0.776,0.477,1.535,0.8,2.269,0.973c0.738,0.175,1.494,0.231,2.273,0.175c0.72-0.03,1.419-0.095,2.098-0.196
				s1.732-0.382,3.159-0.843c1.428-0.461,2.791-1.059,4.089-1.796c1.298-0.735,2.775-1.831,4.434-3.286
				c1.658-1.458,3.194-3.166,4.606-5.128C740.318,148.983,740.49,148.897,740.693,148.925z M726.956,134.973
				c-4.024,2.668-7.147,5.891-9.368,9.67c1.415,0.49,3.157,0.649,5.236,0.474c2.711-0.231,5.551-0.951,8.522-2.163
				c2.972-1.21,5.486-2.696,7.547-4.455c2.064-1.76,3.138-3.446,3.226-5.061c0.056-0.837-0.203-1.495-0.781-1.969
				c-0.576-0.477-1.557-0.714-2.941-0.714C734.793,130.899,730.98,132.305,726.956,134.973z"/>
			<path fill="#BA9262" d="M747.576,151.564c0.778-1.501,1.557-2.892,2.335-4.175c0.778-1.283,1.169-2.228,1.169-2.834
				c0-0.462-0.304-0.692-0.908-0.692c-1.069,0-2.286,0.511-3.657,1.536c-1.369,1.024-2.385,2.243-3.049,3.655l-3.938,8.134
				c-0.231,0.52-0.649,0.779-1.255,0.779h-1.514c-0.548,0-0.707-0.259-0.474-0.779l12.934-26.781
				c0.231-0.52,0.649-0.778,1.255-0.778h1.514c0.548,0,0.707,0.259,0.477,0.778l-6.879,14.192c2.133-2.021,4.154-3.03,6.058-3.03
				c0.893,0,1.585,0.224,2.074,0.671c0.492,0.448,0.738,1.031,0.738,1.753c0,1.124-0.781,2.942-2.338,5.452
				c-1.557,2.508-2.335,4.123-2.335,4.846c0,0.72,0.347,1.08,1.037,1.08c0.606,0,1.514-0.641,2.726-1.926
				c1.212-1.283,2.394-2.702,3.549-4.261c0.172-0.259,0.367-0.382,0.582-0.367c0.216,0.013,0.354,0.123,0.412,0.324
				c0.058,0.203,0.015,0.449-0.132,0.735c-0.142,0.231-0.345,0.526-0.604,0.888c-0.259,0.36-0.781,1.016-1.557,1.967
				c-0.781,0.953-1.522,1.79-2.23,2.51c-0.708,0.72-1.52,1.378-2.443,1.969c-0.923,0.591-1.732,0.886-2.422,0.886
				c-1.531,0-2.294-0.85-2.294-2.553C746.408,154.392,746.796,153.063,747.576,151.564z"/>
			<path fill="#BA9262" d="M766.117,148.817c0.302,0.244,0.28,0.597-0.065,1.059c-0.144,0.231-0.339,0.526-0.584,0.888
				c-0.244,0.36-0.744,1.016-1.492,1.967c-0.75,0.953-1.471,1.79-2.163,2.51c-0.692,0.72-1.486,1.378-2.381,1.969
				c-0.893,0.591-1.686,0.886-2.378,0.886c-1.24,0-2.025-0.541-2.357-1.622c-0.332-1.083-0.168-2.185,0.496-3.31l5.02-10.427
				c0.229-0.52,0.647-0.779,1.255-0.779h1.428c0.548,0,0.705,0.259,0.474,0.779l-4.889,10.124c-0.317,0.748-0.382,1.305-0.196,1.665
				c0.19,0.36,0.543,0.541,1.061,0.541c1.009,0,2.957-1.962,5.84-5.885C765.505,148.694,765.816,148.571,766.117,148.817z
				 M763.78,134.28c0.565-0.418,1.147-0.628,1.753-0.628c0.606,0,1.037,0.209,1.298,0.628c0.261,0.418,0.274,0.929,0.043,1.535
				c-0.201,0.606-0.606,1.111-1.21,1.514c-0.608,0.403-1.212,0.606-1.818,0.606c-0.606,0-1.024-0.203-1.255-0.606
				c-0.231-0.403-0.231-0.908,0-1.514C762.823,135.21,763.219,134.699,763.78,134.28z"/>
			<path fill="#BA9262" d="M783.878,145.117c-1.585,1.098-3.084,1.645-4.498,1.645c-0.578,0-1.052-0.058-1.428-0.172
				c-1.729,3.2-3.836,5.92-6.316,8.154c-2.482,2.236-4.63,3.353-6.446,3.353c-1.79,0-2.64-0.936-2.553-2.812
				c0-0.865,0.289-1.846,0.865-2.941l4.846-9.605c0.289-0.52,0.72-0.779,1.298-0.779h1.428c0.403,0,0.606,0.114,0.606,0.345
				l-0.175,0.433l-4.757,9.301c-0.375,0.722-0.591,1.341-0.649,1.861c0,0.692,0.418,1.039,1.253,1.039
				c0.923,0,2.23-0.923,3.916-2.769c1.686-1.846,3.122-4.184,4.304-7.009v-0.045c0.03-0.028,0.043-0.056,0.043-0.086
				c-0.462-0.662-0.677-1.385-0.647-2.163c0.028-0.576,0.224-1.096,0.582-1.557c0.362-0.462,0.932-0.692,1.71-0.692
				c1.298,0,1.932,0.852,1.904,2.553c-0.058,0.606-0.172,1.139-0.347,1.6c0.52,0.144,1.011,0.216,1.473,0.216
				c1.238,0,2.45-0.418,3.631-1.255L783.878,145.117z"/>
			<path fill="#BA9262" d="M798.029,148.817c0.231,0.013,0.375,0.114,0.431,0.302c0.058,0.188,0,0.44-0.172,0.757
				c-0.142,0.231-0.345,0.535-0.604,0.91c-0.261,0.375-0.766,1.037-1.516,1.988c-0.748,0.953-1.477,1.79-2.184,2.51
				c-0.707,0.72-1.507,1.385-2.402,1.99c-0.893,0.606-1.686,0.908-2.379,0.908c-0.951,0-1.55-0.539-1.796-1.622
				c-0.244-1.082-0.093-2.07,0.455-2.963c-2.48,3.056-4.658,4.585-6.532,4.585c-1.156,0-2.049-0.425-2.683-1.277
				c-0.634-0.85-0.953-1.924-0.953-3.222c0-2.394,1.285-4.997,3.852-7.809c2.566-2.814,5.076-4.22,7.528-4.22
				c0.809,0,1.529,0.224,2.163,0.671c0.634,0.449,1.009,1.061,1.126,1.839l0.69-1.428c0.233-0.52,0.651-0.779,1.255-0.779h1.255
				c0.548,0,0.707,0.259,0.477,0.779l-4.846,10.124c-0.231,0.49-0.354,0.914-0.367,1.275c-0.017,0.362,0.05,0.606,0.194,0.738
				c0.142,0.129,0.332,0.194,0.561,0.194c1.009,0,2.959-1.962,5.842-5.885C797.595,148.925,797.798,148.802,798.029,148.817z
				 M787.775,151.564c1.96-2.337,2.941-4.47,2.941-6.403c0-1.328-0.505-1.99-1.514-1.99c-1.529,0-3.224,1.246-5.083,3.741
				c-1.861,2.495-2.791,4.565-2.791,6.208c0,0.576,0.142,1.046,0.431,1.406c0.289,0.36,0.664,0.541,1.126,0.541
				C784.185,155.069,785.815,153.9,787.775,151.564z"/>
			<path fill="#BA9262" d="M806.297,148.925c0.315,0.231,0.345,0.548,0.086,0.951c-0.147,0.231-0.341,0.526-0.586,0.888
				c-0.244,0.36-0.742,1.016-1.492,1.967c-0.75,0.953-1.471,1.79-2.161,2.51c-0.695,0.72-1.488,1.378-2.381,1.969
				c-0.895,0.591-1.686,0.886-2.381,0.886c-1.238,0-2.025-0.541-2.357-1.622c-0.332-1.083-0.166-2.185,0.498-3.31l10.989-22.757
				c0.229-0.52,0.647-0.778,1.255-0.778h1.428c0.548,0,0.705,0.259,0.474,0.778l-10.86,22.455c-0.287,0.634-0.358,1.16-0.216,1.579
				c0.144,0.418,0.461,0.628,0.953,0.628c1.096,0,3.084-1.962,5.969-5.885C805.719,148.781,805.978,148.694,806.297,148.925z"/>
			<path fill="#BA9262" d="M805.801,150.18c-0.218-0.03-0.354-0.138-0.412-0.326c-0.058-0.187-0.015-0.41,0.129-0.671
				c1.385-2.018,2.495-3.922,3.332-5.71c-0.895-0.289-1.341-0.938-1.341-1.947c0-0.606,0.231-1.197,0.692-1.773
				c0.461-0.578,1.068-0.867,1.818-0.867c0.576,0,0.865,0.231,0.865,0.692c0,0.175-0.067,0.433-0.196,0.781
				c-0.129,0.345-0.194,0.591-0.194,0.735c0,0.403,0.246,0.604,0.736,0.604c0.116,0,0.31-0.022,0.584-0.065
				c0.274-0.043,0.541-0.065,0.8-0.065c0.895,0,1.602,0.224,2.12,0.671c0.52,0.448,0.781,1.031,0.781,1.753
				c0,1.124-0.809,2.926-2.424,5.409c-1.615,2.48-2.424,4.08-2.424,4.802c0,0.72,0.347,1.08,1.039,1.08
				c1.095,0,3.144-2.034,6.144-6.101c0.201-0.259,0.412-0.388,0.628-0.388c0.216,0,0.354,0.101,0.41,0.302
				c0.058,0.203,0,0.461-0.172,0.778c-0.144,0.231-0.345,0.526-0.606,0.888c-0.259,0.36-0.763,1.016-1.514,1.967
				c-0.75,0.953-1.477,1.79-2.184,2.51c-0.707,0.72-1.514,1.378-2.424,1.969c-0.908,0.591-1.723,0.886-2.443,0.886
				c-1.529,0-2.292-0.85-2.292-2.553c0-1.152,0.418-2.508,1.255-4.065c0.835-1.559,1.665-3.008,2.486-4.35
				c0.822-1.342,1.232-2.314,1.232-2.92c0-0.431-0.302-0.649-0.906-0.649c-0.116,0-0.289,0.009-0.522,0.022
				c-0.229,0.015-0.401,0.022-0.518,0.022c-0.462,0.837-1.018,1.775-1.665,2.812c-0.651,1.039-1.19,1.876-1.624,2.51l-0.606,0.951
				C806.211,150.107,806.017,150.208,805.801,150.18z"/>
			<path fill="#BA9262" d="M827.154,153.641l-0.996,2.249c3.114-2.135,5.408-4.369,6.879-6.707c0.259-0.403,0.535-0.496,0.822-0.28
				c0.289,0.216,0.304,0.541,0.043,0.972c-1.96,3.23-5.005,6.174-9.128,8.826c-0.837,1.643-1.701,3.172-2.596,4.587
				c-0.893,1.413-1.911,2.825-3.049,4.24c-1.139,1.413-2.359,2.523-3.657,3.332c-1.298,0.807-2.579,1.21-3.849,1.21
				c-1.095,0-1.947-0.287-2.551-0.865c-0.608-0.576-0.91-1.326-0.91-2.249c0-0.664,0.188-1.313,0.563-1.947
				c0.373-0.634,0.822-1.197,1.341-1.686c0.52-0.492,1.292-1.054,2.314-1.688c1.024-0.634,1.926-1.16,2.704-1.579
				c0.778-0.418,1.889-0.996,3.332-1.732c1.443-0.735,2.594-1.348,3.461-1.837l2.077-4.11c-2.221,2.48-4.268,3.72-6.144,3.72
				c-1.24,0-2.027-0.541-2.359-1.622c-0.332-1.083-0.164-2.185,0.498-3.31l5.018-10.427c0.233-0.52,0.651-0.779,1.255-0.779h1.428
				c0.548,0,0.707,0.259,0.477,0.779l-4.889,10.124c-0.317,0.748-0.382,1.305-0.194,1.665c0.186,0.36,0.539,0.541,1.059,0.541
				c0.664,0,1.732-0.664,3.202-1.99c1.471-1.326,2.495-2.611,3.071-3.851l3.116-6.489c0.231-0.52,0.649-0.779,1.253-0.779h1.428
				c0.55,0,0.707,0.259,0.479,0.779l-4.544,8.956L827.154,153.641z M820.318,161.428c-3.953,2.193-6.331,3.578-7.14,4.153
				c-1.443,1.037-2.163,1.975-2.163,2.812c0,0.664,0.405,0.994,1.212,0.994C814.535,169.388,817.23,166.735,820.318,161.428z"/>
		</g>
	</g>
	<g>
		<path fill="#BA9262" d="M336.545,406.145h-1.678v-6.172l-2.885,6.172h-1.578l-3.073-6.301v6.301h-1.68v-10.062h1.708l3.819,7.824
			l3.659-7.824h1.708V406.145z"/>
		<path fill="#BA9262" d="M346.326,404.983h-3.532l-0.431,1.162h-1.807l4.002-10.334l4.02,10.334h-1.807L346.326,404.983z
			 M343.34,403.534h2.439l-1.221-3.489L343.34,403.534z"/>
		<path fill="#BA9262" d="M360.956,406.145h-1.695l-4.995-7.149v7.149h-1.68v-10.047h1.693l5.012,7.147v-7.147h1.665V406.145z"/>
		<path fill="#BA9262" d="M374.466,396.098v6.015c0,0.099-0.015,1.061-0.502,2.038c-0.69,1.378-1.997,2.139-3.675,2.139
			c-1.68,0-2.985-0.761-3.675-2.139c-0.487-0.977-0.502-1.939-0.502-2.038v-6.015H374.466z M372.799,402.098v-4.322h-5.022v4.337
			c0,0,0.015,0.688,0.36,1.335c0.414,0.789,1.117,1.162,2.152,1.162c1.048,0,1.751-0.373,2.152-1.162
			C372.786,402.801,372.799,402.113,372.799,402.098z"/>
		<path fill="#BA9262" d="M381.287,397.776v2.512h4.177v1.665h-4.177v4.192h-1.678v-10.047h6.702v1.678H381.287z"/>
		<path fill="#BA9262" d="M395.444,404.983h-3.53l-0.431,1.162h-1.809l4.005-10.334l4.02,10.334h-1.809L395.444,404.983z
			 M392.458,403.534h2.441l-1.221-3.489L392.458,403.534z"/>
		<path fill="#BA9262" d="M408.767,403.633l1.177,1.192c-0.904,0.904-2.154,1.464-3.545,1.464c-2.771,0-5.04-2.01-5.04-5.169
			c0-3.028,2.096-5.167,5.04-5.167c1.391,0,2.642,0.561,3.545,1.479l-1.177,1.175c-0.602-0.602-1.449-0.975-2.368-0.975
			c-2.068,0-3.332,1.464-3.332,3.487c0,2.154,1.479,3.489,3.332,3.489C407.318,404.61,408.165,404.237,408.767,403.633z"/>
		<path fill="#BA9262" d="M419.577,397.634h-2.109v8.511h-1.665v-8.511h-2.109v-1.536h5.883V397.634z"/>
		<path fill="#BA9262" d="M432.199,396.098v6.015c0,0.099-0.015,1.061-0.502,2.038c-0.69,1.378-1.997,2.139-3.675,2.139
			c-1.68,0-2.984-0.761-3.674-2.139c-0.487-0.977-0.503-1.939-0.503-2.038v-6.015H432.199z M430.532,402.098v-4.322h-5.022v4.337
			c0,0,0.015,0.688,0.36,1.335c0.414,0.789,1.117,1.162,2.152,1.162c1.048,0,1.751-0.373,2.152-1.162
			C430.519,402.801,430.532,402.113,430.532,402.098z"/>
		<path fill="#BA9262" d="M442.608,406.145l-2.611-4.192h-0.96v4.192h-1.682v-5.857h1.596l-1.596-2.512v-1.678h3.347
			c0,0,3.358,0,3.358,2.926c0,1.781-1.236,2.484-2.21,2.756l2.726,4.365H442.608z M440.916,400.275
			c0.446-0.043,1.464-0.259,1.464-1.251c0-1.249-1.678-1.249-1.678-1.249h-1.35L440.916,400.275z"/>
		<path fill="#BA9262" d="M451.198,397.634v6.976h1.175v1.535h-4.033v-1.535h1.177v-6.976h-1.119v-1.536h3.918v1.536H451.198z"/>
		<path fill="#BA9262" d="M465.264,406.145h-1.693l-4.997-7.149v7.149h-1.678v-10.047h1.695l5.007,7.147v-7.147h1.665V406.145z"/>
		<path fill="#BA9262" d="M479.337,400.433v5.756h-1.466l-0.086-0.947c-0.817,0.759-1.665,1.048-2.855,1.048
			c-2.7,0-4.809-1.881-4.809-5.169c0-2.985,2.254-5.167,5.025-5.167c1.393,0,2.639,0.561,3.545,1.479l-1.177,1.175
			c-0.604-0.602-1.449-0.975-2.368-0.975c-1.852,0-3.345,1.292-3.345,3.487c0,2.456,1.492,3.489,3.345,3.489
			c1.005,0,1.893-0.431,2.51-1.134v-1.449h-1.678v-1.594H479.337z"/>
		<path fill="#BA9262" d="M499.281,403.633l1.177,1.192c-0.906,0.904-2.154,1.464-3.545,1.464c-2.771,0-5.04-2.01-5.04-5.169
			c0-3.028,2.096-5.167,5.04-5.167c1.391,0,2.639,0.561,3.545,1.479l-1.177,1.175c-0.604-0.602-1.449-0.975-2.368-0.975
			c-2.068,0-3.332,1.464-3.332,3.487c0,2.154,1.479,3.489,3.332,3.489C497.831,404.61,498.677,404.237,499.281,403.633z"/>
		<path fill="#BA9262" d="M504.738,399.687c0-2.053,1.68-3.733,3.733-3.733s3.731,1.68,3.731,3.733c0,2.053-1.678,3.731-3.731,3.731
			S504.738,401.74,504.738,399.687z M511.743,406.145h-6.631v-1.665h6.631V406.145z M506.403,399.687
			c0,1.147,0.919,2.066,2.068,2.066c1.147,0,2.066-0.919,2.066-2.066c0-1.149-0.919-2.068-2.066-2.068
			C507.322,397.619,506.403,398.537,506.403,399.687z"/>
	</g>
	<rect x="507.613" y="186.459" fill="#0956A4" width="330.671" height="1.63"/>
	<rect x="507.613" y="309.024" fill="#0956A4" width="330.671" height="1.63"/>
	<rect x="507.613" y="182.043" fill="#0956A4" width="330.671" height="1.63"/>
	<rect x="507.613" y="304.608" fill="#0956A4" width="330.671" height="1.63"/>
	<rect x="1.93" y="184.251" fill="#FFFFFF" width="330.671" height="1.63"/>
	<rect x="1.93" y="306.816" fill="#FFFFFF" width="330.671" height="1.63"/>
	<rect x="1.93" y="186.459" fill="#0956A4" width="330.671" height="1.63"/>
	<rect x="1.93" y="309.024" fill="#0956A4" width="330.671" height="1.63"/>
	<rect x="1.93" y="182.043" fill="#0956A4" width="330.671" height="1.63"/>
	<rect x="1.93" y="304.608" fill="#0956A4" width="330.671" height="1.63"/>
</g>
</svg>
