<?xml version="1.0" encoding="utf-8"?>
<!-- Generator: Adobe Illustrator 18.1.0, SVG Export Plug-In . SVG Version: 6.00 Build 0)  -->
<!DOCTYPE svg PUBLIC "-//W3C//DTD SVG 1.1//EN" "http://www.w3.org/Graphics/SVG/1.1/DTD/svg11.dtd">
<svg version="1.1" id="Слой_1" xmlns="http://www.w3.org/2000/svg" xmlns:xlink="http://www.w3.org/1999/xlink" x="0px" y="0px"
	 viewBox="0 0 365.8 45.6" enable-background="new 0 0 365.8 45.6" xml:space="preserve">
<g>
	<g>
		<path fill="none" stroke="#333333" stroke-miterlimit="10" d="M122.9,36.6c0.1,0.1,0.2,0.2,0.4,0.3"/>
		<path fill="none" stroke="#333333" stroke-miterlimit="10" stroke-dasharray="0.9998,0.9998" d="M124.2,37.4
			c5,3,22.3,11.7,40.9-1.6"/>
		<path fill="none" stroke="#333333" stroke-miterlimit="10" d="M165.5,35.6c0.1-0.1,0.3-0.2,0.4-0.3"/>
	</g>
</g>
<g>
	<g>
		<path fill="none" stroke="#333333" stroke-miterlimit="10" d="M281.3,36.9c0.1,0.1,0.2,0.2,0.4,0.3"/>
		<path fill="none" stroke="#333333" stroke-miterlimit="10" stroke-dasharray="0.9998,0.9998" d="M282.6,37.8
			c5,3,22.3,11.7,40.9-1.6"/>
		<path fill="none" stroke="#333333" stroke-miterlimit="10" d="M323.9,35.9c0.1-0.1,0.3-0.2,0.4-0.3"/>
	</g>
</g>
<g>
	<circle fill="#FBD6C4" cx="6.2" cy="39.3" r="6.2"/>
	<g>
		<g>
			<path fill="#333333" d="M3.6,37.2c0.3-0.1,0.7-0.3,1-0.5c0.3-0.2,0.6-0.5,0.9-0.7h0.7v6h-1v-4.6c-0.2,0.1-0.3,0.2-0.6,0.4
				c-0.2,0.1-0.5,0.2-0.7,0.3L3.6,37.2z"/>
			<path fill="#333333" d="M9.5,41.4c0,0.2-0.1,0.4-0.2,0.5C9.1,42,9,42,8.8,42c-0.2,0-0.4-0.1-0.5-0.2c-0.1-0.1-0.2-0.3-0.2-0.5
				c0-0.2,0.1-0.4,0.2-0.5c0.1-0.1,0.3-0.2,0.5-0.2c0.2,0,0.3,0.1,0.5,0.2C9.4,41,9.5,41.2,9.5,41.4z"/>
		</g>
	</g>
</g>
<g>
	<circle fill="#FBD6C4" cx="164.3" cy="39.3" r="6.2"/>
	<g>
		<g>
			<path fill="#333333" d="M163,42.1c-0.2,0-0.3,0-0.5,0c-0.2,0-0.3,0-0.5-0.1c-0.1,0-0.3-0.1-0.4-0.1c-0.1,0-0.2-0.1-0.3-0.1
				l0.2-0.9c0.1,0.1,0.3,0.1,0.5,0.2c0.2,0.1,0.5,0.1,0.8,0.1c0.4,0,0.8-0.1,1-0.3c0.2-0.2,0.3-0.4,0.3-0.7c0-0.2,0-0.4-0.1-0.5
				c-0.1-0.1-0.2-0.2-0.3-0.3c-0.1-0.1-0.3-0.1-0.5-0.2c-0.2,0-0.4,0-0.5,0h-0.3v-0.8h0.4c0.1,0,0.3,0,0.4,0c0.1,0,0.3-0.1,0.4-0.1
				c0.1-0.1,0.2-0.2,0.3-0.3c0.1-0.1,0.1-0.3,0.1-0.4c0-0.1,0-0.3-0.1-0.4c-0.1-0.1-0.1-0.2-0.2-0.2c-0.1-0.1-0.2-0.1-0.3-0.1
				c-0.1,0-0.2,0-0.3,0c-0.3,0-0.5,0-0.7,0.1c-0.2,0.1-0.4,0.2-0.5,0.3l-0.4-0.8c0.1-0.1,0.2-0.1,0.3-0.2c0.1-0.1,0.2-0.1,0.4-0.2
				c0.1-0.1,0.3-0.1,0.4-0.1c0.2,0,0.3,0,0.5,0c0.3,0,0.6,0,0.8,0.1c0.2,0.1,0.4,0.2,0.6,0.3c0.2,0.1,0.3,0.3,0.3,0.5
				c0.1,0.2,0.1,0.4,0.1,0.7c0,0.3-0.1,0.5-0.2,0.7c-0.1,0.2-0.3,0.4-0.6,0.5c0.3,0.1,0.6,0.3,0.8,0.5c0.2,0.3,0.3,0.6,0.3,1
				c0,0.3,0,0.5-0.1,0.7c-0.1,0.2-0.2,0.4-0.4,0.6c-0.2,0.2-0.4,0.3-0.7,0.4C163.7,42,163.4,42.1,163,42.1z"/>
			<path fill="#333333" d="M167.6,41.4c0,0.2-0.1,0.4-0.2,0.5c-0.1,0.1-0.3,0.2-0.5,0.2c-0.2,0-0.4-0.1-0.5-0.2
				c-0.1-0.1-0.2-0.3-0.2-0.5c0-0.2,0.1-0.4,0.2-0.5c0.1-0.1,0.3-0.2,0.5-0.2c0.2,0,0.3,0.1,0.5,0.2C167.5,41,167.6,41.2,167.6,41.4
				z"/>
		</g>
	</g>
</g>
<g>
	<circle fill="#EC691F" cx="242.2" cy="39.3" r="6.2"/>
	<g>
		<path fill="#FFFFFF" d="M242.7,35.9v3.7h0.7v0.9h-0.7v1.4h-1v-1.4h-2.6v-0.7c0.1-0.3,0.3-0.5,0.5-0.9c0.2-0.3,0.4-0.7,0.6-1
			c0.2-0.3,0.5-0.7,0.7-1c0.3-0.3,0.5-0.6,0.8-0.9H242.7z M241.7,37.2c-0.1,0.2-0.3,0.3-0.4,0.5c-0.1,0.2-0.3,0.4-0.4,0.6
			c-0.1,0.2-0.3,0.4-0.4,0.6c-0.1,0.2-0.2,0.4-0.3,0.6h1.6V37.2z"/>
		<path fill="#FFFFFF" d="M245.4,41.4c0,0.2-0.1,0.4-0.2,0.5c-0.1,0.1-0.3,0.2-0.5,0.2c-0.2,0-0.4-0.1-0.5-0.2
			c-0.1-0.1-0.2-0.3-0.2-0.5c0-0.2,0.1-0.4,0.2-0.5c0.1-0.1,0.3-0.2,0.5-0.2c0.2,0,0.3,0.1,0.5,0.2C245.4,41,245.4,41.2,245.4,41.4z
			"/>
	</g>
</g>
<g>
	<circle fill="#EC691F" cx="322.1" cy="39.3" r="6.2"/>
	<g>
		<path fill="#FFFFFF" d="M322,40.2c0-0.2,0-0.4-0.1-0.5c-0.1-0.2-0.2-0.3-0.4-0.4c-0.2-0.1-0.4-0.2-0.7-0.2
			c-0.3-0.1-0.7-0.1-1.2-0.1c0.1-0.6,0.1-1.1,0.1-1.6c0-0.5,0.1-1,0.1-1.5h3v0.9h-2.1c0,0.1,0,0.2,0,0.3c0,0.1,0,0.2,0,0.4
			c0,0.1,0,0.2,0,0.4c0,0.1,0,0.2,0,0.3c0.8,0,1.5,0.2,1.9,0.6c0.4,0.3,0.6,0.8,0.6,1.4c0,0.3,0,0.5-0.1,0.8
			c-0.1,0.2-0.2,0.4-0.4,0.6c-0.2,0.2-0.4,0.3-0.7,0.4c-0.3,0.1-0.6,0.1-1,0.1c-0.2,0-0.3,0-0.5,0c-0.2,0-0.3-0.1-0.5-0.1
			c-0.1,0-0.3-0.1-0.4-0.1c-0.1,0-0.2-0.1-0.3-0.1l0.2-0.9c0.1,0.1,0.3,0.1,0.5,0.2c0.2,0.1,0.5,0.1,0.8,0.1c0.2,0,0.4,0,0.6-0.1
			c0.2,0,0.3-0.1,0.4-0.2c0.1-0.1,0.2-0.2,0.2-0.3C322,40.5,322,40.3,322,40.2z"/>
		<path fill="#FFFFFF" d="M325.4,41.4c0,0.2-0.1,0.4-0.2,0.5c-0.1,0.1-0.3,0.2-0.5,0.2c-0.2,0-0.4-0.1-0.5-0.2
			c-0.1-0.1-0.2-0.3-0.2-0.5c0-0.2,0.1-0.4,0.2-0.5c0.1-0.1,0.3-0.2,0.5-0.2c0.2,0,0.3,0.1,0.5,0.2C325.3,41,325.4,41.2,325.4,41.4z
			"/>
	</g>
</g>
<rect x="170.8" y="12.7" fill="#F3D3C4" width="12.1" height="7.6"/>
<path fill="#EC691F" d="M182.4,12.4h-11c-0.5,0-0.8,0.4-0.8,0.8v6.4c0,0.5,0.4,0.8,0.8,0.8h11c0.5,0,0.8-0.4,0.8-0.8v-6.4
	C183.2,12.8,182.8,12.4,182.4,12.4L182.4,12.4z M182.8,19.6c0,0.2-0.2,0.4-0.4,0.4h-11c-0.2,0-0.4-0.2-0.4-0.4v-6.4
	c0-0.2,0.2-0.4,0.4-0.4h11c0.2,0,0.4,0.2,0.4,0.4V19.6z M182.8,19.6"/>
<path fill="#EC691F" d="M172,17.8c0-0.1,0.1-0.2,0.1-0.3c0-0.1,0-0.2-0.1-0.3c0-0.1-0.1-0.1-0.2-0.1c-0.1,0-0.2,0-0.2,0.1
	c0,0.1-0.1,0.2-0.1,0.3c0,0.1,0,0.2,0.1,0.3c0,0.1,0.1,0.1,0.2,0.1C171.9,17.9,172,17.8,172,17.8L172,17.8z M171.7,17.7
	c0,0,0-0.1,0-0.2c0-0.1,0-0.1,0-0.2c0,0,0-0.1,0.1-0.1c0,0,0.1,0,0.1,0.1c0,0,0,0.1,0,0.2c0,0.1,0,0.1,0,0.2
	C171.9,17.7,171.9,17.7,171.7,17.7C171.8,17.7,171.8,17.7,171.7,17.7L171.7,17.7z M171.7,17.7"/>
<path fill="#EC691F" d="M172.5,17.8v-0.7h-0.1c0,0,0,0,0,0c0,0,0,0,0,0.1c0,0,0,0-0.1,0c0,0,0,0-0.1,0v0.1h0.2v0.5H172.5z
	 M172.5,17.8"/>
<path fill="#EC691F" d="M172.9,17.6c-0.1,0.1-0.1,0.1-0.1,0.2c0,0,0,0.1,0,0.1h0.5v-0.1h-0.3c0,0,0,0,0,0c0,0,0,0,0.1-0.1l0.1,0
	c0,0,0.1-0.1,0.1-0.1c0,0,0-0.1,0-0.1c0-0.1,0-0.1-0.1-0.2c0,0-0.1-0.1-0.2-0.1c-0.1,0-0.2,0-0.2,0.1c0,0,0,0.1,0,0.1h0.1
	c0,0,0-0.1,0-0.1c0,0,0,0,0.1,0c0,0,0.1,0,0.1,0c0,0,0,0,0,0.1c0,0,0,0.1,0,0.1C173,17.5,172.9,17.5,172.9,17.6L172.9,17.6z
	 M172.9,17.6"/>
<path fill="#EC691F" d="M173.5,17.7C173.4,17.7,173.4,17.7,173.5,17.7c-0.1-0.1-0.1-0.1-0.1-0.1h-0.1c0,0.1,0,0.1,0,0.1
	c0,0.1,0.1,0.1,0.2,0.1c0.1,0,0.1,0,0.2-0.1c0,0,0.1-0.1,0.1-0.2c0-0.1,0-0.1-0.1-0.1c0,0,0,0-0.1,0c0,0,0,0,0,0c0,0,0-0.1,0-0.1
	c0-0.1,0-0.1-0.1-0.1c0,0-0.1-0.1-0.2-0.1c0,0-0.1,0-0.1,0c0,0,0,0-0.1,0c0,0,0,0-0.1,0.1c0,0,0,0.1,0,0.1h0.1c0,0,0-0.1,0-0.1
	c0,0,0,0,0.1,0c0,0,0.1,0,0.1,0c0,0,0,0,0,0.1c0,0,0,0.1,0,0.1c0,0,0,0-0.1,0v0.1c0,0,0.1,0,0.1,0c0,0,0.1,0,0.1,0.1
	C173.6,17.7,173.6,17.7,173.5,17.7C173.5,17.7,173.5,17.7,173.5,17.7L173.5,17.7z M173.5,17.7"/>
<path fill="#EC691F" d="M174.8,17.8v-0.2h0.1v-0.1h-0.1v-0.4h-0.2l-0.3,0.4v0.1h0.3v0.2H174.8z M174.5,17.6l0.2-0.3v0.3H174.5z
	 M174.5,17.6"/>
<path fill="#EC691F" d="M175.4,17.6c0-0.1,0-0.1-0.1-0.2c0,0-0.1-0.1-0.2-0.1c0,0-0.1,0-0.1,0c0,0,0,0,0,0l0-0.2h0.3v-0.1H175l0,0.4
	l0.1,0c0,0,0,0,0,0c0,0,0,0,0,0c0,0,0.1,0,0.1,0c0,0,0,0.1,0,0.1c0,0,0,0.1,0,0.1c0,0,0,0-0.1,0c0,0-0.1,0-0.1,0c0,0,0,0,0-0.1h-0.1
	c0,0.1,0,0.1,0.1,0.2c0,0,0.1,0.1,0.2,0.1c0.1,0,0.1,0,0.2-0.1C175.4,17.7,175.4,17.7,175.4,17.6L175.4,17.6z M175.4,17.6"/>
<path fill="#EC691F" d="M175.7,17.9c0.1,0,0.1,0,0.2-0.1c0-0.1,0.1-0.1,0.1-0.2c0-0.1,0-0.1-0.1-0.2c0,0-0.1-0.1-0.2-0.1
	c0,0-0.1,0-0.1,0c0,0,0,0-0.1,0c0-0.1,0-0.1,0-0.1c0-0.1,0.1-0.1,0.1-0.1c0,0,0.1,0,0.1,0c0,0,0,0,0,0h0.1c0-0.1,0-0.1-0.1-0.1
	c0,0-0.1-0.1-0.2-0.1c0,0-0.1,0-0.1,0c0,0-0.1,0-0.1,0.1c0,0,0,0.1,0,0.1c0,0,0,0.1,0,0.1c0,0.1,0,0.2,0,0.2
	C175.6,17.8,175.6,17.9,175.7,17.9L175.7,17.9z M175.6,17.5C175.7,17.5,175.7,17.5,175.6,17.5c0.1,0,0.1,0,0.1,0c0,0,0,0.1,0,0.1
	c0,0,0,0.1,0,0.1c0,0,0,0-0.1,0c0,0-0.1,0-0.1,0c0,0,0-0.1,0-0.1C175.6,17.6,175.6,17.5,175.6,17.5L175.6,17.5z M175.6,17.5"/>
<path fill="#EC691F" d="M176,17.3h0.4c0,0-0.1,0.1-0.1,0.2c-0.1,0.1-0.1,0.3-0.1,0.4h0.1c0,0,0-0.1,0-0.2c0-0.1,0-0.1,0.1-0.2
	c0-0.1,0.1-0.1,0.1-0.2c0-0.1,0.1-0.1,0.1-0.1v-0.1H176L176,17.3z M176,17.3"/>
<path fill="#EC691F" d="M177.6,17.8c0,0,0.1-0.1,0.1-0.2c0,0,0-0.1,0-0.1c0,0,0-0.1-0.1-0.1c0,0,0.1,0,0.1-0.1c0,0,0-0.1,0-0.1
	c0-0.1,0-0.1-0.1-0.1c0,0-0.1-0.1-0.2-0.1c-0.1,0-0.1,0-0.2,0.1c0,0-0.1,0.1-0.1,0.1c0,0,0,0,0,0.1c0,0,0,0.1,0.1,0.1
	c0,0-0.1,0-0.1,0.1c0,0,0,0.1,0,0.1c0,0.1,0,0.1,0.1,0.2c0,0,0.1,0.1,0.2,0.1C177.4,17.9,177.5,17.8,177.6,17.8L177.6,17.8z
	 M177.3,17.3C177.3,17.3,177.3,17.2,177.3,17.3c0.1,0,0.1,0,0.1,0c0,0,0,0,0,0.1c0,0,0,0,0,0.1c0,0,0,0-0.1,0c0,0,0,0-0.1,0
	C177.3,17.4,177.3,17.4,177.3,17.3C177.3,17.3,177.3,17.3,177.3,17.3L177.3,17.3z M177.3,17.6C177.3,17.6,177.3,17.6,177.3,17.6
	c0-0.1,0.1-0.1,0.1-0.1c0,0,0.1,0,0.1,0c0,0,0,0,0,0.1c0,0,0,0.1,0,0.1c0,0,0,0-0.1,0C177.3,17.7,177.3,17.7,177.3,17.6
	C177.3,17.7,177.3,17.7,177.3,17.6L177.3,17.6z M177.3,17.6"/>
<path fill="#EC691F" d="M177.9,17.8C177.9,17.8,177.9,17.7,177.9,17.8C177.9,17.7,177.8,17.7,177.9,17.8l-0.2-0.1
	c0,0.1,0,0.1,0.1,0.1c0,0,0.1,0,0.1,0c0.1,0,0.2-0.1,0.2-0.2c0-0.1,0-0.1,0-0.2c0-0.1,0-0.2,0-0.2c0-0.1-0.1-0.1-0.2-0.1
	c-0.1,0-0.1,0-0.2,0.1c0,0-0.1,0.1-0.1,0.2c0,0.1,0,0.1,0.1,0.2c0,0,0.1,0.1,0.2,0.1c0,0,0.1,0,0.1,0c0,0,0,0,0,0
	C178,17.6,178,17.6,177.9,17.8C178,17.7,178,17.8,177.9,17.8L177.9,17.8z M178,17.5C178,17.5,178,17.5,178,17.5c-0.1,0-0.1,0-0.1,0
	c0,0,0-0.1,0-0.1c0-0.1,0-0.1,0-0.1c0,0,0,0,0.1,0c0,0,0.1,0,0.1,0c0,0,0,0.1,0,0.1C178,17.4,178,17.5,178,17.5L178,17.5z M178,17.5
	"/>
<path fill="#EC691F" d="M178.6,17.8v-0.7h-0.1c0,0,0,0,0,0c0,0,0,0,0,0.1c0,0,0,0-0.1,0c0,0,0,0-0.1,0v0.1h0.2v0.5H178.6z
	 M178.6,17.8"/>
<path fill="#EC691F" d="M179,17.7C179,17.7,179,17.7,179,17.7l0.1-0.1c0,0,0.1-0.1,0.1-0.1c0,0,0-0.1,0-0.1c0-0.1,0-0.1-0.1-0.2
	c0,0-0.1-0.1-0.2-0.1c-0.1,0-0.2,0-0.2,0.1c0,0,0,0.1,0,0.1h0.1c0,0,0-0.1,0-0.1c0,0,0,0,0.1,0c0,0,0.1,0,0.1,0c0,0,0,0,0,0.1
	c0,0,0,0.1,0,0.1c0,0-0.1,0.1-0.1,0.1c-0.1,0.1-0.1,0.1-0.1,0.2c0,0,0,0.1,0,0.1h0.5v-0.1L179,17.7C179,17.7,179,17.7,179,17.7
	L179,17.7z M179,17.7"/>
<path fill="#EC691F" d="M180.3,17.5C180.3,17.5,180.3,17.5,180.3,17.5c0.1-0.1,0.1-0.1,0.1-0.1c0-0.1,0-0.1-0.1-0.1
	c0,0-0.1-0.1-0.2-0.1c0,0-0.1,0-0.1,0c0,0,0,0-0.1,0c0,0,0,0-0.1,0.1c0,0,0,0.1,0,0.1h0.1c0,0,0-0.1,0-0.1c0,0,0,0,0.1,0
	c0,0,0.1,0,0.1,0c0,0,0,0,0,0.1c0,0,0,0.1,0,0.1c0,0,0,0-0.1,0v0.1C180.1,17.5,180.2,17.5,180.3,17.5c-0.1,0.1,0,0.1,0,0.2
	c0,0,0,0.1,0,0.1c0,0,0,0-0.1,0c0,0-0.1,0-0.1-0.1c0,0,0,0,0-0.1h-0.1c0,0.1,0,0.1,0,0.1c0,0.1,0.1,0.1,0.2,0.1c0.1,0,0.1,0,0.2-0.1
	c0,0,0.1-0.1,0.1-0.2C180.4,17.6,180.4,17.5,180.3,17.5C180.3,17.5,180.3,17.5,180.3,17.5L180.3,17.5z M180.3,17.5"/>
<path fill="#EC691F" d="M180.9,17.1h-0.2l-0.3,0.4v0.1h0.3v0.2h0.1v-0.2h0.1v-0.1h-0.1V17.1z M180.7,17.6h-0.2l0.2-0.3V17.6z
	 M180.7,17.6"/>
<path fill="#EC691F" d="M181.3,17.4C181.3,17.4,181.2,17.4,181.3,17.4c-0.1,0-0.1,0-0.1,0l0-0.2h0.3v-0.1h-0.4l0,0.4l0.1,0
	c0,0,0,0,0,0c0,0,0,0,0,0c0,0,0.1,0,0.1,0c0,0,0,0.1,0,0.1c0,0,0,0.1,0,0.1c0,0,0,0-0.1,0c0,0-0.1,0-0.1,0c0,0,0,0,0-0.1H181
	c0,0.1,0,0.1,0.1,0.2c0,0,0.1,0.1,0.2,0.1c0.1,0,0.1,0,0.2-0.1c0-0.1,0.1-0.1,0.1-0.2c0-0.1,0-0.1-0.1-0.2
	C181.4,17.4,181.3,17.4,181.3,17.4L181.3,17.4z M181.3,17.4"/>
<path fill="#EC691F" d="M181.8,17.4C181.8,17.4,181.8,17.4,181.8,17.4c-0.1,0-0.1,0-0.1,0.1c0-0.1,0-0.1,0-0.1
	c0-0.1,0.1-0.1,0.1-0.1c0,0,0.1,0,0.1,0C181.9,17.3,181.9,17.3,181.8,17.4l0.2-0.1c0-0.1,0-0.1-0.1-0.1c0,0-0.1-0.1-0.2-0.1
	c0,0-0.1,0-0.1,0c0,0-0.1,0-0.1,0.1c0,0,0,0.1,0,0.1c0,0,0,0.1,0,0.1c0,0.1,0,0.2,0,0.2c0,0.1,0.1,0.1,0.2,0.1c0.1,0,0.1,0,0.2-0.1
	c0-0.1,0.1-0.1,0.1-0.2c0-0.1,0-0.1-0.1-0.2C182,17.4,181.9,17.4,181.8,17.4L181.8,17.4z M181.9,17.7
	C181.9,17.7,181.9,17.8,181.9,17.7c-0.1,0-0.1,0-0.2,0c0,0,0-0.1,0-0.1c0,0,0-0.1,0-0.1c0,0,0,0,0.1,0c0,0,0.1,0,0.1,0
	C181.9,17.6,181.9,17.6,181.9,17.7C181.9,17.7,181.9,17.7,181.9,17.7L181.9,17.7z M181.9,17.7"/>
<rect x="173.2" y="15.2" fill="#EC691F" width="0.6" height="0.5"/>
<rect x="171.8" y="15.2" fill="#EC691F" width="0.6" height="0.5"/>
<path fill="#EC691F" d="M172.4,16.3v-0.4h-0.5C171.9,16.1,172.1,16.3,172.4,16.3L172.4,16.3z M172.4,16.3"/>
<rect x="172.6" y="15.9" fill="#EC691F" width="0.4" height="0.4"/>
<path fill="#EC691F" d="M173.7,15.9h-0.5v0.4C173.4,16.3,173.6,16.1,173.7,15.9L173.7,15.9z M173.7,15.9"/>
<path fill="#EC691F" d="M173,15h0.7c-0.1-0.3-0.3-0.5-0.6-0.5h-0.6v1.2h0.4V15z M173,15"/>
<path fill="#EC691F" d="M172.4,14.5c-0.3,0-0.5,0.2-0.5,0.5h0.5V14.5z M172.4,14.5"/>
<path fill="#EC691F" d="M180.5,15.8c0.6,0,1.1-0.5,1.1-1.1c0-0.6-0.5-1.1-1.1-1.1c-0.2,0-0.4,0.1-0.6,0.2c-0.2-0.1-0.4-0.1-0.6-0.1
	c-0.6,0-1.2,0.5-1.2,1.2c0,0.6,0.5,1.2,1.2,1.2c0.2,0,0.4-0.1,0.6-0.2C180.2,15.7,180.3,15.8,180.5,15.8L180.5,15.8z M180.5,13.7
	c0.5,0,0.9,0.4,0.9,0.9c0,0.5-0.4,0.9-0.9,0.9c-0.1,0-0.3,0-0.4-0.1c0,0,0,0,0.1-0.1H180c0,0,0,0,0,0c0,0,0,0,0,0
	c0,0-0.1-0.1-0.1-0.1h0.5c0,0,0.1-0.1,0.1-0.1h-0.7c0-0.1-0.1-0.1-0.1-0.2h0.8c0-0.1,0-0.1,0-0.2h-0.9c0,0,0-0.1,0-0.1c0,0,0,0,0,0
	h0.9c0-0.1,0-0.1,0-0.2h-0.8c0-0.1,0-0.1,0.1-0.2h0.7c0-0.1,0-0.1-0.1-0.2h-0.6c0-0.1,0.1-0.1,0.1-0.2h0.3c0-0.1-0.1-0.1-0.1-0.1
	C180.2,13.7,180.4,13.7,180.5,13.7L180.5,13.7z M180.5,13.7"/>
<path fill="#EC691F" d="M172.2,19.3l-0.3-0.4h-0.1v0.6h0.1v-0.4l0.3,0.4h0.1v-0.6h-0.1V19.3z M172.2,19.3"/>
<path fill="#EC691F" d="M172.8,19.4C172.8,19.4,172.8,19.4,172.8,19.4l0-0.3c0-0.1,0-0.1-0.1-0.1c0,0-0.1,0-0.1,0
	c-0.1,0-0.1,0-0.2,0.1c0,0,0,0.1,0,0.1h0.1c0,0,0,0,0,0c0,0,0,0,0.1,0c0,0,0,0,0.1,0c0,0,0,0,0,0c0,0,0,0,0,0c0,0,0,0,0,0l0,0
	c0,0-0.1,0-0.1,0c0,0-0.1,0.1-0.1,0.1c0,0,0,0.1,0,0.1c0,0,0.1,0,0.1,0c0,0,0.1,0,0.1,0c0,0,0,0,0.1,0c0,0,0,0,0,0c0,0,0,0,0,0
	L172.8,19.4L172.8,19.4C172.8,19.5,172.8,19.5,172.8,19.4C172.8,19.5,172.8,19.4,172.8,19.4L172.8,19.4z M172.7,19.3
	C172.7,19.4,172.7,19.4,172.7,19.3c-0.1,0.1-0.1,0.1-0.1,0.1c0,0,0,0,0,0c0,0,0,0,0,0c0,0,0,0,0-0.1
	C172.6,19.3,172.6,19.3,172.7,19.3L172.7,19.3C172.6,19.3,172.7,19.3,172.7,19.3C172.7,19.3,172.7,19.3,172.7,19.3L172.7,19.3
	L172.7,19.3z M172.7,19.3"/>
<path fill="#EC691F" d="M173.5,19.1C173.5,19.1,173.5,19,173.5,19.1c-0.1,0-0.1-0.1-0.1-0.1c0,0-0.1,0-0.1,0c0,0,0,0-0.1,0.1
	c0,0,0,0,0-0.1c0,0-0.1,0-0.1,0c0,0-0.1,0-0.1,0c0,0,0,0,0,0.1V19h-0.1v0.5h0.1v-0.3c0,0,0,0,0-0.1c0,0,0,0,0.1,0c0,0,0.1,0,0.1,0
	c0,0,0,0,0,0.1v0.3h0.1v-0.3c0,0,0,0,0-0.1c0,0,0,0,0.1,0c0,0,0,0,0.1,0c0,0,0,0,0,0v0.3h0.1l0-0.3
	C173.6,19.2,173.6,19.2,173.5,19.1C173.6,19.1,173.6,19.1,173.5,19.1L173.5,19.1z M173.5,19.1"/>
<path fill="#EC691F" d="M174.1,19.2C174.1,19.2,174.1,19.1,174.1,19.2c-0.1-0.1-0.1-0.2-0.1-0.2c0,0-0.1,0-0.1,0
	c-0.1,0-0.1,0-0.2,0.1c0,0-0.1,0.1-0.1,0.2c0,0.1,0,0.1,0.1,0.2c0,0,0.1,0.1,0.2,0.1c0.1,0,0.1,0,0.2-0.1c0,0,0-0.1,0-0.1H174
	c0,0,0,0,0,0c0,0,0,0-0.1,0c0,0,0,0-0.1,0c0,0,0-0.1,0-0.1L174.1,19.2C174.1,19.3,174.1,19.2,174.1,19.2L174.1,19.2z M173.8,19.2
	C173.8,19.2,173.8,19.2,173.8,19.2c0-0.1,0.1-0.1,0.1-0.1c0,0,0.1,0,0.1,0c0,0,0,0,0,0.1H173.8z M173.8,19.2"/>
<path fill="#EC691F" d="M174.8,18.9h-0.1v0.6h0.4v-0.1h-0.3V18.9z M174.8,18.9"/>
<path fill="#EC691F" d="M175.6,19.4C175.6,19.4,175.6,19.4,175.6,19.4l0-0.3c0-0.1,0-0.1-0.1-0.1c0,0-0.1,0-0.1,0
	c-0.1,0-0.1,0-0.2,0.1c0,0,0,0.1,0,0.1h0.1c0,0,0,0,0,0c0,0,0,0,0.1,0c0,0,0,0,0.1,0c0,0,0,0,0,0c0,0,0,0,0,0c0,0,0,0,0,0l0,0
	c0,0-0.1,0-0.1,0c0,0-0.1,0.1-0.1,0.1c0,0,0,0.1,0,0.1c0,0,0.1,0,0.1,0c0,0,0.1,0,0.1,0c0,0,0,0,0.1,0c0,0,0,0,0,0c0,0,0,0,0,0
	L175.6,19.4L175.6,19.4C175.6,19.5,175.6,19.5,175.6,19.4C175.6,19.5,175.6,19.4,175.6,19.4L175.6,19.4z M175.5,19.3
	C175.5,19.4,175.4,19.4,175.5,19.3c-0.1,0.1-0.1,0.1-0.1,0.1c0,0,0,0,0,0c0,0,0,0,0,0c0,0,0,0,0-0.1
	C175.3,19.3,175.3,19.3,175.5,19.3L175.5,19.3C175.4,19.3,175.4,19.3,175.5,19.3C175.4,19.3,175.4,19.3,175.5,19.3L175.5,19.3z
	 M175.5,19.3"/>
<path fill="#EC691F" d="M175.9,19.2c-0.1,0-0.1,0-0.1,0c0,0,0,0,0,0c0,0,0,0,0,0c0,0,0,0,0.1,0C175.9,19.1,175.9,19.1,175.9,19.2
	C175.9,19.1,175.9,19.2,175.9,19.2l0.1,0c0-0.1,0-0.1-0.1-0.1c0,0-0.1,0-0.1,0c-0.1,0-0.1,0-0.1,0c0,0-0.1,0.1-0.1,0.1
	c0,0,0,0.1,0,0.1c0,0,0.1,0,0.1,0c0.1,0,0.1,0,0.1,0c0,0,0,0,0,0c0,0,0,0,0,0c0,0,0,0-0.1,0c0,0-0.1,0-0.1,0c0,0,0,0,0,0h-0.1
	c0,0,0,0.1,0.1,0.1c0,0,0.1,0,0.2,0c0.1,0,0.1,0,0.2,0c0,0,0.1-0.1,0.1-0.1c0,0,0-0.1,0-0.1C176,19.2,176,19.2,175.9,19.2
	L175.9,19.2z M175.9,19.2"/>
<path fill="#EC691F" d="M176.3,18.9h-0.1V19h-0.1v0.1h0.1v0.3c0,0,0,0.1,0,0.1c0,0,0.1,0,0.1,0l0.1,0v-0.1c0,0,0,0,0,0c0,0,0,0,0,0
	c0,0,0,0,0,0c0,0,0,0,0,0v-0.2h0.1V19h-0.1V18.9z M176.3,18.9"/>
<path fill="#EC691F" d="M177,19C176.9,19,176.9,19,177,19c-0.1,0-0.1,0.1-0.1,0.1V19h-0.1v0.5h0.1v-0.3c0,0,0-0.1,0-0.1
	c0,0,0-0.1,0.1-0.1c0,0,0.1,0,0.1,0c0,0,0,0,0,0.1v0.3h0.1v-0.3c0-0.1,0-0.1,0-0.1C177.1,19,177,19,177,19L177,19z M177,19"/>
<path fill="#EC691F" d="M177.6,19.4C177.6,19.4,177.6,19.4,177.6,19.4l0-0.3c0-0.1,0-0.1-0.1-0.1c0,0-0.1,0-0.1,0
	c-0.1,0-0.1,0-0.2,0.1c0,0,0,0.1,0,0.1h0.1c0,0,0,0,0,0c0,0,0,0,0.1,0c0,0,0,0,0.1,0c0,0,0,0,0,0c0,0,0,0,0,0c0,0,0,0,0,0l0,0
	c0,0-0.1,0-0.1,0c0,0-0.1,0.1-0.1,0.1c0,0,0,0.1,0,0.1c0,0,0.1,0,0.1,0c0,0,0.1,0,0.1,0c0,0,0,0,0.1,0c0,0,0,0,0,0c0,0,0,0,0,0
	L177.6,19.4L177.6,19.4C177.6,19.5,177.6,19.5,177.6,19.4C177.6,19.5,177.6,19.4,177.6,19.4L177.6,19.4z M177.5,19.3
	C177.5,19.4,177.5,19.4,177.5,19.3c-0.1,0.1-0.1,0.1-0.1,0.1c0,0,0,0,0,0c0,0,0,0,0,0c0,0,0,0,0-0.1
	C177.4,19.3,177.4,19.3,177.5,19.3L177.5,19.3C177.5,19.3,177.5,19.3,177.5,19.3C177.5,19.3,177.5,19.3,177.5,19.3L177.5,19.3z
	 M177.5,19.3"/>
<path fill="#EC691F" d="M178.4,19.1C178.3,19.1,178.3,19,178.4,19.1c-0.1,0-0.1-0.1-0.1-0.1c0,0-0.1,0-0.1,0c0,0,0,0-0.1,0.1
	c0,0,0,0,0-0.1c0,0-0.1,0-0.1,0c0,0-0.1,0-0.1,0c0,0,0,0,0,0.1V19h-0.1v0.5h0.1v-0.3c0,0,0,0,0-0.1c0,0,0,0,0.1,0c0,0,0.1,0,0.1,0
	c0,0,0,0,0,0.1v0.3h0.1v-0.3c0,0,0,0,0-0.1c0,0,0,0,0.1,0c0,0,0,0,0.1,0c0,0,0,0,0,0v0.3h0.1l0-0.3
	C178.4,19.2,178.4,19.2,178.4,19.1C178.4,19.1,178.4,19.1,178.4,19.1L178.4,19.1z M178.4,19.1"/>
<path fill="#EC691F" d="M178.9,19.2C178.9,19.2,178.9,19.1,178.9,19.2c-0.1-0.1-0.1-0.2-0.1-0.2c0,0-0.1,0-0.1,0
	c-0.1,0-0.1,0-0.2,0.1c0,0-0.1,0.1-0.1,0.2c0,0.1,0,0.1,0.1,0.2c0,0,0.1,0.1,0.2,0.1c0.1,0,0.1,0,0.2-0.1c0,0,0-0.1,0-0.1h-0.1
	c0,0,0,0,0,0c0,0,0,0-0.1,0c0,0,0,0-0.1,0c0,0,0-0.1,0-0.1L178.9,19.2C178.9,19.3,178.9,19.2,178.9,19.2L178.9,19.2z M178.6,19.2
	C178.6,19.2,178.6,19.2,178.6,19.2c0-0.1,0.1-0.1,0.1-0.1c0,0,0.1,0,0.1,0c0,0,0,0,0,0.1H178.6z M178.6,19.2"/>
<g>
	<path fill="#EC691F" d="M184.9,28.5h-1.3c0,0.4,0,0.7-0.1,1.1c0,0.3-0.1,0.6-0.2,0.9c0,0.1-0.1,0.2-0.2,0.1c0,0,0,0,0,0v0.8h0.4
		v-0.5h1.4v0.5h0.4v-0.8h-0.3V28.5z M184.5,30.7h-0.8c0.1-0.2,0.2-0.4,0.2-0.5c0.1-0.4,0.1-0.7,0.1-1.1c0-0.1,0-0.1,0-0.2h0.5
		C184.5,29.4,184.5,30,184.5,30.7L184.5,30.7z M187.2,26.2h-0.7c0,0.1,0,0.2,0,0.3c0,0.3,0,0.6-0.1,0.8c0,0.1-0.1,0.1-0.2,0.1v0.4
		h0.2v-0.3h0.8v0.3h0.2v-0.4c-0.1,0-0.1,0-0.2,0V26.2z M187,27.4h-0.5c0.2-0.3,0.2-0.7,0.2-1h0.3V27.4z M186.7,30.7
		c-0.4,0.1-0.6,0-0.7-0.3c-0.1-0.2-0.1-0.4-0.1-0.7h1.2c0-0.2,0-0.4-0.1-0.6c0-0.2-0.1-0.4-0.3-0.6c-0.2-0.2-0.3-0.2-0.6-0.1
		c-0.2,0.1-0.4,0.2-0.5,0.4c-0.3,0.5-0.3,1.1-0.1,1.7c0.1,0.2,0.2,0.3,0.4,0.4c0.3,0.2,0.8,0.1,1.2-0.1c0-0.1-0.1-0.1-0.1-0.2
		C186.9,30.7,186.8,30.7,186.7,30.7L186.7,30.7z M186.1,28.9c0.1-0.1,0.1-0.1,0.3-0.1c0.1,0,0.2,0.1,0.3,0.2
		c0.1,0.2,0.1,0.4,0.1,0.6h-0.8C185.9,29.3,186,29.1,186.1,28.9L186.1,28.9z M188.2,27.6c0.1,0,0.2,0,0.3-0.1c0.1,0,0.1-0.1,0-0.1
		c-0.1,0-0.1,0-0.2,0.1c-0.2,0-0.3,0-0.4-0.1c-0.1-0.1-0.1-0.3-0.1-0.4h0.7c0-0.2,0-0.4-0.2-0.6c-0.1-0.2-0.3-0.2-0.5-0.1
		c-0.1,0.1-0.1,0.1-0.2,0.2c-0.1,0.2-0.1,0.4-0.1,0.6c0,0.1,0.1,0.3,0.1,0.4C187.8,27.5,188,27.6,188.2,27.6L188.2,27.6z M188,26.3
		c0.1-0.1,0.2-0.1,0.3,0c0.1,0.1,0.1,0.2,0.1,0.4h-0.5C187.9,26.6,187.9,26.5,188,26.3L188,26.3z M189.8,27.5c-0.1,0-0.1,0-0.2,0
		c0,0,0,0-0.1-0.1c-0.1-0.2-0.2-0.3-0.3-0.5c0,0,0,0-0.1-0.1c0,0.1,0,0.1,0,0.2c0,0.2,0,0.3,0,0.5h-0.2v-1.3h0.2v0.6
		c0,0,0.1,0,0.1-0.1c0.1-0.1,0.3-0.3,0.4-0.4c0.1-0.1,0.1-0.1,0.2-0.1c0,0,0,0,0.1,0c0,0,0,0.1-0.1,0.1c-0.1,0.2-0.3,0.3-0.4,0.5
		c0,0,0,0.1,0,0.1C189.5,27,189.6,27.3,189.8,27.5L189.8,27.5z M185.8,26.9h-0.4v0.6h-0.2v-1.4h0.2v0.6h0.4v-0.6h0.2v1.4h-0.2V26.9z
		 M189.1,28.6C189.1,28.6,189.1,28.6,189.1,28.6l0,2.3c0,0,0,0,0,0.1h-0.4v-1.1h-0.5c-0.2,0-0.2,0-0.2,0.2c0,0.3,0,0.6,0,0.9V31
		h-0.4v-2.4h0.4v1h0.7v-1C188.9,28.5,189,28.5,189.1,28.6C189.1,28.5,189.1,28.6,189.1,28.6L189.1,28.6z M194.5,28.5
		c0.1,0,0.2,0,0.4,0V31h-0.4v-1.6c-0.2,0.5-0.5,1.1-0.7,1.6h-0.4v-2.4h0.4V30c0,0,0,0,0,0c0.1-0.1,0.1-0.3,0.2-0.4
		c0.2-0.3,0.3-0.7,0.5-1C194.4,28.5,194.5,28.5,194.5,28.5L194.5,28.5z M183.7,27.5c0.1,0,0.1,0,0.1-0.1c0.1-0.2,0.3-0.4,0.4-0.6
		c0.1-0.1,0.1-0.1,0.2-0.1v0.8h0.3v-2c0-0.1,0-0.1-0.1-0.1c-0.1,0-0.2,0-0.4,0c-0.2,0-0.3,0.1-0.4,0.2c-0.4,0.4-0.3,1,0.2,1.2
		c-0.2,0.3-0.4,0.5-0.5,0.8C183.6,27.5,183.6,27.5,183.7,27.5L183.7,27.5z M184,26.4c-0.2-0.1-0.2-0.3-0.1-0.5c0,0,0,0,0,0
		c0.1-0.3,0.3-0.3,0.6-0.3v0.9C184.3,26.5,184.1,26.6,184,26.4L184,26.4z M190,27.3c-0.1-0.2-0.2-0.4-0.1-0.6c0-0.2,0.1-0.3,0.2-0.5
		c0.2-0.2,0.5-0.2,0.7-0.1c0,0-0.1,0.1-0.1,0.1c0,0,0,0,0,0c-0.3-0.1-0.4,0-0.5,0.2c-0.1,0.2-0.1,0.3,0,0.5c0.1,0.3,0.3,0.4,0.7,0.3
		c0,0.2,0,0.2-0.2,0.2C190.4,27.6,190.2,27.5,190,27.3L190,27.3z M200.4,28.7c0-0.1-0.1-0.2-0.3-0.2c0,0-0.1,0-0.1,0
		c-0.1,0-0.1,0-0.1,0.1c0,0.4,0,0.7,0,1.1c0,0.2-0.2,0.4-0.4,0.4c-0.7,0.2-1.4,0.3-2.1,0.5c-0.1,0-0.2,0-0.2,0c0,0-0.1,0-0.1-0.1
		c0,0,0-0.1,0-0.1c0,0,0.1,0,0.1-0.1c0.1,0,0.3-0.1,0.4-0.1c0.5-0.2,1.1-0.3,1.6-0.5c0.2-0.1,0.4-0.2,0.4-0.4c0-0.6,0-1.3,0-1.9
		c0-0.1-0.1-0.2-0.2-0.2c-0.1,0-0.3,0-0.4,0c-0.7,0.4-1.5,0.7-2.2,1.1c-0.2,0.1-0.3,0.3-0.3,0.5c0,0.6,0,1.2,0,1.8c0,0,0,0.1,0,0.1
		c0.1,0.2,0.3,0.3,0.5,0.3c0.5,0,1,0,1.6,0c0.5,0,1,0,1.6,0c0.1,0,0.2,0,0.3-0.1c0.1-0.1,0.1-0.2,0.1-0.3c0-0.6,0-1.2,0-1.8
		C200.4,28.8,200.4,28.7,200.4,28.7L200.4,28.7z M198.2,28.5c0.1-0.1,0.2-0.2,0.3-0.2c0.1,0,0.2,0.1,0.2,0.2c0,0.2-0.2,0.3-0.4,0.3
		C198.3,28.8,198.2,28.7,198.2,28.5L198.2,28.5z M190.6,29.4c-0.2,0-0.3,0-0.5,0v-0.9h-0.3V31c0.3,0,0.5,0,0.7,0
		c0.4,0,0.6-0.2,0.8-0.5c0.1-0.2,0.1-0.3,0-0.5C191.2,29.6,191,29.4,190.6,29.4L190.6,29.4z M190.8,30.3c-0.1,0.3-0.3,0.4-0.7,0.3
		c0-0.3,0-0.6,0-0.9c0,0,0-0.1,0.1-0.1c0.3-0.1,0.6,0,0.6,0.3C190.8,30.1,190.8,30.2,190.8,30.3L190.8,30.3z M191.7,28.5h1.5v0.2
		H192V31h-0.4C191.7,30.2,191.7,29.3,191.7,28.5L191.7,28.5z M191.7,28.5"/>
</g>
<g>
	<g>
		<defs>
			<path id="SVGID_1_" d="M190.5,17.6l-2.8-1.6c0,0.1,0,0.2,0,0.2c0,0.3,0,0.6,0.1,0.9c0.1,0.5,0.3,1,0.6,1.5
				c0.3,0.6,0.8,1.1,1.3,1.4c0.4,0.3,0.7,0.5,1.2,0.6c0.2,0.1,0.4,0.1,0.6,0.2c0.3,0.1,0.5,0.1,0.8,0.1h0.3c0.2,0,0.3,0,0.5,0
				c0.6-0.1,1.3-0.3,1.8-0.6c0.5-0.3,1-0.8,1.4-1.3c0.4-0.5,0.6-1.1,0.8-1.8c0-0.1,0-0.2,0-0.3c0-0.2,0-0.4,0-0.6c0,0,0-0.1,0-0.1
				c0-0.2,0-0.4-0.1-0.6c-0.1-0.5-0.2-1-0.5-1.4L190.5,17.6z M190.5,16.4l-2.6-1.5c0,0.1-0.1,0.2-0.1,0.3c0,0.1,0,0.1,0,0.2l2.7,1.6
				l5.7-3.3c-0.1-0.1-0.1-0.2-0.2-0.2c0,0-0.1-0.1-0.1-0.1c0,0,0,0,0-0.1L190.5,16.4z M190.5,15.2l-2.2-1.3
				c-0.1,0.1-0.2,0.3-0.2,0.5l2.4,1.4l5-2.9c-0.1-0.1-0.3-0.2-0.4-0.3L190.5,15.2z M190.5,14.1l-1.6-0.9c-0.1,0.1-0.2,0.3-0.3,0.4
				l1.9,1.1l4.1-2.4c-0.2-0.1-0.4-0.2-0.5-0.3L190.5,14.1z"/>
		</defs>
		<use xlink:href="#SVGID_1_"  overflow="visible" fill="#EC691F"/>
		<clipPath id="SVGID_2_">
			<use xlink:href="#SVGID_1_"  overflow="visible"/>
		</clipPath>
		<g clip-path="url(#SVGID_2_)">
			
				<image overflow="visible" width="39" height="39" xlink:href="9198D61096B05C60.png"  transform="matrix(0.24 0 0 0.24 187.6911 11.6547)">
			</image>
		</g>
	</g>
</g>
<g>
	<path fill-rule="evenodd" clip-rule="evenodd" fill="#EC691F" d="M175.1,25.6c0.7,0,1.6-0.1,2.3,0.2c1.3,0.5,1.2,2.5,0,3.1
		c-0.6,0.3-1.5,0.2-2.2,0.2L175.1,25.6L175.1,25.6z M175.1,30.1c1.3,0,2.3,0.1,3.2-0.6c0.7-0.5,1.3-1.4,1.1-2.7
		c-0.2-1.1-0.9-1.8-1.8-2c-1-0.3-2.6-0.2-3.7-0.2l0,4.6l-1.4,0l0,1l1.4,0l0,0.7l-1.5,0l0,0.9l1.5,0l0,1.6l1.2,0l0-1.6l4,0l0-1l-4,0
		L175.1,30.1L175.1,30.1z"/>
</g>
<g>
	<path fill="#333333" d="M312.6,26.6v-0.2l-1.7-5.6h-3.8v-1.3h-9.1v3.5H296l-0.8,1.1h2.8v0.8h-3.1l-0.8,1.1h3.9v0.7h-0.4v1.8h0.4
		v0.3h0.3c0.2,1,1,1.7,2,1.7c1,0,1.9-0.8,2-1.7h4.7c0.2,1,1,1.7,2,1.7c1,0,1.9-0.8,2-1.7h1.5v-0.3h0.5v-1.8H312.6z M300.3,29.5
		c-0.6,0-1.1-0.5-1.1-1.1s0.5-1.1,1.1-1.1c0.6,0,1.1,0.5,1.1,1.1S300.9,29.5,300.3,29.5L300.3,29.5z M309.1,29.5
		c-0.6,0-1.1-0.5-1.1-1.1s0.5-1.1,1.1-1.1c0.6,0,1.1,0.5,1.1,1.1S309.7,29.5,309.1,29.5L309.1,29.5z M308,24.3v-2.5h2.1l0.8,2.5H308
		z M308,24.3"/>
</g>
<g>
	<polygon fill="none" stroke="#333333" stroke-miterlimit="10" points="307.4,18.9 297.6,18.9 297.6,21 298.3,21 298.3,26.5 
		306.6,26.5 306.6,21 307.4,21 	"/>
	<g>
		<path fill="none" stroke="#333333" stroke-miterlimit="10" d="M305.6,18.5c0.2-0.2,0.4-0.3,0.6-0.5c0.4-0.4,0.7-0.9,0.7-1.4
			c0.1-0.5,0-1-0.4-1.4c-0.3-0.3-0.6-0.4-1-0.4c-0.6,0-1.2,0.3-1.7,0.8c-0.8,0.8-1.2,1.9-1.5,2.7c-0.2-0.8-0.5-1.8-1.3-2.5
			c-0.4-0.4-0.9-0.6-1.3-0.6c-0.4,0-0.7,0.1-1,0.4c-0.6,0.6-0.5,1.6,0.2,2.3c0.2,0.2,0.5,0.5,0.8,0.6h-2.6v3h0.8v5.3h9.1v-5.3h0.8
			v-3H305.6z M304.4,16.3c0.3-0.3,0.7-0.5,1.1-0.5c0.1,0,0.3,0,0.4,0.2c0.3,0.3,0.1,1-0.4,1.5c-0.5,0.5-1.2,0.9-1.8,1.1h-0.6
			C303.4,17.9,303.7,16.9,304.4,16.3L304.4,16.3z M299.2,16.7c0-0.1,0-0.3,0.1-0.5c0.1-0.1,0.3-0.1,0.4-0.1c0.3,0,0.5,0.1,0.7,0.3
			c0.4,0.4,0.7,1,1,1.8c0,0,0,0,0,0.1c0,0,0,0-0.1,0c-0.8-0.2-1.4-0.6-1.8-1C299.3,17.1,299.2,16.9,299.2,16.7L299.2,16.7z
			 M301.7,26.1h-3v-4.9h3V26.1z M301.7,20.8h-3.8v-1.5h3.8V20.8z M306.3,26.1h-3v-4.9h3V26.1z M307,20.8h-3.8v-1.5h3.8V20.8z
			 M307,20.8"/>
	</g>
</g>
<polygon fill="#FFFFFF" points="352.8,18.8 333.5,18.8 333.5,23 335,23 335,33.7 351.2,33.7 351.2,23 352.8,23 "/>
<g>
	<path fill="#EC691F" d="M349.1,18.1c0.4-0.3,0.8-0.6,1.2-1c0.8-0.8,1.3-1.7,1.5-2.7c0.2-1-0.1-2-0.7-2.7c-0.5-0.5-1.2-0.8-2-0.8
		c-1.1,0-2.4,0.6-3.3,1.5c-1.5,1.5-2.4,3.7-2.9,5.2c-0.4-1.5-1.1-3.6-2.5-5c-0.7-0.7-1.7-1.1-2.6-1.1c-0.7,0-1.4,0.3-2,0.8
		c-1.2,1.2-1,3.2,0.3,4.5c0.5,0.5,1,0.9,1.6,1.2h-5V24h1.5v10.4H352V24h1.5v-5.9H349.1z M346.9,13.7c0.6-0.6,1.4-1,2.1-1
		c0.2,0,0.6,0.1,0.8,0.3c0.6,0.6,0.3,2-0.7,3c-1,1-2.4,1.7-3.6,2.2h-1.2C344.8,16.8,345.6,14.9,346.9,13.7L346.9,13.7z M336.7,14.4
		c0-0.2,0-0.6,0.3-0.9c0.2-0.2,0.6-0.3,0.8-0.3c0.5,0,1,0.2,1.4,0.6c0.8,0.8,1.4,2,1.9,3.6c0,0,0,0.1,0,0.1c0,0-0.1,0-0.1,0
		c-1.6-0.4-2.8-1.1-3.6-1.9C337,15.3,336.7,14.9,336.7,14.4L336.7,14.4z M341.6,32.9h-5.9v-9.6h5.9V32.9z M341.6,22.6h-7.4v-3h7.4
		V22.6z M350.5,32.9h-5.9v-9.6h5.9V32.9z M352,22.6h-7.4v-3h7.4V22.6z M352,22.6"/>
</g>
<g>
	<path fill="#F3D3C4" d="M41.8,22.7c0,2.1-1.7,3.9-3.8,3.9H13.7c-2.1,0-3.8-1.7-3.8-3.9l0,0c0-2.1,1.7-3.9,3.8-3.9h24.3
		C40.1,18.9,41.8,20.6,41.8,22.7L41.8,22.7z"/>
	<g>
		<g>
			<path fill="#5C5C5C" d="M16.2,23c0.1-0.1,0.2-0.2,0.3-0.3c0.1-0.1,0.2-0.2,0.3-0.3c0.1-0.1,0.2-0.2,0.3-0.3
				c0.1-0.1,0.2-0.2,0.2-0.3h0.9c-0.1,0.1-0.2,0.2-0.3,0.3c-0.1,0.1-0.2,0.3-0.4,0.4c-0.1,0.1-0.2,0.3-0.4,0.4
				c-0.1,0.1-0.2,0.2-0.3,0.3c0.1,0.1,0.3,0.2,0.4,0.4c0.1,0.1,0.3,0.3,0.4,0.4c0.1,0.2,0.3,0.3,0.4,0.5c0.1,0.2,0.2,0.3,0.3,0.4
				h-0.8c-0.1-0.1-0.2-0.2-0.3-0.4c-0.1-0.1-0.2-0.3-0.3-0.4c-0.1-0.1-0.2-0.2-0.3-0.4c-0.1-0.1-0.2-0.2-0.3-0.3v1.4h-0.7v-3.1h0.7
				V23z"/>
			<path fill="#5C5C5C" d="M21.3,21.7C21,22.9,20.6,24,20.2,25c-0.1,0.2-0.2,0.3-0.2,0.5c-0.1,0.1-0.2,0.2-0.3,0.3
				c-0.1,0.1-0.2,0.1-0.3,0.2c-0.1,0-0.3,0.1-0.4,0.1c-0.1,0-0.2,0-0.3,0c-0.1,0-0.2,0-0.2-0.1l0.1-0.6c0.1,0.1,0.3,0.1,0.4,0.1
				c0.2,0,0.3,0,0.4-0.1c0.1-0.1,0.2-0.2,0.3-0.4c-0.2-0.4-0.4-0.9-0.7-1.4c-0.2-0.5-0.4-1.1-0.6-1.7h0.8c0,0.2,0.1,0.4,0.1,0.5
				c0.1,0.2,0.1,0.4,0.2,0.6c0.1,0.2,0.1,0.4,0.2,0.6c0.1,0.2,0.2,0.4,0.2,0.6c0.1-0.4,0.2-0.7,0.4-1.1c0.1-0.4,0.2-0.8,0.3-1.2
				H21.3z"/>
			<path fill="#5C5C5C" d="M24.5,21.7v3.1h-0.7v-2.5h-1.2v2.5h-0.7v-3.1H24.5z"/>
			<path fill="#5C5C5C" d="M28.2,21.7v3.1h-0.7c0-0.2,0-0.5,0-0.7c0-0.2,0-0.4,0-0.6c0-0.2,0-0.4,0-0.5c0-0.1,0-0.2,0-0.3
				c-0.1,0.2-0.2,0.3-0.4,0.5c-0.1,0.2-0.3,0.4-0.4,0.6c-0.1,0.2-0.2,0.4-0.4,0.6c-0.1,0.2-0.2,0.3-0.3,0.5h-0.6v-3.1h0.7
				c0,0.2,0,0.5,0,0.7c0,0.2,0,0.4,0,0.6c0,0.2,0,0.3,0,0.4c0,0.1,0,0.2,0,0.3c0.1-0.2,0.2-0.3,0.3-0.5c0.1-0.2,0.2-0.4,0.4-0.5
				c0.1-0.2,0.2-0.3,0.4-0.5c0.1-0.2,0.2-0.3,0.3-0.4H28.2z"/>
			<path fill="#5C5C5C" d="M31.5,22.3h-1v2.5h-0.7v-2.5h-1v-0.6h2.7V22.3z"/>
			<path fill="#5C5C5C" d="M32.7,22.9c0.1,0,0.1,0,0.3,0c0.1,0,0.2,0,0.3,0c0.2,0,0.3,0,0.5,0.1c0.2,0,0.3,0.1,0.4,0.2
				c0.1,0.1,0.2,0.2,0.3,0.3c0.1,0.1,0.1,0.3,0.1,0.5c0,0.2,0,0.3-0.1,0.5c-0.1,0.1-0.2,0.2-0.3,0.3c-0.1,0.1-0.3,0.1-0.4,0.2
				c-0.2,0-0.4,0.1-0.6,0.1c-0.2,0-0.5,0-0.7,0c-0.2,0-0.4-0.1-0.6-0.1v-3.1h0.7V22.9z M33.3,24.4c0.2,0,0.4,0,0.5-0.1
				c0.1-0.1,0.2-0.2,0.2-0.4c0-0.1,0-0.2-0.1-0.2c0-0.1-0.1-0.1-0.1-0.1c-0.1,0-0.1-0.1-0.2-0.1c-0.1,0-0.2,0-0.3,0
				c-0.1,0-0.2,0-0.3,0c-0.1,0-0.2,0-0.2,0v0.9c0.1,0,0.1,0,0.2,0C33.1,24.4,33.2,24.4,33.3,24.4z"/>
		</g>
	</g>
	<g>
		<path fill="#EC691F" d="M41.7,26.2l1.8,1.8l-0.6,0.6l-1.8-1.9l-0.2-0.2l-0.1,0.3L40,28.3l-2.1-5.6l5.5,2.2l-1.6,0.8L41.4,26
			L41.7,26.2z M41.7,26.2"/>
	</g>
</g>
<g>
	<path fill="#333333" d="M147,24.9c0,0.1,0,0.2,0,0.3v0.6c0,1.4-2.2,2.6-4.9,2.6c-2.7,0-4.9-1.2-4.9-2.6v-0.6c0-0.1,0-0.2,0-0.3
		c0.3,1.3,2.3,2.3,4.8,2.3C144.7,27.2,146.7,26.2,147,24.9L147,24.9z M142.2,29.1c-2.5,0-4.5-1-4.8-2.3c0,0.1,0,0.2,0,0.3v0.6
		c0,1.4,2.2,2.6,4.9,2.6c2.7,0,4.9-1.2,4.9-2.6v-0.6c0-0.1,0-0.2,0-0.3C146.7,28.1,144.7,29.1,142.2,29.1L142.2,29.1z M142.2,21.3
		c-2.7,0-4.9,1.2-4.9,2.6c0,1.4,2.2,2.6,4.9,2.6c2.7,0,4.9-1.2,4.9-2.6C147.1,22.5,144.9,21.3,142.2,21.3L142.2,21.3z M148.1,26.5
		c-0.1,0-0.2,0-0.3,0v1.3c0.1,0,0.2,0,0.3,0c2.7,0,4.9-1.2,4.9-2.6v-0.6c0-0.1,0-0.2,0-0.3C152.6,25.5,150.5,26.5,148.1,26.5
		L148.1,26.5z M148.1,20c2.7,0,4.9-1.2,4.9-2.6c0-1.4-2.2-2.6-4.9-2.6c-2.7,0-4.9,1.2-4.9,2.6C143.2,18.9,145.4,20,148.1,20
		L148.1,20z M148.1,20.7c-2.5,0-4.5-1-4.8-2.3c0,0.1,0,0.2,0,0.3v0.6c0,0.6,0.3,1.1,0.9,1.5c0.9,0.2,1.8,0.5,2.4,1
		c0.5,0.1,1,0.1,1.6,0.1c2.7,0,4.9-1.2,4.9-2.6v-0.6c0-0.1,0-0.2,0-0.3C152.6,19.7,150.5,20.7,148.1,20.7L148.1,20.7z M148.1,22.6
		c-0.3,0-0.5,0-0.8,0c0.3,0.4,0.5,0.9,0.5,1.3c0.1,0,0.2,0,0.3,0c2.7,0,4.9-1.2,4.9-2.6v-0.6c0-0.1,0-0.2,0-0.3
		C152.6,21.6,150.5,22.6,148.1,22.6L148.1,22.6z M148.1,24.6c-0.1,0-0.2,0-0.3,0v1.3c0.1,0,0.2,0,0.3,0c2.7,0,4.9-1.2,4.9-2.6v-0.6
		c0-0.1,0-0.2,0-0.3C152.6,23.6,150.5,24.6,148.1,24.6L148.1,24.6z M148.1,24.6"/>
</g>
<g>
	<path fill="#333333" d="M74.1,16.9c-0.2-0.2-0.4-0.3-0.7-0.3h-12l-0.2-1c-0.1-0.4-0.4-0.7-0.9-0.7h-2c-0.5,0-0.9,0.4-0.9,0.9
		c0,0.5,0.4,0.9,0.9,0.9h1.2l1.6,9.7c0,0,0,0.1,0,0.1c0,0,0,0.1,0,0.1c0,0.1,0.1,0.1,0.1,0.2c0,0,0.1,0.1,0.1,0.1
		c0.1,0,0.1,0.1,0.2,0.1c0,0,0.1,0,0.1,0.1c0.1,0,0.2,0.1,0.3,0.1h9.5c0.5,0,0.9-0.4,0.9-0.9c0-0.5-0.4-0.9-0.9-0.9h-8.8l-0.1-0.9
		h9.8c0.4,0,0.8-0.3,0.9-0.7l0.9-6.1C74.3,17.3,74.2,17.1,74.1,16.9L74.1,16.9z M72.4,18.3L72.2,20h-3.1v-1.7H72.4z M68.2,18.3V20
		h-2.6v-1.7H68.2z M68.2,20.9v1.7h-2.6v-1.7H68.2z M64.7,18.3V20h-2.6c0,0-0.1,0-0.1,0l-0.3-1.8H64.7z M62.2,20.9h2.6v1.7h-2.3
		L62.2,20.9z M69.1,22.6v-1.7h3l-0.3,1.7H69.1z M69.1,22.6"/>
	<path fill="#333333" d="M64.7,29.1c0,0.7-0.6,1.3-1.3,1.3c-0.7,0-1.3-0.6-1.3-1.3c0-0.7,0.6-1.3,1.3-1.3
		C64.2,27.8,64.7,28.4,64.7,29.1L64.7,29.1z M64.7,29.1"/>
	<path fill="#333333" d="M72.5,29.1c0,0.7-0.6,1.3-1.3,1.3c-0.7,0-1.3-0.6-1.3-1.3c0-0.7,0.6-1.3,1.3-1.3
		C72,27.8,72.5,28.4,72.5,29.1L72.5,29.1z M72.5,29.1"/>
</g>
<g>
	<g>
		<path fill="#333333" d="M229.7,20.7c0.1,0.2,0,0.4-0.2,0.5c0,0-4,1.6-4,1.6c-0.1,0-0.2,0.1-0.3,0.1c-0.2,0-0.4-0.1-0.6-0.3l-2-3
			c-0.2-0.3-0.1-0.7,0.2-0.9c0.3-0.2,0.7-0.1,0.9,0.2l2,3l3.4-1.4C229.4,20.4,229.6,20.5,229.7,20.7L229.7,20.7z M225.2,14.8
			c-2.5,0-4.7,1.3-6.1,3.2c0.3,0.2,0.5,0.4,0.8,0.8c1-1.5,2.6-2.6,4.5-2.8l0.8,1.3L226,16c2.9,0.3,5.2,2.6,5.5,5.5l-1.3,0.8l1.3,0.8
			c-0.2,1.9-1.3,3.6-2.9,4.6c0.1,0.2,0.2,0.5,0.2,0.7c0,0.2,0,0.3,0,0.5c2.3-1.3,3.9-3.7,3.9-6.5C232.7,18.2,229.3,14.8,225.2,14.8
			L225.2,14.8z M227.1,27.1c-1.7-1.4-2.2-0.7-3,0.1c-0.5,0.5-1.9-0.6-3.1-1.8c-1.2-1.2-2.3-2.6-1.8-3.1c0.8-0.8,1.5-1.3,0.1-3
			c-1.4-1.7-2.3-0.4-3,0.4c-0.9,0.9,0,4.1,3.2,7.3c3.2,3.2,6.4,4,7.3,3.2C227.5,29.4,228.8,28.4,227.1,27.1L227.1,27.1z M218.1,20.2
			c0,0-0.1,0-0.1,0c-0.1,0-0.2,0.1-0.3,0.1c-0.1,0-0.1,0.1-0.2,0.1c-0.1,0-0.1,0.1-0.2,0.1c-0.1,0-0.1,0.1-0.1,0.2
			c0,0.1-0.1,0.1-0.1,0.2c0,0.1,0,0.2-0.1,0.2c0,0.1,0,0.2,0,0.3c0,0.2,0,0.3,0,0.5c0,0.1,0,0.3,0.1,0.3c0,0.1,0,0.1,0,0.1
			s0,0-0.1-0.1c0-0.1-0.1-0.2-0.2-0.3c-0.1-0.1-0.1-0.3-0.2-0.5c0-0.1-0.1-0.2-0.1-0.3c0-0.1,0-0.2,0-0.3c0-0.1,0-0.2,0-0.4
			c0-0.1,0.1-0.2,0.1-0.3c0.1-0.1,0.1-0.2,0.2-0.3c0.1-0.1,0.1-0.2,0.2-0.2c0.1-0.1,0.2-0.2,0.3-0.3c0,0,0.1,0,0.1-0.1c0,0,0,0,0,0
			L218.1,20.2C218.2,20.2,218.2,20.2,218.1,20.2L218.1,20.2z M226.9,28.9c-0.1,0.1-0.1,0.2-0.3,0.3c-0.1,0.1-0.1,0.1-0.2,0.2
			c-0.1,0.1-0.2,0.1-0.3,0.2c-0.1,0.1-0.2,0.1-0.3,0.1c-0.1,0-0.2,0.1-0.3,0.1l-0.2,0l-0.2,0c-0.1,0-0.2,0-0.3,0
			c-0.1,0-0.2-0.1-0.3-0.1c-0.1,0-0.2-0.1-0.2-0.1c-0.1-0.1-0.2-0.1-0.3-0.2c-0.1,0-0.1-0.1-0.1-0.1s0,0,0.1,0c0.1,0,0.2,0,0.3,0
			c0.1,0,0.1,0,0.2,0c0.1,0,0.2,0,0.2,0c0.1,0,0.2,0,0.2-0.1l0.1,0l0.1-0.1c0.3-0.1,0.5-0.4,0.5-0.6c0-0.1,0.1-0.2,0.1-0.3
			c0-0.1,0-0.1,0-0.1l1,0.5C227,28.8,227,28.9,226.9,28.9L226.9,28.9z M226.9,28.9"/>
	</g>
</g>
<line fill="none" x1="43.6" y1="7.9" x2="43.6" y2="7.9"/>
<g>
	<g>
		<path fill="none" stroke="#333333" stroke-miterlimit="10" d="M44.2,8.6c0.1-0.1,0.2-0.2,0.4-0.3"/>
		<path fill="none" stroke="#333333" stroke-miterlimit="10" stroke-dasharray="0.9998,0.9998" d="M45.5,7.8c5-3,22.3-11.7,40.9,1.6
			"/>
		<path fill="none" stroke="#333333" stroke-miterlimit="10" d="M86.8,9.7c0.1,0.1,0.3,0.2,0.4,0.3"/>
	</g>
</g>
<g>
	<g>
		<path fill="none" stroke="#333333" stroke-miterlimit="10" d="M202.8,8.6c0.1-0.1,0.2-0.2,0.4-0.3"/>
		<path fill="none" stroke="#333333" stroke-miterlimit="10" stroke-dasharray="0.9998,0.9998" d="M204.1,7.8
			c5-3,22.3-11.7,40.9,1.6"/>
		<path fill="none" stroke="#333333" stroke-miterlimit="10" d="M245.4,9.7c0.1,0.1,0.3,0.2,0.4,0.3"/>
	</g>
</g>
<g>
	<g>
		<circle fill="#FBD6C4" cx="85.8" cy="39.3" r="6.2"/>
		<g>
			<g>
				<path fill="#333333" d="M86.5,37.5c0,0.2,0,0.4-0.1,0.6c-0.1,0.2-0.2,0.4-0.3,0.6c-0.1,0.2-0.3,0.4-0.5,0.5
					c-0.2,0.2-0.3,0.3-0.5,0.5c-0.1,0.1-0.2,0.2-0.3,0.3c-0.1,0.1-0.2,0.2-0.3,0.4c-0.1,0.1-0.2,0.2-0.3,0.4
					c-0.1,0.1-0.1,0.2-0.1,0.3h2.6v0.9H83c0,0,0-0.1,0-0.2s0-0.1,0-0.2c0-0.3,0-0.5,0.1-0.8c0.1-0.2,0.2-0.5,0.3-0.7
					c0.1-0.2,0.3-0.4,0.5-0.6c0.2-0.2,0.4-0.4,0.5-0.5c0.1-0.1,0.3-0.3,0.4-0.4c0.1-0.1,0.2-0.3,0.3-0.4c0.1-0.1,0.2-0.3,0.2-0.4
					c0.1-0.1,0.1-0.3,0.1-0.4c0-0.3-0.1-0.5-0.3-0.6c-0.2-0.1-0.4-0.2-0.6-0.2c-0.2,0-0.3,0-0.4,0.1c-0.1,0-0.3,0.1-0.4,0.2
					c-0.1,0.1-0.2,0.1-0.3,0.2c-0.1,0.1-0.1,0.1-0.2,0.2l-0.5-0.7c0.2-0.2,0.5-0.4,0.8-0.6c0.3-0.1,0.7-0.2,1-0.2
					c0.6,0,1.1,0.2,1.4,0.5C86.4,36.5,86.5,37,86.5,37.5z"/>
				<path fill="#333333" d="M89.1,41.4c0,0.2-0.1,0.4-0.2,0.5C88.8,42,88.6,42,88.4,42c-0.2,0-0.4-0.1-0.5-0.2
					c-0.1-0.1-0.2-0.3-0.2-0.5c0-0.2,0.1-0.4,0.2-0.5c0.1-0.1,0.3-0.2,0.5-0.2c0.2,0,0.3,0.1,0.5,0.2C89,41,89.1,41.2,89.1,41.4z"/>
			</g>
		</g>
	</g>
	<g>
		<path fill="#EC691F" d="M115,24.2l-3.6-3.6v-5.4H109v3l-3.6-3.6l-9.7,9.7v0.6h2.4v6h6v-3.6h2.4v3.6h6v-6h2.4V24.2z M115,24.2"/>
	</g>
	<path fill="#FBD6C4" d="M119.2,16.7h-3.4c-1.4,0-2.6,1.2-2.6,2.6c0,0.2,0,0.5,0.1,0.7l-1.3,2l2.3-0.6c0.4,0.3,0.9,0.5,1.5,0.5h3.4
		c1.4,0,2.6-1.2,2.6-2.6C121.8,17.8,120.7,16.7,119.2,16.7z"/>
	<g>
		<path fill="#FBD6C4" d="M106.8,0.2c-12.5,0-22.7,10.2-22.7,22.7c0,12.5,10.2,22.7,22.7,22.7c12.5,0,22.7-10.2,22.7-22.7
			C129.4,10.4,119.3,0.2,106.8,0.2z M106.8,42.7c-11,0-19.8-8.9-19.8-19.8c0-11,8.9-19.8,19.8-19.8c11,0,19.8,8.9,19.8,19.8
			C126.6,33.9,117.7,42.7,106.8,42.7z"/>
		<path fill="#EC691F" d="M106.8,3.1c10.9,0,19.8,8.9,19.8,19.8h2.8c0-12.5-10.2-22.6-22.7-22.6V3.1z"/>
	</g>
</g>
<g>
	<path fill="#FBD6C4" d="M264.6,0C252.1,0,242,10.2,242,22.7s10.2,22.7,22.7,22.7s22.7-10.2,22.7-22.7S277.2,0,264.6,0z M264.6,42.5
		c-11,0-19.8-8.9-19.8-19.8s8.9-19.8,19.8-19.8s19.8,8.9,19.8,19.8S275.6,42.5,264.6,42.5z"/>
	<path fill="#EC691F" d="M264.6,0c12.5,0,22.7,10.2,22.7,22.7s-10.2,22.7-22.7,22.7S242,35.2,242,22.7h2.8c0,11,8.9,19.8,19.8,19.8
		s19.8-8.9,19.8-19.8s-8.9-19.8-19.8-19.8c0,0,0,0,0,0L264.6,0"/>
</g>
<path fill="#EC691F" d="M343.1,0c-12.5,0-22.7,10.2-22.7,22.7c0,12.5,10.2,22.7,22.7,22.7c12.5,0,22.7-10.2,22.7-22.7
	C365.8,10.2,355.7,0,343.1,0z M343.1,42.6c-11,0-19.8-8.9-19.8-19.8c0-11,8.9-19.8,19.8-19.8c11,0,19.8,8.9,19.8,19.8
	C363,33.7,354.1,42.6,343.1,42.6z"/>
<g>
	<path fill="#FBD6C4" d="M26.7,0.2C14.2,0.2,4.1,10.4,4.1,22.9c0,12.5,10.2,22.7,22.7,22.7s22.7-10.2,22.7-22.7
		C49.4,10.4,39.3,0.2,26.7,0.2z M26.7,42.7c-11,0-19.8-8.9-19.8-19.8c0-11,8.9-19.8,19.8-19.8c11,0,19.8,8.9,19.8,19.8
		C46.6,33.9,37.7,42.7,26.7,42.7z"/>
	<path fill="#EC691F" d="M44.2,13.5l2.2-1.8C42.6,4.9,35.2,0.2,26.7,0.2v2.8C34.3,3.1,40.9,7.3,44.2,13.5z"/>
</g>
<g>
	<path fill="#FBD6C4" d="M185.3,0.2c-12.5,0-22.7,10.2-22.7,22.7c0,12.5,10.2,22.7,22.7,22.7c12.5,0,22.7-10.2,22.7-22.7
		C208,10.4,197.8,0.2,185.3,0.2z M185.3,42.7c-11,0-19.8-8.9-19.8-19.8c0-11,8.9-19.8,19.8-19.8c11,0,19.8,8.9,19.8,19.8
		C205.2,33.9,196.3,42.7,185.3,42.7z"/>
	<path fill="#EC691F" d="M185.3,42.7c11,0,19.8-8.9,19.8-19.8c0-11-8.9-19.8-19.8-19.8V0.2c12.5,0,22.7,10.2,22.7,22.7
		c0,12.5-10.2,22.7-22.7,22.7V42.7z"/>
</g>
<path fill="#EC691F" d="M275.9,20.3c-0.3-0.3-0.6-0.4-0.8-0.5c0.4-2.1,0.3-3.2-8.2-5.9c-8.6-2.7-9.6-1.6-10.3,0.7l-0.1,0.4
	c-0.2,0.6,0.1,1.3,0.8,1.5l2.8,0.9c0.6,0.2,1.3-0.1,1.5-0.8l0.1-0.4c0.6-1.7,3.2-1,4.8-0.5c1.5,0.5,4.2,1.4,3.6,3.1l-0.1,0.4
	c-0.2,0.6,0.1,1.3,0.8,1.5l2.8,0.9c0.6,0.2,1.3-0.1,1.5-0.8l0.1-0.3c0.2,0.1,0.3,0.2,0.5,0.3c0.6,0.6,0.8,1.8,0.6,3.4
	c-0.4,2.8-1.5,3.8-2.6,4.1v-0.5c0-0.5-0.1-1-0.4-1.4c-1.2-2-2.8-3.7-4.9-5.3v-1.2c0-0.1-0.1-0.2-0.2-0.2h-1.7
	c-0.1,0-0.2,0.1-0.2,0.2v1.2h-2v-1.2c0-0.1-0.1-0.2-0.2-0.2h-1.7c-0.1,0-0.2,0.1-0.2,0.2v1.2c-2.1,1.6-3.7,3.3-4.9,5.3
	c-0.2,0.4-0.4,0.9-0.4,1.4v1.1c0,1.6,1.3,2.8,2.8,2.8h11c1.5,0,2.8-1.2,2.8-2.7c1.9-0.4,2.9-2,3.3-4.7
	C276.9,22.4,276.7,21.1,275.9,20.3L275.9,20.3z M268,27.8l-1.1-0.4c0.1-0.2,0.2-0.5,0.2-0.8c0-1-0.8-1.8-1.8-1.8
	c-1,0-1.8,0.8-1.8,1.8c0,1,0.8,1.8,1.8,1.8c0.4,0,0.7-0.1,1-0.3l0.6,1c-0.5,0.3-1,0.5-1.6,0.5c-1.6,0-2.9-1.3-2.9-2.9
	c0-1.6,1.3-2.9,2.9-2.9c1.6,0,2.9,1.3,2.9,2.9C268.2,27.1,268.1,27.5,268,27.8L268,27.8z M268,27.8"/>
<g>
	<path fill="#D9704E" d="M115.3,18.2L115.3,18.2l-0.4,0.2l-0.1-0.3l0.5-0.3h0.3v2.5h-0.3V18.2z"/>
	<path fill="#D9704E" d="M116.5,20.4v-0.2l0.3-0.3c0.6-0.6,0.9-0.9,0.9-1.3c0-0.3-0.1-0.5-0.5-0.5c-0.2,0-0.4,0.1-0.5,0.2l-0.1-0.2
		c0.2-0.1,0.4-0.3,0.7-0.3c0.5,0,0.8,0.4,0.8,0.7c0,0.5-0.3,0.8-0.9,1.3l-0.2,0.2v0h1.1v0.3H116.5z"/>
	<path fill="#D9704E" d="M118.6,20c0.1,0.1,0.3,0.2,0.6,0.2c0.4,0,0.6-0.3,0.6-0.5c0-0.3-0.3-0.5-0.6-0.5h-0.2V19h0.2
		c0.2,0,0.6-0.1,0.6-0.4c0-0.2-0.1-0.4-0.4-0.4c-0.2,0-0.4,0.1-0.5,0.2l-0.1-0.2c0.1-0.1,0.4-0.2,0.7-0.2c0.5,0,0.7,0.3,0.7,0.6
		c0,0.3-0.2,0.5-0.5,0.6v0c0.3,0.1,0.6,0.3,0.6,0.6c0,0.4-0.3,0.7-0.9,0.7c-0.3,0-0.5-0.1-0.6-0.2L118.6,20z"/>
</g>
</svg>
