<svg xmlns="http://www.w3.org/2000/svg" width="56.693" height="56.693"><path d="M29.403 29.899l.602-.184c-.383-.867-.801-1.736-1.238-2.594-7.859 2.354-15.4 2.184-15.67 2.174l-.013.486c0 3.922 1.479 7.496 3.911 10.199l-.006-.008s4.178-7.409 12.414-10.073zm-1.902-5.127c-2.641-4.694-5.463-8.524-5.666-8.795-4.257 2.01-7.434 5.932-8.424 10.659.402.004 6.762.084 14.09-1.864zm10.926-6.445c-2.688-2.369-6.217-3.807-10.08-3.807-1.24 0-2.443.15-3.598.428.23.307 3.098 4.111 5.707 8.905 5.76-2.161 7.934-5.47 7.971-5.526zm-13.735-3.364l-.051.012.047-.012h.004zm-5.727 26.85l.003-.006-.344-.262.341.268zm12.665-15.687c.355.729.697 1.469 1.016 2.213l.328.791c5.244-.66 10.41.451 10.631.496-.035-3.619-1.33-6.939-3.471-9.54-.03.041-2.477 3.579-8.504 6.04zm-.686 6.152c-9.008 3.141-11.948 9.469-11.976 9.529 2.589 2.021 5.839 3.236 9.378 3.236 2.113 0 4.127-.43 5.959-1.209-.227-1.334-1.113-6.008-3.262-11.59l-.099.034zm-2.597-27.121c-13.6 0-24.625 11.027-24.625 24.625 0 13.6 11.024 24.623 24.625 24.623 13.6 0 24.625-11.023 24.625-24.623 0-13.598-11.026-24.625-24.625-24.625zm16.466 31.582c-.447 1.061-1.002 2.082-1.648 3.035-.639.947-1.373 1.836-2.182 2.645-.809.807-1.697 1.541-2.643 2.182-.955.645-1.979 1.199-3.037 1.648-1.08.455-2.209.805-3.357 1.041-1.178.242-2.389.365-3.6.365s-2.422-.123-3.6-.365c-1.148-.236-2.279-.586-3.357-1.041-1.06-.449-2.083-1.004-3.038-1.648-.945-.641-1.835-1.375-2.643-2.182-.809-.809-1.543-1.697-2.182-2.645-.645-.953-1.199-1.975-1.648-3.035-.456-1.08-.807-2.209-1.043-3.359-.239-1.178-.361-2.387-.361-3.598s.122-2.422.361-3.598c.236-1.15.587-2.281 1.043-3.359.449-1.061 1.004-2.084 1.648-3.038.639-.947 1.373-1.834 2.182-2.645.808-.807 1.697-1.539 2.643-2.18.955-.646 1.978-1.201 3.038-1.65 1.078-.457 2.209-.807 3.357-1.041 1.178-.24 2.389-.363 3.6-.363s2.422.123 3.6.363c1.148.234 2.277.584 3.357 1.041 1.059.449 2.082 1.004 3.037 1.65.945.641 1.834 1.373 2.643 2.18.809.811 1.543 1.697 2.182 2.645.646.953 1.201 1.977 1.648 3.038.457 1.078.807 2.209 1.041 3.359.242 1.176.365 2.387.365 3.598s-.123 2.42-.365 3.598c-.234 1.15-.583 2.279-1.041 3.359zm-10.908-5.201c2.002 5.502 2.814 9.982 2.971 10.902 3.426-2.312 5.861-5.984 6.539-10.238-.314-.101-4.584-1.453-9.51-.664z" fill="#CD4A8B"/></svg>