<svg xmlns="http://www.w3.org/2000/svg" width="56.693" height="56.693"><path d="M38.031 27.257c-3.174 0-3.615 3.168-3.615 3.168h6.748s.043-3.168-3.133-3.168zm-15.31 3.168h-5.982v5.492h5.679c.852-.02 2.467-.268 2.467-2.67 0-2.851-2.164-2.822-2.164-2.822zm5.627-25.324c-13.6 0-24.625 11.023-24.625 24.623s11.025 24.625 24.625 24.625c13.598 0 24.623-11.025 24.623-24.625 0-13.599-11.026-24.623-24.623-24.623zm5.183 15.13h8.477v2.53h-8.477v-2.53zm-4.285 13.272c0 6.271-6.525 6.064-6.525 6.064h-10.692v-20.546h10.692c3.248 0 5.812 1.794 5.812 5.47l-3.135 3.91c4.133 0 3.848 5.102 3.848 5.102zm15.858-.336h-10.647c0 3.816 3.615 3.576 3.615 3.576 3.414 0 3.295-2.211 3.295-2.211h3.617c0 5.867-7.033 5.465-7.033 5.465-8.436 0-7.893-7.855-7.893-7.855s-.008-7.893 7.893-7.893c8.317 0 7.153 8.918 7.153 8.918zm-20.93-8.357c0-2.137-1.453-2.137-1.453-2.137h-5.982v4.584h5.611c.968 0 1.824-.311 1.824-2.447z" fill="#4C5CF0"/></svg>