<svg xmlns="http://www.w3.org/2000/svg" width="20" height="20"><path fill="#fff" d="M7.281 9.875c0 .679-.543 1.222-1.222 1.222-.662 0-1.205-.543-1.205-1.222 0-.662.543-1.205 1.205-1.205.679 0 1.222.543 1.222 1.205zm4.244 0c0 .679-.543 1.222-1.222 1.222-.662 0-1.205-.543-1.205-1.222 0-.662.543-1.205 1.205-1.205.678 0 1.222.543 1.222 1.205zm4.243 0c0 .679-.543 1.222-1.222 1.222-.662 0-1.205-.543-1.205-1.222 0-.662.543-1.205 1.205-1.205.679 0 1.222.543 1.222 1.205zm4.243 0c0-4.345-4.481-7.875-10.014-7.875-5.516 0-9.997 3.53-9.997 7.875 0 1.68.679 3.242 1.799 4.515 0 0-.119 2.325-1.799 4.583l6.059-1.816-.034-.051c1.222.424 2.563.662 3.972.662 5.533 0 10.014-3.531 10.014-7.893z"/></svg>