<?xml version="1.0" encoding="utf-8"?>
<!-- Generator: Adobe Illustrator 17.0.1, SVG Export Plug-In . SVG Version: 6.00 Build 0)  -->
<!DOCTYPE svg PUBLIC "-//W3C//DTD SVG 1.1//EN" "http://www.w3.org/Graphics/SVG/1.1/DTD/svg11.dtd">
<svg version="1.1" id="Layer_1" xmlns="http://www.w3.org/2000/svg" xmlns:xlink="http://www.w3.org/1999/xlink" x="0px" y="0px"
	 width="250px" height="250px" viewBox="0 0 250 250" enable-background="new 0 0 250 250" xml:space="preserve">
<g>
	<path fill="#314856" d="M243.951,178.574c2.244,1.043,3.22,3.71,2.176,5.955l-12.282,26.425c-1.043,2.244-3.708,3.218-5.952,2.176
		l-75.208-34.953c-2.248-1.044-3.22-3.709-2.178-5.953l12.283-26.423c1.042-2.246,3.707-3.22,5.951-2.178L243.951,178.574"/>
	<path fill="#314856" d="M5.181,125.91c0-53.437,43.321-96.756,96.756-96.756c53.434,0,96.755,43.318,96.755,96.756
		c0,53.434-43.321,96.754-96.755,96.754C48.502,222.664,5.181,179.345,5.181,125.91"/>
	<path fill="#E7EFF1" d="M19.757,125.618c0-45.065,36.533-81.599,81.599-81.599c45.066,0,81.598,36.534,81.598,81.599
		c0,45.066-36.532,81.601-81.598,81.601C56.29,207.218,19.757,170.684,19.757,125.618"/>
	<path fill="#FFFFFF" d="M69.469,183.109c-22.92-0.005-41.97-24.809-42.563-56.371c-0.591-31.563,17.503-57.926,40.423-57.926
		C92.97,68.812,97.454,183.113,69.469,183.109z"/>
	<polyline fill="#53B771" points="182.209,59.205 98.523,127.942 60.245,99.745 44.827,116.354 92.085,171.314 100.412,180.997 
		109.092,171.615 197.796,75.757 182.209,59.205 	"/>
	<path fill="#2C404D" d="M194.11,155.413c-3.963,12.391-10.359,23.702-18.623,33.362l52.405,24.355
		c0.611,0.284,1.252,0.419,1.886,0.419c1.689,0,3.307-0.962,4.067-2.595l12.282-26.425c1.044-2.245,0.068-4.912-2.176-5.955
		L194.11,155.413"/>
	<path fill="#2C404D" d="M189.508,84.714l-11.616,12.551c3.273,8.83,5.061,18.384,5.061,28.353
		c0,45.066-36.532,81.601-81.598,81.601c-0.555,0-1.108-0.006-1.661-0.017v15.437c0.747,0.016,1.493,0.026,2.242,0.026
		c29.438,0,55.804-13.146,73.551-33.889c8.263-9.66,14.659-20.971,18.623-33.362c2.975-9.303,4.582-19.214,4.582-29.503
		C198.692,111.177,195.396,97.213,189.508,84.714 M101.937,29.155c-0.749,0-1.495,0.009-2.242,0.026v14.856
		c0.553-0.011,1.106-0.017,1.661-0.017c25.403,0,48.09,11.605,63.055,29.804l11.914-9.786
		C158.578,42.724,131.84,29.155,101.937,29.155"/>
	<path fill="#CED5D7" d="M177.892,97.265l-68.8,74.35l-8.68,9.381l-0.717-0.834v27.038c0.553,0.011,1.106,0.017,1.661,0.017
		c45.066,0,81.598-36.535,81.598-81.601C182.953,115.649,181.165,106.096,177.892,97.265 M101.356,44.019
		c-0.555,0-1.108,0.006-1.661,0.017v82.943l64.716-53.156C149.446,55.624,126.759,44.019,101.356,44.019"/>
	<polyline fill="#4AA365" points="182.209,59.205 176.325,64.037 164.411,73.824 99.695,126.979 99.695,180.163 100.412,180.997 
		109.092,171.615 177.892,97.265 189.508,84.714 197.796,75.757 182.209,59.205 	"/>
</g>
</svg>
