<?xml version="1.0" encoding="utf-8"?>
<!-- Generator: Adobe Illustrator 17.0.1, SVG Export Plug-In . SVG Version: 6.00 Build 0)  -->
<!DOCTYPE svg PUBLIC "-//W3C//DTD SVG 1.1//EN" "http://www.w3.org/Graphics/SVG/1.1/DTD/svg11.dtd">
<svg version="1.1" id="Layer_1" xmlns="http://www.w3.org/2000/svg" xmlns:xlink="http://www.w3.org/1999/xlink" x="0px" y="0px"
	 width="250px" height="250px" viewBox="0 0 250 250" enable-background="new 0 0 250 250" xml:space="preserve">
<g>
	<path fill="#E7EFF1" d="M5.104,126.002c0-66.43,53.854-120.284,120.284-120.284c66.431,0,120.284,53.854,120.284,120.284
		c0,66.431-53.853,120.285-120.284,120.285C58.957,246.286,5.104,192.433,5.104,126.002"/>
	<polyline fill-rule="evenodd" clip-rule="evenodd" fill="#C5D3D6" points="125.387,52.656 135.117,21.471 138.952,53.913 
		154.247,25.046 152.053,57.64 172.39,32.075 164.246,63.712 188.934,42.321 175.116,71.922 203.316,55.43 184.293,81.987 
		215.043,70.956 191.463,93.567 223.714,88.377 196.385,106.27 229.039,107.094 198.887,119.659 230.838,126.47 198.887,133.281 
		229.039,145.846 196.385,146.67 223.714,164.562 191.463,159.373 215.043,181.983 184.293,170.953 203.316,197.511 175.116,181.02 
		188.934,210.621 164.246,189.23 172.39,220.867 152.053,195.301 154.247,227.895 138.952,199.028 135.117,231.47 125.387,200.284 
		115.658,231.47 111.823,199.028 96.529,227.895 98.722,195.301 78.384,220.867 86.529,189.23 61.84,210.621 75.659,181.02 
		47.46,197.511 66.482,170.953 35.732,181.983 59.311,159.373 27.06,164.562 54.391,146.67 21.735,145.846 51.888,133.281 
		19.936,126.47 51.888,119.659 21.735,107.094 54.391,106.27 27.06,88.377 59.311,93.567 35.732,70.956 66.482,81.987 47.46,55.43 
		75.659,71.922 61.84,42.321 86.529,63.712 78.384,32.075 98.722,57.64 96.529,25.046 111.823,53.913 115.658,21.471 
		125.387,52.656 	"/>
	<path fill="#EF6060" d="M171.235,59.804c-2.694-0.265-5.205-0.392-7.555-0.392c-18.887,0-27.94,8.154-38.304,20.511
		c-10.365-12.357-19.418-20.511-38.283-20.511c-2.372,0-4.884,0.127-7.555,0.392c-16.353,1.589-35.24,16.55-37.521,45.214v9.536
		c2.142,27.434,22.848,61.27,83.358,103.72c60.531-42.45,81.238-76.286,83.381-103.72v-9.536
		C206.453,76.354,187.565,61.393,171.235,59.804"/>
	<path fill="#E7EFF1" d="M84.372,135.628c0-22.653,18.363-41.015,41.015-41.015c22.65,0,41.015,18.363,41.015,41.015
		c0,22.652-18.365,41.014-41.015,41.014C102.734,176.642,84.372,158.279,84.372,135.628"/>
	<path fill="#EF6060" d="M125.386,100.699c-2.581,0-5.093,0.29-7.515,0.825v33.872c0,4.152,3.384,7.537,7.537,7.537
		c4.148,0,7.533-3.385,7.533-7.537c0-3.979-3.115-7.255-7.031-7.518v-6.032c7.234,0.266,13.059,6.25,13.059,13.55
		c0,7.469-6.094,13.562-13.56,13.562c-7.473,0-13.565-6.093-13.565-13.562v-31.95c-0.857,0.362-1.69,0.764-2.512,1.197v30.753
		c0,8.855,7.224,16.075,16.077,16.075s16.074-7.219,16.074-16.075c0-8.683-6.952-15.795-15.572-16.063v-6.03
		c11.942,0.27,21.597,10.089,21.597,22.093c0,12.174-9.928,22.1-22.098,22.1c-12.176,0-22.104-9.926-22.104-22.1V108.64
		c-7.689,6.36-12.588,15.973-12.588,26.729c0,19.152,15.524,34.676,34.67,34.676c19.154,0,34.673-15.524,34.673-34.676
		C160.059,116.223,144.54,100.699,125.386,100.699"/>
	<path fill="#CED5D7" d="M125.387,5.718v46.938l9.729-31.185l3.835,32.441l15.296-28.867l-2.195,32.594l20.337-25.565l-7.044,27.359
		c1.17,0.029,2.381,0.088,3.632,0.178l19.956-17.291l-9.106,19.505c2.303,0.86,4.592,1.979,6.815,3.354l16.672-9.75L192.92,69.945
		c2.154,1.977,4.179,4.237,6.021,6.788l16.102-5.776l-12.369,11.861c1.335,2.58,2.496,5.376,3.447,8.392l17.593-2.832L207.95,98.699
		c0.36,2.025,0.632,4.133,0.807,6.319v1.565l20.282,0.511l-20.371,8.488c-0.185,1.961-0.466,3.956-0.849,5.981l23.019,4.906
		l-25.825,5.506c-0.385,1.103-0.802,2.217-1.249,3.339l25.275,10.532l-30.72,0.776c-0.18,0.319-0.361,0.636-0.545,0.958
		l25.94,16.983l-32.251-5.189l23.58,22.609l-30.75-11.03l19.023,26.559l-28.2-16.492l13.818,29.601l-24.689-21.391l8.144,31.637
		l-19.014-23.903c-0.379,0.315-0.763,0.635-1.147,0.952l2.019,29.98l-11.761-22.197c-1.551,1.199-3.135,2.403-4.752,3.617
		l-2.618,22.154l-5.137-16.464c-1.506,1.081-3.033,2.166-4.593,3.259v28.021c66.431,0,120.284-53.854,120.284-120.285
		C245.671,59.572,191.818,5.718,125.387,5.718"/>
	<path fill="#B0BCBF" d="M137.735,209.316c-2.502,1.877-5.091,3.778-7.755,5.69l5.137,16.464L137.735,209.316 M152.228,197.915
		c-3.095,2.561-6.338,5.153-9.742,7.783l11.761,22.197L152.228,197.915 M197.775,147.579c-8.572,14.874-22.689,31.265-44.399,49.384
		l19.014,23.903l-8.144-31.637l24.689,21.391l-13.818-29.601l28.2,16.492l-19.023-26.559l30.75,11.03l-23.58-22.609l32.251,5.189
		L197.775,147.579 M203.764,135.314c-1.464,3.668-3.267,7.436-5.445,11.307l30.72-0.776L203.764,135.314 M207.82,121.564
		c-0.639,3.378-1.562,6.845-2.807,10.412l25.825-5.506L207.82,121.564 M208.757,106.583v7.971c-0.026,0.342-0.056,0.686-0.089,1.029
		l20.371-8.488L208.757,106.583 M223.714,88.377l-17.593,2.832c0.746,2.362,1.361,4.859,1.829,7.49L223.714,88.377 M215.043,70.956
		l-16.102,5.776c1.352,1.873,2.604,3.901,3.733,6.085L215.043,70.956 M203.316,55.43l-16.672,9.75
		c2.169,1.343,4.277,2.93,6.276,4.765L203.316,55.43 M188.934,42.321l-19.956,17.291c0.738,0.054,1.49,0.117,2.257,0.193
		c2.82,0.274,5.718,0.948,8.593,2.022L188.934,42.321 M135.117,21.471l-9.729,31.185v27.253
		c10.36-12.35,19.412-20.497,38.293-20.497c0.546,0,1.102,0.007,1.666,0.021l7.044-27.359L152.053,57.64l2.195-32.594
		l-15.296,28.867L135.117,21.471"/>
	<path fill="#D55656" d="M163.68,59.412c-18.881,0-27.933,8.147-38.293,20.497v14.703c22.65,0,41.015,18.363,41.015,41.015
		c0,22.652-18.365,41.014-41.015,41.014v41.624c1.56-1.093,3.087-2.178,4.593-3.259c2.664-1.912,5.253-3.813,7.755-5.69
		c1.617-1.214,3.2-2.418,4.752-3.617c3.404-2.631,6.647-5.222,9.742-7.783c0.384-0.318,0.768-0.637,1.147-0.952
		c21.711-18.119,35.828-34.51,44.399-49.384c0.184-0.322,0.365-0.639,0.545-0.958c2.178-3.871,3.981-7.639,5.445-11.307
		c0.447-1.122,0.864-2.236,1.249-3.339c1.245-3.567,2.167-7.034,2.807-10.412c0.383-2.025,0.664-4.02,0.849-5.981
		c0.033-0.343,0.062-0.687,0.089-1.029v-7.971v-1.565c-0.176-2.185-0.448-4.293-0.807-6.319c-0.468-2.631-1.083-5.128-1.829-7.49
		c-0.95-3.016-2.112-5.812-3.447-8.392c-1.129-2.184-2.381-4.212-3.733-6.085c-1.842-2.55-3.868-4.811-6.021-6.788
		c-1.999-1.835-4.107-3.422-6.276-4.765c-2.223-1.375-4.512-2.493-6.815-3.354c-2.875-1.074-5.773-1.748-8.593-2.022
		c-0.767-0.075-1.52-0.139-2.257-0.193c-1.251-0.09-2.461-0.149-3.632-0.178C164.782,59.42,164.227,59.412,163.68,59.412"/>
	<path fill="#CED5D7" d="M125.91,121.847v6.032c3.915,0.262,7.031,3.539,7.031,7.518c0,4.152-3.384,7.537-7.533,7.537
		c-0.006,0-0.014,0-0.021,0v6.026c0.007,0,0.015,0,0.021,0c7.466,0,13.56-6.093,13.56-13.562
		C138.969,128.097,133.144,122.113,125.91,121.847 M125.91,113.304v6.03c8.62,0.268,15.572,7.38,15.572,16.063
		c0,8.855-7.22,16.075-16.074,16.075c-0.006,0-0.014,0-0.021,0v6.026c0.007,0,0.015,0,0.021,0c12.17,0,22.098-9.926,22.098-22.1
		C147.506,123.393,137.852,113.574,125.91,113.304 M125.387,94.612v6.087c19.153,0,34.672,15.523,34.672,34.67
		c0,19.152-15.519,34.676-34.673,34.676l0.001,6.596c22.65,0,41.015-18.363,41.015-41.014
		C166.402,112.975,148.038,94.612,125.387,94.612"/>
	<path fill="#D55656" d="M125.387,100.699v42.234c0.007,0,0.015,0,0.021,0c4.148,0,7.533-3.385,7.533-7.537
		c0-3.979-3.115-7.255-7.031-7.518v-6.032c7.234,0.266,13.059,6.25,13.059,13.55c0,7.469-6.094,13.562-13.56,13.562
		c-0.006,0-0.014,0-0.021,0v2.512c0.007,0,0.015,0,0.021,0c8.853,0,16.074-7.219,16.074-16.075c0-8.683-6.952-15.795-15.572-16.063
		v-6.03c11.942,0.27,21.597,10.089,21.597,22.093c0,12.174-9.928,22.1-22.098,22.1c-0.006,0-0.014,0-0.021,0v12.549
		c19.153,0,34.672-15.524,34.672-34.676c0-19.147-15.519-34.67-34.673-34.67"/>
</g>
</svg>
