<?xml version="1.0" encoding="utf-8"?>
<!-- Generator: Adobe Illustrator 17.0.1, SVG Export Plug-In . SVG Version: 6.00 Build 0)  -->
<!DOCTYPE svg PUBLIC "-//W3C//DTD SVG 1.1//EN" "http://www.w3.org/Graphics/SVG/1.1/DTD/svg11.dtd">
<svg version="1.1" id="Layer_1" xmlns="http://www.w3.org/2000/svg" xmlns:xlink="http://www.w3.org/1999/xlink" x="0px" y="0px"
	 width="170px" height="170px" viewBox="0 0 170 170" enable-background="new 0 0 170 170" xml:space="preserve">
<path fill-rule="evenodd" clip-rule="evenodd" fill="#5988C1" d="M146.727,101.872c-2.098,3.978-2.466,6.4-6.687,6.4H30.663
	c-4.221,0-5.458-2.34-7.643-6.4L4.643,56.607c-2.209-4.678-0.539-8.289,3.682-8.289h152.08c4.221,0,7.324,3.611,5.204,7.361
	L146.727,101.872"/>
<path fill="#F0EFEA" d="M75.22,69.532c0.687,4.455,1.542,9.86,2.012,12.699c7.592-0.146,13.684-1.02,16.489-1.494l1.759-11.205
	H75.22 M100.887,67.427l-2.502,15.646c-0.163,1.019-0.941,1.839-1.95,2.051c-0.376,0.08-9.258,1.931-21.319,1.931
	c-1.222,0-2.264-0.883-2.47-2.085c-0.018-0.125-2.073-12.357-2.992-18.838c-0.086-0.601-0.366-1.609-1.277-1.609h-2.503
	c-1.382,0-2.503-1.12-2.503-2.504c0-1.38,1.121-2.503,2.503-2.503h2.503c2.947,0,5.288,1.981,6.056,5.006h23.986
	c0.733,0,1.428,0.324,1.902,0.88C100.797,65.966,101.002,66.704,100.887,67.427 M93.41,97.07c-2.073,0-3.755-1.682-3.755-3.755
	c0-2.073,1.682-3.755,3.755-3.755s3.755,1.682,3.755,3.755C97.165,95.388,95.483,97.07,93.41,97.07 M75.886,97.07
	c-2.073,0-3.755-1.682-3.755-3.755c0-2.073,1.682-3.755,3.755-3.755c2.073,0,3.755,1.682,3.755,3.755
	C79.641,95.388,77.959,97.07,75.886,97.07"/>
<polyline fill="#F4CC67" points="90.867,33.599 90.867,4.375 79.094,4.375 79.094,33.599 61.433,15.939 61.433,33.599 
	72.595,44.761 97.396,44.731 108.528,33.599 108.528,15.939 90.867,33.599 "/>
<path fill-rule="evenodd" clip-rule="evenodd" fill="#95E5E5" d="M129.299,137.342c-1.896,3.707-3.018,6.495-6.742,6.495H47.579
	c-3.723,0-4.74-2.684-6.742-6.495l-7.898-15.595c-1.997-3.699,1.127-8.395,4.85-8.395h93.543c3.724,0,7.479,4.079,5.974,7.873
	L129.299,137.342"/>
<path fill-rule="evenodd" clip-rule="evenodd" fill="#EF6060" d="M116.761,161.8c-1.913,2.892-5.195,4.398-10.761,4.392H65.111
	c-3.099,0-8.335,0.314-10.176-3.497l-3.798-6.716c-2.913-5.021,0.045-8.078,3.143-8.078h63.287c3.099,0,4.499,3.056,1.884,7.911
	L116.761,161.8"/>
<path fill="#4F79AC" d="M95.48,69.532H85.145V81.81c3.837-0.332,6.838-0.78,8.575-1.074L95.48,69.532 M93.41,97.07
	c-2.073,0-3.755-1.682-3.755-3.755c0-2.073,1.682-3.755,3.755-3.755s3.755,1.682,3.755,3.755
	C97.165,95.388,95.483,97.07,93.41,97.07 M160.406,48.318h-75.26v16.207h13.272c0.733,0,1.428,0.324,1.902,0.88
	c0.478,0.562,0.683,1.299,0.568,2.022l-2.502,15.646c-0.163,1.019-0.941,1.839-1.95,2.051c-0.261,0.056-4.617,0.964-11.288,1.514
	v21.632h54.894c4.221,0,4.589-2.421,6.687-6.4l18.883-46.193C167.73,51.929,164.627,48.318,160.406,48.318"/>
<path fill="#D6D5D1" d="M93.41,89.559c-2.073,0-3.755,1.682-3.755,3.755c0,2.073,1.682,3.755,3.755,3.755s3.755-1.682,3.755-3.755
	C97.165,91.242,95.483,89.559,93.41,89.559 M98.417,64.525H85.145v5.007H95.48l-1.759,11.205c-1.738,0.294-4.738,0.741-8.575,1.074
	v4.829c6.672-0.551,11.028-1.459,11.288-1.514c1.009-0.212,1.788-1.032,1.95-2.051l2.502-15.646
	c0.116-0.723-0.089-1.461-0.568-2.022C99.845,64.848,99.15,64.525,98.417,64.525"/>
<polyline fill="#DAB65C" points="90.867,4.375 85.145,4.375 85.145,44.746 97.396,44.731 108.528,33.599 108.528,15.939 
	90.867,33.599 90.867,4.375 "/>
<path fill="#85CDCD" d="M131.331,113.352H85.145v30.485h37.412c3.723,0,4.846-2.788,6.742-6.495l8.006-16.117
	C138.81,117.431,135.055,113.352,131.331,113.352"/>
<path fill="#D55656" d="M117.568,147.902H85.145v18.291H106c0.011,0,0.021,0,0.032,0c5.546,0,8.821-1.506,10.729-4.392l2.691-5.988
	C122.066,150.958,120.666,147.902,117.568,147.902"/>
</svg>
