<?xml version="1.0" encoding="utf-8"?>
<!-- Generator: Adobe Illustrator 17.0.1, SVG Export Plug-In . SVG Version: 6.00 Build 0)  -->
<!DOCTYPE svg PUBLIC "-//W3C//DTD SVG 1.1//EN" "http://www.w3.org/Graphics/SVG/1.1/DTD/svg11.dtd">
<svg version="1.1" id="Layer_1" xmlns="http://www.w3.org/2000/svg" xmlns:xlink="http://www.w3.org/1999/xlink" x="0px" y="0px"
	 width="250px" height="250px" viewBox="0 0 250 250" enable-background="new 0 0 250 250" xml:space="preserve">
<g>
	<path fill-rule="evenodd" clip-rule="evenodd" fill="#76A1D3" d="M167.795,224.136c-2.999,5.684-4.353,7.459-9.554,9.143
		c0,0-18.421,5.807-35.843,5.807s-33.316-5.807-33.316-5.807c-6.472-2.327-7.798-3.343-10.918-9.143L8.351,72.356
		c-3.156-6.683-3.468-14.262,5.261-11.843c0,0,27.081,13.066,105.465,13.066c85.671,0,111.815-13.066,111.815-13.066
		c8.413-1.937,10.463,5.159,7.435,10.517L167.795,224.136"/>
	<path fill-rule="evenodd" clip-rule="evenodd" fill="#5C7DAD" d="M7.037,42.057c1.602-3.148,14.164-0.434,34.914,2.28
		c20.281,2.653,48.387,5.305,81.731,2.485c23.921-2.023,66.392-7.382,60.741-31.314c26.133-5.39,71.83,10.835,56.116,26.549
		c-9.459,9.459-52.271,22.086-116.752,22.086C59.308,64.143,2.947,50.351,7.037,42.057"/>
	<path fill="#E7EFF1" d="M29.902,103.997c23.03,3.516,58.617,8.054,85.708,8.056c33.131-0.001,79.494-5.071,104.193-8.573
		c0.397-0.057,0.673-0.424,0.618-0.821c-0.057-0.397-0.425-0.673-0.821-0.617c-24.643,3.496-70.997,8.56-103.99,8.559
		c-26.938,0.001-62.502-4.528-85.487-8.039c-0.397-0.061-0.768,0.211-0.828,0.608C29.234,103.566,29.506,103.936,29.902,103.997"/>
	<path fill="#E7EFF1" d="M51.531,153.809c18.746,2.491,41.674,4.7,64.078,4.701c27.584,0,57.787-3.347,79.866-6.451
		c0.397-0.055,0.675-0.422,0.618-0.82c-0.057-0.397-0.422-0.675-0.819-0.618c-22.039,3.098-52.197,6.437-79.665,6.437
		c-22.31-0.001-45.183-2.203-63.888-4.689c-0.397-0.053-0.763,0.227-0.814,0.625C50.854,153.393,51.134,153.757,51.531,153.809"/>
	<path fill="#E7EFF1" d="M71.871,199.726c13.904,1.374,28.934,2.339,43.738,2.339c19.228,0,39.726-1.628,57.86-3.664
		c0.4-0.045,0.686-0.404,0.641-0.802c-0.045-0.398-0.403-0.686-0.802-0.641c-18.098,2.033-38.552,3.655-57.698,3.655
		c-14.739,0-29.728-0.963-43.594-2.332c-0.4-0.038-0.756,0.252-0.795,0.652C71.182,199.331,71.473,199.687,71.871,199.726"/>
	<path fill="#EF6060" d="M77.229,60.766c0-25.736,20.863-46.598,46.598-46.598c25.734,0,46.597,20.863,46.597,46.598
		c0,25.734-20.863,68.687-46.597,68.687C98.091,129.453,77.229,86.5,77.229,60.766"/>
	<path fill="#F0EFEA" d="M152.582,65.044c-2.419-2.419-6.274-2.517-8.572-0.217l-14.242,14.24l-0.004-37.387
		c0.004-2.799-2.79-5.096-6.208-5.096c-3.421,0.003-6.223,2.297-6.217,5.096l-0.006,37.393l-13.743-13.745
		c-2.257-2.261-6.081-2.131-8.5,0.288c-2.414,2.419-2.543,6.238-0.286,8.498l20.535,20.532l1.368,1.367l6.844,6.844l8.786-8.786
		l20.459-20.459C155.095,71.314,154.998,67.462,152.582,65.044"/>
	<path fill="#6990BC" d="M233.546,60.188c-0.801,0-1.687,0.104-2.654,0.326c0,0-15.457,7.724-61.539,11.294
		c-2.206,12.255-7.7,26.124-15.308,37.19c24.607-1.779,49.62-4.694,65.554-6.956c0.034-0.004,0.069-0.007,0.103-0.007
		c0.355,0,0.665,0.261,0.717,0.624c0.055,0.397-0.221,0.764-0.618,0.821c-16.227,2.301-41.805,5.278-66.837,7.051
		c-7.981,11.038-18.112,18.923-29.138,18.923c-0.128,0-0.252-0.001-0.38-0.003v27.522c25.249-0.542,51.868-3.544,71.828-6.35
		c0.034-0.006,0.068-0.007,0.102-0.007c0.356,0,0.666,0.262,0.717,0.625c0.057,0.397-0.221,0.764-0.618,0.82
		c-20.003,2.811-46.679,5.824-72.029,6.366v42.101c16.802-0.36,34.212-1.811,49.86-3.569c0.028-0.003,0.055-0.004,0.082-0.004
		c0.366,0,0.679,0.274,0.72,0.645c0.045,0.398-0.241,0.757-0.641,0.802c-15.689,1.761-33.148,3.217-50.022,3.577v37.101
		c17.104-0.224,34.794-5.8,34.794-5.8c5.202-1.684,6.556-3.46,9.554-9.143l70.532-153.105
		C241.008,66.29,239.711,60.188,233.546,60.188"/>
	<path fill="#52709B" d="M195.774,14.451c-4.004,0-7.852,0.335-11.351,1.056c2.82,11.941-6.34,19.259-19.2,23.844
		c3.323,6.411,5.2,13.694,5.2,21.414c0,0.329-0.003,0.661-0.011,0.995c38.267-4.11,63.182-12.76,70.126-19.704
		C254.149,28.446,221.689,14.451,195.774,14.451"/>
	<path fill="#CED5D7" d="M219.703,102.035c-0.034,0-0.069,0.003-0.103,0.007c-15.934,2.261-40.947,5.176-65.554,6.956
		c-0.356,0.517-0.716,1.028-1.08,1.533c25.032-1.772,50.61-4.75,66.837-7.051c0.397-0.057,0.673-0.424,0.618-0.821
		C220.368,102.296,220.057,102.035,219.703,102.035"/>
	<path fill="#CED5D7" d="M195.377,150.615c-0.034,0-0.068,0.001-0.102,0.007c-19.96,2.806-46.578,5.809-71.828,6.35v1.453
		c25.35-0.542,52.025-3.554,72.029-6.366c0.397-0.055,0.675-0.422,0.618-0.82C196.043,150.877,195.733,150.615,195.377,150.615"/>
	<path fill="#CED5D7" d="M173.39,196.954c-0.027,0-0.054,0.001-0.082,0.004c-15.648,1.758-33.058,3.208-49.86,3.569v1.452
		c16.874-0.36,34.333-1.816,50.022-3.577c0.4-0.045,0.686-0.404,0.641-0.802C174.069,197.227,173.756,196.954,173.39,196.954"/>
	<path fill="#D55656" d="M123.827,14.168c-0.128,0-0.252,0.001-0.38,0.001v22.417c0.037-0.001,0.074-0.001,0.109-0.001
		c3.418,0,6.213,2.297,6.208,5.096l0.004,37.387l14.242-14.24c1.112-1.112,2.586-1.663,4.086-1.663c1.602,0,3.235,0.631,4.486,1.88
		c2.416,2.419,2.512,6.271,0.214,8.568L132.338,94.07l-8.786,8.786l-0.105-0.105v26.7c0.128,0.001,0.252,0.003,0.38,0.003
		c11.026,0,21.157-7.886,29.138-18.923c0.364-0.505,0.724-1.015,1.08-1.533c7.608-11.066,13.102-24.935,15.308-37.19
		c0.634-3.516,0.997-6.9,1.059-10.047c0.008-0.334,0.011-0.666,0.011-0.995c0-7.72-1.877-15.003-5.2-21.414
		C157.468,24.391,141.841,14.168,123.827,14.168"/>
	<path fill="#D6D5D1" d="M123.556,36.584c-0.036,0-0.072,0-0.109,0.001v66.165l0.105,0.105l8.786-8.786l20.459-20.459
		c2.298-2.297,2.202-6.149-0.214-8.568c-1.25-1.249-2.884-1.88-4.486-1.88c-1.5,0-2.974,0.551-4.086,1.663l-14.242,14.24
		l-0.004-37.387C129.769,38.881,126.974,36.584,123.556,36.584"/>
</g>
</svg>
