<?xml version="1.0" encoding="utf-8"?>
<!-- Generator: Adobe Illustrator 17.0.1, SVG Export Plug-In . SVG Version: 6.00 Build 0)  -->
<!DOCTYPE svg PUBLIC "-//W3C//DTD SVG 1.1//EN" "http://www.w3.org/Graphics/SVG/1.1/DTD/svg11.dtd">
<svg version="1.1" id="Layer_1" xmlns="http://www.w3.org/2000/svg" xmlns:xlink="http://www.w3.org/1999/xlink" x="0px" y="0px"
	 width="250px" height="250px" viewBox="0 0 250 250" enable-background="new 0 0 250 250" xml:space="preserve">
<g>
	<polyline fill-rule="evenodd" clip-rule="evenodd" fill="#D1CEBF" points="220,248 38,248 38,12 220,12 220,248 	"/>
	<polyline fill-rule="evenodd" clip-rule="evenodd" fill="#EAE8E1" points="217,244 34,244 34,9 217,9 217,244 	"/>
	<polyline fill-rule="evenodd" clip-rule="evenodd" fill="#F4F4F2" points="173,238 30,238 30,3 212,3 212,199.847 172.698,238.305 
			"/>
	<polyline fill="#EF6060" points="50,43 193.069,43 180.675,186.72 121.81,202.814 62.945,186.739 50.188,43.009 	"/>
	<polyline fill="#EF7D7D" points="74.549,176.853 64.059,55 179.562,55 169.07,176.853 121.81,189.787 74.549,176.853 	"/>
	<text transform="matrix(1 0 0 1 78.6894 136.7256)" fill="#F4F2ED" font-family="'Roboto-Bold'" font-size="62.0096">&lt;/&gt;</text>
	<polyline fill-rule="evenodd" clip-rule="evenodd" fill="#FFFFFF" points="174,238 174,200 212.052,200 174.156,238.853 	"/>
	<polyline fill="#BBB8AB" points="220,12 217,12 217,244 122,244 122,248 220,248 220,12 	"/>
	<polyline fill="#D1CFC9" points="217,9 212,9 212,199.847 185.729,226.16 174,238.581 174,238.032 173.318,238 122,238 122,244 
		217,244 217,11.67 217,9 	"/>
	<polyline fill="#DADAD8" points="212,3 122,3 122,43 193.069,43 180.675,186.72 122.206,202.814 122,202.628 122,238 173.318,238 
		174,238.032 174,200 212.052,200 185.772,226.591 212,199.847 212,9.267 212,3 	"/>
	<polyline fill="#D55656" points="193,43 122,43 122,55 179.562,55 169.07,176.853 122.206,189.77 122,189.589 122,202.628 
		122.206,202.792 180.873,186.73 193.321,43.01 	"/>
	<polyline fill="#D57070" points="179,55 122,55 122,92 166,92 166,140 122,140 122,189.589 122.206,189.753 169.268,176.773 
		179.262,54.921 	"/>
	<g>
		<defs>
			<polyline id="SVGID_1_" points="166,92 122,92 122,140 166,140 166,92 			"/>
		</defs>
		<clipPath id="SVGID_2_">
			<use xlink:href="#SVGID_1_"  overflow="visible"/>
		</clipPath>
		<rect x="122" y="92" clip-path="url(#SVGID_2_)" fill="#D57070" width="44" height="48"/>
		<g clip-path="url(#SVGID_2_)">
			<text transform="matrix(1 0 0 1 78.6894 136.7256)" fill="#DAD8D4" font-family="'Roboto-Bold'" font-size="62.0096">&lt;/&gt;</text>
		</g>
	</g>
	<polyline fill="#E4E4E4" points="211,200 174,200 174,238.032 174,238.581 185.998,226.014 211.511,199.423 	"/>
</g>
</svg>
