<?xml version="1.0" encoding="utf-8"?>
<!-- Generator: Adobe Illustrator 17.0.1, SVG Export Plug-In . SVG Version: 6.00 Build 0)  -->
<!DOCTYPE svg PUBLIC "-//W3C//DTD SVG 1.1//EN" "http://www.w3.org/Graphics/SVG/1.1/DTD/svg11.dtd">
<svg version="1.1" id="Layer_1" xmlns="http://www.w3.org/2000/svg" xmlns:xlink="http://www.w3.org/1999/xlink" x="0px" y="0px"
	 width="250px" height="250px" viewBox="0 0 250 250" enable-background="new 0 0 250 250" xml:space="preserve">
<g>
	<path fill="#8C919C" d="M4.792,125.177c0-66.292,53.74-120.033,120.033-120.033c66.292,0,120.032,53.741,120.032,120.033
		c0,66.291-53.74,120.033-120.032,120.033C58.532,245.21,4.792,191.469,4.792,125.177"/>
	<path fill="#F0EFEA" d="M14.492,125.177c0-60.935,49.397-110.333,110.333-110.333c60.935,0,110.332,49.398,110.332,110.333
		c0,60.935-49.397,110.333-110.332,110.333C63.889,235.51,14.492,186.112,14.492,125.177"/>
	<path fill="#64C1C6" d="M25.435,125.177c0-55.185,44.735-99.92,99.92-99.92s99.92,44.735,99.92,99.92
		c0,55.184-44.735,99.92-99.92,99.92S25.435,180.362,25.435,125.177"/>
	<path fill="#69A8B7" d="M101.149,94.106c-27.993-55.303-25.044-57.008,8.852-5.112c-12.725-60.666-9.434-61.546,9.878-2.643
		c3.406-61.897,6.815-61.897,10.222,0c19.311-58.903,22.603-58.023,9.876,2.643c33.898-51.897,36.848-50.192,8.852,5.112
		c46.177-41.355,48.585-38.944,7.231,7.23c55.303-27.994,57.008-25.045,5.112,8.854c60.665-12.727,61.549-9.435,2.647,9.876
		c61.892,3.407,61.892,6.815,0,10.222c58.902,19.312,58.018,22.603-2.647,9.876c51.896,33.899,50.192,36.851-5.112,8.855
		c41.355,46.176,38.947,48.584-7.231,7.228c27.995,55.304,25.046,57.008-8.852,5.112c12.727,60.667,9.435,61.549-9.876,2.647
		c-3.407,61.892-6.816,61.892-10.222,0c-19.312,58.902-22.603,58.02-9.878-2.647c-33.896,51.897-36.846,50.192-8.852-5.112
		c-46.172,41.355-48.583,38.947-7.23-7.228c-55.303,27.996-57.007,25.044-5.111-8.855c-60.667,12.727-61.551,9.436-2.645-9.876
		c-61.895-3.407-61.895-6.815,0-10.222c-58.906-19.311-58.022-22.603,2.645-9.876c-51.896-33.898-50.193-36.848,5.111-8.854
		C52.566,55.162,54.977,52.751,101.149,94.106"/>
	<path fill="#314856" d="M130.127,119.049l-12.309,12.312c-1.009,1.006-2.651,0.995-3.671-0.021l-14.686-28.367
		c-1.016-1.017,0.802-3.568,2.28-2.281l28.368,14.689C131.125,116.399,131.135,118.041,130.127,119.049 M149.317,150.738
		l-28.388-14.708c-1.018-1.021-1.03-2.666-0.021-3.671l12.312-12.312c1.008-1.009,2.65-0.995,3.671,0.021l14.708,28.388
		C152.618,149.478,150.798,152.027,149.317,150.738 M103.745,133.219l-36.4-7.831c-1.723,0-2.342-2.502,0-2.61l36.4-7.83
		c1.72,0,3.115,0.933,3.115,2.088v14.094C106.86,132.286,105.465,133.219,103.745,133.219 M182.637,125.423l-36.434,7.829
		c-1.727,0-3.123-0.933-3.123-2.086V117.07c0-1.151,1.396-2.086,3.123-2.086l36.434,7.83
		C184.361,122.814,184.979,125.314,182.637,125.423 M125.74,183.348c0,1.74-2.501,2.362-2.61,0l-7.83-36.729
		c0-1.738,0.932-3.147,2.088-3.147h14.094c1.154,0,2.088,1.41,2.088,3.147L125.74,183.348 M131.517,106.926h-14.095
		c-1.151,0-2.087-1.412-2.087-3.151l7.831-36.766c0-1.743,2.501-2.365,2.61,0l7.83,36.766
		C133.605,105.514,132.671,106.926,131.517,106.926 M125.529,153.699c-15.753,0-28.523-12.77-28.523-28.522
		c0-15.753,12.77-28.523,28.523-28.523c15.753,0,28.523,12.77,28.523,28.523C154.052,140.929,141.282,153.699,125.529,153.699"/>
	<path fill-rule="evenodd" clip-rule="evenodd" fill="#ED6161" d="M183.044,68.572l-45.468,61.814
		c-1.237,1.232-3.229,1.248-4.448,0.032l-14.916-14.859c-1.219-1.218-1.207-3.202,0.032-4.434l62.039-45.305
		C181.519,64.586,184.608,66.782,183.044,68.572"/>
	<path fill-rule="evenodd" clip-rule="evenodd" fill="#FFFFFF" d="M65.17,180.522l45.666-62.082c1.24-1.238,3.242-1.251,4.466-0.028
		l14.979,14.923c1.226,1.222,1.213,3.217-0.03,4.451l-62.307,45.502C66.704,184.526,63.598,182.319,65.17,180.522"/>
	<path fill-rule="evenodd" clip-rule="evenodd" fill="#314856" d="M116.825,125.177c0-4.239,3.436-7.675,7.675-7.675
		s7.675,3.436,7.675,7.675c0,4.239-3.436,7.675-7.675,7.675S116.825,129.417,116.825,125.177"/>
	<text transform="matrix(1 0 0 1 120.1895 44.6098)" fill="#314856" font-family="'Roboto-Black'" font-size="12.916">N</text>
	<text transform="matrix(1 0 0 1 30.3086 129.1679)" fill="#314856" font-family="'Roboto-Black'" font-size="12.916">W</text>
	<text transform="matrix(1 0 0 1 209.8779 129.1679)" fill="#314856" font-family="'Roboto-Black'" font-size="12.916">E</text>
	<text transform="matrix(1 0 0 1 121.1406 218.9765)" fill="#314856" font-family="'Roboto-Black'" font-size="12.916">S</text>
	<path fill="#7D828B" d="M124.825,5.145c-0.182,0-0.365,0.001-0.547,0.001v9.7c0.182-0.001,0.364-0.002,0.547-0.002
		c60.935,0,110.332,49.398,110.332,110.333c0,60.935-49.397,110.333-110.332,110.333c-0.182,0-0.365-0.001-0.547-0.002v9.7
		c0.182,0.001,0.365,0.001,0.547,0.001c66.292,0,120.032-53.741,120.032-120.033C244.857,58.885,191.117,5.145,124.825,5.145"/>
	<path fill="#D6D5D1" d="M124.825,14.844c-0.182,0-0.365,0.001-0.547,0.002v10.417c0.359-0.004,0.716-0.006,1.076-0.006
		c55.185,0,99.92,44.735,99.92,99.92c0,55.184-44.735,99.92-99.92,99.92c-0.361,0-0.717-0.002-1.076-0.006v10.418
		c0.182,0.001,0.364,0.002,0.547,0.002c60.935,0,110.332-49.398,110.332-110.333C235.157,64.242,185.76,14.844,124.825,14.844"/>
	<path fill="#59ACB1" d="M124.278,209.524v0.14h0.058C124.317,209.619,124.298,209.572,124.278,209.524 M210.596,129.167v-9.184
		h6.395v9.184H210.596 M125.355,25.257c-0.361,0-0.717,0.002-1.076,0.006v10.163h4.293v9.184h-1.958
		c1.163,6.707,2.326,20.62,3.488,41.742c9.513-29.016,15.139-43.527,16.877-43.527c1.79,0-0.543,15.388-7.001,46.17
		c16.409-25.122,25.567-37.685,27.472-37.685c1.821,0-2.98,11.464-14.4,34.395l27.231-19.886c0.251-0.25,0.578-0.359,0.927-0.359
		c0.439,0,0.913,0.173,1.314,0.455c1.188-0.744,2.005-1.116,2.45-1.116c1.669,0-1.9,5.235-10.707,15.708l-13.621,18.518
		c22.153-11.122,34.673-16.684,37.564-16.684c3.736,0-8.61,9.28-37.035,27.848c24.097-5.055,38.763-7.583,43.995-7.583
		c7.76,0-5.228,5.558-38.965,16.676l5.861,1.26c53.514,3.248,50.766,6.498-8.245,9.746c35.502,11.64,49.283,17.46,41.349,17.46
		c-5.23,0-19.894-2.527-43.995-7.584c28.422,18.565,40.766,27.849,37.034,27.849c-3.082,0-17.13-6.331-42.146-18.995
		c21.813,24.356,31.45,36.538,28.911,36.538c-2.275,0-14.321-9.768-36.141-29.31c14.442,28.529,20.649,42.796,18.62,42.796
		c-1.904,0-11.061-12.56-27.472-37.685c6.456,30.778,8.79,46.172,7,46.172c-1.738,0-7.362-14.505-16.877-43.524
		c-1.485,26.984-2.971,42.203-4.457,45.658h3.223v9.442h-4.59v5.986c0.359,0.004,0.716,0.006,1.076,0.006
		c55.185,0,99.92-44.735,99.92-99.92C225.275,69.993,180.54,25.257,125.355,25.257"/>
	<path fill="#5E96A3" d="M172.064,120.541l10.573,2.272c1.724,0,2.342,2.501,0,2.61l-29.341,6.305
		c-0.91,3.87-2.608,7.437-4.916,10.521l3.217,6.209c0.823,0.822-0.2,2.637-1.403,2.637c-0.29,0-0.59-0.106-0.878-0.356l-6.118-3.17
		c-3.179,2.512-6.904,4.361-10.969,5.339l-6.489,30.44c0,0.934-0.722,1.547-1.407,1.547c-0.018,0-0.037-0.001-0.055-0.001v24.63
		c0.019,0.048,0.038,0.095,0.058,0.14h1.309c1.486-3.455,2.971-18.675,4.457-45.658c9.514,29.02,15.139,43.524,16.877,43.524
		c1.79,0-0.544-15.394-7-46.172c16.411,25.125,25.568,37.685,27.472,37.685c2.029,0-4.178-14.267-18.62-42.796
		c21.82,19.542,33.867,29.31,36.141,29.31c2.54,0-7.098-12.182-28.911-36.538c25.015,12.664,39.064,18.995,42.146,18.995
		c3.732,0-8.612-9.284-37.034-27.849c24.101,5.056,38.765,7.584,43.995,7.584c7.935,0-5.847-5.821-41.349-17.46
		C222.83,127.039,225.578,123.789,172.064,120.541 M198.208,82.342c-2.891,0-15.411,5.562-37.564,16.684l-9.701,13.188
		c0.679,1.329,1.258,2.72,1.724,4.159l13.536,2.909c33.737-11.118,46.725-16.676,38.965-16.676c-5.232,0-19.898,2.528-43.995,7.583
		C189.598,91.622,201.944,82.342,198.208,82.342 M184.972,64.799c-0.445,0-1.261,0.372-2.45,1.116
		c0.85,0.598,1.37,1.688,0.522,2.657l-8.779,11.935C183.072,70.034,186.641,64.799,184.972,64.799 M146.979,42.825
		c-1.739,0-7.364,14.511-16.877,43.527c-1.163-21.122-2.325-35.036-3.488-41.742h-2.336v20.887c0.097-0.024,0.196-0.037,0.294-0.037
		c0.59,0,1.153,0.455,1.203,1.549l6.483,30.444c1.132,0.274,2.236,0.615,3.31,1.019l17.483-12.767
		c11.42-22.931,16.22-34.395,14.4-34.395c-1.906,0-11.063,12.563-27.472,37.685C146.436,58.213,148.769,42.825,146.979,42.825"/>
	<path fill="#2C404D" d="M150.943,112.214l-13.366,18.172c-0.624,0.622-1.442,0.934-2.254,0.934c-0.797,0-1.59-0.3-2.194-0.902
		l-1.779-1.772c-0.627,1.237-1.579,2.28-2.743,3.019l1.676,1.67c1.226,1.222,1.213,3.217-0.03,4.451l-5.973,4.362v42.747
		c0.018,0.001,0.037,0.001,0.055,0.001c0.685,0,1.407-0.612,1.407-1.547l6.489-30.44c4.066-0.979,7.791-2.827,10.969-5.339
		l6.118,3.17c0.288,0.25,0.588,0.356,0.878,0.356c1.203,0,2.225-1.814,1.403-2.637l-3.217-6.209
		c2.308-3.083,4.006-6.65,4.916-10.521l29.341-6.305c2.342-0.109,1.724-2.61,0-2.61l-10.573-2.272l-5.861-1.26l-13.536-2.909
		C152.201,114.933,151.622,113.543,150.943,112.214 M124.572,65.46c-0.098,0-0.197,0.013-0.294,0.037v41.22l11.29-8.245
		c-1.074-0.404-2.178-0.745-3.31-1.019l-6.483-30.444C125.725,65.915,125.162,65.46,124.572,65.46"/>
	<path fill="#D45757" d="M181.209,65.46c-0.349,0-0.676,0.109-0.927,0.359l-27.231,19.886l-17.483,12.767l-11.29,8.245v10.789
		c0.074-0.002,0.148-0.003,0.222-0.003c4.239,0,7.675,3.436,7.675,7.675c0,1.248-0.298,2.426-0.826,3.467l1.779,1.772
		c0.604,0.602,1.397,0.902,2.194,0.902c0.813,0,1.63-0.312,2.254-0.934l13.366-18.172l9.701-13.188l13.621-18.518l8.779-11.935
		c0.848-0.97,0.329-2.059-0.522-2.657C182.122,65.633,181.648,65.46,181.209,65.46"/>
	<path fill="#E4E4E4" d="M128.606,131.664c-1.187,0.753-2.596,1.189-4.106,1.189c-0.074,0-0.148-0.001-0.222-0.003v9.297
		l5.973-4.362c1.243-1.234,1.256-3.229,0.03-4.451L128.606,131.664"/>
	<path fill="#2C404D" d="M124.5,117.502c-0.074,0-0.148,0.001-0.222,0.003v15.344c0.074,0.002,0.148,0.003,0.222,0.003
		c1.51,0,2.918-0.436,4.106-1.189c1.165-0.739,2.116-1.783,2.743-3.019c0.528-1.041,0.826-2.22,0.826-3.467
		C132.175,120.938,128.739,117.502,124.5,117.502"/>
	<g>
		<defs>
			<path id="SVGID_1_" d="M128.572,35.426h-4.293v5.404c0.238-0.6,0.475-0.901,0.712-0.901c0.541,0,1.082,1.561,1.623,4.681h1.958
				V35.426"/>
		</defs>
		<clipPath id="SVGID_2_">
			<use xlink:href="#SVGID_1_"  overflow="visible"/>
		</clipPath>
		<rect x="124.278" y="35.426" clip-path="url(#SVGID_2_)" fill="#59ACB1" width="4.293" height="9.184"/>
		<g clip-path="url(#SVGID_2_)">
			<text transform="matrix(1 0 0 1 120.1895 44.6098)" fill="#2C404D" font-family="'Roboto-Black'" font-size="12.916">N</text>
		</g>
	</g>
	<g>
		<defs>
			<path id="SVGID_3_" d="M124.991,39.929c-0.237,0-0.475,0.301-0.712,0.901v3.779h2.336
				C126.073,41.49,125.532,39.929,124.991,39.929"/>
		</defs>
		<clipPath id="SVGID_4_">
			<use xlink:href="#SVGID_3_"  overflow="visible"/>
		</clipPath>
		<rect x="124.278" y="39.929" clip-path="url(#SVGID_4_)" fill="#5E96A3" width="2.336" height="4.681"/>
		<g clip-path="url(#SVGID_4_)">
			<text transform="matrix(1 0 0 1 120.1895 44.6098)" fill="#2C404D" font-family="'Roboto-Black'" font-size="12.916">N</text>
		</g>
	</g>
	<g>
		<defs>
			<polyline id="SVGID_5_" points="216.992,119.983 210.596,119.983 210.596,129.167 216.992,129.167 216.992,119.983 			"/>
		</defs>
		<clipPath id="SVGID_6_">
			<use xlink:href="#SVGID_5_"  overflow="visible"/>
		</clipPath>
		<rect x="210.597" y="119.983" clip-path="url(#SVGID_6_)" fill="#59ACB1" width="6.395" height="9.184"/>
		<g clip-path="url(#SVGID_6_)">
			<text transform="matrix(1 0 0 1 209.8779 129.1679)" fill="#2C404D" font-family="'Roboto-Black'" font-size="12.916">E</text>
		</g>
	</g>
	<g>
		<defs>
			<path id="SVGID_7_" d="M128.868,209.664h-3.223c-0.218,0.507-0.437,0.761-0.655,0.761c-0.218,0-0.436-0.254-0.654-0.761h-0.058
				v9.442h4.59V209.664"/>
		</defs>
		<clipPath id="SVGID_8_">
			<use xlink:href="#SVGID_7_"  overflow="visible"/>
		</clipPath>
		<rect x="124.278" y="209.664" clip-path="url(#SVGID_8_)" fill="#59ACB1" width="4.59" height="9.442"/>
		<g clip-path="url(#SVGID_8_)">
			<text transform="matrix(1 0 0 1 121.1406 218.9765)" fill="#2C404D" font-family="'Roboto-Black'" font-size="12.916">S</text>
		</g>
	</g>
	<g>
		<defs>
			<path id="SVGID_9_" d="M125.645,209.664h-1.309c0.218,0.507,0.436,0.761,0.654,0.761
				C125.209,210.425,125.427,210.171,125.645,209.664"/>
		</defs>
		<clipPath id="SVGID_10_">
			<use xlink:href="#SVGID_9_"  overflow="visible"/>
		</clipPath>
		<rect x="124.336" y="209.664" clip-path="url(#SVGID_10_)" fill="#5E96A3" width="1.309" height="0.761"/>
		<g clip-path="url(#SVGID_10_)">
			<text transform="matrix(1 0 0 1 121.1406 218.9765)" fill="#2C404D" font-family="'Roboto-Black'" font-size="12.916">S</text>
		</g>
	</g>
</g>
</svg>
