<?xml version="1.0" encoding="utf-8"?>
<!-- Generator: Adobe Illustrator 17.0.1, SVG Export Plug-In . SVG Version: 6.00 Build 0)  -->
<!DOCTYPE svg PUBLIC "-//W3C//DTD SVG 1.1//EN" "http://www.w3.org/Graphics/SVG/1.1/DTD/svg11.dtd">
<svg version="1.1" id="Layer_1" xmlns="http://www.w3.org/2000/svg" xmlns:xlink="http://www.w3.org/1999/xlink" x="0px" y="0px"
	 width="250px" height="250px" viewBox="0 0 250 250" enable-background="new 0 0 250 250" xml:space="preserve">
<g>
	<g>
		<defs>
			<rect id="SVGID_1_" x="1.957" y="1.635" width="246.043" height="246.043"/>
		</defs>
		<clipPath id="SVGID_2_">
			<use xlink:href="#SVGID_1_"  overflow="visible"/>
		</clipPath>
		<path clip-path="url(#SVGID_2_)" fill="#929E66" d="M122.518,28.7C64.088,28.7,16.72,76.068,16.72,134.498
			s47.368,105.798,105.798,105.798c58.431,0,105.798-47.368,105.798-105.798S180.949,28.7,122.518,28.7"/>
		<path clip-path="url(#SVGID_2_)" fill="#ADB686" d="M122.518,21.319c-58.43,0-105.798,47.367-105.798,105.798
			s47.368,105.799,105.798,105.799c58.431,0,105.798-47.369,105.798-105.799S180.949,21.319,122.518,21.319"/>
		<path clip-path="url(#SVGID_2_)" fill="#DDDBBD" d="M123.037,36.602c-50.276,0-91.034,40.759-91.034,91.034
			s40.758,91.033,91.034,91.033c50.275,0,91.033-40.758,91.033-91.033S173.312,36.602,123.037,36.602"/>
		<path clip-path="url(#SVGID_2_)" fill="#9AACAF" d="M123.253,51.576c-42.125,0-76.273,34.151-76.273,76.277
			c0,42.127,34.148,76.278,76.273,76.278c42.13,0,76.278-34.151,76.278-76.278C199.531,85.727,165.384,51.576,123.253,51.576"/>
		<path clip-path="url(#SVGID_2_)" fill="#DDDBBD" d="M123.085,62.454c-36.027,0-65.232,29.203-65.232,65.23
			c0,36.024,29.206,65.23,65.232,65.23c36.026,0,65.23-29.206,65.23-65.23C188.315,91.656,159.11,62.454,123.085,62.454"/>
		<path clip-path="url(#SVGID_2_)" fill="#9AACAF" d="M123.253,77.413c-27.856,0-50.439,22.582-50.439,50.442
			c0,27.858,22.583,50.438,50.439,50.438c27.858,0,50.444-22.581,50.444-50.438C173.697,99.995,151.111,77.413,123.253,77.413"/>
		<path clip-path="url(#SVGID_2_)" fill="#DDDBBD" d="M123.416,87.875c-21.744,0-39.376,17.631-39.376,39.379
			c0,21.747,17.631,39.377,39.376,39.377c21.751,0,39.38-17.63,39.38-39.377C162.796,105.506,145.167,87.875,123.416,87.875"/>
		<path clip-path="url(#SVGID_2_)" fill="#9AACAF" d="M123.251,109.399c-10.191,0-18.452,8.26-18.452,18.45
			c0,10.191,8.261,18.451,18.452,18.451c10.192,0,18.45-8.26,18.45-18.451C141.701,117.659,133.443,109.399,123.251,109.399"/>
	</g>
	<g>
		<defs>
			<rect id="SVGID_3_" x="9.338" y="13.935" width="113.18" height="231.282"/>
		</defs>
		<clipPath id="SVGID_4_">
			<use xlink:href="#SVGID_3_"  overflow="visible"/>
		</clipPath>
		<path clip-path="url(#SVGID_4_)" fill="#A2AE71" d="M122.518,28.7C64.088,28.7,16.72,76.068,16.72,134.498
			s47.368,105.798,105.798,105.798c58.431,0,105.798-47.368,105.798-105.798S180.949,28.7,122.518,28.7"/>
		<path clip-path="url(#SVGID_4_)" fill="#BFC994" d="M122.518,21.319c-58.43,0-105.798,47.367-105.798,105.798
			s47.368,105.799,105.798,105.799c58.431,0,105.798-47.369,105.798-105.799S180.949,21.319,122.518,21.319"/>
		<path clip-path="url(#SVGID_4_)" fill="#F4F2D1" d="M123.037,36.602c-50.276,0-91.034,40.759-91.034,91.034
			s40.758,91.033,91.034,91.033c50.275,0,91.033-40.758,91.033-91.033S173.312,36.602,123.037,36.602"/>
		<path clip-path="url(#SVGID_4_)" fill="#AABEC1" d="M123.253,51.576c-42.125,0-76.273,34.151-76.273,76.277
			c0,42.127,34.148,76.278,76.273,76.278c42.13,0,76.278-34.151,76.278-76.278C199.531,85.727,165.384,51.576,123.253,51.576"/>
		<path clip-path="url(#SVGID_4_)" fill="#F4F2D1" d="M123.085,62.454c-36.027,0-65.232,29.203-65.232,65.23
			c0,36.024,29.206,65.23,65.232,65.23c36.026,0,65.23-29.206,65.23-65.23C188.315,91.656,159.11,62.454,123.085,62.454"/>
		<path clip-path="url(#SVGID_4_)" fill="#AABEC1" d="M123.253,77.413c-27.856,0-50.439,22.582-50.439,50.442
			c0,27.858,22.583,50.438,50.439,50.438c27.858,0,50.444-22.581,50.444-50.438C173.697,99.995,151.111,77.413,123.253,77.413"/>
		<path clip-path="url(#SVGID_4_)" fill="#F4F2D1" d="M123.416,87.875c-21.744,0-39.376,17.631-39.376,39.379
			c0,21.747,17.631,39.377,39.376,39.377c21.751,0,39.38-17.63,39.38-39.377C162.796,105.506,145.167,87.875,123.416,87.875"/>
		<path clip-path="url(#SVGID_4_)" fill="#AABEC1" d="M123.251,109.399c-10.191,0-18.452,8.26-18.452,18.45
			c0,10.191,8.261,18.451,18.452,18.451c10.192,0,18.45-8.26,18.45-18.451C141.701,117.659,133.443,109.399,123.251,109.399"/>
	</g>
	<g>
		<defs>
			<rect id="SVGID_5_" x="1.957" y="1.635" width="246.043" height="246.043"/>
		</defs>
		<clipPath id="SVGID_6_">
			<use xlink:href="#SVGID_5_"  overflow="visible"/>
		</clipPath>
		<polygon clip-path="url(#SVGID_6_)" fill="#156E95" points="214.784,45.922 185.259,77.909 214.784,77.909 244.31,45.922 		"/>
		<polygon clip-path="url(#SVGID_6_)" fill="#156E95" points="203.712,36.08 171.726,65.606 171.726,36.08 203.712,6.556 		"/>
		<path clip-path="url(#SVGID_6_)" fill="#BFBF2E" d="M129.611,133.431c-2.883,2.886-7.554,2.886-10.438,0l-1.74-1.74
			c-2.883-2.884-2.883-7.555,0-10.437l93.949-93.951c2.884-2.88,7.556-2.88,10.439,0l1.741,1.742c2.88,2.884,2.88,7.557,0,10.438
			L129.611,133.431z"/>
	</g>
	<g>
		<defs>
			<polygon id="SVGID_7_" points="95.453,120.351 115.137,133.883 225.241,25.624 222.165,9.631 			"/>
		</defs>
		<clipPath id="SVGID_8_">
			<use xlink:href="#SVGID_7_"  overflow="visible"/>
		</clipPath>
		<path clip-path="url(#SVGID_8_)" fill="#CFCF32" d="M129.611,133.431c-2.883,2.886-7.554,2.886-10.438,0l-1.74-1.74
			c-2.883-2.884-2.883-7.555,0-10.437l93.949-93.951c2.884-2.88,7.556-2.88,10.439,0l1.741,1.742c2.88,2.884,2.88,7.557,0,10.438
			L129.611,133.431z"/>
	</g>
	<g>
		<defs>
			<rect id="SVGID_9_" x="124.978" y="132.037" width="123.018" height="115.641"/>
		</defs>
		<clipPath id="SVGID_10_">
			<use xlink:href="#SVGID_9_"  overflow="visible"/>
		</clipPath>
	</g>
	<g>
		<defs>
			<rect id="SVGID_11_" x="1.957" y="132.037" width="123.022" height="115.641"/>
		</defs>
		<clipPath id="SVGID_12_">
			<use xlink:href="#SVGID_11_"  overflow="visible"/>
		</clipPath>
	</g>
	<g>
		<defs>
			<rect id="SVGID_13_" x="124.978" y="16.398" width="123.018" height="231.28"/>
		</defs>
		<clipPath id="SVGID_14_">
			<use xlink:href="#SVGID_13_"  overflow="visible"/>
		</clipPath>
	</g>
	<g>
		<defs>
			<rect id="SVGID_15_" x="1.957" y="16.398" width="123.022" height="231.28"/>
		</defs>
		<clipPath id="SVGID_16_">
			<use xlink:href="#SVGID_15_"  overflow="visible"/>
		</clipPath>
	</g>
</g>
</svg>
