<?xml version="1.0" encoding="utf-8"?>
<!-- Generator: Adobe Illustrator 17.0.1, SVG Export Plug-In . SVG Version: 6.00 Build 0)  -->
<!DOCTYPE svg PUBLIC "-//W3C//DTD SVG 1.1//EN" "http://www.w3.org/Graphics/SVG/1.1/DTD/svg11.dtd">
<svg version="1.1" id="Layer_1" xmlns="http://www.w3.org/2000/svg" xmlns:xlink="http://www.w3.org/1999/xlink" x="0px" y="0px"
	 width="250px" height="250px" viewBox="0 0 250 250" enable-background="new 0 0 250 250" xml:space="preserve">
<g>
	<polygon fill-rule="evenodd" clip-rule="evenodd" fill="#F0EFEA" points="57.407,116.429 3.591,116.429 3.591,29.827 
		72.275,29.827 72.275,102.968 	"/>
	<rect x="13.545" y="68.649" fill-rule="evenodd" clip-rule="evenodd" fill="#8C9199" width="46.785" height="5.973"/>
	<rect x="39.426" y="42.768" fill-rule="evenodd" clip-rule="evenodd" fill="#8C9199" width="20.904" height="5.973"/>
	<rect x="39.426" y="55.708" fill-rule="evenodd" clip-rule="evenodd" fill="#8C9199" width="20.904" height="5.973"/>
	<rect x="13.545" y="81.589" fill-rule="evenodd" clip-rule="evenodd" fill="#8C9199" width="46.785" height="5.973"/>
	<rect x="13.545" y="94.53" fill-rule="evenodd" clip-rule="evenodd" fill="#8C9199" width="46.785" height="5.973"/>
	<polygon fill-rule="evenodd" clip-rule="evenodd" fill="#F9F9F7" points="59.334,117.553 59.334,102.493 71.594,102.493 	"/>
	<polyline fill-rule="evenodd" clip-rule="evenodd" fill="#F0EFEA" points="144.674,116.429 92.183,116.429 92.183,29.827 
		157.882,29.827 157.882,102.968 144.674,116.429 	"/>
	<polyline fill-rule="evenodd" clip-rule="evenodd" fill="#8C9199" points="144.941,74.621 102.138,74.621 102.138,68.649 
		144.941,68.649 144.941,74.621 	"/>
	<polyline fill-rule="evenodd" clip-rule="evenodd" fill="#8C9199" points="144.941,48.74 124.037,48.74 124.037,42.768 
		144.941,42.768 144.941,48.74 	"/>
	<polyline fill-rule="evenodd" clip-rule="evenodd" fill="#8C9199" points="144.941,61.681 124.037,61.681 124.037,55.708 
		144.941,55.708 144.941,61.681 	"/>
	<polyline fill-rule="evenodd" clip-rule="evenodd" fill="#8C9199" points="144.941,87.562 102.138,87.562 102.138,81.589 
		144.941,81.589 144.941,87.562 	"/>
	<polyline fill-rule="evenodd" clip-rule="evenodd" fill="#8C9199" points="144.941,100.502 102.138,100.502 102.138,94.53 
		144.941,94.53 144.941,100.502 	"/>
	<polyline fill-rule="evenodd" clip-rule="evenodd" fill="#F9F9F7" points="143.946,117.553 143.946,102.493 158.861,102.493 
		143.946,117.553 	"/>
	<polyline fill-rule="evenodd" clip-rule="evenodd" fill="#F0EFEA" points="231.942,116.429 179.781,116.429 179.781,29.827 
		245.479,29.827 245.479,102.968 231.942,116.429 	"/>
	<polyline fill-rule="evenodd" clip-rule="evenodd" fill="#8C9199" points="233.534,74.621 189.735,74.621 189.735,68.649 
		233.534,68.649 233.534,74.621 	"/>
	<polyline fill-rule="evenodd" clip-rule="evenodd" fill="#8C9199" points="233.534,48.74 212.63,48.74 212.63,42.768 
		233.534,42.768 233.534,48.74 	"/>
	<polyline fill-rule="evenodd" clip-rule="evenodd" fill="#8C9199" points="233.534,61.681 212.63,61.681 212.63,55.708 
		233.534,55.708 233.534,61.681 	"/>
	<polyline fill-rule="evenodd" clip-rule="evenodd" fill="#8C9199" points="233.534,87.562 189.735,87.562 189.735,81.589 
		233.534,81.589 233.534,87.562 	"/>
	<polyline fill-rule="evenodd" clip-rule="evenodd" fill="#8C9199" points="233.534,100.502 189.735,100.502 189.735,94.53 
		233.534,94.53 233.534,100.502 	"/>
	<polyline fill-rule="evenodd" clip-rule="evenodd" fill="#F9F9F7" points="232.539,117.553 232.539,102.493 246.128,102.493 
		232.539,117.553 	"/>
	<polygon fill-rule="evenodd" clip-rule="evenodd" fill="#F0EFEA" points="57.407,219.954 3.591,219.954 3.591,132.356 
		72.275,132.356 72.275,205.791 	"/>
	<rect x="13.545" y="171.178" fill-rule="evenodd" clip-rule="evenodd" fill="#8C9199" width="46.785" height="5.973"/>
	<rect x="39.426" y="145.297" fill-rule="evenodd" clip-rule="evenodd" fill="#8C9199" width="20.904" height="5.973"/>
	<rect x="39.426" y="158.237" fill-rule="evenodd" clip-rule="evenodd" fill="#8C9199" width="20.904" height="5.973"/>
	<rect x="13.545" y="185.114" fill-rule="evenodd" clip-rule="evenodd" fill="#8C9199" width="46.785" height="5.973"/>
	<rect x="13.545" y="198.054" fill-rule="evenodd" clip-rule="evenodd" fill="#8C9199" width="46.785" height="5.973"/>
	<polygon fill-rule="evenodd" clip-rule="evenodd" fill="#F9F9F7" points="59.334,220.375 59.334,207.013 71.594,207.013 	"/>
	<polyline fill-rule="evenodd" clip-rule="evenodd" fill="#F0EFEA" points="144.674,219.954 92.183,219.954 92.183,132.356 
		157.882,132.356 157.882,205.791 144.674,219.954 	"/>
	<polyline fill-rule="evenodd" clip-rule="evenodd" fill="#8C9199" points="144.941,177.15 102.138,177.15 102.138,171.178 
		144.941,171.178 144.941,177.15 	"/>
	<polyline fill-rule="evenodd" clip-rule="evenodd" fill="#8C9199" points="144.941,151.269 124.037,151.269 124.037,145.297 
		144.941,145.297 144.941,151.269 	"/>
	<polyline fill-rule="evenodd" clip-rule="evenodd" fill="#8C9199" points="144.941,164.21 124.037,164.21 124.037,158.237 
		144.941,158.237 144.941,164.21 	"/>
	<polyline fill-rule="evenodd" clip-rule="evenodd" fill="#8C9199" points="144.941,191.086 102.138,191.086 102.138,185.114 
		144.941,185.114 144.941,191.086 	"/>
	<polyline fill-rule="evenodd" clip-rule="evenodd" fill="#8C9199" points="144.941,204.027 102.138,204.027 102.138,198.054 
		144.941,198.054 144.941,204.027 	"/>
	<polyline fill-rule="evenodd" clip-rule="evenodd" fill="#F9F9F7" points="143.946,220.375 143.946,207.013 158.861,207.013 
		143.946,220.375 	"/>
	<polyline fill-rule="evenodd" clip-rule="evenodd" fill="#F0EFEA" points="231.942,219.954 179.781,219.954 179.781,132.356 
		245.479,132.356 245.479,205.791 231.942,219.954 	"/>
	<polyline fill-rule="evenodd" clip-rule="evenodd" fill="#8C9199" points="233.534,177.15 189.735,177.15 189.735,171.178 
		233.534,171.178 233.534,177.15 	"/>
	<polyline fill-rule="evenodd" clip-rule="evenodd" fill="#8C9199" points="233.534,151.269 212.63,151.269 212.63,145.297 
		233.534,145.297 233.534,151.269 	"/>
	<polyline fill-rule="evenodd" clip-rule="evenodd" fill="#8C9199" points="233.534,164.21 212.63,164.21 212.63,158.237 
		233.534,158.237 233.534,164.21 	"/>
	<polyline fill-rule="evenodd" clip-rule="evenodd" fill="#8C9199" points="233.534,191.086 189.735,191.086 189.735,185.114 
		233.534,185.114 233.534,191.086 	"/>
	<polyline fill-rule="evenodd" clip-rule="evenodd" fill="#8C9199" points="233.534,204.027 189.735,204.027 189.735,198.054 
		233.534,198.054 233.534,204.027 	"/>
	<polyline fill-rule="evenodd" clip-rule="evenodd" fill="#F9F9F7" points="232.539,220.375 232.539,207.013 246.128,207.013 
		232.539,220.375 	"/>
	<path fill="#F4CC67" d="M30,56.552c-1.418-0.388-3.38-0.443-5.035-1.684v-2.176c1.627,0.785,3.607,0.74,4.288-1.304
		c-1.072,0-2.144-1.072-2.144-4.287c0-2.145-3.215-3.867-4.286-2.795c-1.074-1.072-4.287,0.65-4.287,2.795
		c0,3.215-1.073,4.287-2.144,4.287c0.68,2.043,2.66,2.089,4.287,1.304v2.176c-1.652,1.24-3.614,1.296-5.034,1.684
		c-0.822,0.224-1.398,1.508-1.398,2.361v1.051h17.149v-1.051C31.394,58.06,30.825,56.776,30,56.552z"/>
	<path fill="#5988C1" d="M118.023,55.74c-1.42-0.387-3.38-0.443-5.036-1.684v-2.176c1.63,0.786,3.607,0.74,4.289-1.303
		c-1.073,0-2.145-1.072-2.145-4.288c0-2.144-3.215-3.866-4.287-2.795c-1.072-1.071-4.287,0.651-4.287,2.795
		c0,3.216-1.072,4.288-2.142,4.288c0.68,2.043,2.661,2.089,4.286,1.303v2.176c-1.651,1.24-3.613,1.296-5.035,1.684
		c-0.821,0.224-1.397,1.508-1.397,2.362v1.051h17.15v-1.051C119.418,57.248,118.847,55.964,118.023,55.74z"/>
	<path fill="#37C86A" d="M205.572,158.693c-1.419-0.387-3.381-0.444-5.036-1.684v-2.176c1.629,0.785,3.607,0.74,4.289-1.304
		c-1.074,0-2.144-1.072-2.144-4.287c0-2.144-3.216-3.867-4.287-2.796c-1.072-1.071-4.287,0.651-4.287,2.796
		c0,3.216-1.072,4.287-2.143,4.287c0.679,2.043,2.659,2.089,4.286,1.304v2.176c-1.651,1.24-3.614,1.296-5.035,1.684
		c-0.821,0.224-1.395,1.508-1.395,2.362v1.05h17.149v-1.05C206.967,160.201,206.395,158.917,205.572,158.693"/>
	<path fill="#F4CC67" d="M119.375,159.842c-0.532-0.808-2.323-1.31-4.097-2.027c-1.773-0.718-2.192-0.967-2.192-0.967l-0.015-1.651
		c0,0,0.661-0.497,0.866-2.052c0.417,0.118,0.853-0.601,0.878-0.979c0.021-0.366-0.059-1.377-0.566-1.276l0.014-0.102h1.57
		c0.306,0,0.554-0.248,0.554-0.554c0-0.307-0.248-0.555-0.554-0.555h-1.448v-0.006h0.34c-0.277-0.278-0.556-1.109-0.556-3.326
		c0-2.478-2.215,0-3.326,0c-1.107,0-3.323-2.478-3.323,0c0,2.216-0.279,3.048-0.555,3.326h0.342v0.006h-0.354l0.012-0.006h-0.555
		l0.011,0.006h-0.562c-0.307,0-0.556,0.247-0.556,0.555c0,0.306,0.249,0.554,0.556,0.554h1.571l0.013,0.102
		c-0.51-0.102-0.59,0.91-0.566,1.276c0.024,0.379,0.459,1.097,0.875,0.979c0.206,1.555,0.874,2.052,0.874,2.052l-0.019,1.651
		c0,0-0.421,0.249-2.196,0.967c-1.771,0.717-3.565,1.219-4.097,2.027c-0.208,0.318-0.301,1.174-0.335,2.029v1.109h17.734v-1.109
		C119.676,161.016,119.588,160.16,119.375,159.842z M110.549,158.547l0.048-0.048l0.052,0.048H110.549z"/>
	<path fill="#5988C1" d="M31.105,158.78c-0.519-0.807-2.257-1.31-3.981-2.027c-1.721-0.718-2.131-0.967-2.131-0.967l-0.015-1.653
		c0,0,0.645-0.495,0.845-2.049c0.404,0.117,0.827-0.601,0.851-0.981c0.021-0.365-0.056-1.376-0.547-1.275
		c0.098-0.761,0.171-1.447,0.137-1.81c-0.127-1.326-1.435-2.727-3.443-2.727s-3.317,1.4-3.445,2.727
		c-0.033,0.363,0.039,1.048,0.14,1.81c-0.493-0.101-0.572,0.91-0.548,1.275c0.023,0.38,0.447,1.098,0.85,0.981
		c0.2,1.554,0.845,2.049,0.845,2.049l-0.016,1.653c0,0-0.408,0.248-2.13,0.967c-1.723,0.717-3.463,1.22-3.982,2.027
		c-0.461,0.723-0.323,4.2-0.323,4.2h17.217C31.428,162.979,31.568,159.503,31.105,158.78z"/>
	<path fill="#E96F6F" d="M206.675,55.803c-0.517-0.807-2.256-1.309-3.981-2.027c-1.72-0.717-2.13-0.966-2.13-0.966l-0.014-1.653
		c0,0,0.644-0.496,0.844-2.05c0.403,0.117,0.826-0.601,0.852-0.981c0.021-0.365-0.056-1.376-0.548-1.274
		c0.098-0.763,0.173-1.447,0.138-1.81c-0.128-1.327-1.436-2.726-3.445-2.726c-2.008,0-3.316,1.399-3.445,2.726
		c-0.031,0.363,0.041,1.048,0.142,1.81c-0.494-0.103-0.572,0.909-0.549,1.274c0.023,0.38,0.446,1.098,0.85,0.981
		c0.199,1.554,0.846,2.05,0.846,2.05l-0.017,1.653c0,0-0.408,0.249-2.13,0.966c-1.722,0.718-3.462,1.22-3.981,2.027
		c-0.463,0.724-0.324,4.2-0.324,4.2h17.216C206.999,60.003,207.141,56.527,206.675,55.803"/>
	<polyline fill="#D6D5D1" points="157.882,29.827 124.037,29.827 124.037,42.768 144.941,42.768 144.941,48.74 124.037,48.74 
		124.037,55.708 144.941,55.708 144.941,61.681 124.037,61.681 124.037,68.649 144.941,68.649 144.941,74.621 124.037,74.621 
		124.037,81.589 144.941,81.589 144.941,87.562 124.037,87.562 124.037,94.53 144.941,94.53 144.941,100.502 124.037,100.502 
		124.037,116.429 143.946,116.429 143.946,102.493 157.882,102.493 157.882,29.827 	"/>
	<polyline fill="#7D8289" points="144.941,68.649 124.037,68.649 124.037,74.621 144.941,74.621 144.941,68.649 	"/>
	<polyline fill="#7D8289" points="144.941,42.768 124.037,42.768 124.037,48.74 144.941,48.74 144.941,42.768 	"/>
	<polyline fill="#7D8289" points="144.941,55.708 124.037,55.708 124.037,61.681 144.941,61.681 144.941,55.708 	"/>
	<polyline fill="#7D8289" points="144.941,81.589 124.037,81.589 124.037,87.562 144.941,87.562 144.941,81.589 	"/>
	<polyline fill="#7D8289" points="144.941,94.53 124.037,94.53 124.037,100.502 144.941,100.502 144.941,94.53 	"/>
	<polyline fill="#DEDEDD" points="158.861,102.493 157.882,102.493 143.946,102.493 143.946,116.429 143.946,117.553 
		158.861,102.493 	"/>
	<path fill="#D6D5D1" d="M189.735,100.502V94.53h43.799v5.973H189.735 M189.735,87.562v-5.973h43.799v5.973H189.735 M189.735,74.621
		v-5.973h43.799v5.973H189.735 M212.63,61.681v-5.973h20.904v5.973H212.63 M212.63,48.74v-5.973h20.904v5.973H212.63
		 M195.088,46.853c-0.101-0.763-0.173-1.447-0.142-1.81c0.129-1.327,1.437-2.726,3.445-2.726c2.009,0,3.317,1.399,3.445,2.726
		c0.035,0.363-0.04,1.048-0.138,1.81c0.023-0.005,0.047-0.007,0.068-0.007c0.432,0,0.501,0.934,0.48,1.281
		c-0.023,0.351-0.388,0.994-0.762,0.994c-0.029,0-0.059-0.004-0.089-0.013c-0.2,1.554-0.844,2.05-0.844,2.05l0.014,1.653
		c0,0,0.41,0.249,2.13,0.966c1.724,0.718,3.464,1.22,3.981,2.027c0.466,0.724,0.324,4.2,0.324,4.2h-17.216
		c0,0-0.139-3.476,0.324-4.2c0.519-0.807,2.258-1.309,3.981-2.027c1.722-0.717,2.13-0.966,2.13-0.966l0.017-1.653
		c0,0-0.646-0.496-0.846-2.05c-0.03,0.009-0.059,0.013-0.089,0.013c-0.374,0-0.739-0.642-0.76-0.994
		c-0.021-0.347,0.048-1.281,0.481-1.281C195.041,46.846,195.064,46.848,195.088,46.853 M245.479,29.827h-65.698v86.602h52.161
		l0.597-0.594v-13.342h12.941V29.827"/>
	<polyline fill="#7D8289" points="233.534,68.649 189.735,68.649 189.735,74.621 233.534,74.621 233.534,68.649 	"/>
	<polyline fill="#7D8289" points="233.534,42.768 212.63,42.768 212.63,48.74 233.534,48.74 233.534,42.768 	"/>
	<polyline fill="#7D8289" points="233.534,55.708 212.63,55.708 212.63,61.681 233.534,61.681 233.534,55.708 	"/>
	<polyline fill="#7D8289" points="233.534,81.589 189.735,81.589 189.735,87.562 233.534,87.562 233.534,81.589 	"/>
	<polyline fill="#7D8289" points="233.534,94.53 189.735,94.53 189.735,100.502 233.534,100.502 233.534,94.53 	"/>
	<polyline fill="#DEDEDD" points="246.128,102.493 245.479,102.493 232.539,102.493 232.539,115.835 232.539,117.553 
		246.128,102.493 	"/>
	<path fill="#D6D5D1" d="M145.984,218.549l-1.568,1.405h0.258L145.984,218.549 M157.882,132.356h-33.844v12.941h20.904v5.973
		h-20.904v6.968h20.904v5.973h-20.904v6.968h20.904v5.973h-20.904v7.963h20.904v5.973h-20.904v6.968h20.904v5.973h-20.904v15.927
		h19.909v-12.941h12.797l1.139-1.222V132.356"/>
	<polyline fill="#7D8289" points="144.941,171.178 124.037,171.178 124.037,177.15 144.941,177.15 144.941,171.178 	"/>
	<polyline fill="#7D8289" points="144.941,145.297 124.037,145.297 124.037,151.269 144.941,151.269 144.941,145.297 	"/>
	<polyline fill="#7D8289" points="144.941,158.237 124.037,158.237 124.037,164.21 144.941,164.21 144.941,158.237 	"/>
	<polyline fill="#7D8289" points="144.941,185.114 124.037,185.114 124.037,191.086 144.941,191.086 144.941,185.114 	"/>
	<polyline fill="#7D8289" points="144.941,198.054 124.037,198.054 124.037,204.027 144.941,204.027 144.941,198.054 	"/>
	<polyline fill="#DEDEDD" points="158.861,207.013 156.742,207.013 143.946,207.013 143.946,219.954 143.946,220.375 
		144.416,219.954 145.984,218.549 158.861,207.013 	"/>
	<path fill="#D6D5D1" d="M189.735,204.027v-5.973h43.799v5.973H189.735 M189.735,191.086v-5.973h43.799v5.973H189.735
		 M189.735,177.15v-5.973h43.799v5.973H189.735 M212.63,164.21v-5.973h20.904v5.973H212.63 M198.393,146.448
		c0.226-0.226,0.546-0.327,0.912-0.327c1.371,0,3.375,1.43,3.375,3.123c0,3.216,1.07,4.287,2.144,4.287
		c-0.427,1.279-1.361,1.775-2.399,1.775c-0.621,0-1.28-0.177-1.89-0.471v2.176c1.656,1.24,3.617,1.296,5.036,1.684
		c0.823,0.224,1.395,1.508,1.395,2.362v1.05h-17.149v-1.05c0-0.854,0.573-2.138,1.395-2.362c1.421-0.387,3.385-0.444,5.035-1.684
		v-2.176c-0.609,0.294-1.268,0.471-1.888,0.471c-1.039,0-1.973-0.496-2.398-1.775c1.071,0,2.143-1.072,2.143-4.287
		c0-1.693,2.003-3.123,3.375-3.123C197.846,146.12,198.167,146.222,198.393,146.448 M212.63,151.269v-5.973h20.904v5.973H212.63
		 M245.479,132.356h-65.698v87.598h52.161l0.597-0.625v-12.316h11.772l1.169-1.222V132.356"/>
	<polyline fill="#7D8289" points="233.534,171.178 189.735,171.178 189.735,177.15 233.534,177.15 233.534,171.178 	"/>
	<polyline fill="#7D8289" points="233.534,145.297 212.63,145.297 212.63,151.269 233.534,151.269 233.534,145.297 	"/>
	<polyline fill="#7D8289" points="233.534,158.237 212.63,158.237 212.63,164.21 233.534,164.21 233.534,158.237 	"/>
	<polyline fill="#7D8289" points="233.534,185.114 189.735,185.114 189.735,191.086 233.534,191.086 233.534,185.114 	"/>
	<polyline fill="#7D8289" points="233.534,198.054 189.735,198.054 189.735,204.027 233.534,204.027 233.534,198.054 	"/>
	<polyline fill="#DEDEDD" points="246.128,207.013 244.311,207.013 232.539,207.013 232.539,219.329 232.539,220.375 
		246.128,207.013 	"/>
	<path fill="#31B35F" d="M199.305,146.12c-0.366,0-0.686,0.102-0.912,0.327c-0.225-0.226-0.546-0.327-0.912-0.327
		c-1.372-0.001-3.375,1.43-3.375,3.123c0,3.216-1.072,4.287-2.143,4.287c0.425,1.279,1.359,1.775,2.398,1.775
		c0.62,0,1.279-0.177,1.888-0.471v2.176c-1.651,1.24-3.614,1.296-5.035,1.684c-0.821,0.224-1.395,1.508-1.395,2.362v1.05h17.149
		v-1.05c0-0.854-0.572-2.138-1.395-2.362c-1.419-0.387-3.381-0.444-5.036-1.684v-2.176c0.609,0.294,1.269,0.471,1.89,0.471
		c1.038,0,1.972-0.496,2.399-1.775c-1.074,0-2.144-1.072-2.144-4.287C202.68,147.55,200.675,146.12,199.305,146.12"/>
	<path fill="#D06363" d="M198.391,42.317c-2.008,0-3.316,1.399-3.445,2.726c-0.031,0.363,0.041,1.048,0.142,1.81
		c-0.023-0.005-0.047-0.007-0.068-0.007c-0.434,0-0.502,0.934-0.481,1.281c0.021,0.351,0.386,0.994,0.76,0.994
		c0.03,0,0.059-0.004,0.089-0.013c0.199,1.554,0.846,2.05,0.846,2.05l-0.017,1.653c0,0-0.408,0.249-2.13,0.966
		c-1.722,0.718-3.462,1.22-3.981,2.027c-0.463,0.724-0.324,4.2-0.324,4.2h17.216c0,0,0.142-3.476-0.324-4.2
		c-0.517-0.807-2.256-1.309-3.981-2.027c-1.72-0.717-2.13-0.966-2.13-0.966l-0.014-1.653c0,0,0.644-0.496,0.844-2.05
		c0.03,0.009,0.06,0.013,0.089,0.013c0.374,0,0.739-0.642,0.762-0.994c0.02-0.347-0.049-1.281-0.48-1.281
		c-0.021,0-0.045,0.002-0.068,0.007c0.098-0.763,0.173-1.447,0.138-1.81C201.708,43.716,200.4,42.317,198.391,42.317"/>
</g>
</svg>
