<?xml version="1.0" encoding="utf-8"?>
<!-- Generator: Adobe Illustrator 17.0.1, SVG Export Plug-In . SVG Version: 6.00 Build 0)  -->
<!DOCTYPE svg PUBLIC "-//W3C//DTD SVG 1.1//EN" "http://www.w3.org/Graphics/SVG/1.1/DTD/svg11.dtd">
<svg version="1.1" id="Layer_1" xmlns="http://www.w3.org/2000/svg" xmlns:xlink="http://www.w3.org/1999/xlink" x="0px" y="0px"
	 width="250px" height="250px" viewBox="0 0 250 250" enable-background="new 0 0 250 250" xml:space="preserve">
<g>
	<rect x="113.381" y="202.427" fill="#94A01D" width="131.993" height="12"/>
	<rect x="113.381" y="119.255" fill="#A3B024" width="131.993" height="87.972"/>
	<rect x="113.381" y="62.645" fill="#8E9A24" width="131.993" height="63.809"/>
	<rect x="113.381" y="114.457" fill="#E1DCB8" width="131.993" height="11.997"/>
	<rect x="187.777" y="107.256" fill="#E1DCB8" width="23.999" height="28.798"/>
	<polygon fill="#A3B024" points="142.179,53.421 142.179,69.844 158.978,69.844 158.978,36.247 125.38,36.247 125.38,53.444 	"/>
	<rect x="5.387" y="202.427" fill="#B0BF58" width="119.993" height="12"/>
	<rect x="5.387" y="119.255" fill="#C1D066" width="119.993" height="87.972"/>
	<rect x="5.387" y="62.645" fill="#ABBA24" width="119.993" height="63.809"/>
	<rect x="5.387" y="114.457" fill="#FFFDD9" width="119.993" height="11.997"/>
	<rect x="38.985" y="107.256" fill="#FFFDD9" width="23.999" height="28.798"/>
	<polygon fill="#CCCF9F" points="108.581,53.421 108.581,69.844 91.782,69.844 91.782,36.247 125.38,36.247 125.38,53.444 	"/>
</g>
</svg>
