<?xml version="1.0" encoding="utf-8"?>
<!-- Generator: Adobe Illustrator 17.0.1, SVG Export Plug-In . SVG Version: 6.00 Build 0)  -->
<!DOCTYPE svg PUBLIC "-//W3C//DTD SVG 1.1//EN" "http://www.w3.org/Graphics/SVG/1.1/DTD/svg11.dtd">
<svg version="1.1" id="Layer_1" xmlns="http://www.w3.org/2000/svg" xmlns:xlink="http://www.w3.org/1999/xlink" x="0px" y="0px"
	 width="250px" height="250px" viewBox="0 0 250 250" enable-background="new 0 0 250 250" xml:space="preserve">
<g>
	<path fill-rule="evenodd" clip-rule="evenodd" fill="#8C919C" d="M242.748,44.332c0-5.27-4.272-9.541-9.54-9.541H15.678
		c-5.269,0-9.54,4.272-9.54,9.541v173.557c0,5.27,4.271,9.541,9.54,9.541h217.53c5.269,0,9.54-4.272,9.54-9.541V44.332"/>
	<polyline fill-rule="evenodd" clip-rule="evenodd" fill="#5A5E66" points="230.185,214.866 230.185,55.73 27.077,55.73 
		27.077,214.866 230.185,214.866 	"/>
	<polyline fill-rule="evenodd" clip-rule="evenodd" fill="#D1CEBF" points="227.044,211.725 227.044,53.636 23.936,53.636 
		23.936,211.725 227.044,211.725 	"/>
	<polyline fill-rule="evenodd" clip-rule="evenodd" fill="#F0EFEA" points="221.809,173.702 221.809,48.401 20.795,48.401 
		20.795,207.537 189.415,207.537 221.809,173.702 	"/>
	<rect x="45.922" y="76.669" fill-rule="evenodd" clip-rule="evenodd" fill="#8C9199" width="63.864" height="9.423"/>
	<rect x="45.922" y="100.748" fill-rule="evenodd" clip-rule="evenodd" fill="#8C9199" width="63.864" height="9.423"/>
	<rect x="45.922" y="125.875" fill-rule="evenodd" clip-rule="evenodd" fill="#8C9199" width="63.864" height="9.423"/>
	<rect x="45.922" y="151.002" fill-rule="evenodd" clip-rule="evenodd" fill="#8C9199" width="63.864" height="9.423"/>
	<rect x="45.922" y="176.129" fill-rule="evenodd" clip-rule="evenodd" fill="#8C9199" width="63.864" height="9.423"/>
	<polyline fill-rule="evenodd" clip-rule="evenodd" fill="#8C9199" points="133.865,86.091 197.729,86.091 197.729,76.669 
		133.865,76.669 133.865,86.091 	"/>
	<polyline fill-rule="evenodd" clip-rule="evenodd" fill="#8C9199" points="133.865,110.171 197.729,110.171 197.729,100.748 
		133.865,100.748 133.865,110.171 	"/>
	<polyline fill-rule="evenodd" clip-rule="evenodd" fill="#8C9199" points="133.865,135.298 197.729,135.298 197.729,125.875 
		133.865,125.875 133.865,135.298 	"/>
	<polyline fill-rule="evenodd" clip-rule="evenodd" fill="#8C9199" points="133.865,160.425 197.729,160.425 197.729,151.002 
		133.865,151.002 133.865,160.425 	"/>
	<polyline fill-rule="evenodd" clip-rule="evenodd" fill="#8C9199" points="133.865,185.551 197.729,185.551 197.729,176.129 
		133.865,176.129 133.865,185.551 	"/>
	<polyline fill-rule="evenodd" clip-rule="evenodd" fill="#FFFFFF" points="222.755,175.082 189.354,175.082 189.354,207.043 
		222.755,175.082 	"/>
	<path fill-rule="evenodd" clip-rule="evenodd" fill="#F4CC67" d="M169.719,31.65h-16.111c0-7.329-4.569-10.469-10.627-10.469
		h-41.133c-6.058,0-11.313,3.141-11.313,10.469H75.11c-6.057,0-10.343,4.313-10.343,10.371v10.568h115.164V42.021
		C179.931,35.963,175.777,31.65,169.719,31.65 M122.072,43.849c-4.039,0-7.312-3.274-7.312-7.312c0-4.038,3.274-7.312,7.312-7.312
		c4.037,0,7.312,3.274,7.312,7.312C129.384,40.575,126.109,43.849,122.072,43.849"/>
	<polyline fill-rule="evenodd" clip-rule="evenodd" fill="#494B4F" points="179.931,56.777 64.767,56.777 64.767,52.589 
		179.931,52.589 179.931,56.777 	"/>
	<path fill="#7D828B" d="M233.208,34.791h-55.896c1.663,1.819,2.619,4.324,2.619,7.23v6.38h41.878v5.235h5.235v2.094h3.141v159.136
		H123.396v12.563h109.812c5.269,0,9.54-4.272,9.54-9.541V44.332C242.748,39.062,238.477,34.791,233.208,34.791"/>
	<polyline fill="#50545B" points="230.185,55.73 227.044,55.73 227.044,211.725 123.396,211.725 123.396,214.866 230.185,214.866 
		230.185,55.73 	"/>
	<polyline fill="#BBB8AB" points="227.044,53.636 221.809,53.636 221.809,173.702 220.488,175.082 222.755,175.082 195.727,200.944 
		189.415,207.537 123.396,207.537 123.396,211.725 227.044,211.725 227.044,55.73 227.044,53.636 	"/>
	<path fill="#D6D5D1" d="M133.865,160.425v-9.423h63.864v9.423H133.865 M133.865,135.298v-9.423h63.864v9.423H133.865
		 M133.865,110.171v-9.423h63.864v9.423H133.865 M133.865,86.091v-9.423h63.864v9.423H133.865 M221.809,48.401h-41.878v4.188v4.188
		h-56.535v150.761h66.019l6.312-6.594l-6.374,6.099v-21.492h-55.488v-9.423h55.488v-1.047h31.134l1.321-1.38V53.636V48.401"/>
	<polyline fill="#7D8289" points="197.729,76.669 133.865,76.669 133.865,86.091 197.729,86.091 197.729,76.669 	"/>
	<polyline fill="#7D8289" points="197.729,100.748 133.865,100.748 133.865,110.171 197.729,110.171 197.729,100.748 	"/>
	<polyline fill="#7D8289" points="197.729,125.875 133.865,125.875 133.865,135.298 197.729,135.298 197.729,125.875 	"/>
	<polyline fill="#7D8289" points="197.729,151.002 133.865,151.002 133.865,160.425 197.729,160.425 197.729,151.002 	"/>
	<polyline fill="#7D8289" points="189.354,176.129 133.865,176.129 133.865,185.551 189.354,185.551 189.354,176.129 	"/>
	<polyline fill="#E4E4E4" points="222.755,175.082 220.488,175.082 189.354,175.082 189.354,176.129 189.354,185.551 
		189.354,207.043 195.727,200.944 222.755,175.082 	"/>
	<path fill="#E4E4E4" d="M123.396,29.344v5.447h5.779C128.495,32.015,126.23,29.862,123.396,29.344"/>
	<path fill="#7D828B" d="M129.175,34.791h-5.779v8.938c3.406-0.623,5.988-3.606,5.988-7.193
		C129.384,35.935,129.312,35.35,129.175,34.791"/>
	<path fill="#DAB65C" d="M142.981,21.18h-19.585v8.163c2.834,0.518,5.099,2.672,5.779,5.447c0.137,0.559,0.21,1.144,0.21,1.746
		c0,3.587-2.583,6.57-5.988,7.193v8.86h56.535v-4.188v-6.38c0-2.906-0.956-5.411-2.619-7.23c-1.805-1.973-4.44-3.141-7.592-3.141
		h-16.111C153.608,24.321,149.039,21.18,142.981,21.18"/>
	<polyline fill="#414347" points="179.931,52.589 179.931,52.589 123.396,52.589 123.396,56.777 179.931,56.777 179.931,52.589 	"/>
</g>
</svg>
