<?xml version="1.0" encoding="utf-8"?>
<!-- Generator: Adobe Illustrator 17.0.1, SVG Export Plug-In . SVG Version: 6.00 Build 0)  -->
<!DOCTYPE svg PUBLIC "-//W3C//DTD SVG 1.1//EN" "http://www.w3.org/Graphics/SVG/1.1/DTD/svg11.dtd">
<svg version="1.1" id="Layer_1" xmlns="http://www.w3.org/2000/svg" xmlns:xlink="http://www.w3.org/1999/xlink" x="0px" y="0px"
	 width="250px" height="250px" viewBox="0 0 250 250" enable-background="new 0 0 250 250" xml:space="preserve">
<g>
	<defs>
		<rect id="SVGID_1_" x="125.25" y="4" width="132.976" height="250"/>
	</defs>
	<clipPath id="SVGID_2_">
		<use xlink:href="#SVGID_1_"  overflow="visible"/>
	</clipPath>
	<path clip-path="url(#SVGID_2_)" fill="#BEB097" d="M183.762,125.01c0,33.047-26.794,59.841-59.841,59.841
		c-33.047,0-59.84-26.795-59.84-59.841c0-33.047,26.794-59.84,59.84-59.84C156.968,65.17,183.762,91.963,183.762,125.01
		 M125.25,9.319c-63.16,0-114.361,51.203-114.361,114.361c0,63.16,51.201,114.363,114.361,114.363
		c63.162,0,114.365-51.203,114.365-114.363C239.614,60.522,188.412,9.319,125.25,9.319"/>
</g>
<g>
	<defs>
		<rect id="SVGID_3_" x="-7.409" y="4" width="132.979" height="250"/>
	</defs>
	<clipPath id="SVGID_4_">
		<use xlink:href="#SVGID_3_"  overflow="visible"/>
	</clipPath>
	<path clip-path="url(#SVGID_4_)" fill="#D7C7AA" d="M126.899,65.17c33.049,0,59.842,26.794,59.842,59.84
		c0,33.047-26.794,59.841-59.842,59.841c-33.046,0-59.84-26.795-59.84-59.841C67.06,91.963,93.853,65.17,126.899,65.17
		 M11.208,123.681c0,63.16,51.202,114.363,114.362,114.363c63.162,0,114.365-51.203,114.365-114.363
		c0-63.159-51.203-114.361-114.365-114.361C62.41,9.319,11.208,60.522,11.208,123.681"/>
</g>
<polygon fill="#E74B3B" points="180.109,103.608 146.255,69.759 191.39,24.625 225.244,58.474 "/>
<rect x="42.541" y="151.474" transform="matrix(0.7071 0.7071 -0.7071 0.7071 149.1384 6.7028)" fill="#F75640" width="47.873" height="63.831"/>
<rect x="41.455" y="32.202" transform="matrix(0.7071 -0.7071 0.7071 0.7071 -26.1848 65.0169)" fill="#F76740" width="47.871" height="63.83"/>
<rect x="160.727" y="151.475" transform="matrix(0.7072 -0.7071 0.7071 0.7072 -75.5894 184.2744)" fill="#E84D3D" width="47.873" height="63.83"/>
</svg>
