<svg xmlns="http://www.w3.org/2000/svg" width="225" height="225"><path fill-rule="evenodd" clip-rule="evenodd" fill="#F4F4F2" d="M124.462 175.679c0 1.554-1.26 2.814-2.814 2.814h-116.071c-1.553 0-2.813-1.26-2.813-2.814v-41.504c0-1.554 1.26-2.814 2.813-2.814h116.071c1.554 0 2.814 1.26 2.814 2.814v41.504"/><path fill-rule="evenodd" clip-rule="evenodd" fill="#76A1D3" d="M13.316 131.361h21.104v47.132h-21.104zM44.971 131.361h21.104v47.132h-21.104zM75.22 131.361h21.104v47.132h-21.104z"/><path fill-rule="evenodd" clip-rule="evenodd" fill="#8C919C" d="M69.592 153.872h2.11v21.104h-2.11zM38.64 153.872h2.11v21.104h-2.11zM7.688 153.872h2.11v21.104h-2.11z"/><path fill-rule="evenodd" clip-rule="evenodd" fill="#F4F4F2" d="M127.897 134.998c1.501.403 2.392 1.945 1.989 3.447l-10.742 40.089c-.403 1.501-1.945 2.393-3.446 1.99l-112.116-30.042c-1.5-.402-2.392-1.945-1.989-3.446l10.742-40.09c.403-1.501 1.945-2.391 3.447-1.989l112.115 30.041"/><path fill-rule="evenodd" clip-rule="evenodd" fill="#76A1D3" d="M11.054 152.483l12.198-45.525 20.384 5.462-12.198 45.525zM41.63 160.678l12.198-45.524 20.384 5.462-12.198 45.524zM70.847 168.505l12.198-45.524 20.383 5.461-12.198 45.524z"/><path fill-rule="evenodd" clip-rule="evenodd" fill="#8C919C" d="M66.322 163.659l5.462-20.384 2.039.546-5.462 20.384zM36.424 155.641l5.462-20.384 2.038.546-5.462 20.384zM6.529 147.625l5.462-20.384 2.038.546-5.462 20.384z"/><path fill-rule="evenodd" clip-rule="evenodd" fill="#F4F4F2" d="M133.056 139.818c1.346.777 1.806 2.498 1.031 3.844l-20.753 35.943c-.777 1.346-2.498 1.807-3.844 1.03l-100.519-58.035c-1.347-.777-1.808-2.498-1.031-3.844l20.753-35.944c.775-1.346 2.497-1.807 3.843-1.03l100.52 58.036"/><path fill-rule="evenodd" clip-rule="evenodd" fill="#64C1C6" d="M15.669 126.469l23.566-40.815 18.276 10.552-23.566 40.815zM43.082 142.299l23.566-40.815 18.276 10.552-23.566 40.815zM111.124 127.157l-23.566 40.816-18.275-10.552 23.565-40.817 18.276 10.553"/><path fill-rule="evenodd" clip-rule="evenodd" fill="#8C919C" d="M66.163 151.562l10.552-18.276 1.827 1.055-10.552 18.276zM39.359 136.087l10.552-18.275 1.828 1.056-10.552 18.275zM12.555 120.608l10.552-18.276 1.827 1.055-10.552 18.276z"/><path fill-rule="evenodd" clip-rule="evenodd" fill="#F4F4F2" d="M136.791 145.81c1.099 1.099 1.099 2.881 0 3.98l-29.348 29.347c-1.098 1.098-2.881 1.098-3.98 0l-82.073-82.074c-1.099-1.1-1.099-2.88 0-3.98l29.348-29.347c1.098-1.099 2.88-1.099 3.98 0l82.073 82.074"/><path fill-rule="evenodd" clip-rule="evenodd" fill="#64C1C6" d="M26.862 102.532l33.327-33.327 14.922 14.922-33.327 33.327zM49.245 124.917l33.327-33.327 14.923 14.923-33.327 33.327zM118.885 127.903l-33.328 33.327-14.922-14.923 33.327-33.327 14.923 14.923"/><path fill-rule="evenodd" clip-rule="evenodd" fill="#8C919C" d="M69.141 139.842l14.923-14.923 1.493 1.493-14.923 14.923zM47.255 117.955l14.922-14.922 1.493 1.493-14.922 14.922zM25.369 96.067l14.923-14.923 1.492 1.492-14.923 14.923z"/><path fill-rule="evenodd" clip-rule="evenodd" fill="#F4F4F2" d="M138.849 152.564c.776 1.346.316 3.067-1.031 3.844l-35.943 20.752c-1.346.776-3.067.316-3.843-1.031l-58.035-100.519c-.778-1.347-.316-3.066 1.029-3.845l35.944-20.751c1.346-.777 3.067-.317 3.845 1.03l58.034 100.52"/><path fill-rule="evenodd" clip-rule="evenodd" fill="#53B771" d="M43.865 82.309l40.816-23.566 10.552 18.276-40.816 23.566zM111.063 104.435l-40.818 23.567-10.55-18.276 40.816-23.566 10.552 18.275M126.188 130.632l-40.819 23.566-10.55-18.277 40.817-23.566 10.552 18.277"/><path fill-rule="evenodd" clip-rule="evenodd" fill="#8C919C" d="M75.049 129.285l18.277-10.553 1.055 1.827-18.277 10.553zM59.573 102.48l18.275-10.552 1.056 1.828-18.275 10.552zM44.099 75.676l18.275-10.552 1.055 1.827-18.275 10.552z"/><path fill-rule="evenodd" clip-rule="evenodd" fill="#F4F4F2" d="M139.089 159.62c.403 1.501-.489 3.045-1.989 3.447l-40.09 10.741c-1.501.401-3.043-.489-3.446-1.99l-30.042-112.114c-.403-1.502.488-3.044 1.989-3.447l40.09-10.741c1.5-.403 3.044.488 3.446 1.989l30.042 112.115"/><path fill-rule="evenodd" clip-rule="evenodd" fill="#53B771" d="M116.513 75.364l-45.526 12.198-5.462-20.384 45.525-12.198 5.463 20.384M124.706 105.94l-45.526 12.199-5.462-20.384 45.525-12.198 5.463 20.383M132.534 135.159l-45.525 12.198-5.462-20.385 45.525-12.198 5.462 20.385"/><path fill-rule="evenodd" clip-rule="evenodd" fill="#8C919C" d="M83.482 120.626l20.385-5.462.546 2.039-20.385 5.462zM75.474 90.728l20.383-5.461.546 2.038-20.383 5.461zM67.463 60.83l20.383-5.461.546 2.038-20.383 5.461z"/><path fill-rule="evenodd" clip-rule="evenodd" fill="#F4F4F2" d="M137.827 166.533c0 1.554-1.26 2.814-2.814 2.814h-41.503c-1.554 0-2.813-1.26-2.813-2.814v-116.068c0-1.554 1.259-2.815 2.813-2.815h41.504c1.554 0 2.814 1.26 2.814 2.815v116.068"/><path fill-rule="evenodd" clip-rule="evenodd" fill="#EFCF70" d="M137.827 79.306h-47.131v-21.104h47.131v21.104M137.827 110.961h-47.131v-21.103h47.131v21.103M137.827 141.21h-47.131v-21.104h47.131v21.104"/><path fill-rule="evenodd" clip-rule="evenodd" fill="#8C919C" d="M115.317 116.589h-21.439l.002-2.111h21.437v2.111M115.317 85.637h-21.104v-2.111h21.104v2.111M115.317 54.684h-21.104v-2.11h21.104v2.11"/><path fill-rule="evenodd" clip-rule="evenodd" fill="#F4F4F2" d="M162.472 57.598c1.502.402 2.393 1.945 1.99 3.446l-30.041 112.114c-.403 1.502-1.945 2.393-3.446 1.99l-40.09-10.741c-1.499-.403-2.392-1.945-1.989-3.447l30.041-112.114c.403-1.502 1.946-2.392 3.447-1.99l40.088 10.742"/><path fill-rule="evenodd" clip-rule="evenodd" fill="#EFCF70" d="M156.998 88.903l-45.526-12.198 5.462-20.385 45.526 12.199-5.462 20.384M148.805 119.481l-45.525-12.199 5.461-20.385 45.526 12.198-5.462 20.386M140.976 148.698l-45.526-12.199 5.462-20.384 45.526 12.199-5.462 20.384"/><path fill-rule="evenodd" clip-rule="evenodd" fill="#8C919C" d="M125.605 119.09l-20.726-5.553.548-2.038 20.724 5.553-.546 2.038M133.615 89.193l-20.383-5.462.546-2.038 20.384 5.461-.547 2.039M141.626 59.295l-20.384-5.462.546-2.038 20.386 5.462-.548 2.038"/><path fill-rule="evenodd" clip-rule="evenodd" fill="#F4F4F2" d="M186.486 74.005c1.347.776 1.808 2.498 1.03 3.843l-58.034 100.518c-.778 1.347-2.5 1.809-3.845 1.031l-35.943-20.751c-1.347-.777-1.807-2.499-1.03-3.845l58.034-100.519c.779-1.346 2.498-1.807 3.845-1.03l35.943 20.753"/><path fill-rule="evenodd" clip-rule="evenodd" fill="#EFCF70" d="M173.096 102.826l-40.818-23.566 10.552-18.276 40.818 23.566-10.552 18.276M157.267 130.241l-40.816-23.566 10.551-18.276 40.818 23.565-10.553 18.277M142.143 156.437l-40.817-23.566 10.552-18.276 40.817 23.565-10.552 18.277"/><path fill-rule="evenodd" clip-rule="evenodd" fill="#8C919C" d="M134.96 123.859l-18.583-10.728 1.057-1.827 18.58 10.727-1.054 1.828M150.435 97.054l-18.276-10.552 1.055-1.828 18.276 10.552-1.055 1.828M165.911 70.249l-18.276-10.552 1.054-1.828 18.278 10.552-1.056 1.828"/><path fill-rule="evenodd" clip-rule="evenodd" fill="#F4F4F2" d="M205.434 96.068c1.1 1.098 1.1 2.88 0 3.979l-82.073 82.073c-1.1 1.099-2.881 1.1-3.98 0l-29.347-29.346c-1.098-1.099-1.098-2.881 0-3.98l82.073-82.073c1.099-1.098 2.88-1.098 3.98 0l29.347 29.347"/><path fill-rule="evenodd" clip-rule="evenodd" fill="#E96F6F" d="M185.041 120.442l-33.327-33.328 14.923-14.923 33.327 33.328-14.923 14.923M162.657 142.825l-33.327-33.327 14.924-14.923 33.326 33.328-14.923 14.922M141.268 164.214l-33.327-33.328 14.923-14.922 33.327 33.328-14.923 14.922"/><path fill-rule="evenodd" clip-rule="evenodd" fill="#8C919C" d="M142.76 130.886l-15.171-15.172 1.494-1.49 15.171 15.17-1.494 1.492M164.647 109l-14.923-14.922 1.492-1.493 14.924 14.923-1.493 1.492M186.534 87.115l-14.923-14.924 1.492-1.492 14.923 14.923-1.492 1.493"/><path fill-rule="evenodd" clip-rule="evenodd" fill="#F4F4F2" d="M218.028 122.283c.779 1.346.316 3.067-1.03 3.843l-100.518 58.035c-1.347.776-3.068.316-3.845-1.03l-20.752-35.943c-.777-1.346-.316-3.067 1.031-3.844l100.519-58.035c1.345-.776 3.066-.315 3.843 1.031l20.752 35.943"/><path fill-rule="evenodd" clip-rule="evenodd" fill="#E96F6F" d="M192.021 140.547l-23.566-40.817 18.276-10.552 23.566 40.819-18.276 10.55M164.606 156.375l-23.565-40.816 18.276-10.553 23.566 40.818-18.277 10.551M138.41 171.499l-23.566-40.817 18.277-10.551 23.565 40.817-18.276 10.551"/><path fill-rule="evenodd" clip-rule="evenodd" fill="#8C919C" d="M148.477 139.695l-10.728-18.583 1.829-1.053 10.728 18.58-1.829 1.056M175.282 124.218l-10.551-18.276 1.828-1.056 10.551 18.278-1.828 1.054M202.088 108.743l-10.552-18.276 1.827-1.056 10.552 18.276-1.827 1.056"/><path fill-rule="evenodd" clip-rule="evenodd" fill="#F4F4F2" d="M223.407 150.865c.403 1.501-.488 3.043-1.989 3.445l-112.115 30.041c-1.501.403-3.044-.488-3.447-1.991l-10.742-40.088c-.403-1.501.488-3.045 1.989-3.447l112.115-30.042c1.5-.401 3.043.489 3.446 1.991l10.743 40.091"/><path fill-rule="evenodd" clip-rule="evenodd" fill="#8B78D1" d="M193.559 161.776l-12.199-45.526 20.384-5.463 12.199 45.527-20.384 5.462M162.982 169.968l-12.199-45.525 20.385-5.462 12.199 45.526-20.385 5.461M133.764 177.796l-12.199-45.524 20.384-5.463 12.2 45.526-20.385 5.461"/><path fill-rule="evenodd" clip-rule="evenodd" fill="#8C919C" d="M151.72 149.682l-5.554-20.726 2.039-.544 5.553 20.723-2.038.547M181.617 141.67l-5.462-20.385 2.039-.546 5.462 20.385-2.039.546M211.515 133.66l-5.463-20.385 2.039-.546 5.462 20.384-2.038.547"/><path fill-rule="evenodd" clip-rule="evenodd" fill="#F4F4F2" d="M221.557 179.864c0 1.554-1.436 2.814-2.99 2.812l-115.99.001c-1.555 0-2.735-1.26-2.735-2.815v-41.502c0-1.554.927-2.779 2.481-2.779h116.069c1.553 0 2.462 1.066 2.462 2.621l.703 41.662"/><path fill-rule="evenodd" clip-rule="evenodd" fill="#8B78D1" d="M189.883 182.714v-47.132h21.104v47.132h-21.104M158.228 182.714v-47.132h21.103v47.132h-21.103M127.979 182.326v-46.744h21.104v47.447l-21.104-.703"/><path fill-rule="evenodd" clip-rule="evenodd" fill="#8C919C" d="M152.6 160.203v-21.492l2.111.002v21.49h-2.111M183.552 160.166v-21.067h2.11v21.069l-2.11-.002M214.504 160.203v-21.104h2.111v21.104h-2.111M103.523 159.851c0-2.255 1.829-4.083 4.084-4.083s4.084 1.828 4.084 4.083-1.829 4.084-4.084 4.084-4.084-1.829-4.084-4.084"/><path fill="#DADAD8" d="M107.579 45.712v1.938h1.507l-.038-.145c-.218-.813-.77-1.447-1.469-1.793M109.079 85.637h-1.5v4.221h.369l.793-2.961.338-1.26m1.697-6.331h-3.197v4.221h2.066l1.131-4.221m8.826-31.656h-12.023v4.924h7.738v2.11h-7.738v3.518h8.851l.505-1.882 2.003-7.473c.124-.465.356-.87.664-1.197m15.411 0h-9.666l12.48 3.344v-.529c0-1.555-1.26-2.815-2.814-2.815"/><path fill="#D5B964" d="M116.429 58.202h-8.85v21.104h3.197l.696-2.601 4.957-18.503M107.948 89.858h-.369v1.378l.369-1.378"/><path fill="#7D828B" d="M109.645 83.526h-2.066v2.111h1.5l.566-2.111M115.317 52.574h-7.738v2.11h7.738v-2.11"/><path fill="#DADAD8" d="M107.579 114.26v3.641l2.07.555 1.821-3.153-3.891-1.043m0-5.826v3.642l4.984 1.335 1.82-3.153-6.804-1.824m3.893-31.729l-.697 2.601-1.131 4.221-.566 2.11-.338 1.26 16.566 4.439 1.695-2.937.489-.847-14.26-3.821.546-2.038 14.806 3.967 2.184-3.784-19.294-5.171m42.784-21.309l10.15 5.86.056-.212c.403-1.501-.488-3.045-1.99-3.446l-8.216-2.202m-12.63 3.899l-20.384-5.462.546-2.038 20.385 5.462-.547 2.038m-19.972-12.535c-.785 0-1.528.33-2.053.89-.307.327-.54.733-.665 1.196l-2.003 7.474 24.758 6.634 1.138-1.97 3.869-6.701c.169-.291.381-.54.623-.745l-9.494-2.544-12.48-3.344-2.964-.794c-.244-.065-.488-.096-.729-.096"/><path fill="#D5B964" d="M116.934 56.32l-.505 1.882-4.957 18.503 19.296 5.17 1.51-2.615 9.414-16.306-24.758-6.634M108.741 86.897l-.793 2.961-.369 1.378v17.198l6.803 1.823 2.069-3.582 8.856-15.339-16.566-4.439M107.579 117.901v4.14l2.069-3.585-2.069-.555"/><path fill="#7D828B" d="M107.579 112.075v2.185l3.89 1.043.409-.708.684-1.185-4.983-1.335M113.778 81.693l-.546 2.038 14.259 3.821 1.092-1.893-14.805-3.966M121.788 51.795l-.546 2.038 20.384 5.462.548-2.038-20.386-5.462"/><path fill="#DADAD8" d="M116.451 106.675l-2.068 3.582-1.82 3.153-.684 1.185 7.833 4.522 2.575-2.575-5.909-3.411 1.057-1.827 6.396 3.693 2.575-2.574-9.955-5.748m15.827-27.415l-1.51 2.615-2.184 3.784-1.092 1.893-.489.847 14.852 8.575 3.09-3.09-12.786-7.382 1.055-1.828 13.276 7.665 3.089-3.09-17.301-9.989m46.84-9.509l8.288 8.288.11-.19c.778-1.345.317-3.067-1.03-3.843l-7.368-4.255m-13.207.498l-18.276-10.552 1.054-1.828 18.277 10.552-1.055 1.828m-16.772-17.373c-.659 0-1.306.232-1.818.663-.242.204-.454.454-.623.745l-3.869 6.701 22.198 12.815 1.609-1.609 5.471-5.471c.237-.237.506-.423.794-.558l-8.496-4.905-10.15-5.86-3.713-2.143c-.442-.257-.926-.378-1.403-.378"/><path fill="#D5B964" d="M142.83 60.984l-1.138 1.97-9.414 16.306 17.301 9.989 2.135-2.135 13.313-13.314-22.197-12.816M127.002 88.399l-1.695 2.937-8.856 15.339 9.954 5.748 15.45-15.449-14.853-8.575M111.878 114.595l-.409.708-1.821 3.153-2.069 3.585v9.209l12.132-12.133-7.833-4.522"/><path fill="#7D828B" d="M117.434 111.304l-1.057 1.827 5.909 3.411 1.545-1.545-6.397-3.693M133.214 84.674l-1.055 1.828 12.786 7.382 1.544-1.545-13.275-7.665M148.689 57.869l-1.054 1.828 18.276 10.552 1.056-1.828-18.278-10.552"/><path fill="#DADAD8" d="M122.57 182.678h-2.397c.378.178.788.267 1.198.267.41 0 .82-.089 1.199-.267m76.849-92.626l5.86 10.15.155-.155c1.1-1.099 1.1-2.881 0-3.979l-6.015-6.016m-47.705-2.938l-2.135 2.135-3.089 3.09-1.545 1.545-3.09 3.09-15.449 15.449-2.575 2.574-1.545 1.545-2.575 2.575-12.132 12.132v3.628l2.76-1.593-2.397-2.397 14.923-14.922 6.396 6.395 3.153-1.821-4.824-4.825 1.494-1.49 5.222 5.223 3.153-1.82-8.128-8.128 14.924-14.923 12.127 12.127 3.784-2.185-10.44-10.439 1.492-1.492 10.839 10.839 3.785-2.185-14.128-14.127m34.82.001l-14.923-14.923 1.492-1.492 14.923 14.922-1.492 1.493m-12.437-21.219c-.409 0-.818.089-1.195.266-.288.135-.557.321-.794.558l-5.471 5.471 18.124 18.124 8.671-5.006c.29-.168.598-.278.91-.333l-6.937-6.937-8.288-8.288-3.031-3.031c-.549-.549-1.268-.824-1.989-.824"/><path fill="#D06363" d="M166.637 72.191l-1.61 1.609-13.313 13.314 14.126 14.126 2.615-1.51 3.806-2.197 12.5-7.218-18.124-18.124M144.254 94.575l-14.924 14.923 8.128 8.128 18.922-10.924-12.126-12.127M122.864 115.964l-14.923 14.922 2.398 2.398 4.505-2.602 9.048-5.223 5.368-3.099-6.396-6.396"/><path fill="#7D828B" d="M129.083 114.224l-1.494 1.49 4.824 4.825 1.892-1.092-5.222-5.223M151.216 92.585l-1.492 1.493 10.44 10.439 1.892-1.092-10.84-10.84M173.103 70.699l-1.492 1.492 14.923 14.924 1.492-1.493-14.923-14.923"/><path fill="#DADAD8" d="M119.05 182.678h-3.501l-2.731.732c.543.728 1.389 1.129 2.258 1.129.477 0 .961-.122 1.404-.377l2.57-1.484m-4.206-51.996l-4.505 2.601-2.76 1.593v.705h1.633l7.328-1.964-1.696-2.935m98.93-15.766l3.033 11.321.19-.11c1.346-.777 1.808-2.498 1.03-3.843l-4.253-7.368m-45.319-15.186l-2.614 1.51-3.785 2.185-1.892 1.092-3.784 2.185-18.922 10.924-3.153 1.82-1.892 1.092-3.153 1.821-5.367 3.099 9.228-5.327 4.522 7.832 3.518-.942-3.412-5.909 1.829-1.053 3.692 6.396 3.517-.942-5.747-9.954 18.277-10.553 8.575 14.852 4.221-1.131-7.382-12.785 1.828-1.056 7.664 13.275 4.22-1.131-9.988-17.3m33.633 9.013l-10.552-18.276 1.827-1.056 10.552 18.276-1.827 1.056m-7.253-23.811c-.164 0-.329.014-.492.044-.313.055-.62.165-.91.333l-8.671 5.006-12.5 7.217 14.47-8.354 12.816 22.198 9.672-2.592c.243-.065.488-.096.729-.096l.237.01-4.905-8.496-5.86-10.15-2.144-3.712c-.523-.903-1.469-1.408-2.442-1.408"/><path fill="#D06363" d="M186.731 89.178l-14.47 8.355-3.806 2.197 9.988 17.301 21.104-5.655-12.816-22.198M159.317 105.006l-18.276 10.553 5.746 9.954 21.105-5.655-8.575-14.852M133.121 120.131l-9.229 5.328-9.048 5.223 1.695 2.936 5.026-1.346 16.078-4.308-4.522-7.833"/><path fill="#7D828B" d="M139.578 120.059l-1.829 1.053 3.412 5.909.788-.212 1.322-.353-3.693-6.397M166.559 104.886l-1.828 1.056 7.382 12.785 2.11-.565-7.664-13.276M193.363 89.411l-1.827 1.056 10.552 18.276 1.827-1.056-10.552-18.276"/><path fill="#DADAD8" d="M115.549 182.678h-7.97v1.588c.314.119.649.183.994.183.242 0 .487-.031.73-.097l3.515-.942 2.731-.732m105.36-41.133l.217 12.842.291-.078c1.501-.402 2.393-1.944 1.989-3.445l-2.497-9.319m-99.344-9.273l-5.026 1.347-7.328 1.964h13.241l-.887-3.311m89.95 1.388l-5.463-20.385 2.039-.547 5.462 20.384-2.038.548m-1.567-24.972c-.24 0-.486.031-.729.096l-9.672 2.592-21.104 5.655-4.22 1.131-2.11.566-4.221 1.131-21.105 5.655-3.517.942-1.322.354 2.351 8.772h3.642l-1.776-6.626 2.039-.544 1.921 7.17h3.642l-2.985-11.139 20.385-5.463 4.448 16.602h4.369l-3.831-14.297 2.039-.546 3.976 14.843h4.37l-5.181-19.332 20.385-5.462 6.644 24.795h10.003c.356 0 .679.056.964.162l-2.547-9.507-3.033-11.321-1.109-4.14c-.317-1.178-1.333-1.98-2.48-2.077l-.236-.012"/><path fill="#7C6BBB" d="M201.744 110.787l-20.384 5.463 5.181 19.332h21.846999999999998l-6.644-24.795M171.168 118.981l-20.385 5.462 2.985 11.139h21.848000000000003l-4.448-16.601M141.949 126.809l-.788.212-3.518.943-16.078 4.308.887 3.31h21.848000000000003l-2.351-8.773"/><path fill="#7D828B" d="M148.205 128.412l-2.039.544 1.776 6.626h2.184l-1.921-7.17M178.194 120.739l-2.039.546 3.83 14.297h2.185l-3.976-14.843M208.091 112.729l-2.039.546 5.463 20.385 2.038-.547-5.462-20.384"/><path fill="#DADAD8" d="M127.979 135.582h-20.401v20.186h.028c2.255 0 4.084 1.828 4.084 4.083s-1.829 4.084-4.084 4.084h-.028v18.743h30.947l-10.547-.351v-46.745m24.622 24.621v-21.492l2.111.002v21.49h-2.111m5.628-24.621h-9.145v47.095h9.145v-47.095m27.434 24.586l-2.11-.002v-21.067h2.11v21.069m4.221-24.586h-10.551v47.095h10.552v-47.095m24.62 24.621v-21.104h2.11v21.104h-2.11m3.887-24.621h-7.404v47.095h7.58c1.554.001 2.99-1.258 2.99-2.812l-.431-25.477-.217-12.842-.056-3.343c0-1.198-.54-2.106-1.499-2.459-.284-.106-.607-.162-.963-.162"/><path fill="#7C6BBB" d="M210.987 135.582h-21.104v47.132h21.104v-47.132M179.331 135.582h-21.103v47.132h21.103v-47.132M149.083 135.582h-21.104v46.744l10.547.351 10.557.352v-47.446999999999996"/><path fill="#7D828B" d="M152.6 138.711v21.492h2.111v-21.49l-2.111-.002M185.662 139.099h-2.11v21.067l2.11.002v-21.069M216.615 139.099h-2.111v21.104h2.111v-21.104M107.607 155.768h-.028v8.167h.028c2.255 0 4.084-1.829 4.084-4.084s-1.829-4.083-4.084-4.083"/></svg>