<?xml version="1.0" encoding="utf-8"?>
<!-- Generator: Adobe Illustrator 17.0.1, SVG Export Plug-In . SVG Version: 6.00 Build 0)  -->
<!DOCTYPE svg PUBLIC "-//W3C//DTD SVG 1.1//EN" "http://www.w3.org/Graphics/SVG/1.1/DTD/svg11.dtd">
<svg version="1.1" id="Layer_1" xmlns="http://www.w3.org/2000/svg" xmlns:xlink="http://www.w3.org/1999/xlink" x="0px" y="0px"
	 width="250px" height="250px" viewBox="0 0 250 250" enable-background="new 0 0 250 250" xml:space="preserve">
<g>
	<path fill="#EFCF70" d="M179.212,39.157h59.399v-7.736l-7.66-1.067c0.004,0.054-3.863,27.661-14.254,55.023
		c-10.392,27.915-27.33,52.406-48.283,51.708c-4.274,0-7.736,3.466-7.736,7.736c0,4.27,3.461,7.736,7.736,7.736
		c33.49-0.698,51.658-32.913,62.751-61.698c11.099-29.338,15.053-58.057,15.11-58.374c0.308-2.218-0.358-4.46-1.83-6.149
		c-1.471-1.686-3.594-2.656-5.835-2.656h-59.399c-4.27,0-7.736,3.466-7.736,7.742C171.476,35.691,174.942,39.157,179.212,39.157"/>
	<path fill="#EFCF70" d="M71.419,23.68H12.021c-2.241,0-4.363,0.97-5.834,2.656c-1.472,1.689-2.139,3.931-1.83,6.149
		c0.057,0.317,4.01,29.036,15.109,58.374c11.094,28.785,29.257,61,62.753,61.698c4.27,0,7.736-3.466,7.736-7.736
		c0-4.27-3.466-7.736-7.736-7.736c-20.957,0.698-37.892-23.793-48.283-51.708c-10.392-27.362-14.18-54.99-14.255-55.023l-7.66,1.067
		v7.736h59.399c4.271,0,7.736-3.466,7.736-7.736c0-4.276-3.465-7.736-7.736-7.736V23.68"/>
	<path fill-rule="evenodd" clip-rule="evenodd" fill="#EFCF70" d="M101.055,144.047h48.522c3.969,0,7.189,3.22,7.189,7.196v68.358
		c0,3.972-3.22,7.195-7.189,7.195h-48.522c-3.969,0-7.189-3.223-7.189-7.195v-68.358C93.867,147.267,97.086,144.047,101.055,144.047
		"/>
	<path fill-rule="evenodd" clip-rule="evenodd" fill="#EFCF70" d="M71.218,219.576h108.197c3.969,0,7.189,3.223,7.189,7.199v8.991
		c0,3.975-3.22,7.195-7.189,7.195H71.218c-3.971,0-7.19-3.22-7.19-7.195v-8.991C64.028,222.799,67.248,219.576,71.218,219.576"/>
	<path fill-rule="evenodd" clip-rule="evenodd" fill="#E96F6F" d="M50.574,9.239h149.78c4.66,0,8.44,3.206,8.44,7.168V122.15
		c0.19,5.212-1.212,16.481-6.309,20.636c-23.651,19.276-42.417,32.508-63.264,42.827c-5.581,2.762-10.936,4.635-14.81,4.635
		c-3.792,0-9.854-1.819-14.559-4.635c-15.287-9.162-42.045-25.38-61.073-40.646c-4.076-3.273-7.222-15.629-6.645-22.817
		c-0.701-19.122,0-105.744,0-105.744C42.134,12.445,45.914,9.239,50.574,9.239"/>
	<path fill-rule="evenodd" clip-rule="evenodd" fill="#F4F4F2" d="M65.758,24.378h119.408c4.66,0,8.44,3.206,8.44,7.168v87.006
		c0.196,5.219-0.994,11.942-6.309,15.994c-18.173,13.861-31.713,25.727-48.687,35.167c-4.49,2.499-8.271,3.943-12.658,5.376
		c-0.979,0.32-9.751-2.768-14.764-5.376c-16.58-8.615-29.598-18.409-48.771-32.986c-4.273-3.251-5.675-10.981-5.098-18.176
		c-0.701-19.116,0-87.006,0-87.006C57.318,27.584,61.095,24.378,65.758,24.378"/>
	<path fill="#64C2C7" d="M170.48,106.81c3.693,34.06-10.795,45.006-43.459,32.839c-31.908,13.973-47.008,3.85-45.301-30.358
		C58.308,83.867,63.46,66.666,97.183,57.685c17.439-29.681,35.723-30.19,54.857-1.532C186.228,63.23,192.377,80.119,170.48,106.81
		 M182.342,110.705l-36.456,8.928l-19.388,31.449l-19.953-31.103l-36.612-8.287l24.123-28.151l-3.241-36.574l34.864,13.707
		l34.61-14.314l-2.576,36.622L182.342,110.705"/>
	<path fill-rule="evenodd" clip-rule="evenodd" fill="#E96F6F" d="M125.317,53.761c21.705,0,39.296,17.59,39.296,39.294
		c0,21.705-17.591,39.301-39.296,39.301c-21.704,0-39.3-17.596-39.3-39.301C86.017,71.351,103.613,53.761,125.317,53.761"/>
	<polyline fill="#F0EFEA" points="130.986,75.098 113.458,77.786 113.458,84.062 122.066,84.062 122.066,113.517 130.986,113.517 
		130.986,75.098 	"/>
	<path fill="#D5B964" d="M238.61,23.68h-29.817v15.477h20.661c-1.958,10.328-5.963,28.328-12.758,46.221
		c-2.318,6.226-4.963,12.283-7.903,17.927v18.845c0.095,2.615-0.21,6.754-1.182,10.753c10.416-11.824,17.902-27.379,23.553-42.043
		c11.099-29.338,15.053-58.057,15.11-58.374c0.308-2.218-0.358-4.46-1.83-6.149C242.974,24.65,240.851,23.68,238.61,23.68"/>
	<path fill="#D5B964" d="M156.766,175.967c-5.788,3.502-11.581,6.693-17.546,9.646c-4.593,2.272-9.032,3.943-12.619,4.465v29.498
		h30.165V175.967"/>
	<path fill="#D5B964" d="M179.416,219.576h-22.65h-30.165v23.386h52.814c3.969,0,7.189-3.22,7.189-7.195v-8.991
		C186.604,222.799,183.385,219.576,179.416,219.576"/>
	<path fill="#D06363" d="M200.353,9.239h-73.752v15.139h58.565c4.66,0,8.44,3.206,8.44,7.168v87.006
		c0.196,5.219-0.994,11.942-6.309,15.994c-18.173,13.861-31.713,25.727-48.687,35.167c-4.267,2.375-7.893,3.797-12.008,5.163v15.202
		c3.587-0.521,8.026-2.192,12.619-4.465c5.965-2.952,11.758-6.143,17.546-9.646c14.438-8.74,28.834-19.421,45.718-33.182
		c2.541-2.071,4.164-5.908,5.128-9.883c0.971-3.999,1.277-8.138,1.182-10.753v-18.845V39.157V23.68v-7.273
		C208.793,12.445,205.013,9.239,200.353,9.239"/>
	<path fill="#DADAD8" d="M185.166,24.378h-58.565v10.791c7.183,0.888,14.494,6.238,21.936,16.052l11.752-4.861l-0.817,11.613
		c25.605,7.375,30.579,21.965,14.911,43.773l7.959,8.96l-11.359,2.782c0.802,20.642-6.516,30.965-21.949,30.965
		c-4.768,0-10.309-0.984-16.627-2.955l-5.806,9.419v23.96c4.116-1.366,7.742-2.788,12.008-5.163
		c16.973-9.44,30.514-21.306,48.687-35.167c5.315-4.052,6.506-10.776,6.309-15.994V31.545
		C193.606,27.584,189.826,24.378,185.166,24.378"/>
	<path fill="#59ADB2" d="M126.601,35.168v18.614c21.112,0.677,38.012,17.998,38.012,39.272c0,21.276-16.901,38.603-38.012,39.28
		v18.581l5.806-9.419c6.319,1.972,11.859,2.955,16.627,2.955c15.432,0,22.751-10.324,21.949-30.965l11.359-2.782l-7.959-8.96
		c15.668-21.808,10.694-36.399-14.911-43.773l0.817-11.613l-11.752,4.861C141.095,41.407,133.784,36.057,126.601,35.168"/>
	<path fill="#D06363" d="M126.601,53.782V75.77l4.385-0.672v38.419h-4.385v18.818c21.112-0.677,38.012-18.004,38.012-39.28
		C164.614,71.78,147.713,54.459,126.601,53.782"/>
	<polyline fill="#D6D5D1" points="130.986,75.098 126.601,75.77 126.601,113.517 130.986,113.517 130.986,75.098 	"/>
</g>
</svg>
