<?xml version="1.0" encoding="utf-8"?>
<!-- Generator: Adobe Illustrator 17.0.1, SVG Export Plug-In . SVG Version: 6.00 Build 0)  -->
<!DOCTYPE svg PUBLIC "-//W3C//DTD SVG 1.1//EN" "http://www.w3.org/Graphics/SVG/1.1/DTD/svg11.dtd">
<svg version="1.1" id="Layer_1" xmlns="http://www.w3.org/2000/svg" xmlns:xlink="http://www.w3.org/1999/xlink" x="0px" y="0px"
	 width="250px" height="250px" viewBox="0 0 250 250" enable-background="new 0 0 250 250" xml:space="preserve">
<g>
	<path fill="#494B4F" d="M19.753,138.351c0-60.368,47.401-109.306,105.874-109.306c58.472,0,105.874,48.937,105.874,109.306
		c0,60.369-47.401,109.306-105.874,109.306C67.154,247.657,19.753,198.72,19.753,138.351"/>
	<path fill="#F0EFEA" d="M26.857,138.351c0-56.317,44.22-101.972,98.77-101.972c54.549,0,98.77,45.655,98.77,101.972
		c0,56.318-44.221,101.972-98.77,101.972C71.077,240.323,26.857,194.669,26.857,138.351"/>
	<path fill="#FFFFFF" d="M125.092,98.131c-8.902-0.087-16.2,7.911-16.297,17.866c-0.098,9.956,7.038,18.097,15.941,18.185
		c8.904,0.089,16.2-7.91,16.299-17.866C141.134,106.363,133.998,98.222,125.092,98.131"/>
	<path fill="#EF6060" d="M127.333,191.96c3.852,1.431,5.609,4.098,6.891,7.828c-0.274-1.37-0.208-0.65,0.199,2.16
		c-0.557,2.791-0.663,3.469-0.316,2.036c0.458-1.817-0.013-0.898-0.363,0.021c-0.304,0.798-0.514,1.597,0.057,0.599
		c0.63-1.101,2.935-3.604-0.408,0.202c0.617-0.702,1.322-1.318,2.038-1.915c-3.455,2.876-1.647,1.073-0.345,0.443
		c-2.502,1.211-3.613,1.084-7.217,0.474c-4.022-0.682-5.485-3.761-6.661-6.98c0.336,1.464,0.292,0.812-0.132-1.953
		c0.163-3.27,1.387-5.961,3.674-8.072c2.458-1.545,3.041-1.969,1.751-1.27c2.593-0.85,3.174-1.086,1.739-0.711
		c-2.104,0.518,3.884-0.001,0.134-0.118c-1.486-0.046-1.503,0.029-1.103,0.104c0.643,0.12,2.359,0.24,0.831-0.137
		c-1.14-0.281-4.66-1.961-0.415,0.102c-1.081-0.526-4.093-2.975-0.492,0.113c-1.504-1.29-1.245-0.75-0.811-0.21
		c0.402,0.498,0.953,0.996,0.407,0.054c-0.635-1.372-0.51-0.993,0.371,1.132c-0.415-1.417-0.437-0.65-0.335,0.117
		c0.106,0.794,0.346,1.588,0.42-0.039c0.363-7.914-6.205-14.781-14.061-15.038c-7.994-0.261-14.677,6.132-15.038,14.061
		c-0.758,16.605,12.833,26.297,27.677,28.688c6.26,1.008,13.306-0.95,18.147-4.997c7.118-5.957,7.248-15.186,3.83-23.057
		c-6.334-14.589-25.642-11.856-34.496-1.776c-4.432,5.048-7.344,10.362-7.984,17.15c-0.834,8.898,5.798,15.971,13.585,18.863
		c7.44,2.763,15.958-2.49,18.148-9.725C139.461,202.173,134.765,194.72,127.333,191.96"/>
	<path fill="#45BA69" d="M175.264,162.712c0.797-4.927,0.295-1.892-0.012-0.763c-0.096,0.326-0.199,0.65-0.313,0.971
		c-0.377,1.099,0.123,0.089,0.572-0.922c0.435-0.977,0.824-1.954,0.329-1.025c-0.686,1.291,0.202,0.376,0.931-0.54
		c0.662-0.83,1.192-1.661,0.297-0.843c1.654-1.514,3.346-2.296,4.896-2.62c3.286-0.189,4.264-0.294,2.937-0.314
		c-1.334-0.132-0.352,0.031,2.944,0.486c-1.055-0.241-0.326,0.18,0.602,0.601c1.138,0.517,2.575,1.034,1.393,0.328
		c-1.311-0.781-0.537-0.091,0.35,0.6c0.839,0.653,1.78,1.306,1.152,0.712c-0.419-0.395-0.788-0.842-1.144-1.294
		c-0.593-0.748-0.048,0.096,0.535,0.94c0.645,0.929,1.338,1.858,0.616,0.66c-0.317-0.523-0.58-1.077-0.828-1.635
		c-0.322-0.722-0.063,0.149,0.238,1.019c0.358,1.036,0.775,2.072,0.339,0.421c-0.358-1.362-0.301-3.97,0.048,1.653
		c-0.028-0.438,0.004-0.877,0.047-1.312c-0.607,3.183-0.751,4.114-0.428,2.793c0.305-1.218,1.569-2.952-1.161,2.406
		c0.593-1.165-0.303-0.248-1.032,0.67c-0.676,0.851-1.209,1.703-0.275,0.888c-2.691,1.766-3.44,2.299-2.251,1.594
		c1.028-0.601,2.988-0.863-2.09,0.716c-5.924-4.896-11.845-9.79-17.767-14.685c0.096,1.691,0.35,0.713,0.466-0.265
		c0.101-0.863,0.092-1.726-0.232-0.755c0.542-1.88,1.545-3.471,3.012-4.77c0.777-0.533,1.554-1.066,2.33-1.597
		c11.63,2.657,15.51,2.697,11.642,0.12c-6.5-4.559-16.001-1.91-20.074,4.551c-4.39,6.961-1.944,15.518,4.549,20.074
		c11.986,8.409,28.196-2.494,27.405-16.383c-0.221-3.921-1.058-7.306-3.79-10.298c-3.289-3.602-9.128-5.891-13.977-4.386
		c-8.922,2.771-14.928,9.445-15.477,18.994c-0.39,6.813,2.744,13.288,6.857,18.482c4.621,5.839,12.47,8.843,19.75,7.323
		c4.906-1.025,8.901-4.402,11.617-8.478c2.678-4.02,3.347-8.511,4.095-13.141c1.267-7.838-6.893-14.803-14.061-15.038
		c-3.768-0.124-7.51,1.247-10.297,3.791C176.829,155.34,175.92,158.653,175.264,162.712"/>
	<path fill="#64C1C6" d="M60.498,117.176c5.434,2.86,10.445,2.681,15.469-0.896c3.234-2.302,5.058-6.32,6.532-9.85
		c2.689-6.447,4.657-14.834,1.871-21.46c-2.298-5.461-8.547-8.73-14.322-7.241c-6.038,1.559-10.7,7.898-10.345,14.191
		c0.331,5.861,3.465,9.875,8.135,13.166c2.839,2.002,6.142,3.238,8.946,5.285c4.353,3.182,10.852,1.507,13.701-2.828
		c3.07-4.676,1.52-10.525-2.829-13.703c-3.175-2.321-6.919-3.709-10.055-6.098c1.098,0.991,1.283,1.117,0.56,0.383
		c0.817,1.35,0.988,1.583,0.516,0.704c0.839,1.578,1.005,3.163,0.502,4.756c0.378-1.124,0.266-0.942-0.338,0.542
		c-2.812,4.712-9.828,3.441-12.329-0.733c-0.372-0.65-0.533-1.344-0.481-2.084c0.026,0.503-0.036,0.972-0.105,1.457
		c-0.304,2.154,0.485-2.492,0.139-0.703c-0.133,0.667-0.285,1.326-0.44,1.989c-0.405,1.746-0.918,3.462-1.512,5.15
		c-0.269,0.76-0.583,1.502-0.91,2.237c1.297-2.921,0.235-0.619-0.191,0.039c-0.945,1.458,1.939-1.749,0.112-0.196
		c2.497-2.119,5.451-2.107,8.246-0.637c-4.768-2.508-10.53-2-13.702,2.83C54.93,107.646,55.722,114.664,60.498,117.176z"/>
	<path fill="#314856" d="M188.477,80.595c-6.123-0.456-10.648,1.705-13.83,6.99c-2.047,3.4-2.117,7.812-2.062,11.638
		c0.106,6.985,1.645,15.461,6.841,20.426c4.285,4.091,11.32,4.599,16.021,0.93c4.916-3.838,6.663-11.509,3.83-17.139
		c-2.64-5.243-7.114-7.675-12.711-8.831c-3.401-0.704-6.924-0.521-10.311-1.279c-5.261-1.183-10.553,2.945-11.438,8.056
		c-0.95,5.512,2.802,10.258,8.058,11.438c3.836,0.862,7.824,0.642,11.653,1.583c-1.402-0.47-1.622-0.513-0.668-0.128
		c-1.287-0.912-1.536-1.058-0.754-0.44c-1.397-1.113-2.183-2.5-2.356-4.161c0.102,1.181,0.132,0.97,0.095-0.632
		c0.699-5.441,7.64-7.074,11.599-4.243c0.601,0.448,1.024,1.02,1.271,1.719c-0.224-0.45-0.355-0.905-0.484-1.377
		c-0.297-1.073-0.146-0.397,0.019,0.28c0.158,0.644,0.327,1.288,0.134,0.42c-0.144-0.664-0.268-1.33-0.391-1.999
		c-0.324-1.762-0.538-3.542-0.666-5.326c-0.056-0.804-0.065-1.61-0.057-2.414c-0.025,3.196,0.031,0.661,0.159-0.112
		c0.137-0.825-0.109-0.303-0.283,0.218c-0.187,0.561-0.29,1.123,0.258,0.007c-1.446,2.939-4.159,4.105-7.309,3.872
		c5.372,0.398,10.454-2.365,11.437-8.058C197.384,87.116,193.858,80.995,188.477,80.595"/>
	<path fill="#EFCF70" d="M80.237,145.177c-9.978-1.9-19.98,3.594-25.98,11.36c-7.04,9.115-9.51,23.404,2.536,29.848
		c5.363,2.869,11.349,2.003,16.959,0.62c3.321-0.819-5.782-0.146-0.761,0.394c3.5,0.376,6.956-0.09,9.939-2.076
		c3.089-2.057,5.083-5.395,6.461-8.756c3.231-7.888,4.173-16.802-3.328-22.751c-1.647-1.306-3.59-2.417-5.475-3.372
		c-0.569-0.287-3.799-2.416-1.697-0.811c-3.22-2.457-6.013-5.485-8.74-8.463c-4.666-5.095-13.676-3.629-17.863,1.128
		c-4.927,5.599-3.525,12.779,1.129,17.862c3.098,3.386,6.299,6.6,9.953,9.389c1.625,1.24,3.381,2.281,5.204,3.188
		c0.626,0.303,1.249,0.611,1.867,0.929c2.494,1.263-1.404-1.013-1.694-1.555c-0.697-2.022-1.395-4.045-2.091-6.068
		c0.161,1.097,0.215,0.564,0.159-1.599c-0.09,0.722-0.927,3.405,0.155,0.154c-0.289,0.868-0.663,1.704-1.039,2.533
		c-1.156,2.539,1.879-2.094,0.48-0.701c1.789-1.199,3.58-2.398,5.37-3.595c-0.198,0.054-0.396,0.107-0.595,0.162
		c2.149-0.161,4.297-0.32,6.445-0.481c-3.988-0.429-7.243-0.945-11.207,0.305c-0.752,0.238-3.769,0.705-0.209,0.115
		c-1.302,0.215-4.01-0.284,0.142,0.222c-0.163-0.033-0.325-0.065-0.49-0.099c1.714,0.312,3.22,1.056,4.51,2.232
		c1.018,0.705,2.665,3.889,3.057,6.289c-0.308-1.881-0.394,3.566-0.104,1.569c0.415-2.85-1.127,2.793-0.31,0.827
		c0.218-0.521,0.494-1.016,0.768-1.51c1.029-1.863-2.202,2.953-0.158,0.307c0.391-0.508,0.825-0.979,1.258-1.45
		c2.25-2.453-1.752,1.325-0.072-0.041c0.502-0.409,1.039-0.767,1.577-1.125c2.714-1.802-2.005,0.787-0.113,0.003
		c2.91-1.206-2.234,0.201-0.28-0.073c3.048-0.426-2.341-0.398-0.404-0.029c6.769,1.291,13.497-3.362,14.76-10.12
		C91.63,153.146,87.009,146.466,80.237,145.177z"/>
	<path fill-rule="evenodd" clip-rule="evenodd" fill="#EFCF70" d="M145.404,38.489c-1.491-9.121-11.497-11.822-16.274-16.733
		c-4.254-4.373,1.513-15.248,1.513-15.248c-0.056-4.76-3.406-1.855-6.768,0.08c0,0-10.861,5.776-18.413,17.139
		c-3.839,5.78-4.023,17.535-2.278,22.027c1.744,4.491,3.571,7.008,6.032,9.236c0,0,7.988,1.597,15.246,1.512
		c7.541-0.089,15.21-1.872,15.21-1.872C145.232,51.723,146.609,45.85,145.404,38.489"/>
	<path fill-rule="evenodd" clip-rule="evenodd" fill="#76A1D3" d="M139.164,89.134l-4.426,42.255c0,0-3.132,4.711-9.108,4.782
		c-5.978,0.072-9.838-6.092-9.838-6.092l-4.545-40.615c-0.022-1.868,1.475-3.402,3.344-3.424l21.15-0.25
		C137.609,85.768,139.142,87.266,139.164,89.134"/>
	<path fill-rule="evenodd" clip-rule="evenodd" fill="#484848" d="M140.433,53.301l-1.283,34.707
		c0.043,3.56-28.724,3.617-28.763,0.339l-2.101-34.667C109.449,56.591,139.636,57.365,140.433,53.301"/>
	<path fill="#414347" d="M140.446,30.108c2.408,2.127,4.341,4.72,4.947,8.314c45.077,9.452,79.004,50.6,79.004,99.93
		c0,56.318-44.221,101.972-98.77,101.972c-0.406,0-0.814-0.003-1.218-0.008v7.334c0.406,0.005,0.812,0.007,1.218,0.007
		c58.472,0,105.874-48.937,105.874-109.306C231.5,83.174,191.904,37.547,140.446,30.108"/>
	<path fill="#D6D5D1" d="M193.512,106.049c0.059,0.159,0.126,0.316,0.204,0.473C193.658,106.358,193.59,106.2,193.512,106.049
		 M165.713,148.669c2.721-3.826,6.807-6.606,11.808-8.16c1.033-0.321,2.113-0.469,3.201-0.469c4.021,0,8.187,2.021,10.775,4.855
		c1.288,1.412,2.156,2.91,2.735,4.512c5.883,2.031,11.167,7.864,10.13,14.282c-0.748,4.63-1.417,9.121-4.095,13.141
		c-2.716,4.076-6.711,7.453-11.617,8.478c-1.264,0.264-2.545,0.391-3.824,0.391c-6.085,0-12.108-2.889-15.926-7.714
		c-2.939-3.712-5.378-8.077-6.388-12.752c-1.998-4.269-1.961-9.32,0.821-13.731C163.996,150.451,164.801,149.503,165.713,148.669
		 M172.823,93.275c0.265-2.017,0.795-3.981,1.824-5.69c2.907-4.828,6.934-7.049,12.278-7.049c0.505,0,1.022,0.02,1.551,0.059
		c5.381,0.4,8.907,6.521,8.056,11.436c-0.381,2.208-1.379,3.975-2.771,5.288c2.269,1.423,4.141,3.391,5.515,6.12
		c2.833,5.63,1.086,13.302-3.83,17.139c-2.134,1.665-4.748,2.469-7.368,2.469c-3.153,0-6.313-1.165-8.654-3.4
		c-1.852-1.77-3.241-3.987-4.264-6.424c-0.766-0.103-1.529-0.231-2.286-0.401c-5.256-1.18-9.008-5.926-8.058-11.438
		C165.508,97.4,168.878,94.012,172.823,93.275 M145.393,38.422c0.004,0.022,0.007,0.045,0.011,0.067
		c1.151,7.029-0.053,12.701-5.004,15.73l-1.249,33.788c0.001,0.117-0.029,0.231-0.088,0.341c0.064,0.252,0.098,0.515,0.101,0.786
		l-1.649,15.746c2.24,3.129,3.563,7.112,3.52,11.437c-0.056,5.694-2.467,10.749-6.186,14.016l-0.111,1.057
		c0,0-3.132,4.711-9.108,4.782c-0.034,0-0.07,0-0.104,0c-0.381,0-0.754-0.025-1.117-0.073v40.576
		c2.445-0.793,4.989-1.222,7.482-1.222c6.582,0,12.807,2.989,15.913,10.142c3.418,7.871,3.288,17.1-3.83,23.057
		c-2.318,1.938-5.141,3.397-8.141,4.28c-2.346,4.092-6.746,7.102-11.423,7.582v19.801c0.405,0.005,0.813,0.008,1.218,0.008
		c54.549,0,98.77-45.654,98.77-101.972C224.397,89.022,190.47,47.874,145.393,38.422"/>
	<path fill="#E4E4E4" d="M137.515,104.88l-2.666,25.452c3.719-3.267,6.13-8.321,6.186-14.016
		C141.078,111.992,139.755,108.009,137.515,104.88"/>
	<path fill="#D55656" d="M131.89,175.454c-2.492,0-5.037,0.428-7.482,1.222v43.839c4.678-0.48,9.078-3.49,11.423-7.582
		c3.001-0.884,5.824-2.342,8.141-4.28c7.118-5.957,7.248-15.186,3.83-23.057C144.697,178.444,138.472,175.455,131.89,175.454"/>
	<path fill="#3EA65E" d="M180.723,140.04c-1.089,0-2.168,0.148-3.201,0.469c-5.002,1.553-9.088,4.334-11.808,8.16
		c-0.912,0.834-1.717,1.783-2.38,2.833c-2.782,4.411-2.819,9.462-0.821,13.731c1.011,4.675,3.449,9.041,6.388,12.752
		c3.818,4.825,9.841,7.714,15.926,7.714c1.278,0,2.56-0.128,3.824-0.391c4.906-1.025,8.901-4.402,11.617-8.478
		c2.678-4.02,3.347-8.511,4.095-13.141c1.038-6.419-4.246-12.251-10.13-14.282c-0.579-1.602-1.447-3.1-2.735-4.512
		C188.91,142.061,184.744,140.04,180.723,140.04"/>
	<path fill="#2C404D" d="M193.717,106.523c-0.078-0.157-0.145-0.314-0.204-0.473C193.59,106.2,193.658,106.358,193.717,106.523
		 M186.925,80.536c-5.345,0-9.371,2.221-12.278,7.049c-1.029,1.709-1.559,3.673-1.824,5.69c-3.945,0.738-7.315,4.126-8.005,8.111
		c-0.95,5.512,2.802,10.258,8.058,11.438c0.756,0.17,1.519,0.298,2.286,0.401c1.023,2.436,2.412,4.654,4.264,6.424
		c2.34,2.235,5.5,3.4,8.654,3.4c2.619,0,5.234-0.804,7.368-2.469c4.916-3.838,6.663-11.509,3.83-17.139
		c-1.374-2.73-3.246-4.698-5.515-6.12c1.392-1.313,2.389-3.08,2.771-5.288c0.85-4.915-2.675-11.037-8.056-11.436
		C187.948,80.556,187.43,80.536,186.925,80.536"/>
	<path fill="#D6D5D1" d="M136.509,55.261c-0.507,0.09-1.062,0.185-1.658,0.28C135.439,55.457,135.993,55.364,136.509,55.261"/>
	<path fill="#D5B964" d="M129.197,3.923c-1.185,0-2.959,1.252-4.789,2.351v49.831c0.248,0.001,0.496,0.003,0.744,0.003
		c3.507,0,6.961-0.179,9.698-0.568c0.596-0.095,1.151-0.189,1.658-0.28c2.26-0.452,3.756-1.098,3.925-1.96l0,0l0,0l-0.034,0.919
		c4.952-3.029,6.156-8.701,5.004-15.73c-0.004-0.022-0.007-0.045-0.011-0.067c-0.606-3.594-2.539-6.187-4.947-8.314
		c-3.667-3.239-8.439-5.395-11.316-8.352c-4.254-4.373,1.513-15.248,1.513-15.248C130.62,4.599,130.067,3.923,129.197,3.923"/>
	<path fill="#6990BC" d="M139.063,88.348c-0.854,1.585-7.809,2.378-14.654,2.395V136.1c0.363,0.047,0.736,0.073,1.117,0.073
		c0.034,0,0.07,0,0.104,0c5.977-0.072,9.108-4.782,9.108-4.782l0.111-1.057l2.666-25.452l1.649-15.746
		C139.161,88.863,139.126,88.6,139.063,88.348"/>
	<path fill="#404040" d="M140.433,53.301c-0.169,0.863-1.664,1.508-3.925,1.96c-0.516,0.103-1.07,0.197-1.658,0.28
		c-2.737,0.389-6.192,0.568-9.698,0.568c-0.248,0-0.496-0.001-0.744-0.003v34.638c6.845-0.018,13.8-0.81,14.654-2.395
		c0.059-0.11,0.089-0.223,0.088-0.341l1.249-33.788L140.433,53.301"/>
</g>
</svg>
