<?xml version="1.0" encoding="utf-8"?>
<!-- Generator: Adobe Illustrator 17.0.1, SVG Export Plug-In . SVG Version: 6.00 Build 0)  -->
<!DOCTYPE svg PUBLIC "-//W3C//DTD SVG 1.1//EN" "http://www.w3.org/Graphics/SVG/1.1/DTD/svg11.dtd">
<svg version="1.1" id="Layer_1" xmlns="http://www.w3.org/2000/svg" xmlns:xlink="http://www.w3.org/1999/xlink" x="0px" y="0px"
	 width="250px" height="250px" viewBox="0 0 250 250" enable-background="new 0 0 250 250" xml:space="preserve">
<g>
	<path fill="#C5D3D6" d="M22.563,209.62c0,21.36,45.87,38.715,102.455,38.715S227.474,231.06,227.474,209.7v-32.735H22.563V209.62"
		/>
	<path fill="#E7EFF1" d="M227.474,171.28c0,21.36-45.87,38.675-102.455,38.675S22.563,192.64,22.563,171.28
		c0-21.358,45.87-38.674,102.455-38.674S227.474,149.922,227.474,171.28"/>
	<path fill="#C5D3D6" d="M22.563,146.75c0,21.36,45.87,38.715,102.455,38.715s102.455-17.274,102.455-38.634v-32.735H22.563V146.75"
		/>
	<path fill="#E7EFF1" d="M227.474,108.41c0,21.359-45.87,38.674-102.455,38.674S22.563,129.769,22.563,108.41
		c0-21.36,45.87-38.675,102.455-38.675S227.474,87.05,227.474,108.41"/>
	<path fill="#C5D3D6" d="M22.563,80.387c0,21.36,45.87,38.715,102.455,38.715s102.455-17.275,102.455-38.634V47.733H22.563V80.387"
		/>
	<path fill="#E7EFF1" d="M227.474,42.047c0,21.36-45.87,38.675-102.455,38.675S22.563,63.406,22.563,42.047
		c0-21.359,45.87-38.674,102.455-38.674S227.474,20.687,227.474,42.047"/>
	<path fill="#EF6060" d="M125.016,17.564c-4.161,0-8.209,0.19-12.111,0.539v22.078c0,2.706,5.453,4.912,12.144,4.912
		c6.689,0,12.144-2.206,12.144-4.912c0-2.594-5.022-4.729-11.336-4.899v-3.933c11.664,0.173,21.049,4.073,21.049,8.832
		c0,4.868-9.82,8.841-21.857,8.841c-12.044,0-21.861-3.972-21.861-8.841V19.354c-1.383,0.236-2.726,0.501-4.048,0.781v20.046
		c0,5.771,11.64,10.478,25.908,10.478c14.272,0,25.909-4.707,25.909-10.478c0-5.659-11.203-10.295-25.101-10.47v-3.93
		c19.249,0.175,34.811,6.576,34.811,14.4c0,7.935-16,14.405-35.619,14.405c-19.623,0-35.626-6.471-35.626-14.405V22.74
		C77.03,26.886,69.134,33.153,69.134,40.164c0,12.483,25.02,22.602,55.882,22.602c30.872,0,55.887-10.119,55.887-22.602
		C180.903,27.682,155.889,17.564,125.016,17.564"/>
	<path fill="#EF6060" d="M171.471,173.971l15.647-1.14c0.504-3.205,0.771-6.489,0.771-9.836s-0.267-6.631-0.771-9.836l-15.648-1.14
		c-1.158-4.922-3.065-9.554-5.616-13.756l10.278-11.853c-3.868-5.394-8.56-10.152-13.904-14.083l-11.821,10.253
		c-4.376-2.755-9.231-4.817-14.412-6.037l-1.14-15.647c-3.205-0.504-6.489-0.771-9.836-0.771c-3.347,0-6.631,0.267-9.836,0.771
		l-1.14,15.647c-5.062,1.192-9.813,3.182-14.11,5.843l-11.834-10.266c-5.353,3.891-10.065,8.602-13.955,13.956l10.266,11.831
		c-2.66,4.3-4.65,9.05-5.842,14.112l-15.648,1.14c-0.504,3.205-0.771,6.489-0.771,9.836s0.267,6.631,0.771,9.836l15.647,1.14
		c1.224,5.202,3.297,10.074,6.069,14.465L74.382,200.25c3.913,5.311,8.647,9.976,14.006,13.827l11.845-10.278
		c4.216,2.566,8.866,4.484,13.809,5.649l1.14,15.647c3.205,0.504,6.489,0.771,9.836,0.771c3.347,0,6.631-0.267,9.836-0.771
		l1.14-15.647c5.062-1.192,9.813-3.182,14.111-5.842l11.833,10.265c5.353-3.891,10.065-8.602,13.955-13.955l-10.265-11.833
		C168.288,183.784,170.279,179.033,171.471,173.971 M125.019,179.211c-8.956,0-16.217-7.261-16.217-16.217
		c0-8.957,7.261-16.218,16.217-16.218c8.957,0,16.217,7.261,16.217,16.218C141.235,171.951,133.976,179.211,125.019,179.211"/>
	<path fill="#E7EFF1" d="M125.019,128.067c-19.29,0-34.928,15.638-34.928,34.928c0,19.29,15.638,34.928,34.928,34.928
		s34.928-15.638,34.928-34.928C159.946,143.705,144.309,128.067,125.019,128.067 M125.019,179.211
		c-8.956,0-16.217-7.261-16.217-16.217c0-8.956,7.261-16.218,16.217-16.218s16.217,7.262,16.217,16.218
		C141.235,171.951,133.975,179.211,125.019,179.211"/>
	<path fill="#B0BCBF" d="M227.474,176.966h-1.099c-4.946,12.668-26.16,23.338-55.375,28.885c-2.753,2.953-5.786,5.639-9.061,8.019
		l-6.509-5.646c-6.249,0.732-12.758,1.244-19.455,1.512l-1.12,15.358c-3.205,0.504-6.489,0.771-9.836,0.771v22.47
		c56.585,0,102.455-17.275,102.455-38.634V176.966"/>
	<path fill="#CED5D7" d="M150.106,203.605c-4.298,2.659-9.049,4.65-14.111,5.842l-0.02,0.289c6.697-0.268,13.206-0.78,19.455-1.512
		L150.106,203.605 M222.248,159.054c-8.852,10.027-28.299,18.221-53.333,22.698c-0.939,2.2-2.04,4.315-3.286,6.33l10.265,11.833
		c-1.511,2.078-3.146,4.061-4.895,5.936c29.216-5.547,50.429-16.217,55.375-28.885c0.724-1.855,1.099-3.754,1.099-5.686
		C227.474,167.006,225.639,162.897,222.248,159.054"/>
	<path fill="#B0BCBF" d="M227.474,114.096h-1.099c-5.081,13.016-27.345,23.924-57.808,29.332c1.227,2.737,2.203,5.611,2.904,8.591
		l15.648,1.14c0.504,3.205,0.771,6.489,0.771,9.836s-0.267,6.631-0.771,9.836l-15.647,1.14c-0.633,2.689-1.492,5.289-2.556,7.781
		c25.034-4.477,44.481-12.672,53.333-22.698c3.39-3.842,5.226-7.95,5.226-12.224V114.096"/>
	<path fill="#CED5D7" d="M156.565,117.238c-4.58,0.558-9.304,0.998-14.142,1.309c2.8,1.097,5.471,2.45,7.984,4.032L156.565,117.238
		 M220.581,94.436c-9.803,9.538-29.356,17.237-54.042,21.365c3.583,3.157,6.803,6.717,9.593,10.608l-10.278,11.853
		c1.006,1.658,1.912,3.382,2.712,5.165c30.463-5.408,52.727-16.316,57.808-29.332c0.724-1.856,1.099-3.754,1.099-5.685
		C227.474,103.482,225.034,98.77,220.581,94.436"/>
	<path fill="#B0BCBF" d="M227.474,47.733h-1.099c-7.286,18.663-49.889,32.989-101.356,32.989v19.403
		c3.347,0,6.631,0.267,9.836,0.771l1.14,15.647c2.206,0.52,4.352,1.192,6.428,2.005c4.838-0.312,9.562-0.752,14.142-1.309
		l5.663-4.912c1.489,1.095,2.928,2.255,4.311,3.475c24.686-4.128,44.239-11.827,54.042-21.365c4.452-4.331,6.892-9.041,6.892-13.969
		V47.733"/>
	<path fill="#CED5D7" d="M125.858,31.349v3.933c6.314,0.17,11.336,2.305,11.336,4.899c0,2.706-5.455,4.912-12.144,4.912
		c-0.01,0-0.02,0-0.031,0v3.929c0.01,0,0.02,0,0.031,0c12.037,0,21.857-3.972,21.857-8.841
		C146.906,35.421,137.522,31.522,125.858,31.349 M125.858,25.781v3.93c13.898,0.175,25.101,4.811,25.101,10.47
		c0,5.771-11.637,10.478-25.909,10.478c-0.01,0-0.02,0-0.031,0v3.928c0.009,0,0.02,0,0.031,0c19.62,0,35.619-6.471,35.619-14.405
		C160.668,32.357,145.107,25.956,125.858,25.781 M125.019,3.372v14.192c30.87,0,55.885,10.118,55.885,22.6
		c0,12.483-25.015,22.602-55.887,22.602l0.002,17.956c51.466,0,94.07-14.326,101.356-32.989c0.724-1.856,1.099-3.754,1.099-5.686
		C227.474,20.687,181.604,3.372,125.019,3.372"/>
	<path fill="#D55656" d="M125.019,17.564v27.528c0.01,0,0.02,0,0.031,0c6.689,0,12.144-2.206,12.144-4.912
		c0-2.594-5.022-4.729-11.336-4.899v-3.933c11.664,0.173,21.049,4.073,21.049,8.832c0,4.868-9.82,8.841-21.857,8.841
		c-0.01,0-0.02,0-0.031,0v1.637c0.01,0,0.02,0,0.031,0c14.272,0,25.909-4.707,25.909-10.478c0-5.659-11.203-10.295-25.101-10.47
		v-3.93c19.249,0.175,34.811,6.576,34.811,14.4c0,7.935-16,14.405-35.619,14.405c-0.01,0-0.022,0-0.031,0v8.179
		c30.87,0,55.885-10.119,55.885-22.602c0-12.482-25.015-22.6-55.887-22.6"/>
	<path fill="#D55656" d="M125.019,100.124v27.942c19.29,0,34.928,15.638,34.928,34.928c0,19.29-15.638,34.928-34.928,34.928v27.942
		c3.347,0,6.631-0.267,9.836-0.771l1.12-15.358l0.02-0.289c5.062-1.192,9.813-3.182,14.111-5.842l5.323,4.618l6.509,5.646
		c3.274-2.38,6.308-5.066,9.061-8.019c1.749-1.875,3.384-3.858,4.895-5.936l-10.265-11.833c1.246-2.015,2.347-4.13,3.286-6.33
		c1.064-2.492,1.923-5.092,2.556-7.781l15.647-1.14c0.504-3.205,0.771-6.489,0.771-9.836s-0.267-6.631-0.771-9.836l-15.648-1.14
		c-0.7-2.98-1.677-5.854-2.904-8.591c-0.799-1.783-1.705-3.508-2.712-5.165l10.278-11.853c-2.79-3.891-6.01-7.451-9.593-10.608
		c-1.384-1.22-2.822-2.38-4.311-3.475l-5.663,4.912l-6.158,5.342c-2.513-1.582-5.183-2.936-7.984-4.032
		c-2.076-0.813-4.223-1.485-6.428-2.005l-1.14-15.647C131.649,100.392,128.366,100.124,125.019,100.124"/>
	<path fill="#B0BCBF" d="M128.087,147.068c-1.019,0.011-2.043,0.016-3.069,0.016v32.128c8.956,0,16.217-7.261,16.217-16.217l0,0
		C141.235,155.088,135.577,148.502,128.087,147.068"/>
	<path fill="#CED5D7" d="M125.019,146.777v0.307c1.026,0,2.05-0.005,3.069-0.016C127.093,146.877,126.068,146.777,125.019,146.777
		L125.019,146.777"/>
	<path fill="#CED5D7" d="M125.019,128.067v18.71l0,0c1.049,0,2.075,0.1,3.069,0.291c7.489,1.434,13.148,8.02,13.148,15.927l0,0l0,0
		c0,8.956-7.261,16.217-16.217,16.217v18.711c19.29,0,34.928-15.638,34.928-34.928C159.946,143.705,144.309,128.067,125.019,128.067
		"/>
</g>
</svg>
