<?xml version="1.0" encoding="utf-8"?>
<!-- Generator: Adobe Illustrator 17.0.1, SVG Export Plug-In . SVG Version: 6.00 Build 0)  -->
<!DOCTYPE svg PUBLIC "-//W3C//DTD SVG 1.1//EN" "http://www.w3.org/Graphics/SVG/1.1/DTD/svg11.dtd">
<svg version="1.1" id="Layer_1" xmlns="http://www.w3.org/2000/svg" xmlns:xlink="http://www.w3.org/1999/xlink" x="0px" y="0px"
	 width="250px" height="250px" viewBox="0 0 250 250" enable-background="new 0 0 250 250" xml:space="preserve">
<g>
	<path fill="#F4F4F2" d="M243.328,153.062l-16.549-8.216c0.89-4.636,1.478-9.384,1.732-14.231
		c0.466-8.892-0.203-17.581-1.877-25.926l16.539-8.365c-1.49-6.097-3.46-12.161-5.955-18.14c-2.497-5.977-5.424-11.644-8.713-16.99
		l-17.643,5.902c-7.391-10.915-16.812-20.373-27.76-27.799l5.835-17.681c-10.932-6.746-22.858-11.748-35.332-14.782l-8.266,16.651
		c-4.869-0.97-9.866-1.609-14.97-1.876c-8.834-0.463-17.467,0.194-25.763,1.845L96.201,6.837c-6.1,1.488-12.164,3.461-18.141,5.958
		c-5.976,2.496-11.643,5.42-16.988,8.71l5.906,17.664c-11.149,7.527-20.777,17.174-28.292,28.398l-17.611-5.817
		C14.419,72.689,9.517,84.612,6.561,97.075l16.578,8.224c-0.911,4.704-1.516,9.526-1.773,14.45
		c-0.463,8.818,0.192,17.439,1.837,25.719l-16.488,8.342c1.487,6.097,3.461,12.16,5.956,18.141
		c2.497,5.975,5.423,11.641,8.711,16.984l17.503-5.852c7.694,11.419,17.615,21.248,29.177,28.843L62.3,229.355
		c10.949,6.566,22.88,11.366,35.323,14.249l8.176-16.48c4.467,0.833,9.043,1.387,13.707,1.632c8.875,0.465,17.548-0.2,25.88-1.869
		l8.301,16.412c6.098-1.494,12.164-3.462,18.139-5.959c5.977-2.496,11.645-5.426,16.992-8.711l-5.847-17.482
		c11.181-7.562,20.831-17.257,28.347-28.539l17.496,5.78C235.47,177.448,240.372,165.523,243.328,153.062"/>
	<path fill="#EF6060" d="M141.85,105.003c0,0-56.426,59.218-56.977,62.47c-0.55,3.251,1.763,10.82,3.88,12.987
		c2.119,2.167,9.974,4.999,12.898,4.178c2.923-0.827,56.977-62.47,56.977-62.47L141.85,105.003 M95.808,173.565
		c-1.718-1.751-1.685-4.565,0.071-6.281c1.753-1.714,4.566-1.682,6.282,0.071c1.714,1.756,1.682,4.57-0.071,6.281
		C100.335,175.352,97.523,175.318,95.808,173.565"/>
	<path fill="#494B4F" d="M195.982,88.065c-3.249-0.182-19.825,22.222-23.451,23.452c-3.625,1.224-14.203-0.777-17.07-3.646
		c-2.87-2.87-5.875-13.182-4.017-17.441c1.86-4.26,23.274-20.529,23.453-23.451c0.18-2.922-25.415-1.327-34.84,8.095
		c-13.205,13.208-13.205,34.622,0,47.832c13.209,13.205,34.626,13.205,47.831,0C197.311,113.48,199.233,88.244,195.982,88.065"/>
	<path fill-rule="evenodd" clip-rule="evenodd" fill="#EFCF70" d="M104.652,85.128c-8.721-6.422-19.326-0.494-27.349-0.699
		c-7.15-0.184-11.223-14.025-11.223-14.025c-3.945-3.946-4.375,1.232-5.608,5.61c0,0-4.378,13.74-1.405,29.451
		c1.515,7.993,10.987,17.999,16.129,20.337c5.143,2.338,8.735,2.951,12.623,2.806c0,0,8.01-5.205,14.025-11.223
		c6.25-6.249,11.22-14.024,11.22-14.024C115.347,96.368,111.689,90.315,104.652,85.128z"/>
	<path fill-rule="evenodd" clip-rule="evenodd" fill="#64C1C6" d="M126.463,119.939l37.271,46.31c1.551,1.549,1.551,4.062,0,5.61
		l-8.416,8.417c-1.548,1.548-4.06,1.548-5.608,0l-43.692-37.194c-1.549-1.549-2.897-4.062-1.348-5.61l17.531-17.533
		C123.749,118.392,124.913,118.392,126.463,119.939"/>
	<path fill-rule="evenodd" clip-rule="evenodd" fill="#494B4F" d="M112.616,101.623l14.784,18.992
		c2.949,2.952-18.698,25.298-21.416,22.58L85.968,128.27C89.329,129.759,115.276,105.684,112.616,101.623"/>
	<path fill="#DADAD8" d="M153.607,6.834l-8.266,16.651c-4.869-0.97-9.866-1.609-14.97-1.876c-0.987-0.051-1.973-0.09-2.955-0.113
		v98.752c2.219-2.356,4.286-4.543,6.124-6.485c-6.12-12.606-3.948-28.224,6.517-38.69c6.671-6.67,21.445-9.418,29.443-9.417
		c3.301,0,5.449,0.467,5.397,1.322c-0.179,2.922-21.593,19.192-23.453,23.451c-1.857,4.26,1.148,14.572,4.017,17.441
		c2.279,2.281,9.43,4.012,14.087,4.012c1.203,0,2.239-0.115,2.983-0.366c3.612-1.224,20.071-23.453,23.412-23.453
		c0.013,0,0.026,0,0.039,0.001c3.251,0.179,1.33,25.415-8.095,34.84c-6.603,6.603-15.257,9.904-23.913,9.904
		c-4.277,0-8.552-0.806-12.581-2.417c-2.465,2.793-5.421,6.137-8.647,9.776l20.99,26.081c1.551,1.549,1.551,4.062,0,5.61
		l-8.416,8.417c-0.774,0.774-1.789,1.161-2.804,1.161c-1.015,0-2.03-0.387-2.804-1.161l-22.296-18.98v67.577
		c6.126-0.141,12.131-0.818,17.97-1.986l8.301,16.412c6.098-1.494,12.164-3.462,18.139-5.959c5.977-2.496,11.645-5.426,16.992-8.711
		l-5.847-17.482c11.181-7.562,20.831-17.257,28.347-28.539l17.496,5.78c6.657-10.94,11.559-22.864,14.515-35.326l-16.549-8.216
		c0.89-4.636,1.478-9.384,1.732-14.231c0.466-8.892-0.203-17.581-1.877-25.926l16.539-8.365c-1.49-6.097-3.46-12.161-5.955-18.14
		c-2.497-5.977-5.424-11.644-8.713-16.99l-17.643,5.902c-7.391-10.915-16.812-20.373-27.76-27.799l5.835-17.681
		C178.008,14.87,166.082,9.868,153.607,6.834"/>
	<path fill="#D55656" d="M133.539,113.763c-1.838,1.943-3.904,4.129-6.124,6.485v0.382c0.184,0.195,0.267,0.47,0.259,0.813
		l15.07,18.725c3.226-3.64,6.181-6.983,8.647-9.776c-4.127-1.651-7.994-4.146-11.336-7.487
		C137.315,120.163,135.142,117.066,133.539,113.763"/>
	<path fill="#414347" d="M169.499,65.656c-7.998-0.001-22.772,2.747-29.443,9.417c-10.465,10.466-12.637,26.084-6.517,38.69
		c1.603,3.303,3.776,6.4,6.517,9.142c3.342,3.341,7.209,5.837,11.336,7.487c4.029,1.611,8.305,2.417,12.581,2.417
		c8.656,0,17.311-3.301,23.913-9.904c9.425-9.425,11.347-34.661,8.095-34.84c-0.013-0.001-0.026-0.001-0.039-0.001
		c-3.341,0-19.8,22.229-23.412,23.453c-0.744,0.251-1.78,0.366-2.983,0.366c-4.657,0-11.809-1.731-14.087-4.012
		c-2.87-2.87-5.875-13.182-4.017-17.441c1.86-4.26,23.274-20.529,23.453-23.451C174.948,66.123,172.8,65.656,169.499,65.656"/>
	<path fill="#59ACB1" d="M127.674,121.444c-0.008,0.328-0.097,0.719-0.259,1.161v38.692l22.296,18.98
		c0.774,0.774,1.789,1.161,2.804,1.161c1.015,0,2.03-0.387,2.804-1.161l8.416-8.417c1.551-1.548,1.551-4.061,0-5.61l-20.99-26.081
		L127.674,121.444"/>
	<path fill="#414347" d="M127.415,120.631v1.974c0.162-0.442,0.251-0.833,0.259-1.161
		C127.682,121.1,127.599,120.825,127.415,120.631"/>
</g>
</svg>
