<?xml version="1.0" encoding="utf-8"?>
<!-- Generator: Adobe Illustrator 17.0.1, SVG Export Plug-In . SVG Version: 6.00 Build 0)  -->
<!DOCTYPE svg PUBLIC "-//W3C//DTD SVG 1.1//EN" "http://www.w3.org/Graphics/SVG/1.1/DTD/svg11.dtd">
<svg version="1.1" id="Layer_1" xmlns="http://www.w3.org/2000/svg" xmlns:xlink="http://www.w3.org/1999/xlink" x="0px" y="0px"
	 width="250px" height="250px" viewBox="0 0 250 250" enable-background="new 0 0 250 250" xml:space="preserve">
<g>
	<path fill="#53B771" d="M185.095,152.581c30.579-0.243,59.216,9.951,59.701,15.774c0.485,5.823-25.718,17.958-59.21,17.716
		c-33.494-0.243-60.674-12.377-60.916-17.716C124.426,163.017,154.518,152.822,185.095,152.581"/>
	<path fill="#66CC81" d="M169.112,124.481c26.36-15.5,56.257-20.991,59.589-16.188c3.333,4.799-13.292,28.41-42.42,44.946
		c-29.128,16.536-58.732,19.619-61.612,15.116C121.789,163.853,142.752,139.98,169.112,124.481"/>
	<path fill="#53B771" d="M141.221,108.138c15.079-26.603,38.225-46.307,43.512-43.815c5.286,2.491,2.693,31.25-14.264,60.135
		c-16.956,28.884-41.054,46.356-45.799,43.896C119.924,165.897,126.142,134.74,141.221,108.138"/>
	<path fill="#66CC81" d="M108.894,107.931c-0.242-30.579,9.951-59.217,15.776-59.701c5.822-0.487,17.956,25.716,17.714,59.209
		c-0.243,33.495-12.376,60.675-17.714,60.916C119.331,168.599,109.137,138.508,108.894,107.931"/>
	<path fill="#53B771" d="M80.796,123.913c-15.499-26.361-20.991-56.259-16.19-59.59c4.801-3.333,28.41,13.292,44.947,42.42
		c16.537,29.127,19.619,58.733,15.117,61.612C120.168,171.235,96.295,150.273,80.796,123.913"/>
	<path fill="#66CC81" d="M64.452,151.804c-26.603-15.079-46.306-38.225-43.815-43.511c2.49-5.287,31.251-2.695,60.135,14.263
		c28.885,16.957,46.357,41.054,43.898,45.799C122.211,173.1,91.054,166.884,64.452,151.804"/>
	<path fill="#53B771" d="M64.243,184.13c-30.578,0.243-59.215-9.951-59.7-15.775c-0.486-5.823,25.716-17.959,59.212-17.715
		c33.493,0.242,60.672,12.375,60.915,17.715C124.914,173.694,94.821,183.889,64.243,184.13z"/>
	<path fill-rule="evenodd" clip-rule="evenodd" fill="#494B4F" d="M41.533,90.371h163.292c0.833,0,1.842,0.88,1.842,1.715v103.579
		c0,0.835-1.009,1.513-1.842,1.513H41.515c-0.834,0-1.497-0.678-1.497-1.513V92.086c0-0.834,0.318-1.645,1.151-1.645L41.533,90.371"
		/>
	<polyline fill-rule="evenodd" clip-rule="evenodd" fill="#FFFFFF" points="48.351,189.603 48.351,97.946 197.577,97.946 
		197.577,189.603 48.351,189.603 	"/>
	<polyline fill-rule="evenodd" clip-rule="evenodd" fill="#E7EFF1" points="48.351,151.728 48.351,97.946 197.577,97.946 
		197.577,151.728 48.351,151.728 	"/>
	<path fill-rule="evenodd" clip-rule="evenodd" fill="#E7EFF1" d="M83.953,180.519c0,1.67-1.354,3.024-3.024,3.024H61.222
		c-1.67,0-3.024-1.354-3.024-3.024v-19.707c0-1.67,1.354-3.024,3.024-3.024h19.707c1.67,0,3.024,1.354,3.024,3.024V180.519z"/>
	<path fill-rule="evenodd" clip-rule="evenodd" fill="#E7EFF1" d="M120.313,180.573c0,1.67-1.328,2.97-2.999,2.97H97.457
		c-1.671,0-2.899-1.3-2.899-2.97v-19.859c0-1.67,1.228-2.926,2.899-2.926h19.857c1.671,0,2.999,1.256,2.999,2.926V180.573z"/>
	<path fill-rule="evenodd" clip-rule="evenodd" fill="#E7EFF1" d="M155.915,180.519c0,1.67-1.354,3.024-3.023,3.024h-19.708
		c-1.67,0-3.023-1.354-3.023-3.024v-19.707c0-1.67,1.354-3.024,3.023-3.024h19.708c1.67,0,3.023,1.354,3.023,3.024V180.519"/>
	<path fill-rule="evenodd" clip-rule="evenodd" fill="#E7EFF1" d="M190.76,180.572c0,1.67-0.812,2.971-2.483,2.971h-19.858
		c-1.672,0-3.415-1.3-3.415-2.971v-19.858c0-1.67,1.743-2.926,3.415-2.926h19.858c1.67,0,2.483,1.256,2.483,2.926V180.572"/>
	<path fill-rule="evenodd" clip-rule="evenodd" fill="#37C86A" d="M122.81,93.913c0-0.627,0.508-1.135,1.135-1.135
		c0.626,0,1.133,0.507,1.133,1.135c0,0.626-0.507,1.133-1.133,1.133C123.317,95.046,122.81,94.539,122.81,93.913"/>
	<polyline fill-rule="evenodd" clip-rule="evenodd" fill="#5C7DAD" points="190.76,116.884 116.525,116.884 116.525,110.066 
		190.76,110.066 190.76,116.884 	"/>
	<polyline fill-rule="evenodd" clip-rule="evenodd" fill="#5C7DAD" points="190.76,129.762 116.525,129.762 116.525,122.944 
		190.76,122.944 190.76,129.762 	"/>
	<polyline fill-rule="evenodd" clip-rule="evenodd" fill="#5C7DAD" points="159.702,141.124 116.525,141.124 116.525,134.306 
		159.702,134.306 159.702,141.124 	"/>
	<path fill-rule="evenodd" clip-rule="evenodd" fill="#616468" d="M222.574,196.44c0,1.244-1.009,2.253-2.253,2.253H25.607
		c-1.244,0-2.253-1.008-2.253-2.253v-4.584c0-1.244,1.009-2.253,2.253-2.253h194.714c1.244,0,2.253,1.009,2.253,2.253V196.44"/>
	<path fill-rule="evenodd" clip-rule="evenodd" fill="#878B8E" d="M222.574,200.492c0,1.244-0.743,1.988-1.987,1.988H25.722
		c-1.244,0-2.369-0.744-2.369-1.988v-4.829h199.221V200.492"/>
	<rect x="58.956" y="110.066" fill="#5C7DAD" width="45.45" height="31.057"/>
	<path fill="#4AA365" d="M206.667,154.039v30.557c22.759-3.376,38.506-11.716,38.129-16.242
		C244.428,163.946,227.93,157.034,206.667,154.039"/>
	<path fill="#5BB673" d="M222.382,106.609c-3.937,0-9.395,0.796-15.715,2.381v30.092c16.153-13.573,24.484-27.261,22.034-30.789
		C227.921,107.169,225.687,106.609,222.382,106.609"/>
	<path fill="#4AA365" d="M183.654,64.111c-5.092,0.001-18.264,10.522-30.528,26.261h31.51c3.583-14.173,3.184-24.593,0.096-26.048
		C184.429,64.18,184.069,64.111,183.654,64.111"/>
	<path fill="#5BB673" d="M124.858,48.224v42.147h16.586C138.548,65.792,129.69,48.285,124.858,48.224"/>
	<path fill="#414347" d="M204.825,90.371h-20.189h-31.51h-11.682h-16.586v2.869c0.139,0.188,0.22,0.421,0.22,0.673
		c0,0.252-0.081,0.484-0.22,0.672v3.361h72.719v53.782v37.875h9.09v-5.007v-30.557v-14.958V108.99V92.086
		C206.667,91.252,205.658,90.371,204.825,90.371"/>
	<path fill="#E4E4E4" d="M133.183,183.543c-1.67,0-3.023-1.354-3.023-3.024v-19.707c0-1.67,1.354-3.024,3.023-3.024h19.708
		c1.67,0,3.023,1.354,3.023,3.024v19.707c0,1.67-1.354,3.024-3.023,3.024H133.183 M168.419,183.543c-1.672,0-3.415-1.3-3.415-2.971
		v-19.858c0-1.67,1.743-2.926,3.415-2.926h19.858c1.67,0,2.483,1.256,2.483,2.926v19.858c0,1.67-0.812,2.971-2.483,2.971H168.419
		 M197.577,151.728h-72.719v37.875h72.719V151.728"/>
	<polyline fill="#CED5D7" points="197.577,97.946 124.858,97.946 124.858,110.066 190.76,110.066 190.76,116.884 124.858,116.884 
		124.858,122.944 190.76,122.944 190.76,129.762 124.858,129.762 124.858,134.306 159.702,134.306 159.702,141.124 124.858,141.124 
		124.858,151.728 197.577,151.728 197.577,97.946 	"/>
	<path fill="#CED5D7" d="M152.892,157.788h-19.708c-1.67,0-3.023,1.354-3.023,3.024v19.707c0,1.67,1.354,3.024,3.023,3.024h19.708
		c1.67,0,3.023-1.354,3.023-3.024v-19.707C155.915,159.142,154.561,157.788,152.892,157.788"/>
	<path fill="#CED5D7" d="M188.277,157.788h-19.858c-1.672,0-3.415,1.256-3.415,2.926v19.858c0,1.67,1.743,2.971,3.415,2.971h19.858
		c1.67,0,2.483-1.3,2.483-2.971v-19.858C190.76,159.044,189.947,157.788,188.277,157.788"/>
	<path fill="#31B35F" d="M124.858,93.24v1.345c0.139-0.188,0.22-0.42,0.22-0.672C125.078,93.661,124.997,93.428,124.858,93.24"/>
	<polyline fill="#52709B" points="190.76,110.066 124.858,110.066 124.858,116.884 190.76,116.884 190.76,110.066 	"/>
	<polyline fill="#52709B" points="190.76,122.944 124.858,122.944 124.858,129.762 190.76,129.762 190.76,122.944 	"/>
	<polyline fill="#52709B" points="159.702,134.306 124.858,134.306 124.858,141.124 159.702,141.124 159.702,134.306 	"/>
	<path fill="#57595D" d="M220.321,189.603h-13.654h-9.09h-72.719v6.06h97.717v-3.807
		C222.574,190.612,221.565,189.603,220.321,189.603"/>
	<path fill="#797C7F" d="M222.574,195.663L222.574,195.663h-97.717v6.817h95.73c1.244,0,1.987-0.744,1.987-1.988V195.663"/>
</g>
</svg>
