<?xml version="1.0" encoding="utf-8"?>
<!-- Generator: Adobe Illustrator 17.0.1, SVG Export Plug-In . SVG Version: 6.00 Build 0)  -->
<!DOCTYPE svg PUBLIC "-//W3C//DTD SVG 1.1//EN" "http://www.w3.org/Graphics/SVG/1.1/DTD/svg11.dtd">
<svg version="1.1" id="Layer_1" xmlns="http://www.w3.org/2000/svg" xmlns:xlink="http://www.w3.org/1999/xlink" x="0px" y="0px"
	 width="250px" height="250px" viewBox="0 0 250 250" enable-background="new 0 0 250 250" xml:space="preserve">
<g>
	<path fill-rule="evenodd" clip-rule="evenodd" fill="#E7EFF1" d="M73.435,197.935h86.587c1.093,0,1.833,0.818,1.833,1.911v0.99
		c0,1.097-0.74,2.249-1.833,2.249H73.847c-1.097,0-2.129-1.152-2.129-2.249v-0.99c0-1.094,1.012-1.911,2.108-1.911H73.435"/>
	<path fill-rule="evenodd" clip-rule="evenodd" fill="#E7EFF1" d="M91.463,155.871h50.731c1.092,0,1.635,1.28,1.635,2.373v39.621
		c0,1.096-0.542,1.787-1.635,1.787H91.676c-1.095,0-1.931-0.69-1.931-1.787v-39.621c0-1.093,0.816-2.373,1.911-2.373H91.463"/>
	<path fill-rule="evenodd" clip-rule="evenodd" fill="#494B4F" d="M24.504,40.839h185.016c0.947,0,2.126,0.842,2.126,1.79v117.607
		c0,0.947-1.179,1.645-2.126,1.645H24.094c-0.948,0-1.307-0.697-1.307-1.645V42.629c0-0.947,0.359-1.789,1.307-1.789H24.504"/>
	<polyline fill-rule="evenodd" clip-rule="evenodd" fill="#FFFFFF" points="31.371,153.296 31.371,49.424 202.202,49.424 
		202.202,153.296 31.371,153.296 	"/>
	<polyline fill-rule="evenodd" clip-rule="evenodd" fill="#E7EFF1" points="31.371,110.374 31.371,49.424 202.202,49.424 
		202.202,110.374 31.371,110.374 	"/>
	<path fill-rule="evenodd" clip-rule="evenodd" fill="#E7EFF1" d="M72.577,142.995c0,1.896-1.537,3.434-3.434,3.434h-22.32
		c-1.896,0-3.434-1.538-3.434-3.434v-22.32c0-1.896,1.537-3.434,3.434-3.434h22.32c1.896,0,3.434,1.537,3.434,3.434V142.995z"/>
	<path fill-rule="evenodd" clip-rule="evenodd" fill="#E7EFF1" d="M112.924,142.995c0,1.896-1.537,3.434-3.434,3.434H87.17
		c-1.896,0-3.434-1.538-3.434-3.434v-22.32c0-1.896,1.537-3.434,3.434-3.434h22.32c1.896,0,3.434,1.537,3.434,3.434V142.995z"/>
	<path fill-rule="evenodd" clip-rule="evenodd" fill="#E7EFF1" d="M154.129,142.995c0,1.896-1.537,3.434-3.434,3.434h-22.32
		c-1.896,0-3.434-1.538-3.434-3.434v-22.32c0-1.896,1.537-3.433,3.434-3.433h22.32c1.896,0,3.434,1.537,3.434,3.433V142.995"/>
	<path fill-rule="evenodd" clip-rule="evenodd" fill="#E7EFF1" d="M194.476,142.995c0,1.896-1.537,3.434-3.434,3.434h-22.32
		c-1.896,0-3.434-1.538-3.434-3.434v-22.32c0-1.896,1.537-3.433,3.434-3.433h22.32c1.896,0,3.434,1.537,3.434,3.433V142.995"/>
	<path fill-rule="evenodd" clip-rule="evenodd" fill="#37C86A" d="M116.398,44.702c0-0.711,0.576-1.288,1.288-1.288
		c0.711,0,1.288,0.576,1.288,1.288c0,0.711-0.577,1.288-1.288,1.288C116.974,45.99,116.398,45.414,116.398,44.702"/>
	<polyline fill-rule="evenodd" clip-rule="evenodd" fill="#5C7DAD" points="194.476,68.31 110.348,68.31 110.348,60.584 
		194.476,60.584 194.476,68.31 	"/>
	<polyline fill-rule="evenodd" clip-rule="evenodd" fill="#5C7DAD" points="194.476,84.62 110.348,84.62 110.348,76.894 
		194.476,76.894 194.476,84.62 	"/>
	<polyline fill-rule="evenodd" clip-rule="evenodd" fill="#5C7DAD" points="158.422,100.072 110.348,100.072 110.348,92.346 
		158.422,92.346 158.422,100.072 	"/>
	<rect x="43.389" y="60.584" fill-rule="evenodd" clip-rule="evenodd" fill="#5C7DAD" width="54.941" height="39.489"/>
	<path fill-rule="evenodd" clip-rule="evenodd" fill="#494B4F" d="M106.915,124.109h124.48c0.635,0,1.712,0.873,1.712,1.509v78.939
		c0,0.636-1.076,1.104-1.712,1.104H106.933c-0.636,0-0.877-0.467-0.877-1.104v-78.939c0-0.636,0.094-1.355,0.729-1.355
		L106.915,124.109"/>
	<polyline fill-rule="evenodd" clip-rule="evenodd" fill="#FFFFFF" points="112.065,199.652 112.065,130.118 226.239,130.118 
		226.239,199.652 112.065,199.652 	"/>
	<polyline fill-rule="evenodd" clip-rule="evenodd" fill="#E7EFF1" points="112.065,171.324 112.065,130.118 226.239,130.118 
		226.239,171.324 112.065,171.324 	"/>
	<path fill-rule="evenodd" clip-rule="evenodd" fill="#E7EFF1" d="M139.536,193.055c0,1.273-1.032,2.305-2.305,2.305h-15.135
		c-1.273,0-2.305-1.032-2.305-2.305V177.92c0-1.272,1.032-2.305,2.305-2.305h15.135c1.273,0,2.305,1.032,2.305,2.305V193.055"/>
	<path fill-rule="evenodd" clip-rule="evenodd" fill="#E7EFF1" d="M167.006,193.055c0,1.273-1.032,2.305-2.305,2.305h-15.133
		c-1.273,0-2.305-1.032-2.305-2.305V177.92c0-1.272,1.032-2.305,2.305-2.305h15.133c1.273,0,2.305,1.032,2.305,2.305V193.055"/>
	<path fill-rule="evenodd" clip-rule="evenodd" fill="#E7EFF1" d="M194.476,193.055c0,1.273-1.032,2.305-2.305,2.305h-15.135
		c-1.273,0-2.305-1.032-2.305-2.305V177.92c0-1.272,1.032-2.305,2.305-2.305h15.135c1.273,0,2.305,1.032,2.305,2.305V193.055"/>
	<path fill-rule="evenodd" clip-rule="evenodd" fill="#E7EFF1" d="M221.088,193.055c0,1.273-1.032,2.305-2.305,2.305h-15.133
		c-1.273,0-2.305-1.032-2.305-2.305V177.92c0-1.272,1.032-2.305,2.305-2.305h15.133c1.273,0,2.305,1.032,2.305,2.305V193.055"/>
	<path fill-rule="evenodd" clip-rule="evenodd" fill="#37C86A" d="M168.89,127.009c0-0.477,0.386-0.864,0.864-0.864
		c0.477,0,0.864,0.387,0.864,0.864c0,0.477-0.387,0.864-0.864,0.864C169.276,127.874,168.89,127.487,168.89,127.009"/>
	<polyline fill-rule="evenodd" clip-rule="evenodd" fill="#5C7DAD" points="221.088,144.712 164.431,144.712 164.431,139.561 
		221.088,139.561 221.088,144.712 	"/>
	<polyline fill-rule="evenodd" clip-rule="evenodd" fill="#5C7DAD" points="221.088,154.155 164.431,154.155 164.431,149.004 
		221.088,149.004 221.088,154.155 	"/>
	<polyline fill-rule="evenodd" clip-rule="evenodd" fill="#5C7DAD" points="197.052,162.739 164.431,162.739 164.431,157.588 
		197.052,157.588 197.052,162.739 	"/>
	<path fill-rule="evenodd" clip-rule="evenodd" fill="#616468" d="M245.125,204.803c0,0.948-0.769,1.717-1.717,1.717H94.896
		c-0.948,0-1.717-0.769-1.717-1.717v-3.434c0-0.948,0.769-1.717,1.717-1.717h148.512c0.948,0,1.717,0.769,1.717,1.717V204.803"/>
	<path fill-rule="evenodd" clip-rule="evenodd" fill="#878B8E" d="M245.125,208.237c0,0.948-0.769,1.717-1.717,1.717H94.896
		c-0.948,0-1.717-0.769-1.717-1.717v-3.434h151.945V208.237"/>
	<polyline fill="#5C7DAD" points="120.65,162.739 154.988,162.739 154.988,139.561 120.65,139.561 120.65,162.739 	"/>
	<path fill-rule="evenodd" clip-rule="evenodd" fill="#494B4F" d="M6.476,128.401h49.199c0.948,0,1.449,0.502,1.449,1.45v77.26
		c0,0.95-0.501,1.984-1.449,1.984H6.744c-0.948,0-1.985-1.034-1.985-1.984V129.85c0-0.947,1.037-1.449,1.985-1.449"/>
	<rect x="9.052" y="133.552" fill-rule="evenodd" clip-rule="evenodd" fill="#FFFFFF" width="43.781" height="65.242"/>
	<path fill-rule="evenodd" clip-rule="evenodd" fill="#E7EFF1" d="M27.079,192.785c0,0.948-0.769,1.717-1.717,1.717h-9.443
		c-0.948,0-1.717-0.769-1.717-1.717v-9.443c0-0.948,0.769-1.717,1.717-1.717h9.443c0.948,0,1.717,0.769,1.717,1.717V192.785z"/>
	<path fill-rule="evenodd" clip-rule="evenodd" fill="#E7EFF1" d="M46.823,192.785c0,0.948-0.769,1.717-1.717,1.717h-9.443
		c-0.948,0-1.717-0.769-1.717-1.717v-9.443c0-0.948,0.769-1.717,1.717-1.717h9.443c0.948,0,1.717,0.769,1.717,1.717V192.785z"/>
	<rect x="9.052" y="133.552" fill-rule="evenodd" clip-rule="evenodd" fill="#5C7DAD" width="43.781" height="43.781"/>
	<circle fill-rule="evenodd" clip-rule="evenodd" fill="#646668" cx="30.942" cy="204.231" r="3.005"/>
	<path fill-rule="evenodd" clip-rule="evenodd" fill="#646668" d="M37.38,130.976c0-0.474-0.384-0.858-0.858-0.858h-11.16
		c-0.474,0-0.858,0.384-0.858,0.858c0,0.474,0.384,0.858,0.858,0.858h11.16C36.996,131.835,37.38,131.45,37.38,130.976z"/>
	<circle fill-rule="evenodd" clip-rule="evenodd" fill="#37C86A" cx="40.385" cy="130.976" r="0.858"/>
	<rect x="13.344" y="166.173" fill="#E7EFF1" width="25.753" height="5.151"/>
	<rect x="13.344" y="156.73" fill="#E7EFF1" width="33.479" height="5.151"/>
	<path fill="#414347" d="M209.519,40.839h-91.445v2.635c0.521,0.165,0.899,0.652,0.899,1.228s-0.377,1.063-0.899,1.228v3.493h84.128
		v60.95v13.735h9.443v-81.48C211.645,41.681,210.467,40.839,209.519,40.839"/>
	<path fill="#E4E4E4" d="M202.202,110.374h-84.128v13.735h6.868v-3.434c0-1.896,1.537-3.433,3.434-3.433h22.32
		c1.896,0,3.434,1.537,3.434,3.433v3.434h11.16v-3.434c0-1.896,1.537-3.433,3.434-3.433h22.32c1.896,0,3.434,1.537,3.434,3.433
		v3.434h7.726V110.374"/>
	<polyline fill="#CED5D7" points="202.202,49.424 118.074,49.424 118.074,60.584 194.476,60.584 194.476,68.31 118.074,68.31 
		118.074,76.894 194.476,76.894 194.476,84.62 118.074,84.62 118.074,92.346 158.422,92.346 158.422,100.072 118.074,100.072 
		118.074,110.374 202.202,110.374 202.202,49.424 	"/>
	<path fill="#CED5D7" d="M150.696,117.242h-22.32c-1.896,0-3.434,1.537-3.434,3.433v3.434h29.187v-3.434
		C154.129,118.779,152.592,117.242,150.696,117.242"/>
	<path fill="#CED5D7" d="M191.043,117.242h-22.32c-1.896,0-3.434,1.537-3.434,3.433v3.434h29.187v-3.434
		C194.476,118.779,192.939,117.242,191.043,117.242"/>
	<path fill="#31B35F" d="M118.074,43.475v2.456c0.521-0.165,0.899-0.653,0.899-1.228S118.596,43.639,118.074,43.475"/>
	<polyline fill="#52709B" points="194.476,60.584 118.074,60.584 118.074,68.31 194.476,68.31 194.476,60.584 	"/>
	<polyline fill="#52709B" points="194.476,76.894 118.074,76.894 118.074,84.62 194.476,84.62 194.476,76.894 	"/>
	<polyline fill="#52709B" points="158.422,92.346 118.074,92.346 118.074,100.072 158.422,100.072 158.422,92.346 	"/>
	<path fill="#414347" d="M169.754,127.874c-0.478,0-0.864-0.387-0.864-0.864c0-0.477,0.386-0.864,0.864-0.864
		c0.477,0,0.864,0.387,0.864,0.864C170.618,127.487,170.231,127.874,169.754,127.874 M231.395,124.109h-19.749h-9.443h-7.726
		h-29.187h-11.16h-29.187h-6.868v6.009h108.164v41.206v28.329h6.868v-74.034C233.107,124.982,232.03,124.109,231.395,124.109"/>
	<path fill="#E4E4E4" d="M122.096,195.36c-1.273,0-2.305-1.032-2.305-2.305V177.92c0-1.272,1.032-2.305,2.305-2.305h15.135
		c1.273,0,2.305,1.032,2.305,2.305v15.135c0,1.273-1.032,2.305-2.305,2.305H122.096 M149.567,195.36
		c-1.273,0-2.305-1.032-2.305-2.305V177.92c0-1.272,1.032-2.305,2.305-2.305h15.133c1.273,0,2.305,1.032,2.305,2.305v15.135
		c0,1.273-1.032,2.305-2.305,2.305H149.567 M177.037,195.36c-1.273,0-2.305-1.032-2.305-2.305V177.92
		c0-1.272,1.032-2.305,2.305-2.305h15.135c1.273,0,2.305,1.032,2.305,2.305v15.135c0,1.273-1.032,2.305-2.305,2.305H177.037
		 M203.649,195.36c-1.273,0-2.305-1.032-2.305-2.305V177.92c0-1.272,1.032-2.305,2.305-2.305h15.133
		c1.273,0,2.305,1.032,2.305,2.305v15.135c0,1.273-1.032,2.305-2.305,2.305H203.649 M226.239,171.324H118.074v28.329h108.164
		V171.324"/>
	<path fill="#CED5D7" d="M164.431,162.739v-5.151h32.621v5.151H164.431 M164.431,154.155v-5.151h56.658v5.151H164.431
		 M120.65,162.739v-23.178h34.338v23.178H120.65 M164.431,144.712v-5.151h56.658v5.151H164.431 M226.239,130.118H118.074v41.206
		h108.164V130.118"/>
	<path fill="#CED5D7" d="M137.231,175.616h-15.135c-1.273,0-2.305,1.032-2.305,2.305v15.135c0,1.273,1.032,2.305,2.305,2.305h15.135
		c1.273,0,2.305-1.032,2.305-2.305V177.92C139.536,176.648,138.504,175.616,137.231,175.616"/>
	<path fill="#CED5D7" d="M164.701,175.616h-15.133c-1.273,0-2.305,1.032-2.305,2.305v15.135c0,1.273,1.032,2.305,2.305,2.305h15.133
		c1.273,0,2.305-1.032,2.305-2.305V177.92C167.006,176.648,165.974,175.616,164.701,175.616"/>
	<path fill="#CED5D7" d="M192.172,175.616h-15.135c-1.273,0-2.305,1.032-2.305,2.305v15.135c0,1.273,1.032,2.305,2.305,2.305h15.135
		c1.273,0,2.305-1.032,2.305-2.305V177.92C194.476,176.648,193.444,175.616,192.172,175.616"/>
	<path fill="#CED5D7" d="M218.783,175.616h-15.133c-1.273,0-2.305,1.032-2.305,2.305v15.135c0,1.273,1.032,2.305,2.305,2.305h15.133
		c1.273,0,2.305-1.032,2.305-2.305V177.92C221.088,176.648,220.056,175.616,218.783,175.616"/>
	<path fill="#31B35F" d="M169.754,126.145c-0.478,0-0.864,0.387-0.864,0.864c0,0.477,0.386,0.864,0.864,0.864
		c0.477,0,0.864-0.387,0.864-0.864C170.618,126.532,170.231,126.145,169.754,126.145"/>
	<polyline fill="#52709B" points="221.088,139.561 164.431,139.561 164.431,144.712 221.088,144.712 221.088,139.561 	"/>
	<polyline fill="#52709B" points="221.088,149.004 164.431,149.004 164.431,154.155 221.088,154.155 221.088,149.004 	"/>
	<polyline fill="#52709B" points="197.052,157.588 164.431,157.588 164.431,162.739 197.052,162.739 197.052,157.588 	"/>
	<path fill="#57595D" d="M243.408,199.652h-10.301h-6.868H118.074v5.151h127.05v-3.434
		C245.125,200.421,244.356,199.652,243.408,199.652"/>
	<path fill="#797C7F" d="M245.125,204.803L245.125,204.803h-127.05v5.151h125.333c0.948,0,1.717-0.769,1.717-1.717V204.803"/>
	<polyline fill="#52709B" points="154.988,139.561 120.65,139.561 120.65,162.739 154.988,162.739 154.988,139.561 	"/>
</g>
</svg>
