<?xml version="1.0" encoding="utf-8"?>
<!-- Generator: Adobe Illustrator 17.0.1, SVG Export Plug-In . SVG Version: 6.00 Build 0)  -->
<!DOCTYPE svg PUBLIC "-//W3C//DTD SVG 1.1//EN" "http://www.w3.org/Graphics/SVG/1.1/DTD/svg11.dtd">
<svg version="1.1" id="Layer_1" xmlns="http://www.w3.org/2000/svg" xmlns:xlink="http://www.w3.org/1999/xlink" x="0px" y="0px"
	 width="250px" height="250px" viewBox="0 0 250 250" enable-background="new 0 0 250 250" xml:space="preserve">
<g>
	<path fill="#EF6060" d="M213.472,145.127l29.914-2.443c0.911-6.14,1.365-12.428,1.309-18.831
		c-0.054-6.405-0.622-12.681-1.638-18.806l-29.955-1.919c-2.299-9.396-6.025-18.228-10.975-26.225l19.466-22.846
		c-7.487-10.256-16.548-19.281-26.836-26.714l-22.442,19.814c-8.421-5.197-17.739-9.059-27.674-11.307l-2.443-29.916
		c-6.14-0.91-12.427-1.367-18.831-1.31c-6.403,0.054-12.68,0.621-18.804,1.639l-1.922,29.954
		c-9.667,2.364-18.722,6.252-26.896,11.414L52.933,28.188c-10.176,7.533-19.113,16.626-26.468,26.93l19.839,22.467
		c-5.018,8.268-8.744,17.39-10.939,27.095l-29.919,2.442c-0.91,6.14-1.365,12.429-1.312,18.832
		c0.055,6.404,0.623,12.681,1.641,18.804l29.953,1.921c2.43,9.93,6.477,19.218,11.852,27.572l-19.416,22.773
		c7.575,10.095,16.71,18.942,27.026,26.219l22.491-19.861c8.107,4.837,17.037,8.43,26.511,10.575l2.445,29.917
		c6.142,0.91,12.426,1.366,18.832,1.31c6.402-0.056,12.68-0.622,18.805-1.639l1.917-29.954c9.665-2.363,18.722-6.254,26.903-11.412
		l22.807,19.439c10.175-7.533,19.113-16.624,26.466-26.93l-19.835-22.466C207.545,163.954,211.277,154.829,213.472,145.127
		 M124.686,155.928c-17.134,0.151-31.146-13.621-31.297-30.753c-0.148-17.138,13.62-31.147,30.756-31.298
		c17.136-0.149,31.144,13.619,31.295,30.754C155.59,141.767,141.825,155.779,124.686,155.928"/>
	<path fill="#314856" d="M115.099,82.127c-24.528,4.657-40.639,28.315-35.982,52.845c4.655,24.531,28.313,40.641,52.845,35.986
		c24.528-4.656,40.639-28.315,35.984-52.845C163.29,93.583,139.629,77.473,115.099,82.127 M127.445,147.164
		c-11.387,2.161-22.372-5.319-24.535-16.707c-2.161-11.388,5.318-22.373,16.707-24.535c11.387-2.162,22.373,5.319,24.536,16.707
		C146.314,134.017,138.833,145.003,127.445,147.164"/>
	<path fill="#F4CC67" d="M175.204,85.306c6.106,7.82,10.488,17.159,12.47,27.591c0.771,4.058,1.141,8.098,1.141,12.08
		c0,15.15-5.375,29.482-14.617,40.763c-9.247,11.278-22.324,19.486-37.776,22.421c-4.06,0.771-8.101,1.142-12.081,1.142
		c-21.256,0.003-40.917-10.594-52.764-27.576c-1.115-1.6-3.317-1.991-4.914-0.875c-1.6,1.115-1.992,3.316-0.876,4.914
		c13.154,18.85,34.935,30.593,58.554,30.598c4.419,0,8.901-0.413,13.396-1.267c17.122-3.248,31.677-12.377,41.922-24.882
		c10.246-12.506,16.217-28.41,16.218-45.239c0-4.42-0.411-8.901-1.264-13.397c-2.193-11.554-7.064-21.945-13.846-30.622
		c-1.199-1.537-3.417-1.809-4.952-0.609C174.276,81.55,174.001,83.769,175.204,85.306"/>
	<path fill-rule="evenodd" clip-rule="evenodd" fill="#F4CC67" d="M174.462,111.046c-2.372-1.285-1.133-31.054,1.294-32.327
		c2.424-1.274,28.05,13.819,27.351,17.282C202.403,99.462,176.841,112.329,174.462,111.046"/>
	<path fill-rule="evenodd" clip-rule="evenodd" fill="#F4CC67" d="M73.181,123.493c1.885,1.932-8.154,29.985-10.85,30.479
		c-2.694,0.494-22.67-21.539-20.97-24.636C43.059,126.238,71.293,121.56,73.181,123.493z"/>
	<path fill="#F4CC67" d="M64.093,147.562c-1.216-3.246-2.184-6.635-2.879-10.149c-0.837-4.227-1.24-8.434-1.24-12.58
		c0-15.048,5.305-29.303,14.451-40.559c9.148-11.254,22.1-19.489,37.444-22.529c4.225-0.836,8.431-1.239,12.578-1.239
		c14.934,0,29.088,5.227,40.305,14.247c1.518,1.221,3.74,0.98,4.964-0.538c1.222-1.522,0.982-3.743-0.538-4.966
		c-12.435-10-28.142-15.804-44.731-15.804c-4.603,0-9.27,0.447-13.95,1.373c-17,3.365-31.417,12.524-41.552,25.003
		c-10.139,12.477-16.033,28.296-16.033,45.011c0,4.603,0.446,9.27,1.375,13.951c0.77,3.892,1.845,7.651,3.193,11.255
		c0.685,1.827,2.718,2.754,4.547,2.069C63.852,151.425,64.778,149.39,64.093,147.562"/>
	<path fill="#D55656" d="M124.416,4.619c-0.352,0-0.7,0.001-1.05,0.005c-0.041,0-0.083,0-0.125,0v48.834
		c0.402-0.007,0.804-0.011,1.207-0.011c16.589,0,32.295,5.804,44.731,15.804c1.519,1.223,1.76,3.444,0.538,4.966
		c-0.698,0.867-1.722,1.317-2.755,1.317c-0.776,0-1.557-0.255-2.209-0.779c-11.217-9.02-25.371-14.247-40.305-14.247
		c-0.402,0-0.805,0.005-1.207,0.011v20.809c0.114,0,0.225,0,0.339,0c21.286,0,40.252,15.106,44.366,36.785
		c4.655,24.529-11.456,48.189-35.984,52.845c-2.85,0.541-5.684,0.801-8.482,0.801c-0.078,0-0.16,0-0.239,0v17.536
		c0.363,0.006,0.723,0.009,1.087,0.009c0,0,0.009,0,0.013,0c3.98,0,8.021-0.371,12.081-1.142
		c15.452-2.934,28.529-11.142,37.776-22.421c9.241-11.281,14.617-25.613,14.617-40.763c0-3.982-0.37-8.022-1.141-12.08
		c-0.388-2.047-0.87-4.051-1.438-6.01c-5.013,2.419-9.617,4.248-11.288,4.248c-0.209,0-0.374-0.029-0.485-0.09
		c-2.372-1.285-1.133-31.054,1.294-32.327c0.098-0.051,0.232-0.076,0.401-0.076c4.044,0,27.62,14.035,26.95,17.358
		c-0.295,1.454-4.98,4.569-10.487,7.596c0.806,2.593,1.473,5.257,1.992,7.984c0.853,4.496,1.264,8.977,1.264,13.397
		c-0.001,16.829-5.972,32.733-16.218,45.239c-10.245,12.505-24.799,21.634-41.922,24.882c-4.495,0.854-8.977,1.267-13.396,1.267
		c-0.367,0-0.734-0.003-1.1-0.009v48.827c0.392,0.003,0.784,0.006,1.177,0.006c0.349,0,0.699-0.001,1.05-0.005
		c6.402-0.056,12.68-0.622,18.805-1.639l1.917-29.954c9.665-2.363,18.722-6.254,26.903-11.412l22.807,19.439
		c10.175-7.533,19.113-16.624,26.466-26.93l-19.835-22.466c5.014-8.267,8.746-17.391,10.941-27.094l29.914-2.443
		c0.911-6.14,1.365-12.428,1.309-18.831c-0.054-6.405-0.622-12.681-1.638-18.806l-29.955-1.919
		c-2.299-9.396-6.025-18.228-10.975-26.225l19.466-22.846c-7.487-10.256-16.548-19.281-26.836-26.714l-22.442,19.814
		c-8.421-5.197-17.739-9.059-27.674-11.307l-2.443-29.916C136.393,5.073,130.457,4.619,124.416,4.619"/>
	<path fill="#2C404D" d="M123.579,81.327c-0.114,0-0.225,0-0.339,0v24.225c0.106-0.002,0.209-0.002,0.315-0.002
		c9.883-0.001,18.686,7.013,20.598,17.079c2.161,11.388-5.32,22.374-16.709,24.535c-1.322,0.251-2.639,0.372-3.935,0.372
		c-0.09,0-0.179-0.001-0.269-0.002v24.225c0.079,0,0.161,0,0.239,0c2.797,0,5.631-0.26,8.482-0.801
		c24.528-4.656,40.639-28.315,35.984-52.845C163.831,96.434,144.866,81.327,123.579,81.327"/>
	<path fill="#DAB65C" d="M192.62,103.596c-2.074,1.141-4.265,2.269-6.384,3.292c0.568,1.958,1.049,3.963,1.438,6.01
		c0.771,4.058,1.141,8.098,1.141,12.08c0,15.15-5.375,29.482-14.617,40.763c-9.247,11.278-22.324,19.486-37.776,22.421
		c-4.06,0.771-8.101,1.142-12.081,1.142c-0.003,0-0.008,0-0.008,0c-0.369,0-0.729-0.003-1.092-0.009v7.061
		c0.365,0.006,0.733,0.009,1.1,0.009c4.419,0,8.901-0.413,13.396-1.267c17.122-3.248,31.677-12.377,41.922-24.882
		c10.246-12.506,16.217-28.41,16.218-45.239c0-4.42-0.411-8.901-1.264-13.397C194.094,108.853,193.426,106.189,192.62,103.596"/>
	<path fill="#DAB65C" d="M176.158,78.643c-0.169,0-0.303,0.025-0.401,0.076c-2.427,1.273-3.666,31.042-1.294,32.327
		c0.111,0.061,0.276,0.09,0.485,0.09c1.671,0,6.275-1.829,11.288-4.248c2.119-1.023,4.31-2.15,6.384-3.292
		c5.507-3.027,10.192-6.142,10.487-7.596C203.777,92.678,180.202,78.643,176.158,78.643"/>
	<path fill="#DAB65C" d="M124.447,53.445c-0.402,0-0.805,0.005-1.207,0.011v7.061c0.402-0.007,0.804-0.011,1.207-0.011
		c14.934,0,29.088,5.227,40.305,14.247c0.652,0.524,1.433,0.779,2.209,0.779c1.033,0,2.057-0.451,2.755-1.317
		c1.222-1.522,0.982-3.743-0.538-4.966C156.742,59.249,141.036,53.445,124.447,53.445"/>
</g>
</svg>
