<?xml version="1.0" encoding="utf-8"?>
<!-- Generator: Adobe Illustrator 17.0.1, SVG Export Plug-In . SVG Version: 6.00 Build 0)  -->
<!DOCTYPE svg PUBLIC "-//W3C//DTD SVG 1.1//EN" "http://www.w3.org/Graphics/SVG/1.1/DTD/svg11.dtd">
<svg version="1.1" id="Layer_1" xmlns="http://www.w3.org/2000/svg" xmlns:xlink="http://www.w3.org/1999/xlink" x="0px" y="0px"
	 width="250px" height="250px" viewBox="0 0 250 250" enable-background="new 0 0 250 250" xml:space="preserve">
<g>
	<path fill="#8C919C" d="M6.275,127.056c0-65.473,53.076-118.551,118.551-118.551c65.472,0,118.549,53.077,118.549,118.551
		c0,65.474-53.077,118.551-118.549,118.551C59.351,245.607,6.275,192.53,6.275,127.056"/>
	<path fill="#F4F4F2" d="M15.854,127.056c0-60.182,48.788-108.97,108.972-108.97c60.182,0,108.97,48.788,108.97,108.97
		c0,60.182-48.788,108.97-108.97,108.97C64.642,236.027,15.854,187.238,15.854,127.056"/>
	<path fill="#5C7DAD" d="M27.118,127.056c0-54.251,43.979-98.23,98.23-98.23s98.229,43.979,98.229,98.23
		c0,54.251-43.978,98.229-98.229,98.229S27.118,181.308,27.118,127.056"/>
	<g>
		<defs>
			<path id="SVGID_1_" d="M27.118,127.056c0-54.251,43.979-98.23,98.23-98.23s98.229,43.979,98.229,98.23
				c0,54.251-43.978,98.229-98.229,98.229S27.118,181.308,27.118,127.056"/>
		</defs>
		<clipPath id="SVGID_2_">
			<use xlink:href="#SVGID_1_"  overflow="visible"/>
		</clipPath>
		<polyline clip-path="url(#SVGID_2_)" fill-rule="evenodd" clip-rule="evenodd" fill="#95E5E5" points="33.834,171.729 
			72.377,140.055 111.142,158.943 146.826,116.397 188,135.611 226.433,98.556 233.296,149.336 175.648,227.567 109.771,239.919 
			56.245,208.352 33.834,171.729 		"/>
	</g>
	<path fill="#F4F4F2" d="M224.247,92.112c-2.048-1.694-5.074-1.409-6.763,0.638l-32.942,39.801l-39.801-26.077l-39.801,46.664
		l-35.684-15.097l-38.879,32c-2.048,1.685-2.343,4.712-0.657,6.763c1.686,2.047,4.712,2.34,6.763,0.654l34.389-28.304l30.326,12.831
		l6.484,2.745l38.874-45.58l39.909,26.147l38.418-46.421C226.577,96.833,226.29,93.801,224.247,92.112"/>
	<polyline fill="#F4F4F2" points="15.271,119.167 233.493,119.167 233.493,117.795 15.271,117.795 15.271,119.167 	"/>
	<polyline fill="#F4F4F2" points="37.23,72.504 211.533,72.504 211.533,71.131 37.23,71.131 37.23,72.504 	"/>
	<polyline fill="#F4F4F2" points="24.878,164.459 223.885,164.459 223.885,163.086 24.878,163.086 24.878,164.459 	"/>
	<polyline fill="#F4F4F2" points="60.562,211.122 188.201,211.122 188.201,209.75 60.562,209.75 60.562,211.122 	"/>
	<path fill="#EF6060" d="M132.844,115.033c0-7.573,6.139-13.711,13.711-13.711c7.573,0,13.711,6.138,13.711,13.711
		c0,7.573-6.138,13.711-13.711,13.711C138.983,128.744,132.844,122.605,132.844,115.033"/>
	<path fill="#FFFFFF" d="M135.758,88.564l0.676-6.522h6.53v1.882h-4.608l-0.322,2.702c0.214-0.161,0.474-0.293,0.78-0.398
		c0.306-0.105,0.643-0.159,1.013-0.165c1.126-0.016,1.998,0.324,2.618,1.021c0.619,0.697,0.929,1.667,0.929,2.911
		c0,1.126-0.339,2.061-1.017,2.807c-0.678,0.745-1.655,1.118-2.931,1.118c-1.078,0-2-0.295-2.766-0.885
		c-0.767-0.59-1.137-1.399-1.11-2.429l0.016-0.04l2.26-0.113c0,0.52,0.148,0.926,0.442,1.218c0.295,0.292,0.681,0.438,1.158,0.438
		c0.547,0,0.95-0.194,1.21-0.582c0.26-0.389,0.39-0.895,0.39-1.521c0-0.674-0.139-1.214-0.418-1.622
		c-0.279-0.406-0.692-0.61-1.239-0.61c-0.45,0-0.795,0.083-1.033,0.249s-0.409,0.391-0.511,0.676L135.758,88.564"/>
	<path fill="#FFFFFF" d="M152.871,83.852c-1.254,1.469-2.111,2.839-2.569,4.109c-0.458,1.271-0.787,2.804-0.985,4.6l-0.113,1.19
		h-2.348l0.113-1.19c0.182-1.721,0.574-3.301,1.174-4.741c0.6-1.44,1.423-2.762,2.469-3.969h-6.015v-1.809h8.275V83.852"/>
	<path fill="#FFFFFF" d="M159.063,81.874c0.44,0,0.846,0.042,1.218,0.125c0.372,0.083,0.746,0.205,1.122,0.366l-0.418,1.721
		c-0.354-0.123-0.669-0.216-0.945-0.278c-0.276-0.062-0.596-0.093-0.961-0.093c-0.713,0-1.285,0.267-1.717,0.8
		c-0.432,0.533-0.631,1.272-0.599,2.215l0.024,0.04c0.263-0.273,0.595-0.488,0.997-0.643c0.402-0.156,0.855-0.233,1.359-0.233
		c1.045,0,1.864,0.371,2.457,1.114c0.592,0.743,0.889,1.69,0.889,2.843c0,1.179-0.366,2.153-1.098,2.919
		c-0.732,0.767-1.679,1.15-2.843,1.15c-1.239,0-2.246-0.42-3.024-1.259c-0.777-0.839-1.166-2.001-1.166-3.486v-2.284
		c0-1.533,0.442-2.753,1.327-3.659C156.57,82.327,157.696,81.874,159.063,81.874 M158.525,87.672c-0.434,0-0.804,0.07-1.11,0.209
		c-0.306,0.139-0.541,0.328-0.708,0.57v0.779c0,0.926,0.167,1.638,0.503,2.135c0.335,0.497,0.781,0.746,1.339,0.746
		c0.482,0,0.87-0.221,1.162-0.662c0.292-0.441,0.438-0.976,0.438-1.602c0-0.647-0.147-1.171-0.442-1.574
		C159.412,87.873,159.018,87.672,158.525,87.672"/>
	<path fill="#7D828B" d="M124.826,8.506c-0.835,0-1.671,0.009-2.502,0.026v9.583c0.834-0.019,1.665-0.028,2.502-0.028
		c57.063,0,103.882,43.86,108.581,99.709h0.086v1.078c0.201,2.701,0.303,5.432,0.303,8.184c0,60.182-48.788,108.97-108.97,108.97
		c-0.838,0-1.669-0.009-2.502-0.028v9.583c0.831,0.016,1.667,0.026,2.502,0.026c65.472,0,118.549-53.077,118.549-118.551
		C243.375,61.583,190.298,8.506,124.826,8.506"/>
	<path fill="#DADAD8" d="M233.493,118.873v0.295h-10.228c0.206,2.603,0.312,5.234,0.312,7.889l0,0l0,0
		c0,12.718-2.418,24.875-6.818,36.03h7.126v1.372h-7.68c-7.703,18.693-21.004,34.485-37.818,45.291h9.814v1.372h-12.013
		c-14.83,8.988-32.232,14.163-50.84,14.163c-1.013,0-2.02-0.015-3.025-0.046v10.759c0.834,0.019,1.665,0.028,2.502,0.028
		c60.182,0,108.97-48.788,108.97-108.97C233.796,124.305,233.694,121.573,233.493,118.873 M124.826,18.086
		c-0.838,0-1.669,0.009-2.502,0.028v10.757c1.005-0.031,2.012-0.046,3.025-0.046c33.47,0,63.032,16.742,80.766,42.305h5.419v1.372
		h-4.485c4.21,6.291,7.711,13.095,10.391,20.3l0.044-0.054c0.949-1.149,2.319-1.742,3.701-1.742c1.079,0,2.165,0.362,3.063,1.104
		c2.043,1.689,2.329,4.721,0.635,6.763l-4.075,4.924c0.012,0.048,0.023,0.096,0.035,0.146l0,0c1.087,4.505,1.862,9.127,2.303,13.849
		h10.261C228.708,61.946,181.889,18.086,124.826,18.086"/>
	<path fill="#52709B" d="M133.48,119.167h-11.157v13.591l11.277-13.223C133.559,119.414,133.517,119.291,133.48,119.167
		 M195.62,119.167h-31.506l20.429,13.384L195.62,119.167 M220.808,103.799l-0.742,0.897l0.777-0.751
		C220.831,103.896,220.82,103.848,220.808,103.799 M137.825,88.701l-2.067-0.137l0.676-6.522h6.53v1.882h-4.608l-0.322,2.702
		c0.214-0.161,0.474-0.293,0.78-0.398c0.306-0.105,0.643-0.159,1.013-0.165c0.026,0,0.051,0,0.075,0c1.09,0,1.938,0.34,2.543,1.021
		c0.619,0.697,0.929,1.667,0.929,2.911c0,1.126-0.339,2.061-1.017,2.807c-0.678,0.745-1.655,1.118-2.931,1.118
		c-1.078,0-2-0.295-2.766-0.885c-0.767-0.59-1.137-1.399-1.11-2.429l0.016-0.04l2.26-0.113c0,0.52,0.148,0.926,0.442,1.218
		c0.295,0.292,0.681,0.438,1.158,0.438c0.547,0,0.95-0.194,1.21-0.582c0.26-0.389,0.39-0.895,0.39-1.521
		c0-0.674-0.139-1.214-0.418-1.622c-0.279-0.406-0.692-0.61-1.239-0.61c-0.45,0-0.795,0.083-1.033,0.249
		S137.927,88.417,137.825,88.701 M144.596,83.852v-1.809h8.275v1.809c-1.254,1.469-2.111,2.839-2.569,4.109
		c-0.458,1.271-0.787,2.804-0.985,4.6l-0.113,1.19h-2.348l0.113-1.19c0.182-1.721,0.574-3.301,1.174-4.741
		c0.6-1.44,1.423-2.762,2.469-3.969H144.596 M158.549,93.92c-1.239,0-2.246-0.42-3.024-1.259c-0.777-0.839-1.166-2.001-1.166-3.486
		v-2.284c0-1.533,0.442-2.753,1.327-3.659c0.885-0.906,2.011-1.359,3.378-1.359c0.44,0,0.846,0.042,1.218,0.125
		c0.372,0.083,0.746,0.205,1.122,0.366l-0.418,1.721c-0.354-0.123-0.669-0.216-0.945-0.278c-0.276-0.062-0.596-0.093-0.961-0.093
		c-0.713,0-1.285,0.267-1.717,0.8c-0.432,0.533-0.631,1.272-0.599,2.215l0.024,0.04c0.263-0.273,0.595-0.488,0.997-0.643
		c0.402-0.156,0.855-0.233,1.359-0.233c1.045,0,1.864,0.371,2.457,1.114c0.592,0.743,0.889,1.69,0.889,2.843
		c0,1.179-0.366,2.153-1.098,2.919C160.66,93.537,159.712,93.92,158.549,93.92 M207.049,72.504h-84.726v45.291h10.8
		c-0.182-0.893-0.279-1.816-0.279-2.762c0-7.573,6.139-13.711,13.711-13.711c7.573,0,13.711,6.138,13.711,13.711
		c0,0.527-0.03,1.047-0.087,1.557l1.839,1.205h34.736l20.685-24.991C214.759,85.598,211.259,78.795,207.049,72.504 M125.348,28.826
		c-1.013,0-2.02,0.015-3.025,0.046v42.26h83.791C188.38,45.568,158.818,28.826,125.348,28.826"/>
	<path fill="#85CDCD" d="M176.188,211.122h-53.865v14.117c1.005,0.031,2.012,0.046,3.025,0.046
		C143.957,225.285,161.358,220.11,176.188,211.122 M216.206,164.459h-93.882v45.291h56.065
		C195.202,198.943,208.503,183.152,216.206,164.459 M223.265,119.167h-15.176l-21.624,26.129l-30.695-20.11
		c-2.434,2.21-5.667,3.557-9.213,3.557c-2.431,0-4.715-0.633-6.696-1.744l-17.537,20.563v15.523h94.436
		c4.4-11.155,6.818-23.312,6.818-36.03l0,0C223.577,124.401,223.471,121.77,223.265,119.167 M220.843,103.946L220.843,103.946
		l-0.777,0.751l-10.84,13.099h13.92C222.705,113.073,221.93,108.45,220.843,103.946"/>
	<path fill="#DADAD8" d="M133.6,119.535l-11.277,13.223v14.805L139.86,127C136.958,125.373,134.709,122.722,133.6,119.535
		 M208.089,119.167H195.62l-11.078,13.384l-20.429-13.384h-4.481c-0.74,2.34-2.09,4.41-3.864,6.019l30.695,20.11L208.089,119.167
		 M160.18,116.59c-0.047,0.407-0.11,0.809-0.192,1.205h2.031L160.18,116.59 M221.185,91.008c-1.382,0-2.752,0.594-3.701,1.742
		l-0.044,0.054l-20.685,24.991h12.47l10.84-13.099l0.742-0.897l4.075-4.924c1.694-2.043,1.407-5.074-0.635-6.763
		C223.349,91.37,222.264,91.008,221.185,91.008"/>
	<path fill="#DADAD8" d="M133.123,117.795h-10.8v1.372h11.157C133.338,118.72,133.218,118.261,133.123,117.795 M233.493,117.795
		h-0.086h-10.261h-13.92h-12.47h-34.736h-2.031c-0.095,0.466-0.215,0.925-0.355,1.372h4.481h31.506h12.469h15.176h10.228v-0.295
		V117.795"/>
	<polyline fill="#DADAD8" points="211.533,71.131 206.115,71.131 122.323,71.131 122.323,72.504 207.049,72.504 211.533,72.504 
		211.533,71.131 	"/>
	<polyline fill="#DADAD8" points="223.885,163.086 216.759,163.086 122.323,163.086 122.323,164.459 216.206,164.459 
		223.885,164.459 223.885,163.086 	"/>
	<polyline fill="#DADAD8" points="188.201,209.75 178.388,209.75 122.323,209.75 122.323,211.122 176.188,211.122 188.201,211.122 
		188.201,209.75 	"/>
	<path fill="#D55656" d="M146.556,101.321c-7.573,0-13.711,6.138-13.711,13.711c0,0.946,0.097,1.87,0.279,2.762
		c0.095,0.466,0.214,0.925,0.356,1.372c0.038,0.123,0.079,0.247,0.121,0.367c1.108,3.187,3.357,5.838,6.259,7.465
		c1.981,1.111,4.265,1.744,6.696,1.744c3.546,0,6.779-1.347,9.213-3.557c1.774-1.61,3.124-3.679,3.864-6.019
		c0.141-0.448,0.26-0.906,0.355-1.372c0.082-0.395,0.145-0.798,0.192-1.205c0.058-0.511,0.087-1.031,0.087-1.557
		C160.267,107.46,154.128,101.321,146.556,101.321"/>
	<path fill="#E4E4E4" d="M142.964,82.043h-6.53l-0.676,6.522l2.067,0.137c0.102-0.284,0.272-0.509,0.511-0.676
		s0.583-0.249,1.033-0.249c0.547,0,0.96,0.204,1.239,0.61c0.279,0.407,0.418,0.948,0.418,1.622c0,0.626-0.13,1.133-0.39,1.521
		c-0.26,0.387-0.663,0.582-1.21,0.582c-0.477,0-0.863-0.146-1.158-0.438c-0.295-0.292-0.442-0.698-0.442-1.218l-2.26,0.113
		l-0.016,0.04c-0.027,1.029,0.343,1.839,1.11,2.429c0.767,0.59,1.689,0.885,2.766,0.885c1.276,0,2.253-0.373,2.931-1.118
		c0.678-0.745,1.017-1.681,1.017-2.807c0-1.244-0.31-2.214-0.929-2.911c-0.605-0.681-1.453-1.021-2.543-1.021
		c-0.024,0-0.05,0-0.075,0c-0.37,0.005-0.708,0.06-1.013,0.165c-0.306,0.105-0.566,0.237-0.78,0.398l0.322-2.702h4.608V82.043"/>
	<path fill="#52709B" d="M158.525,87.672c-0.434,0-0.804,0.07-1.11,0.209c-0.306,0.139-0.541,0.328-0.708,0.57v0.779
		c0,0.926,0.167,1.638,0.503,2.135c0.335,0.497,0.781,0.746,1.339,0.746c0.482,0,0.87-0.221,1.162-0.662
		c0.292-0.441,0.438-0.976,0.438-1.602c0-0.647-0.147-1.171-0.442-1.574C159.412,87.873,159.018,87.672,158.525,87.672"/>
	<path fill="#E4E4E4" d="M152.871,82.043h-8.275v1.809h6.015c-1.046,1.206-1.868,2.529-2.469,3.969
		c-0.6,1.439-0.992,3.02-1.174,4.741l-0.113,1.19h2.348l0.113-1.19c0.198-1.796,0.527-3.329,0.985-4.6
		c0.458-1.271,1.315-2.64,2.569-4.109V82.043"/>
	<path fill="#E4E4E4" d="M158.549,92.111c-0.558,0-1.004-0.249-1.339-0.746c-0.335-0.497-0.503-1.209-0.503-2.135V88.45
		c0.166-0.241,0.402-0.43,0.708-0.57c0.306-0.139,0.676-0.209,1.11-0.209c0.493,0,0.887,0.201,1.182,0.602
		c0.295,0.402,0.442,0.926,0.442,1.574c0,0.626-0.146,1.161-0.438,1.602C159.418,91.89,159.031,92.111,158.549,92.111
		 M159.063,81.874c-1.367,0-2.493,0.453-3.378,1.359c-0.885,0.906-1.327,2.126-1.327,3.659v2.284c0,1.485,0.389,2.647,1.166,3.486
		c0.777,0.839,1.785,1.259,3.024,1.259c1.163,0,2.111-0.383,2.843-1.15c0.732-0.767,1.098-1.74,1.098-2.919
		c0-1.153-0.296-2.1-0.889-2.843c-0.592-0.743-1.411-1.114-2.457-1.114c-0.504,0-0.957,0.078-1.359,0.233
		c-0.402,0.155-0.734,0.37-0.997,0.643l-0.024-0.04c-0.032-0.944,0.167-1.682,0.599-2.215c0.432-0.533,1.004-0.8,1.717-0.8
		c0.365,0,0.685,0.031,0.961,0.093c0.276,0.062,0.591,0.154,0.945,0.278l0.418-1.721c-0.375-0.161-0.749-0.283-1.122-0.366
		C159.909,81.915,159.503,81.874,159.063,81.874"/>
</g>
</svg>
