<?xml version="1.0" encoding="utf-8"?>
<!-- Generator: Adobe Illustrator 17.0.1, SVG Export Plug-In . SVG Version: 6.00 Build 0)  -->
<!DOCTYPE svg PUBLIC "-//W3C//DTD SVG 1.1 Basic//EN" "http://www.w3.org/Graphics/SVG/1.1/DTD/svg11-basic.dtd">
<svg version="1.1" baseProfile="basic" id="Layer_1"
	 xmlns="http://www.w3.org/2000/svg" xmlns:xlink="http://www.w3.org/1999/xlink" x="0px" y="0px" width="190px" height="170px"
	 viewBox="0 0 190 170" xml:space="preserve">
<g>
	<path fill="#DD5757" d="M159.55,104.966h24.358c2.069,0,4.552-2.811,1.797-6.025c0,0-8.355-9.433-8.355-12.244
		c0-2.811,9.11-13.136,9.11-13.136c2.576-2.576-0.483-5.133-2.553-5.133H159.55V104.966"/>
	<polyline fill="#BF4545" points="159.55,104.966 167.045,96.535 159.559,96.535 159.55,104.966 	"/>
	<path fill="#DD5757" d="M31.202,104.966H6.634c-2.069,0-4.553-2.811-1.797-6.025c0,0,8.355-9.433,8.355-12.244
		c0-2.811-9.11-13.136-9.11-13.136c-2.576-2.576,0.483-5.133,2.553-5.133h24.568"/>
	<polygon fill="#BF4545" points="30.992,104.966 23.497,96.535 30.983,96.535 	"/>
	<path fill="#8C9199" d="M103.768,164.925c-4.109,4.629-10.45,5.621-16.559,0c-4.519-4.158-37.41-31.599-47.836-69.215
		c-10.425-37.616-8.586-63.373-8.586-63.373c0-5.419,4.393-9.812,9.813-9.812h105.484c5.419,0,9.812,4.393,9.812,9.812
		c0,0,2.616,32.015-6.133,61.201C137.821,133.385,107.421,160.808,103.768,164.925"/>
	<path fill="#F0EFEA" d="M95.825,160.346c-0.267,0-1.266-0.117-2.906-1.626c-0.307-0.283-0.736-0.666-1.273-1.145
		c-28.96-25.833-39.992-49.126-44.147-64.118c-9.922-35.8-8.111-60.277-8.093-60.521l0.229-0.299v-0.301
		c0-0.761,0.205-1.381,0.966-1.381h105.484c0.761,0,1.287,0.619,1.287,1.381v0.344l0.075,0.342c0.024,0.3,2.382,30.853-5.782,58.094
		c-10.041,33.501-33.96,57.757-41.824,65.727c-1.111,1.126-1.84,1.87-2.385,2.485C97.118,159.708,96.463,160.346,95.825,160.346"/>
	<g>
		<path fill="#5988C1" d="M92.301,146.161c0.472,0.421,0.848,0.757,1.118,1.005c0.07,0.064,0.133,0.116,0.2,0.174l21.804-21.92
			c7.076-9.739,14.389-22.242,18.734-36.74c0.827-2.759,1.52-5.557,2.106-8.349l-54.914,55.206
			C84.624,139.007,88.258,142.555,92.301,146.161z"/>
		<path fill="#5988C1" d="M55.987,38.319l-9.029,9.077c0.23,5.31,0.846,12.741,2.357,21.765l30.653-30.816L55.987,38.319z"/>
		<path fill="#5988C1" d="M96.631,38.363L52.145,83.087c0.591,2.479,1.241,5.027,1.967,7.649c0.874,3.153,2.105,6.734,3.823,10.667
			l62.681-63.014L96.631,38.363z"/>
		<path fill="#5988C1" d="M138.796,38.408l-1.52-0.002l-73.64,74.032c2.657,4.46,5.917,9.206,9.913,14.172l65.288-65.636
			C139.679,48.198,138.809,38.563,138.796,38.408z"/>
		<path fill="#9EBEDD" d="M46.915,38.309c-0.006,0.082-0.205,3.347,0.044,9.086l9.029-9.077L46.915,38.309z"/>
		<path fill="#9EBEDD" d="M79.969,38.345L49.316,69.161c0.72,4.301,1.646,8.963,2.829,13.925l44.487-44.724L79.969,38.345z"/>
		<path fill="#9EBEDD" d="M120.616,38.389l-62.681,63.014c1.496,3.425,3.369,7.12,5.702,11.036l73.64-74.032L120.616,38.389z"/>
		<path fill="#9EBEDD" d="M81.349,135.538l54.914-55.206c1.41-6.711,2.181-13.376,2.575-19.357L73.55,126.61
			C75.889,129.517,78.478,132.496,81.349,135.538z"/>
		<path fill="#9EBEDD" d="M95.395,148.366c0.086,0,0.314-0.154,0.721-0.612c0.489-0.551,1.038-1.205,2.013-2.193
			c3.402-3.449,10.23-10.418,17.294-20.141l-21.804,21.92C94.575,148.169,95.22,148.366,95.395,148.366z"/>
	</g>
	<path fill="#EF6060" d="M167.045,95.598c0,2.069-1.678,3.747-3.747,3.747H26.518c-2.069,0-3.747-1.678-3.747-3.747V66.556
		c0-2.069,1.678-3.747,3.747-3.747h136.78c2.069,0,3.747,1.678,3.747,3.747V95.598"/>
	<polygon fill="#F0EFEA" points="50.849,75.057 43.636,75.057 43.636,88.572 40.43,88.572 40.43,72.587 50.849,72.587 	"/>
	<path fill="#F0EFEA" d="M59.445,85.124h-5.61l-1.087,3.447h-3.239l5.5-15.985h3.283l5.478,15.985h-3.239L59.445,85.124z
		 M54.625,82.61h4.029l-1.976-6.28h-0.066L54.625,82.61z"/>
	<path fill="#F0EFEA" d="M68.469,82.775v5.797h-3.206V72.587h6.368c1.837,0,3.283,0.468,4.337,1.405
		c1.054,0.937,1.581,2.17,1.581,3.7c0,1.53-0.527,2.759-1.581,3.689c-1.054,0.93-2.5,1.394-4.337,1.394H68.469z M68.469,80.305
		h3.162c0.893,0,1.57-0.243,2.031-0.73c0.461-0.487,0.692-1.107,0.692-1.861c0-0.768-0.229-1.403-0.686-1.905
		c-0.457-0.501-1.136-0.752-2.037-0.752h-3.162V80.305z"/>
	<path fill="#F0EFEA" d="M86.639,85.124h-5.61l-1.087,3.447h-3.239l5.5-15.985h3.283l5.478,15.985h-3.239L86.639,85.124z
		 M81.82,82.61h4.029l-1.976-6.28h-0.066L81.82,82.61z"/>
	<polyline fill="#F0EFEA" points="105.38,88.572 102.185,88.572 102.185,81.929 95.664,81.929 95.664,88.572 92.458,88.572 
		92.458,72.587 95.664,72.587 95.664,79.459 102.185,79.459 102.185,72.587 105.38,72.587 105.38,88.572 	"/>
	<polyline fill="#F0EFEA" points="119.421,75.057 114.898,75.057 114.898,88.572 111.692,88.572 111.692,75.057 107.191,75.057 
		107.191,72.587 119.421,72.587 119.421,75.057 	"/>
	<polyline fill="#F0EFEA" points="130.806,72.587 134.023,72.587 134.023,88.572 130.806,88.572 130.806,77.911 130.74,77.9 
		124.296,88.572 121.101,88.572 121.101,72.587 124.296,72.587 124.296,83.236 124.362,83.247 130.806,72.587 	"/>
	<path fill="#F0EFEA" d="M138.755,88.572h-3.458l3.458-6.851c-0.842-0.447-1.475-1.019-1.899-1.718
		c-0.425-0.699-0.637-1.535-0.637-2.509c0-1.574,0.52-2.785,1.559-3.634c1.039-0.849,2.481-1.273,4.326-1.273h5.533v15.985h-3.206
		v-5.863h-2.745L138.755,88.572 M144.431,75.057h-2.327c-0.886,0-1.553,0.221-2.004,0.664c-0.45,0.443-0.675,1.078-0.675,1.905
		c0,0.827,0.23,1.491,0.692,1.993c0.461,0.501,1.124,0.752,1.987,0.752h2.327V75.057"/>
	<path fill="#C54E4E" d="M183.908,68.429h-16.863v27.169c0,0.324-0.04,0.638-0.118,0.937h0.118l-0.174,0.196
		c-0.323,1.017-1.068,1.847-2.029,2.283l-5.292,5.953l0.006-5.621h-0.006v5.621h24.358c2.069,0,4.552-2.811,1.797-6.025
		c0,0-8.355-9.433-8.355-12.244c0-2.811,9.11-13.136,9.11-13.136C189.037,70.986,185.978,68.429,183.908,68.429"/>
	<path fill="#AB3E3E" d="M164.842,99.013c-0.47,0.213-0.994,0.332-1.544,0.332h-3.741l-0.006,5.621L164.842,99.013 M167.045,96.535
		h-0.118c-0.017,0.066-0.036,0.132-0.056,0.196L167.045,96.535"/>
	<path fill="#7D8289" d="M147.865,99.345h-9.003c-11.138,29.225-31.818,50.196-39.023,57.498c-1.111,1.126-1.84,1.87-2.385,2.485
		c-0.337,0.38-0.992,1.017-1.63,1.017c-0.132,0-0.441-0.028-0.917-0.238v8.626c0.307,0.029,0.613,0.043,0.917,0.043
		c3.024,0,5.79-1.427,7.943-3.853C107.241,161.011,134.885,136.034,147.865,99.345 M146.084,22.524H94.908v8.432h51.176
		c0.761,0,1.287,0.619,1.287,1.381v0.344l0.075,0.342c0.015,0.196,1.02,13.211-0.533,29.786h8.508
		c1.556-17.222,0.474-30.472,0.474-30.472C155.896,26.917,151.503,22.524,146.084,22.524"/>
	<path fill="#D6D5D1" d="M138.863,99.345h-8.546c-4.21,10.013-9.616,18.81-14.892,26.071c-7.065,9.725-13.894,16.696-17.297,20.145
		c-0.975,0.988-1.524,1.642-2.013,2.193c-0.407,0.458-0.635,0.612-0.721,0.612c-0.077,0-0.243-0.037-0.487-0.147v11.889
		c0.476,0.209,0.785,0.238,0.917,0.238c0.639,0,1.294-0.638,1.63-1.017c0.545-0.615,1.274-1.359,2.385-2.485
		C107.045,149.542,127.725,128.571,138.863,99.345 M146.084,30.956H94.908v7.405l1.724,0.002l23.985,0.026l16.66,0.018l1.52,0.002
		c0.013,0.156,0.886,9.786,0.045,22.564c-0.04,0.605-0.084,1.219-0.132,1.836h8.205c1.553-16.575,0.547-29.59,0.533-29.786
		l-0.075-0.342v-0.344C147.371,31.575,146.845,30.956,146.084,30.956"/>
	<path fill="#4F79AC" d="M100.67,99.345h-5.762v5.793L100.67,99.345 M130.317,99.345h-12.968l-22.441,22.561v24.137l20.517-20.627
		C120.7,118.155,126.107,109.359,130.317,99.345 M137.276,38.406l-24.272,24.402h24.009l1.827-1.836
		c0.842-12.778-0.032-22.408-0.045-22.564L137.276,38.406 M96.632,38.362l-1.724,1.734v22.712h1.418l24.29-24.42L96.632,38.362"/>
	<polyline fill="#8DAAC5" points="94.908,38.361 94.908,40.096 96.632,38.362 94.908,38.361 	"/>
	<polyline fill="#8DAAC5" points="120.616,38.388 96.326,62.808 113.004,62.808 137.276,38.406 120.616,38.388 	"/>
	<path fill="#8DAAC5" d="M117.349,99.345H100.67l-5.762,5.793v16.768L117.349,99.345 M138.841,60.972l-1.827,1.836h1.695
		C138.757,62.191,138.801,61.577,138.841,60.972"/>
	<path fill="#8DAAC5" d="M115.425,125.416l-20.517,20.627v2.176c0.243,0.111,0.41,0.147,0.487,0.147
		c0.086,0,0.314-0.154,0.721-0.612c0.489-0.551,1.038-1.205,2.013-2.193C101.532,142.112,108.36,135.141,115.425,125.416"/>
	<path fill="#D55656" d="M144.431,75.057h-2.327c-0.886,0-1.553,0.221-2.004,0.664c-0.45,0.443-0.675,1.078-0.675,1.905
		c0,0.827,0.23,1.491,0.692,1.993c0.461,0.501,1.124,0.752,1.987,0.752h2.327V75.057 M107.191,75.057v-2.47h12.23v2.47h-4.523
		v13.515h-3.206V75.057H107.191 M124.362,83.247l6.444-10.66h3.217v15.985h-3.217v-10.66L130.74,77.9l-6.444,10.671h-3.195V72.587
		h3.195v10.649L124.362,83.247 M135.297,88.572l3.458-6.851c-0.842-0.447-1.475-1.019-1.899-1.718
		c-0.425-0.699-0.637-1.535-0.637-2.509c0-1.574,0.52-2.785,1.559-3.634c1.039-0.849,2.481-1.273,4.326-1.273h5.533v15.985h-3.206
		v-5.863h-2.745l-2.931,5.863H135.297 M163.298,62.808h-7.875h-8.508h-8.205h-1.695h-24.009H96.326h-1.418v9.778h0.756v6.873h6.521
		v-6.873h3.195v15.985h-3.195v-6.642h-6.521v6.642h-0.756v10.774h5.762h16.679h12.968h8.546h9.003h11.685h0.006h3.741
		c0.551,0,1.074-0.119,1.544-0.332c0.962-0.436,1.706-1.265,2.029-2.283c0.02-0.064,0.038-0.13,0.056-0.196
		c0.078-0.299,0.118-0.613,0.118-0.937V68.429v-1.874C167.045,64.486,165.367,62.808,163.298,62.808"/>
	<polyline fill="#D6D5D1" points="105.38,72.587 102.185,72.587 102.185,79.459 95.664,79.459 95.664,72.587 94.908,72.587 
		94.908,88.572 95.664,88.572 95.664,81.929 102.185,81.929 102.185,88.572 105.38,88.572 105.38,72.587 	"/>
	<polyline fill="#D6D5D1" points="119.421,72.587 107.191,72.587 107.191,75.057 111.692,75.057 111.692,88.572 114.898,88.572 
		114.898,75.057 119.421,75.057 119.421,72.587 	"/>
	<polyline fill="#D6D5D1" points="134.023,72.587 130.806,72.587 124.362,83.247 124.296,83.236 124.296,72.587 121.101,72.587 
		121.101,88.572 124.296,88.572 130.74,77.9 130.806,77.911 130.806,88.572 134.023,88.572 134.023,72.587 	"/>
	<path fill="#D6D5D1" d="M142.103,80.371c-0.864,0-1.526-0.251-1.987-0.752c-0.461-0.501-0.692-1.166-0.692-1.993
		c0-0.827,0.225-1.462,0.675-1.905c0.45-0.443,1.118-0.664,2.004-0.664h2.327v5.314H142.103 M147.637,72.587h-5.533
		c-1.844,0-3.286,0.424-4.326,1.273c-1.039,0.849-1.559,2.06-1.559,3.634c0,0.973,0.212,1.81,0.637,2.509
		c0.424,0.699,1.058,1.272,1.899,1.718l-3.458,6.851h3.458l2.931-5.863h2.745v5.863h3.206V72.587"/>
</g>
</svg>
