<?xml version="1.0" encoding="utf-8"?>
<!-- Generator: Adobe Illustrator 17.0.1, SVG Export Plug-In . SVG Version: 6.00 Build 0)  -->
<!DOCTYPE svg PUBLIC "-//W3C//DTD SVG 1.1//EN" "http://www.w3.org/Graphics/SVG/1.1/DTD/svg11.dtd">
<svg version="1.1" id="Layer_1" xmlns="http://www.w3.org/2000/svg" xmlns:xlink="http://www.w3.org/1999/xlink" x="0px" y="0px"
	 width="250px" height="250px" viewBox="0 0 250 250" enable-background="new 0 0 250 250" xml:space="preserve">
<g>
	<g>
		<path fill-rule="evenodd" clip-rule="evenodd" fill="#E7EFF1" d="M69.104,221.2h111.061c1.403,0,2.353,1.049,2.353,2.452v1.271
			c0,1.406-0.949,2.885-2.353,2.885H69.631c-1.408,0-2.73-1.479-2.73-2.885v-1.271c0-1.402,1.298-2.452,2.704-2.452H69.104"/>
		<path fill-rule="evenodd" clip-rule="evenodd" fill="#E7EFF1" d="M92.227,167.245h65.071c1.4,0,2.097,1.643,2.097,3.045v50.82
			c0,1.406-0.697,2.291-2.097,2.291H92.501c-1.403,0-2.476-0.885-2.476-2.291v-50.82c0-1.402,1.045-3.045,2.452-3.045H92.227"/>
		<path fill-rule="evenodd" clip-rule="evenodd" fill="#494B4F" d="M6.34,19.697h237.315c1.215,0,2.727,1.082,2.727,2.297v150.85
			c0,1.217-1.512,2.11-2.727,2.11H5.816c-1.217,0-1.677-0.892-1.677-2.11V21.993c0-1.215,0.46-2.297,1.677-2.297H6.34"/>
		<polyline fill-rule="evenodd" clip-rule="evenodd" fill="#FFFFFF" points="15.149,163.942 15.149,30.708 234.27,30.708 
			234.27,163.942 15.149,163.942 		"/>
		<path fill-rule="evenodd" clip-rule="evenodd" fill="#37C86A" d="M124.211,24.652c0-0.912,0.74-1.652,1.652-1.652
			c0.912,0,1.652,0.74,1.652,1.652s-0.74,1.653-1.652,1.653C124.95,26.304,124.211,25.563,124.211,24.652"/>
		<path fill="#DDF4FB" d="M121.957,43.18c0-1.358,1.419-2.459,2.729-2.459l82.839,10.968c1.308,0,2.521,1.1,2.521,2.458v99.821
			c0,1.358-1.035,2.457-2.342,2.457l-83.033-10.967c-1.31,0-2.714-1.1-2.714-2.458V43.18"/>
		<path fill="#DDF4FB" d="M33.868,54.147c0-1.359,1.061-2.458,2.367-2.458l83.019-10.968c1.308,0,2.703,1.101,2.703,2.458v99.822
			c0,1.357-1.394,2.457-2.702,2.457l-82.853,10.968c-1.308,0-2.533-1.1-2.533-2.459V54.147z"/>
		<polyline fill="#53B771" points="170.094,184.13 151.364,184.13 151.364,137.305 95.177,137.305 95.177,184.13 76.446,184.13 
			123.271,230.953 170.094,184.13 		"/>
		<path fill="#CED5D7" d="M180.165,221.2h-20.772c-0.029,1.355-0.725,2.202-2.096,2.202h-26.476l-4.407,4.406h53.75
			c1.403,0,2.353-1.479,2.353-2.885v-1.271C182.518,222.249,181.568,221.2,180.165,221.2"/>
		<path fill="#CED5D7" d="M159.395,194.829l-28.573,28.573h26.476c1.371,0,2.067-0.847,2.096-2.202
			c0.001-0.03,0.001-0.059,0.001-0.089V194.829 M159.395,174.953h-8.03v9.177h8.03V174.953"/>
		<path fill="#414347" d="M125.862,26.304c-0.912,0-1.652-0.741-1.652-1.653S124.95,23,125.862,23c0.912,0,1.652,0.74,1.652,1.652
			S126.774,26.304,125.862,26.304 M243.655,19.697H121.957v11.011H234.27v133.234h-82.906v11.011h8.03h84.261
			c1.215,0,2.727-0.892,2.727-2.11V21.993C246.382,20.778,244.87,19.697,243.655,19.697"/>
		<path fill="#E4E4E4" d="M234.27,30.708H121.957V43.18c0-1.358,1.419-2.459,2.729-2.459l82.839,10.968
			c1.308,0,2.521,1.1,2.521,2.458v99.821c0,1.358-1.035,2.457-2.342,2.457l-56.339-7.441v14.957h82.906V30.708"/>
		<path fill="#31B35F" d="M125.862,23c-0.912,0-1.652,0.74-1.652,1.652s0.74,1.653,1.652,1.653c0.912,0,1.652-0.741,1.652-1.653
			S126.774,23,125.862,23"/>
		<path fill="#C5DAE0" d="M124.686,40.721c-1.31,0-2.729,1.101-2.729,2.459v94.124h29.407v11.68l56.339,7.441
			c1.308,0,2.342-1.099,2.342-2.457V54.147c0-1.358-1.213-2.458-2.521-2.458L124.686,40.721"/>
		<polyline fill="#4AA365" points="151.364,137.305 121.957,137.305 121.957,229.64 123.271,230.953 126.415,227.807 
			130.822,223.402 159.395,194.829 170.094,184.13 159.395,184.13 151.364,184.13 151.364,174.953 151.364,163.942 151.364,148.985 
			151.364,137.305 		"/>
		<path fill="#EF6060" d="M77.912,102.187c9.809,0,15.773-3.174,19.031-6.506c0.043-1.272,0.068-2.522,0.068-3.044
			c0-7.066-3.848-13.221-9.55-16.522v5.381v4.774v1.592c0,0.877-0.714,1.592-1.591,1.592c-0.875,0-1.591-0.715-1.591-1.592v-1.592
			v-4.246v-0.528v-9.022c0-2.928-2.374-5.303-5.303-5.303h-2.119c-2.934,0-5.309,2.375-5.309,5.303v9.022v0.528v4.246v1.592
			c0,0.877-0.716,1.592-1.594,1.592c-0.876,0-1.589-0.715-1.589-1.592v-1.592v-4.774v-5.381c-5.702,3.301-9.551,9.456-9.551,16.522
			c0,0.523,0.026,1.772,0.074,3.044C62.138,99.013,68.101,102.187,77.912,102.187z"/>
		<path fill="#EF6060" d="M100.195,95.821c-2.594,3.97-10.327,12.733-22.282,12.733c-11.95,0-19.69-8.763-22.283-12.733
			c-3.313,0.73-3.183,2.947-3.183,5.455c0,7.278,12.734,16.828,22.283,16.828c3.183,0,0,0,6.366,0
			c9.55,0,22.282-9.551,22.282-16.828C103.378,98.768,103.509,96.551,100.195,95.821z"/>
		<path fill="#5C7DAD" d="M176.483,83.976v-6.323h-7.384c-0.149-1.045-0.287-2.355,0.028-2.721c0.245-0.286,1.337-0.774,3.861-0.774
			v-6.987c-4.321,0-7.321,1.054-9.171,3.222c-1.937,2.258-2.005,4.998-1.76,7.26h-6.538v6.323
			c-6.258,3.624-10.482,10.38-10.482,18.135c0,11.581,9.389,20.964,20.964,20.964c11.581,0,20.964-9.383,20.964-20.964
			C186.965,94.356,182.741,87.6,176.483,83.976z M178.339,98.654l-0.853,0.222c-0.607,0-1.201-0.32-1.522-0.892
			c-0.806-1.43-1.871-2.666-3.174-3.675c-1.301-1.011-2.77-1.736-4.353-2.157c-1.529-0.405-3.105-0.507-4.675-0.31
			c-1.576,0.201-3.078,0.697-4.456,1.471c-1.426,0.798-2.66,1.867-3.671,3.173c-0.587,0.767-1.685,0.904-2.45,0.313
			c-0.765-0.589-0.901-1.688-0.315-2.45c1.304-1.682,2.896-3.054,4.724-4.084c1.774-0.994,3.697-1.63,5.724-1.89
			c2.021-0.259,4.04-0.123,6.013,0.399c2.04,0.543,3.917,1.474,5.595,2.771c1.68,1.297,3.052,2.89,4.082,4.732
			C179.485,97.116,179.184,98.181,178.339,98.654z"/>
	</g>
</g>
</svg>
