<?xml version="1.0" encoding="utf-8"?>
<!-- Generator: Adobe Illustrator 17.0.1, SVG Export Plug-In . SVG Version: 6.00 Build 0)  -->
<!DOCTYPE svg PUBLIC "-//W3C//DTD SVG 1.1//EN" "http://www.w3.org/Graphics/SVG/1.1/DTD/svg11.dtd">
<svg version="1.1" id="Layer_1" xmlns="http://www.w3.org/2000/svg" xmlns:xlink="http://www.w3.org/1999/xlink" x="0px" y="0px"
	 width="250px" height="250px" viewBox="0 0 250 250" enable-background="new 0 0 250 250" xml:space="preserve">
<g>
	<path fill="#E96F6F" d="M182.18,128.478c0,2.628-2.131,4.758-4.758,4.758H154.82c-2.628,0-4.758-2.131-4.758-4.758v-22.602
		c0-2.628,2.131-4.758,4.758-4.758h22.602c2.628,0,4.758,2.131,4.758,4.758V128.478"/>
	<path fill="#E96F6F" d="M97.721,196.283c0,2.628-2.131,4.758-4.758,4.758H70.361c-2.628,0-4.758-2.131-4.758-4.758L45.38,147.511
		c0-2.628,2.131-4.758,4.758-4.758H72.74c2.628,0,4.758,2.131,4.758,4.758L97.721,196.283z"/>
	<path fill="#E96F6F" d="M25.157,132.047c0,2.628-2.131,4.758-4.758,4.758H9.693c-2.628,0-4.758-2.131-4.758-4.758v-30.929
		c0-2.628,2.131-4.758,4.758-4.758h10.706c2.628,0,4.758,2.131,4.758,4.758V132.047z"/>
	<path fill="#F4F4F2" d="M15.577,135.418c0.793,8.724,9.898,15.998,15.761,17.446c33.208,8.209,52.796,7.931,75.001,14.275
		s55.619,35.687,55.619,35.687V30.338c0,0-33.44,29.343-55.645,35.687S55.095,73.163,31.304,80.3
		c-5.784,1.736-14.901,8.722-15.693,17.446C14.816,106.471,14.783,126.693,15.577,135.418"/>
	<path fill="#E96F6F" d="M166.254,203.123c0,2.628-2.131,5.056-4.758,5.056h-3.569c-2.628,0-4.758-2.428-4.758-5.056
		c0,0,4.758-59.232,4.758-86.195s-4.758-86.218-4.758-86.218c0-2.628,2.131-4.535,4.758-4.535h3.569
		c2.628,0,4.758,1.833,4.758,4.461c0,0,4.758,60.416,4.758,86.441S166.254,203.123,166.254,203.123"/>
	<path fill="#8C919C" d="M60.844,108.98c0,1.571-1.273,2.844-2.844,2.844H38.707c-1.571,0-2.844-1.273-2.844-2.844v-0.26
		c0-1.571,1.273-2.844,2.844-2.844H58c1.571,0,2.844,1.273,2.844,2.844V108.98z"/>
	<path fill="#8C919C" d="M60.844,93.516c0,1.571-1.273,2.844-2.844,2.844H38.707c-1.571,0-2.844-1.273-2.844-2.844v-0.26
		c0-1.571,1.273-2.844,2.844-2.844H58c1.571,0,2.844,1.273,2.844,2.844V93.516z"/>
	<path fill="#8C919C" d="M60.844,123.255c0,1.571-1.273,2.844-2.844,2.844H38.707c-1.571,0-2.844-1.273-2.844-2.844v-0.26
		c0-1.571,1.273-2.844,2.844-2.844H58c1.571,0,2.844,1.273,2.844,2.844V123.255z"/>
	<path fill="#8C919C" d="M60.844,138.719c0,1.571-1.273,2.844-2.844,2.844H38.707c-1.571,0-2.844-1.273-2.844-2.844v-0.26
		c0-1.571,1.273-2.844,2.844-2.844H58c1.571,0,2.844,1.273,2.844,2.844V138.719z"/>
	<path fill="#64C2C7" d="M171.474,161.767v-4.758c21.412,0,39.932-17.913,39.932-39.932s-18.52-39.932-39.932-39.932v-4.758
		c23.791,0,44.69,20.048,44.69,44.69C216.164,141.719,195.266,161.767,171.474,161.767"/>
	<path fill="#64C2C7" d="M171.474,191.776v-4.758c38.066,0,69.941-31.375,69.941-69.941s-31.874-69.941-69.941-69.941v-4.758
		c40.445,0,74.699,33.51,74.699,74.699S211.92,191.776,171.474,191.776"/>
	<path fill="#D06363" d="M177.422,101.118h-6.782c0.232,6.014,0.372,11.493,0.372,15.959c0,4.524-0.144,10.075-0.381,16.159h6.791
		c2.628,0,4.758-2.131,4.758-4.758v-22.602C182.18,103.248,180.05,101.118,177.422,101.118"/>
	<path fill="#DADAD8" d="M153.674,37.218c-8.911,7.136-23.597,18.142-36.92,24.655V171.28c13.348,6.522,28.062,17.561,36.967,24.7
		c1.255-16.569,4.205-57.818,4.205-79.052C157.927,95.416,154.898,53.347,153.674,37.218"/>
	<path fill="#D06363" d="M161.495,26.175h-3.569c-2.628,0-4.758,1.907-4.758,4.535c0,0,0.195,2.421,0.505,6.508
		c1.224,16.129,4.253,58.198,4.253,79.71c0,21.233-2.951,62.483-4.205,79.052c-0.338,4.47-0.553,7.143-0.553,7.143
		c0,2.628,2.131,5.056,4.758,5.056h3.569c2.628,0,4.758-2.428,4.758-5.056c0,0,3.248-40.968,4.377-69.887
		c0.237-6.084,0.381-11.636,0.381-16.159c0-4.467-0.139-9.945-0.372-15.959c-1.121-29.024-4.387-70.482-4.387-70.482
		C166.254,28.008,164.123,26.175,161.495,26.175"/>
	<path fill="#59ADB2" d="M171.474,72.387v4.758c21.412,0,39.932,17.913,39.932,39.932s-18.52,39.932-39.932,39.932v4.758
		c23.791,0,44.69-20.048,44.69-44.69C216.164,92.435,195.266,72.387,171.474,72.387"/>
	<path fill="#59ADB2" d="M171.474,42.378v4.758c38.066,0,69.941,31.375,69.941,69.941s-31.874,69.941-69.941,69.941v4.758
		c40.445,0,74.699-33.51,74.699-74.699S211.92,42.378,171.474,42.378"/>
</g>
</svg>
