<?xml version="1.0" encoding="utf-8"?>
<!-- Generator: Adobe Illustrator 17.0.1, SVG Export Plug-In . SVG Version: 6.00 Build 0)  -->
<!DOCTYPE svg PUBLIC "-//W3C//DTD SVG 1.1//EN" "http://www.w3.org/Graphics/SVG/1.1/DTD/svg11.dtd">
<svg version="1.1" id="Layer_1" xmlns="http://www.w3.org/2000/svg" xmlns:xlink="http://www.w3.org/1999/xlink" x="0px" y="0px"
	 width="250px" height="250px" viewBox="0 0 250 250" enable-background="new 0 0 250 250" xml:space="preserve">
<g>
	<rect x="124.52" y="238.982" fill="#017472" width="107.356" height="7.321"/>
	<rect x="124.52" y="124.307" fill="#008D8A" width="107.356" height="114.674"/>
	<rect x="124.52" y="204.824" fill="#66BBB8" width="82.956" height="7.321"/>
	<rect x="124.52" y="156.025" fill="#66BBB8" width="82.956" height="7.321"/>
	<rect x="124.52" y="141.385" fill="#66BBB8" width="82.956" height="7.321"/>
	<rect x="153.797" y="156.025" fill="#66BBB8" width="7.321" height="56.119"/>
	<rect x="22.043" y="238.982" fill="#01817E" width="102.471" height="7.321"/>
	<rect x="22.043" y="124.307" fill="#009E9B" width="102.476" height="114.674"/>
	<rect x="46.443" y="204.824" fill="#72D2CF" width="78.077" height="7.321"/>
	<rect x="46.443" y="156.025" fill="#72D2CF" width="78.077" height="7.321"/>
	<rect x="46.443" y="141.385" fill="#72D2CF" width="78.077" height="7.321"/>
	<rect x="90.36" y="156.025" fill="#72D2CF" width="7.321" height="56.119"/>
	<rect x="17.164" y="97.468" fill="#00C3BF" width="219.59" height="26.84"/>
	<polygon fill="#008A87" points="105,124.307 131.84,124.307 156.239,97.468 129.399,97.468 	"/>
	<polygon fill="#008A87" points="175.758,124.307 202.597,124.307 226.996,97.468 200.158,97.468 	"/>
	<polygon fill="#008A87" points="36.683,124.307 63.522,124.307 87.921,97.468 61.082,97.468 	"/>
	<polygon fill="#00C3BF" points="15.205,64.345 22.487,90.171 233.834,30.558 226.548,4.725 	"/>
	<polygon fill="#008A87" points="107.026,66.326 132.86,59.04 149.058,26.588 123.223,33.87 	"/>
	<polygon fill="#008A87" points="175.13,47.117 200.957,39.833 217.155,7.376 191.321,14.661 	"/>
	<polygon fill="#008A87" points="41.277,84.872 67.105,77.588 83.303,45.133 57.476,52.421 	"/>
	<rect x="14.724" y="77.948" fill="#008A87" width="12.199" height="31.72"/>
</g>
</svg>
