<?xml version="1.0" encoding="utf-8"?>
<!-- Generator: Adobe Illustrator 17.0.1, SVG Export Plug-In . SVG Version: 6.00 Build 0)  -->
<!DOCTYPE svg PUBLIC "-//W3C//DTD SVG 1.1//EN" "http://www.w3.org/Graphics/SVG/1.1/DTD/svg11.dtd">
<svg version="1.1" id="Layer_1" xmlns="http://www.w3.org/2000/svg" xmlns:xlink="http://www.w3.org/1999/xlink" x="0px" y="0px"
	 width="250px" height="250px" viewBox="0 0 250 250" enable-background="new 0 0 250 250" xml:space="preserve">
<g>
	<path fill-rule="evenodd" clip-rule="evenodd" fill="#F4CC67" d="M38.621,107.187c0,0.685-0.637,1.064-1.109,1.064h-2.997
		c-0.473,0,0.15-0.379,0.15-1.064V69.943c0-0.686-0.623-1.242-0.15-1.242h2.997c0.473,0,1.109,0.556,1.109,1.242V107.187z"/>
	<path fill-rule="evenodd" clip-rule="evenodd" fill="#404040" d="M61.773,166.422c0,10.193,40.127,9.064,63.073,22.905
		c23.525-12.853,63.076-12.549,63.076-22.741V90.454H61.61L61.773,166.422"/>
	<path fill="#EF6060" d="M124.641,110.996c-2.152,0-4.245,0.242-6.262,0.689v28.227c0,3.459,2.819,6.279,6.28,6.279
		c3.458,0,6.278-2.82,6.278-6.279c0-3.318-2.596-6.046-5.86-6.264v-5.027c6.029,0.221,10.881,5.207,10.881,11.291
		c0,6.224-5.078,11.301-11.299,11.301c-6.228,0-11.304-5.077-11.304-11.301v-26.627c-0.713,0.303-1.407,0.64-2.091,0.997v25.629
		c0,7.378,6.018,13.395,13.395,13.395c7.379,0,13.395-6.018,13.395-13.395c0-7.236-5.793-13.163-12.977-13.386V121.5
		c9.952,0.225,17.998,8.408,17.998,18.411c0,10.145-8.273,18.417-18.416,18.417c-10.145,0-18.419-8.272-18.419-18.417v-22.297
		c-6.408,5.3-10.49,13.31-10.49,22.275c0,15.959,12.935,28.896,28.891,28.896c15.962,0,28.893-12.937,28.893-28.896
		C153.534,123.933,140.603,110.996,124.641,110.996"/>
	<path fill-rule="evenodd" clip-rule="evenodd" fill="#8C919C" d="M5.044,77.893l113.335,34.468
		c6.386,1.369,8.786,1.373,13.17-0.234l112.731-34.859v-5.601H5.003L5.044,77.893"/>
	<path fill-rule="evenodd" clip-rule="evenodd" fill="#54575B" d="M131.662,107.122c-6.526,1.798-8.009,1.629-13.221,0.171
		L6.156,73.691c-1.774-1.774-1.034-4.002,1.364-5.307l115.575-26.352c4.498-1.089,7.479-1.133,10.629-0.251l108.82,26.63
		c2.972,1.402,2.848,4.369-0.078,5.89L131.662,107.122"/>
	<path fill-rule="evenodd" clip-rule="evenodd" fill="#F4CC67" d="M41.332,184.861c0,24.807-2.156,17.679-4.817,17.679
		c-2.659,0-4.816,7.127-4.816-17.679c0-42.311,2.157-76.61,4.816-76.61C39.176,108.251,41.332,142.55,41.332,184.861z"/>
	<ellipse fill-rule="evenodd" clip-rule="evenodd" fill="#F4CC67" cx="36.666" cy="108.504" rx="4.616" ry="4.507"/>
	<polyline fill="#8C919C" points="128.564,43.159 124.947,77.105 242.304,71.711 128.564,43.159 	"/>
	<polyline fill="#404040" points="124.559,105.462 124.947,77.105 10.194,71.42 124.559,105.462 	"/>
	<path fill="#393939" d="M125.077,128.62v5.027c3.264,0.218,5.86,2.946,5.86,6.264c0,3.459-2.82,6.279-6.278,6.279
		c-0.006,0-0.011,0-0.016,0v5.022c0.004,0,0.011,0,0.011,0c6.227,0,11.305-5.077,11.305-11.301
		C135.958,133.827,131.106,128.841,125.077,128.62 M125.077,121.5v5.026c7.185,0.223,12.977,6.15,12.977,13.386
		c0,7.378-6.017,13.395-13.395,13.395c0,0-0.011,0-0.016,0v5.021c0.004,0,0.01,0,0.016,0c10.143,0,18.416-8.272,18.416-18.417
		C143.075,129.908,135.028,121.725,125.077,121.5 M187.922,94.695l-55.843,17.268c12.354,3.281,21.455,14.541,21.455,27.927
		c0,15.959-12.932,28.896-28.893,28.896l0.002,20.419c0.068,0.041,0.135,0.082,0.204,0.123
		c23.525-12.853,63.076-12.549,63.076-22.741V94.695"/>
	<path fill="#D55656" d="M132.079,111.963l-0.53,0.164c-2.277,0.835-4.018,1.235-6.06,1.235c-0.277,0-0.557-0.008-0.847-0.022
		v32.851c0.004,0,0.01,0,0.016,0c3.458,0,6.278-2.82,6.278-6.279c0-3.318-2.596-6.046-5.86-6.264v-5.027
		c6.029,0.221,10.881,5.207,10.881,11.291c0,6.224-5.078,11.301-11.299,11.301c0,0-0.011,0-0.016,0v2.094c0.004,0,0.011,0,0.011,0
		c7.384,0,13.401-6.018,13.401-13.395c0-7.236-5.793-13.163-12.977-13.386V121.5c9.952,0.225,17.998,8.408,17.998,18.411
		c0,10.145-8.273,18.417-18.416,18.417c-0.006,0-0.011,0-0.016,0v10.457c15.96,0,28.892-12.937,28.892-28.896
		C153.534,126.504,144.433,115.244,132.079,111.963"/>
	<path fill="#7D828B" d="M244.281,72.715c-0.372,0.6-0.979,1.152-1.814,1.586l-110.805,32.821c-3.214,0.885-5.206,1.294-7.02,1.306
		v4.912c0.289,0.015,0.57,0.022,0.847,0.022c2.042,0,3.783-0.4,6.06-1.235l0.53-0.164l55.843-17.268l56.359-17.428V72.715"/>
	<path fill="#4B4E51" d="M124.947,77.105l3.617-33.946l113.739,28.552L124.947,77.105 M129.295,41.163
		c-1.404,0-2.914,0.172-4.653,0.524V77.09l0.304,0.015l-0.304,22.289v9.034c1.814-0.012,3.805-0.421,7.02-1.306l110.805-32.821
		c0.835-0.434,1.442-0.986,1.814-1.586c0.931-1.501,0.387-3.303-1.736-4.304l-108.82-26.63
		C132.268,41.373,130.848,41.163,129.295,41.163"/>
	<polyline fill="#7D828B" points="124.947,43.159 124.947,77.105 242.304,71.711 128.564,43.159 	"/>
	<polyline fill="#393939" points="124.643,77.09 124.643,99.394 124.947,77.105 124.643,77.09 	"/>
</g>
</svg>
