<?xml version="1.0" encoding="utf-8"?>
<!-- Generator: Adobe Illustrator 17.0.1, SVG Export Plug-In . SVG Version: 6.00 Build 0)  -->
<!DOCTYPE svg PUBLIC "-//W3C//DTD SVG 1.1 Basic//EN" "http://www.w3.org/Graphics/SVG/1.1/DTD/svg11-basic.dtd">
<svg version="1.1" baseProfile="basic" id="Layer_1"
	 xmlns="http://www.w3.org/2000/svg" xmlns:xlink="http://www.w3.org/1999/xlink" x="0px" y="0px" width="138px" height="58px"
	 viewBox="0 0 138 58" xml:space="preserve">
<g>
	<g>
		<rect x="-0.242" y="8.319" fill-rule="evenodd" clip-rule="evenodd" fill="#A63F8B" width="49.681" height="49.681"/>
		<g>
			<path fill="#FFFFFF" d="M44.634,32.689c-0.003-0.7-0.101-1.332-0.292-1.893c-0.191-0.56-0.453-1.052-0.789-1.472
				c-0.336-0.42-0.724-0.77-1.163-1.052c-0.442-0.28-0.913-0.49-1.414-0.63c-0.505-0.14-1.016-0.21-1.54-0.21s-1.035,0.07-1.54,0.21
				c-0.503,0.14-0.973,0.35-1.412,0.63c-0.442,0.282-0.83,0.633-1.166,1.052c-0.335,0.42-0.598,0.912-0.789,1.472
				c-0.191,0.56-0.288,1.192-0.292,1.893c0.005,0.702,0.101,1.335,0.292,1.897c0.191,0.56,0.454,1.052,0.789,1.475
				c0.336,0.42,0.724,0.773,1.166,1.053c0.439,0.282,0.91,0.492,1.412,0.632c0.504,0.14,1.016,0.21,1.54,0.21s1.035-0.07,1.54-0.21
				c0.502-0.14,0.973-0.349,1.414-0.632c0.439-0.28,0.828-0.633,1.163-1.053c0.335-0.422,0.598-0.912,0.789-1.475
				C44.533,34.024,44.631,33.391,44.634,32.689L44.634,32.689z M24.458,37.743v-2.046l3.792-8.221h1.115l4.576,9.891v0.376h-2.534
				l-2.607-5.938l-2.577,5.938H24.458L24.458,37.743z M24.458,29.22l0.77-1.614h-0.77V29.22z M24.458,27.605v1.614l-0.335,0.703
				h-3.539c-0.278,0-0.568,0-0.867,0c-0.302,0-0.634,0-1.004,0v1.434h3.862l-0.968,2.303h-2.894c0,0.297,0,0.591,0,0.886
				c0,0.294,0,0.591,0,0.895c0.37,0,0.71,0,1.021,0c0.311,0,0.616,0,0.907,0c0.295,0,0.599,0,0.915,0c0.314,0,1.214,0,1.591,0
				l-1.106,2.303h-1.13h-1.557c-0.51,0-1.028,0-1.555,0c-0.526,0-1.081,0-1.666,0c0-1.694,0-3.389,0-5.081c0-1.689,0-3.377,0-5.057
				c0.582,0,1.132,0,1.644,0c0.514,0,1.019,0,1.511,0c0.49,0,0.994,0,1.514,0H24.458L24.458,27.605z M24.458,35.697l-0.77,1.67
				v0.376h0.77V35.697L24.458,35.697z M6.707,37.772h5.996v1.115h2.129v-3.389h-1.058l-3.591-8.023H9.067l-3.476,8.023H4.564v3.389
				h2.143V37.772z"/>
			<path fill="#A63F8B" d="M36.9,32.689c0.003,0.458,0.077,0.862,0.22,1.207c0.14,0.345,0.333,0.632,0.575,0.861
				c0.241,0.23,0.514,0.404,0.813,0.519c0.302,0.114,0.613,0.172,0.934,0.172c0.321,0,0.633-0.058,0.934-0.172
				c0.302-0.115,0.572-0.289,0.813-0.519c0.241-0.229,0.435-0.516,0.577-0.861c0.142-0.345,0.215-0.748,0.217-1.207
				c-0.002-0.456-0.075-0.855-0.217-1.198c-0.142-0.342-0.335-0.627-0.577-0.856c-0.241-0.227-0.512-0.398-0.813-0.512
				c-0.302-0.113-0.613-0.171-0.934-0.171c-0.321,0-0.632,0.058-0.934,0.171c-0.299,0.114-0.572,0.285-0.813,0.512
				c-0.241,0.229-0.434,0.514-0.575,0.856C36.978,31.834,36.903,32.233,36.9,32.689z"/>
			<polygon fill="#A63F8B" points="9.64,31.944 11.06,35.498 8.277,35.498 			"/>
		</g>
	</g>
	<g>
		<rect x="49.439" y="27.759" fill-rule="evenodd" clip-rule="evenodd" fill="#009D9B" width="30.241" height="30.241"/>
		<g>
			<path fill="#FFFFFF" d="M68.093,40.925c-0.003-0.442-0.085-0.849-0.246-1.226c-0.162-0.377-0.386-0.705-0.676-0.987
				c-0.288-0.283-0.62-0.503-1.002-0.662c-0.381-0.157-0.792-0.237-1.234-0.239h-4.33v10.138h4.75
				c0.519-0.003,0.972-0.087,1.366-0.251c0.391-0.166,0.719-0.393,0.985-0.688c0.263-0.292,0.464-0.63,0.599-1.016
				c0.135-0.386,0.202-0.801,0.207-1.245c0-0.453-0.099-0.857-0.299-1.214c-0.201-0.357-0.504-0.642-0.917-0.857
				c0.164-0.138,0.306-0.305,0.424-0.5c0.118-0.195,0.21-0.4,0.275-0.618C68.059,41.342,68.093,41.13,68.093,40.925L68.093,40.925z"
				/>
			<path fill="#009D9B" d="M63.111,40.128v1.608h1.637c0.171-0.002,0.314-0.044,0.429-0.118c0.114-0.077,0.198-0.176,0.256-0.299
				c0.055-0.121,0.084-0.251,0.084-0.386c0-0.138-0.031-0.266-0.089-0.386c-0.058-0.123-0.145-0.222-0.261-0.299
				c-0.115-0.077-0.26-0.116-0.435-0.118H63.111L63.111,40.128z M65.167,43.98h-2.056v1.666h2.071
				c0.174-0.003,0.319-0.044,0.435-0.123c0.113-0.079,0.2-0.184,0.258-0.309c0.056-0.126,0.085-0.259,0.082-0.401
				c0-0.143-0.031-0.275-0.089-0.401c-0.061-0.126-0.148-0.229-0.263-0.309C65.486,44.024,65.341,43.983,65.167,43.98z"/>
		</g>
	</g>
	<g>
		<rect x="79.679" y="-0.321" fill-rule="evenodd" clip-rule="evenodd" fill="#EA5921" width="58.321" height="58.321"/>
		<g>
			<path fill="#FFFFFF" d="M134.255,25.305c-0.589,0-3.909,0-4.426,0c-0.519,0-1.023,0-1.513,0c-0.493,0-0.997,0-1.511,0
				c-0.511,0-1.062,0-1.644,0c0,1.68,0,3.367,0,5.056c0,1.692,0,3.387,0,5.081c0.584,0,1.139,0,1.666,0c0.526,0,1.045,0,1.554,0
				h1.557h1.129l1.106-2.303c-0.377,0-1.277,0-1.591,0c-0.316,0-0.62,0-0.915,0c-0.292,0-0.596,0-0.907,0c-0.311,0-0.652,0-1.021,0
				c0-0.304,0-0.601,0-0.895c0-0.295,0-0.589,0-0.886h2.894l0.967-2.303h-3.861v-1.433c0.369,0,0.702,0,1.004,0
				c0.299,0,0.589,0,0.867,0h3.539L134.255,25.305L134.255,25.305z M111.598,30.574v-3.502l1.854-1.81h0.941v10.181
				c-0.442,0-0.886,0-1.335,0c-0.446,0-0.896,0-1.345,0V30.46L111.598,30.574L111.598,30.574z M111.598,24.111v-1.92h1.928
				L111.598,24.111L111.598,24.111z M118.376,27.622v7.82c0.854,0,1.709,0,2.563,0v-7.82h2.476c0-0.391,0-0.78,0-1.163
				c0-0.386,0-0.77,0-1.154h-7.531c0,0.384,0,0.768,0,1.154c0,0.384,0,0.772,0,1.163H118.376z M111.598,22.191v1.92l-1.928,1.92
				v-3.84H111.598L111.598,22.191z M111.598,27.071l-3.273,3.194v-4.96c-0.883,0-1.767,0-2.65,0v10.137h0.927l4.996-4.869V27.071
				L111.598,27.071z M101.721,35.442h2.534v-0.376l-4.576-9.891h-1.115l-4.562,9.891v0.376h2.534l0.594-1.274h3.997L101.721,35.442
				L101.721,35.442z M83.424,30.373c0.007,0.69,0.106,1.311,0.299,1.864c0.193,0.551,0.458,1.036,0.794,1.451
				c0.338,0.413,0.727,0.758,1.166,1.035c0.439,0.275,0.91,0.483,1.41,0.62c0.502,0.135,1.011,0.203,1.53,0.2
				c0.434,0,0.864-0.045,1.291-0.14c0.43-0.094,0.838-0.241,1.224-0.442c0.388-0.198,0.741-0.456,1.059-0.77
				c0.316-0.314,0.582-0.69,0.796-1.13c0.212-0.436,0.36-0.943,0.437-1.515c-0.439,0-0.864,0-1.28,0c-0.415,0-0.837,0-1.27,0
				c-0.094,0.362-0.249,0.664-0.463,0.907c-0.215,0.241-0.476,0.425-0.782,0.546c-0.307,0.123-0.645,0.184-1.014,0.184
				c-0.384-0.007-0.732-0.085-1.04-0.234c-0.312-0.152-0.575-0.357-0.797-0.615c-0.22-0.261-0.388-0.558-0.504-0.893
				c-0.118-0.335-0.179-0.69-0.179-1.067c0.002-0.565,0.108-1.057,0.316-1.479c0.208-0.422,0.497-0.75,0.873-0.985
				c0.377-0.237,0.821-0.357,1.331-0.36c0.545-0.003,1.004,0.119,1.378,0.36c0.376,0.244,0.654,0.62,0.838,1.132
				c0.292,0,0.579,0,0.856,0c0.278,0,0.558,0,0.835,0s0.562,0,0.857,0c-0.082-0.541-0.229-1.021-0.444-1.441
				c-0.215-0.42-0.48-0.782-0.797-1.086c-0.316-0.304-0.669-0.553-1.052-0.748c-0.384-0.198-0.787-0.342-1.207-0.437
				c-0.42-0.094-0.842-0.14-1.264-0.14c-0.519,0-1.029,0.07-1.53,0.208c-0.5,0.14-0.97,0.348-1.41,0.625
				c-0.439,0.277-0.828,0.623-1.166,1.038c-0.335,0.415-0.601,0.898-0.794,1.45C83.53,29.063,83.432,29.683,83.424,30.373
				L83.424,30.373z"/>
			<polygon fill="#EA5921" points="99.115,29.505 98.072,31.836 100.187,31.836 			"/>
		</g>
	</g>
</g>
</svg>
