<?xml version="1.0" encoding="utf-8"?>
<!-- Generator: Adobe Illustrator 17.0.1, SVG Export Plug-In . SVG Version: 6.00 Build 0)  -->
<!DOCTYPE svg PUBLIC "-//W3C//DTD SVG 1.1 Basic//EN" "http://www.w3.org/Graphics/SVG/1.1/DTD/svg11-basic.dtd">
<svg version="1.1" baseProfile="basic" id="Layer_1"
	 xmlns="http://www.w3.org/2000/svg" xmlns:xlink="http://www.w3.org/1999/xlink" x="0px" y="0px" width="185px" height="138px"
	 viewBox="0 0 185 138" xml:space="preserve">
<g>
	<rect x="-1" y="-0.255" fill-rule="evenodd" clip-rule="evenodd" fill="#A63F8B" width="85.942" height="85.942"/>
	<g>
		<path fill="#FFFFFF" d="M76.629,41.901c-0.005-1.211-0.175-2.305-0.506-3.273c-0.33-0.969-0.784-1.82-1.364-2.547
			c-0.582-0.726-1.253-1.332-2.013-1.821c-0.766-0.484-1.58-0.847-2.448-1.089c-0.872-0.242-1.757-0.363-2.664-0.363
			c-0.905,0-1.791,0.121-2.663,0.363c-0.869,0.242-1.683,0.605-2.442,1.089c-0.764,0.489-1.437,1.095-2.017,1.821
			c-0.58,0.727-1.036,1.578-1.365,2.547c-0.33,0.968-0.497,2.063-0.506,3.273c0.009,1.215,0.176,2.309,0.506,3.282
			c0.33,0.968,0.785,1.82,1.365,2.551c0.58,0.727,1.253,1.336,2.017,1.82c0.759,0.489,1.574,0.852,2.442,1.094
			c0.872,0.243,1.757,0.363,2.663,0.363c0.907,0,1.792-0.12,2.664-0.363c0.869-0.242,1.683-0.605,2.448-1.094
			c0.759-0.484,1.431-1.094,2.013-1.82c0.58-0.731,1.034-1.578,1.364-2.551C76.454,44.211,76.625,43.117,76.629,41.901
			L76.629,41.901z M41.727,50.645v-3.54l6.558-14.222h1.929l7.916,17.111v0.651h-4.384l-4.509-10.271l-4.459,10.271H41.727
			L41.727,50.645z M41.727,35.9l1.332-2.792h-1.332V35.9z M41.727,33.108V35.9l-0.582,1.217h-6.121c-0.48,0-0.981,0-1.499,0
			c-0.523,0-1.098,0-1.738,0v2.479h6.68l-1.674,3.983h-5.006c0,0.514,0,1.023,0,1.533s0,1.023,0,1.549c0.639,0,1.227,0,1.766,0
			c0.539,0,1.065,0,1.571,0c0.509,0,1.036,0,1.583,0c0.542,0,2.1,0,2.751,0l-1.912,3.983h-1.953h-2.693c-0.882,0-1.779,0-2.69,0
			c-0.91,0-1.87,0-2.881,0c0-2.931,0-5.862,0-8.789c0-2.923,0-5.841,0-8.748c1.007,0,1.958,0,2.843,0c0.89,0,1.762,0,2.614,0
			c0.847,0,1.721,0,2.619,0H41.727L41.727,33.108z M41.727,47.105l-1.332,2.889v0.651h1.332V47.105L41.727,47.105z M11.02,50.695
			h10.371v1.929h3.683v-5.862h-1.829l-6.214-13.879h-1.929L9.091,46.762h-1.78v5.862h3.709V50.695z"/>
		<path fill="#A63F8B" d="M63.251,41.901c0.005,0.794,0.134,1.491,0.38,2.088c0.243,0.597,0.577,1.094,0.995,1.491
			c0.418,0.396,0.888,0.697,1.406,0.898c0.523,0.197,1.06,0.297,1.616,0.297s1.094-0.1,1.616-0.297
			c0.521-0.2,0.989-0.501,1.406-0.898c0.418-0.396,0.752-0.894,0.998-1.491c0.246-0.597,0.372-1.294,0.375-2.088
			c-0.003-0.789-0.129-1.478-0.375-2.071c-0.246-0.592-0.58-1.085-0.998-1.482c-0.418-0.392-0.886-0.689-1.406-0.885
			c-0.523-0.197-1.06-0.297-1.616-0.297s-1.094,0.1-1.616,0.297c-0.518,0.196-0.989,0.493-1.406,0.885
			c-0.418,0.397-0.752,0.89-0.995,1.482C63.385,40.423,63.256,41.112,63.251,41.901z"/>
		<polygon fill="#A63F8B" points="16.095,40.613 18.549,46.762 13.736,46.762 		"/>
	</g>
</g>
<g>
	<rect x="32.629" y="85.687" fill-rule="evenodd" clip-rule="evenodd" fill="#009D9B" width="52.313" height="52.313"/>
	<g>
		<path fill="#FFFFFF" d="M64.897,108.461c-0.003-0.764-0.146-1.469-0.425-2.12c-0.279-0.652-0.668-1.22-1.169-1.708
			c-0.497-0.489-1.072-0.869-1.732-1.144c-0.661-0.271-1.37-0.409-2.134-0.413h-7.491v17.536h8.217
			c0.898-0.004,1.683-0.15,2.363-0.434c0.676-0.289,1.244-0.68,1.703-1.19c0.456-0.505,0.802-1.09,1.036-1.758
			c0.234-0.668,0.351-1.386,0.36-2.155c0-0.785-0.172-1.482-0.518-2.1c-0.346-0.618-0.873-1.11-1.587-1.482
			c0.284-0.238,0.53-0.526,0.735-0.864c0.205-0.339,0.363-0.693,0.475-1.069C64.84,109.183,64.897,108.817,64.897,108.461
			L64.897,108.461z"/>
		<path fill="#009D9B" d="M56.279,107.083v2.781h2.831c0.296-0.005,0.544-0.075,0.744-0.205c0.196-0.134,0.342-0.305,0.442-0.517
			c0.096-0.209,0.146-0.434,0.146-0.668c0-0.238-0.053-0.459-0.155-0.668c-0.099-0.213-0.249-0.384-0.451-0.517
			c-0.199-0.134-0.45-0.2-0.75-0.205H56.279L56.279,107.083z M59.837,113.747h-3.557v2.88h3.583
			c0.301-0.004,0.551-0.075,0.752-0.213c0.196-0.138,0.346-0.317,0.447-0.535c0.096-0.217,0.146-0.447,0.141-0.693
			c0-0.247-0.053-0.476-0.154-0.693c-0.105-0.217-0.255-0.396-0.456-0.535C60.389,113.823,60.137,113.751,59.837,113.747z"/>
	</g>
</g>
<g>
	<rect x="84.942" y="37.112" fill-rule="evenodd" clip-rule="evenodd" fill="#EA5921" width="100.887" height="100.888"/>
	<g>
		<path fill="#FFFFFF" d="M179.351,81.441c-1.019,0-6.762,0-7.657,0c-0.896,0-1.769,0-2.617,0c-0.852,0-1.724,0-2.614,0
			c-0.885,0-1.838,0-2.843,0c0,2.906,0,5.825,0,8.747c0,2.927,0,5.857,0,8.789c1.01,0,1.971,0,2.881,0c0.91,0,1.807,0,2.688,0h2.693
			h1.953l1.914-3.983c-0.652,0-2.208,0-2.752,0c-0.547,0-1.072,0-1.583,0c-0.504,0-1.031,0-1.569,0c-0.539,0-1.129,0-1.766,0
			c0-0.526,0-1.04,0-1.549c0-0.51,0-1.018,0-1.533h5.006l1.674-3.983h-6.68V85.45c0.638,0,1.215,0,1.737,0c0.517,0,1.018,0,1.498,0
			h6.123L179.351,81.441L179.351,81.441z M140.157,90.555v-6.059l3.208-3.13h1.628v17.611c-0.764,0-1.532,0-2.309,0
			c-0.773,0-1.549,0-2.325,0v-8.618L140.157,90.555L140.157,90.555z M140.157,79.375v-3.322h3.336L140.157,79.375L140.157,79.375z
			 M151.883,85.45v13.528c1.478,0,2.956,0,4.434,0V85.45h4.285c0-0.677,0-1.349,0-2.013c0-0.668,0-1.332,0-1.996h-13.027
			c0,0.664,0,1.327,0,1.996c0,0.664,0,1.336,0,2.013H151.883z M140.157,76.053v3.322l-3.334,3.321v-6.643H140.157L140.157,76.053z
			 M140.157,84.496l-5.661,5.525v-8.58c-1.528,0-3.056,0-4.586,0v17.536h1.604l8.642-8.422V84.496L140.157,84.496z M123.073,98.977
			h4.383v-0.652l-7.916-17.11h-1.929l-7.892,17.11v0.652h4.385l1.027-2.205h6.915L123.073,98.977L123.073,98.977z M91.42,90.209
			c0.012,1.195,0.184,2.268,0.518,3.224c0.334,0.952,0.794,1.791,1.373,2.51c0.585,0.713,1.258,1.31,2.017,1.791
			c0.761,0.476,1.575,0.835,2.439,1.073c0.869,0.234,1.748,0.351,2.647,0.346c0.75,0,1.495-0.079,2.233-0.242
			c0.744-0.163,1.449-0.418,2.117-0.764c0.673-0.342,1.282-0.789,1.833-1.332c0.547-0.542,1.006-1.194,1.378-1.954
			c0.368-0.756,0.623-1.632,0.757-2.622c-0.761,0-1.496,0-2.213,0c-0.718,0-1.449,0-2.198,0c-0.163,0.626-0.43,1.149-0.8,1.571
			c-0.372,0.418-0.823,0.734-1.353,0.944c-0.53,0.213-1.115,0.317-1.753,0.317c-0.664-0.014-1.267-0.147-1.8-0.405
			c-0.539-0.263-0.995-0.618-1.378-1.065c-0.381-0.451-0.673-0.964-0.873-1.545c-0.205-0.581-0.308-1.194-0.308-1.846
			c0.003-0.977,0.187-1.829,0.547-2.559c0.359-0.731,0.86-1.299,1.511-1.703c0.652-0.409,1.42-0.618,2.301-0.622
			c0.943-0.005,1.736,0.204,2.383,0.622c0.652,0.422,1.132,1.073,1.449,1.959c0.506,0,1.002,0,1.482,0c0.48,0,0.964,0,1.444,0
			c0.48,0,0.974,0,1.482,0c-0.141-0.936-0.396-1.767-0.768-2.493c-0.371-0.726-0.831-1.353-1.378-1.879
			c-0.547-0.526-1.156-0.956-1.82-1.294c-0.665-0.342-1.362-0.593-2.088-0.756c-0.726-0.163-1.457-0.242-2.187-0.242
			c-0.899,0-1.779,0.121-2.647,0.359c-0.864,0.242-1.678,0.601-2.439,1.081c-0.759,0.48-1.432,1.077-2.017,1.795
			c-0.579,0.718-1.039,1.553-1.373,2.509C91.604,87.942,91.432,89.015,91.42,90.209L91.42,90.209z"/>
		<polygon fill="#EA5921" points="118.563,88.706 116.759,92.739 120.416,92.739 		"/>
	</g>
</g>
</svg>
