<svg xmlns="http://www.w3.org/2000/svg" width="137.371" height="57.954"><path fill-rule="evenodd" clip-rule="evenodd" fill="#009E9C" d="M49.368 27.903h30.05v30.05h-30.05z"/><path fill="#fff" d="M72.235 38.604c-.005-.973-.186-1.872-.542-2.702-.356-.83-.851-1.553-1.489-2.175-.633-.623-1.367-1.106-2.208-1.458-.84-.346-1.745-.521-2.718-.526h-9.542v22.34h10.468c1.144-.005 2.144-.191 3.011-.553.861-.367 1.585-.867 2.17-1.516.58-.644 1.021-1.389 1.319-2.239.298-.851.447-1.766.457-2.745 0-1-.218-1.888-.66-2.675-.441-.788-1.111-1.415-2.021-1.888.361-.303.675-.67.936-1.101.26-.431.463-.883.606-1.362.139-.48.213-.948.213-1.4z"/><path fill="#009E9C" d="M65.788 45.337h-4.532v3.67h4.564c.383-.005.702-.096.958-.271.25-.175.441-.404.569-.681.122-.277.186-.569.181-.883 0-.314-.069-.606-.197-.883-.133-.277-.325-.505-.58-.681-.261-.175-.58-.265-.963-.271zm-4.532-8.489v3.543h3.606c.378-.006.691-.096.947-.261.25-.169.437-.388.564-.659.122-.266.186-.553.186-.851 0-.303-.069-.585-.196-.851-.128-.271-.319-.489-.575-.66-.255-.17-.574-.255-.958-.261h-3.574z"/><path fill-rule="evenodd" clip-rule="evenodd" fill="#EB5A22" d="M79.417 0h57.953v57.954h-57.953z"/><path fill="#fff" d="M97.367 28.993c.016 1.521.234 2.888.66 4.106.425 1.212 1.01 2.282 1.75 3.196.745.91 1.601 1.67 2.569 2.282.968.606 2.005 1.064 3.106 1.367 1.106.298 2.229.447 3.373.441.957 0 1.904-.101 2.846-.308.946-.208 1.845-.532 2.697-.973.856-.437 1.633-1.006 2.335-1.697.696-.692 1.282-1.522 1.755-2.49.469-.962.793-2.08.963-3.341h-5.617c-.207.798-.547 1.464-1.021 2-.474.532-1.048.937-1.723 1.203-.676.271-1.42.404-2.234.404-.846-.016-1.612-.186-2.292-.516-.687-.335-1.266-.787-1.756-1.356-.483-.575-.856-1.229-1.111-1.968-.261-.74-.394-1.521-.394-2.351.005-1.245.24-2.33.697-3.261.458-.932 1.095-1.654 1.925-2.17.83-.521 1.809-.788 2.932-.793 1.202-.005 2.213.261 3.037.793.83.537 1.441 1.366 1.846 2.494h5.617c-.182-1.191-.505-2.25-.979-3.175-.474-.926-1.059-1.724-1.756-2.394-.697-.67-1.473-1.218-2.319-1.649-.846-.436-1.734-.755-2.66-.963-.925-.207-1.856-.309-2.787-.309-1.144 0-2.266.155-3.373.458-1.101.309-2.138.766-3.106 1.378-.968.612-1.824 1.372-2.569 2.287-.739.915-1.325 1.979-1.75 3.197-.427 1.219-.645 2.587-.661 4.108z"/><path fill-rule="evenodd" clip-rule="evenodd" fill="#A73F8C" d="M0 8.586h49.368v49.368h-49.368z"/><path fill="#fff" d="M24.62 43.386h6.687v2.458h4.691v-7.469h-2.329l-7.916-17.68h-1.133v10.003l3.065 7.677h-3.065v5.011zm-6.527 0h6.526v-5.011h-3.065l3.003-7.833.062.156v-10.003h-1.324l-7.661 17.68h-2.264v7.469h4.723v-2.458z"/></svg>