<svg xmlns="http://www.w3.org/2000/svg" xmlns:xlink="http://www.w3.org/1999/xlink" preserveAspectRatio="xMidYMid" width="74" height="100" viewBox="0 0 74 100">
  <defs>
    <style>

      .cls-2 {
        fill: #000000;
        filter: url(#color-overlay-1);
      }
    </style>

    <filter id="color-overlay-1" filterUnits="userSpaceOnUse">
      <feFlood flood-color="#ec691f" flood-opacity="1"/>
      <feComposite operator="in" in2="SourceGraphic"/>
      <feBlend mode="normal" in2="SourceGraphic" result="colorOverlay"/>
    </filter>
  </defs>
  <path d="M35.209,26.907 C34.250,24.848 35.725,22.139 38.501,20.858 C40.365,19.998 42.339,20.003 43.727,20.722 C43.611,23.014 43.424,25.362 43.138,27.639 C42.780,27.892 42.393,28.123 41.972,28.317 C39.194,29.598 36.166,28.967 35.209,26.907 ZM71.647,70.100 C73.640,72.832 74.948,76.951 73.157,79.971 C71.051,83.527 67.085,84.421 63.269,85.326 C50.846,88.274 38.059,89.652 25.778,93.201 C25.778,93.201 26.560,95.595 26.560,95.595 C26.560,95.595 13.017,99.989 13.017,99.989 C13.017,99.989 -0.012,60.171 -0.012,60.171 C-0.012,60.171 13.531,55.778 13.531,55.778 C13.531,55.778 14.463,58.626 14.463,58.626 C14.463,58.626 14.563,58.931 14.563,58.931 C17.585,57.464 19.216,53.623 21.079,49.224 C23.763,42.891 26.804,35.714 35.152,32.867 C32.365,26.673 27.939,18.512 21.986,12.749 C21.986,12.749 21.201,11.989 21.201,11.989 C21.201,11.989 21.862,11.119 21.862,11.119 C22.314,10.525 33.081,-3.408 46.772,0.809 C46.772,0.809 47.544,1.046 47.544,1.046 C46.800,1.183 46.059,1.351 45.326,1.577 C45.326,1.577 43.439,2.160 43.439,2.160 C43.439,2.160 43.588,4.121 43.588,4.121 C43.593,4.172 43.673,5.272 43.748,7.070 C41.704,6.372 40.561,3.956 40.071,2.593 C35.086,3.112 30.767,5.966 27.841,8.498 C28.675,10.168 29.799,13.335 27.594,15.264 C32.267,21.079 35.721,27.866 37.953,33.014 C39.050,35.239 39.970,37.561 40.717,39.868 C41.175,39.621 41.636,39.374 42.100,39.127 C47.230,28.352 45.467,4.197 45.447,3.949 C45.447,3.949 45.374,2.968 45.374,2.968 C45.374,2.968 46.316,2.676 46.316,2.676 C60.007,-1.542 70.776,12.391 71.227,12.986 C71.227,12.986 71.887,13.856 71.887,13.856 C71.887,13.856 71.102,14.615 71.102,14.615 C65.515,20.023 61.276,27.541 58.472,33.566 C61.050,33.498 63.899,34.114 65.297,36.473 C66.848,39.086 66.623,42.356 65.770,45.265 C70.560,47.018 71.887,52.942 70.276,57.663 C73.845,60.908 73.710,65.932 71.647,70.100 ZM10.029,61.357 C10.029,61.357 6.073,62.640 6.073,62.640 C6.073,62.640 7.362,66.581 7.362,66.581 C7.362,66.581 11.318,65.296 11.318,65.296 C11.318,65.296 10.029,61.357 10.029,61.357 ZM35.222,33.024 C35.222,33.024 35.317,33.298 35.317,33.298 C35.323,33.289 35.328,33.281 35.335,33.272 C35.299,33.191 35.260,33.107 35.222,33.024 ZM65.495,17.130 C63.291,15.201 64.413,12.034 65.248,10.365 C62.322,7.833 58.003,4.978 53.018,4.459 C52.440,6.062 50.969,9.129 48.181,9.136 C48.297,13.009 48.315,18.505 47.856,24.077 C48.845,22.066 51.838,21.456 54.589,22.724 C57.364,24.005 58.839,26.714 57.880,28.773 C56.923,30.833 53.894,31.464 51.118,30.183 C49.271,29.331 48.006,27.849 47.644,26.345 C47.220,30.294 46.524,34.167 45.428,37.428 C48.692,35.847 52.101,34.495 55.576,33.885 C57.811,28.877 61.116,22.579 65.495,17.130 ZM67.311,70.968 C66.949,70.552 66.947,69.749 67.216,69.291 C69.157,65.971 69.735,62.078 66.243,59.622 C65.628,59.189 65.561,58.237 65.864,57.620 C67.527,54.214 66.895,49.224 62.481,48.704 C61.328,48.567 60.971,47.223 61.343,46.315 C61.427,46.106 61.842,44.823 62.018,43.970 C62.316,42.520 62.540,40.854 61.905,39.456 C61.056,37.587 58.357,37.757 56.691,38.011 C56.598,38.026 56.508,38.044 56.417,38.060 C56.408,38.080 56.399,38.103 56.390,38.124 C56.351,38.108 56.310,38.100 56.271,38.086 C50.769,39.029 45.541,41.863 40.717,44.488 C39.803,44.986 38.518,44.727 38.200,43.612 C37.600,41.517 37.104,39.801 36.359,38.000 C30.382,40.258 27.988,45.875 25.681,51.320 C23.637,56.148 20.791,61.608 16.094,63.554 C16.094,63.554 24.511,88.635 24.511,88.635 C34.641,85.700 45.960,84.333 56.284,82.247 C59.927,81.513 64.596,80.962 67.827,78.970 C71.011,77.006 69.224,73.173 67.311,70.968 Z" id="path-1" class="cls-2" fill-rule="evenodd"/>
</svg>
