<svg xmlns="http://www.w3.org/2000/svg" xmlns:xlink="http://www.w3.org/1999/xlink" preserveAspectRatio="xMidYMid" width="149" height="133" viewBox="0 0 149 133">
  <defs>
    <style>

      .cls-2 {
        fill: #000000;
        stroke: #ec691f;
        stroke-linejoin: round;
        stroke-width: 2px;
        filter: url(#color-overlay-1);
      }
    </style>

    <filter id="color-overlay-1" filterUnits="userSpaceOnUse">
      <feFlood flood-color="#ec691f" flood-opacity="1"/>
      <feComposite operator="in" in2="SourceGraphic"/>
      <feBlend mode="normal" in2="SourceGraphic" result="colorOverlay"/>
    </filter>
  </defs>
  <g id="smilessvg" style="fill: #000000; filter: url(#color-overlay-1);">
    <path d="M139.050,59.234 C131.794,66.490 119.986,66.490 112.730,59.233 C105.473,51.977 105.473,40.170 112.729,32.913 C119.986,25.656 131.793,25.656 139.050,32.913 C146.307,40.169 146.307,51.977 139.050,59.234 ZM137.458,34.505 C131.080,28.126 120.700,28.126 114.321,34.505 C107.943,40.883 107.943,51.262 114.322,57.641 C120.701,64.020 131.080,64.020 137.458,57.642 C143.837,51.263 143.837,40.884 137.458,34.505 ZM130.527,48.229 C129.574,47.276 129.574,45.731 130.527,44.778 C131.480,43.826 133.025,43.825 133.978,44.778 C134.930,45.731 134.930,47.276 133.977,48.229 C133.025,49.182 131.479,49.182 130.527,48.229 ZM119.915,52.317 C116.250,48.652 116.390,43.909 116.394,43.837 C116.394,43.837 118.643,43.930 118.643,43.930 C118.630,44.281 118.457,52.552 128.945,54.041 C128.945,54.041 128.629,56.270 128.629,56.270 C124.474,55.681 121.729,54.130 119.915,52.317 ZM124.047,41.749 C123.094,40.796 123.094,39.251 124.047,38.298 C125.000,37.345 126.544,37.345 127.497,38.298 C128.450,39.251 128.450,40.796 127.497,41.749 C126.544,42.701 125.000,42.702 124.047,41.749 ZM118.436,73.226 C123.987,74.713 127.293,80.440 125.806,85.991 C124.318,91.542 118.592,94.848 113.041,93.361 C107.490,91.873 104.184,86.147 105.671,80.596 C107.159,75.045 112.885,71.739 118.436,73.226 ZM113.367,92.143 C118.247,93.450 123.281,90.544 124.588,85.665 C125.895,80.785 122.989,75.751 118.110,74.444 C113.230,73.137 108.197,76.043 106.889,80.922 C105.582,85.802 108.488,90.835 113.367,92.143 ZM114.164,78.062 C114.164,78.062 114.749,79.179 114.749,79.179 C114.575,79.271 110.515,81.502 112.730,87.006 C112.730,87.006 111.560,87.477 111.560,87.477 C110.683,85.297 110.666,83.531 111.038,82.144 C111.789,79.340 114.128,78.080 114.164,78.062 ZM117.665,85.180 C118.394,85.375 118.826,86.124 118.631,86.853 C118.436,87.582 117.687,88.014 116.958,87.819 C116.229,87.624 115.796,86.874 115.991,86.146 C116.187,85.417 116.936,84.984 117.665,85.180 ZM117.320,81.189 C117.515,80.460 118.264,80.027 118.993,80.222 C119.722,80.418 120.155,81.167 119.959,81.896 C119.764,82.625 119.015,83.057 118.286,82.862 C117.557,82.667 117.124,81.917 117.320,81.189 ZM74.886,126.171 C67.414,121.681 64.988,111.948 69.477,104.476 C73.967,97.003 83.699,94.577 91.172,99.067 C98.645,103.557 101.071,113.289 96.581,120.762 C92.091,128.234 82.359,130.661 74.886,126.171 ZM90.187,100.706 C83.619,96.759 75.064,98.893 71.117,105.461 C67.170,112.030 69.303,120.585 75.871,124.531 C82.440,128.478 90.995,126.345 94.942,119.776 C98.889,113.208 96.755,104.653 90.187,100.706 ZM86.924,113.055 C85.943,112.465 85.625,111.192 86.215,110.211 C86.804,109.230 88.078,108.912 89.059,109.501 C90.040,110.091 90.358,111.364 89.768,112.346 C89.179,113.327 87.905,113.644 86.924,113.055 ZM85.759,119.019 C85.169,120.000 83.896,120.317 82.914,119.728 C81.933,119.138 81.616,117.865 82.205,116.884 C82.795,115.902 84.068,115.585 85.049,116.175 C86.031,116.764 86.348,118.038 85.759,119.019 ZM77.090,116.774 C77.090,116.774 75.188,116.971 75.188,116.971 C74.819,113.426 75.533,110.844 76.655,108.977 C78.923,105.203 82.861,104.343 82.921,104.332 C82.921,104.332 83.306,106.205 83.306,106.205 C83.014,106.267 76.161,107.823 77.090,116.774 ZM69.496,87.920 C55.128,87.920 43.440,76.231 43.440,61.864 C43.440,47.496 55.128,35.808 69.496,35.808 C83.863,35.808 95.552,47.496 95.552,61.864 C95.552,76.231 83.863,87.920 69.496,87.920 ZM69.496,38.959 C56.866,38.959 46.591,49.235 46.591,61.864 C46.591,74.493 56.866,84.767 69.496,84.767 C82.125,84.767 92.400,74.493 92.400,61.864 C92.400,49.235 82.125,38.959 69.496,38.959 ZM57.881,69.051 C57.881,69.051 60.200,66.916 60.200,66.916 C60.535,67.277 68.551,75.636 80.407,66.727 C80.407,66.727 82.301,69.246 82.301,69.246 C77.605,72.776 73.352,73.960 69.762,73.960 C62.505,73.960 57.948,69.125 57.881,69.051 ZM76.220,59.408 C74.333,59.408 72.804,57.878 72.804,55.992 C72.804,54.105 74.333,52.575 76.220,52.575 C78.106,52.575 79.636,54.105 79.636,55.992 C79.636,57.878 78.106,59.408 76.220,59.408 ZM63.390,59.408 C61.503,59.408 59.974,57.878 59.974,55.992 C59.974,54.105 61.503,52.575 63.390,52.575 C65.277,52.575 66.806,54.105 66.806,55.992 C66.806,57.878 65.277,59.408 63.390,59.408 ZM83.661,27.775 C77.580,30.611 70.325,27.971 67.490,21.889 C64.654,15.808 67.294,8.554 73.376,5.718 C79.457,2.882 86.711,5.523 89.547,11.604 C92.383,17.685 89.742,24.940 83.661,27.775 ZM88.213,12.226 C85.720,6.880 79.343,4.559 73.998,7.052 C68.652,9.545 66.331,15.922 68.824,21.267 C71.316,26.613 77.694,28.934 83.039,26.441 C88.385,23.949 90.705,17.572 88.213,12.226 ZM82.492,19.684 C82.578,19.471 84.534,14.428 78.423,11.168 C78.423,11.168 79.116,9.870 79.116,9.870 C81.537,11.160 82.877,12.727 83.586,14.247 C85.018,17.318 83.871,20.201 83.853,20.244 C83.853,20.244 82.492,19.684 82.492,19.684 ZM77.912,21.936 C77.114,22.308 76.164,21.963 75.792,21.164 C75.420,20.366 75.765,19.417 76.564,19.044 C77.362,18.672 78.311,19.017 78.684,19.816 C79.056,20.614 78.711,21.564 77.912,21.936 ZM75.380,16.505 C74.581,16.878 73.632,16.532 73.260,15.734 C72.887,14.936 73.233,13.986 74.031,13.614 C74.830,13.241 75.779,13.587 76.151,14.385 C76.524,15.184 76.178,16.133 75.380,16.505 ZM25.351,43.682 C17.962,39.243 15.562,29.619 20.002,22.230 C24.442,14.841 34.066,12.441 41.455,16.881 C48.844,21.321 51.243,30.945 46.803,38.334 C42.363,45.723 32.740,48.122 25.351,43.682 ZM40.481,18.502 C33.986,14.599 25.526,16.709 21.623,23.204 C17.720,29.699 19.830,38.159 26.325,42.061 C32.820,45.964 41.279,43.855 45.182,37.359 C49.085,30.864 46.976,22.405 40.481,18.502 ZM33.510,38.476 C33.510,38.476 33.129,36.624 33.129,36.624 C33.417,36.563 40.194,35.024 39.276,26.173 C39.276,26.173 41.157,25.978 41.157,25.978 C41.521,29.483 40.815,32.036 39.706,33.883 C37.463,37.615 33.569,38.465 33.510,38.476 ZM31.405,26.766 C30.435,26.182 30.121,24.923 30.704,23.953 C31.287,22.983 32.546,22.669 33.516,23.252 C34.486,23.835 34.800,25.094 34.217,26.064 C33.634,27.035 32.375,27.349 31.405,26.766 ZM30.253,32.663 C29.670,33.633 28.411,33.947 27.440,33.364 C26.470,32.781 26.156,31.522 26.739,30.552 C27.322,29.581 28.581,29.268 29.551,29.851 C30.522,30.434 30.836,31.693 30.253,32.663 ZM31.179,80.952 C40.555,85.324 44.625,96.509 40.254,105.884 C35.882,115.259 24.698,119.330 15.322,114.958 C5.947,110.586 1.876,99.402 6.248,90.027 C10.620,80.652 21.804,76.581 31.179,80.952 ZM8.305,90.985 C4.462,99.227 8.040,109.058 16.281,112.901 C24.523,116.744 34.354,113.166 38.197,104.925 C42.040,96.684 38.461,86.853 30.220,83.010 C21.979,79.167 12.148,82.745 8.305,90.985 ZM30.854,97.487 C30.745,97.150 28.058,89.256 17.611,91.462 C17.611,91.462 17.142,89.242 17.142,89.242 C21.279,88.367 24.415,88.889 26.758,89.981 C31.493,92.189 32.996,96.730 33.017,96.799 C33.017,96.799 30.854,97.487 30.854,97.487 ZM18.115,97.512 C19.347,98.086 19.879,99.549 19.305,100.780 C18.731,102.011 17.268,102.544 16.037,101.970 C14.806,101.396 14.273,99.933 14.847,98.701 C15.421,97.470 16.885,96.938 18.115,97.512 ZM26.488,101.416 C27.719,101.990 28.251,103.453 27.677,104.684 C27.103,105.915 25.640,106.448 24.409,105.874 C23.178,105.300 22.645,103.837 23.219,102.605 C23.793,101.375 25.257,100.842 26.488,101.416 Z" id="path-1" class="cls-2" style="stroke: inherit; filter: none; fill: inherit;" fill-rule="evenodd"/>
  </g>
  <use xlink:href="#path-1" style="stroke: #ec691f; fill: none; filter: none;"/>
</svg>
