<?xml version="1.0" encoding="utf-8"?>
<!-- Generator: Adobe Illustrator 17.0.0, SVG Export Plug-In . SVG Version: 6.00 Build 0)  -->
<!DOCTYPE svg PUBLIC "-//W3C//DTD SVG 1.1//EN" "http://www.w3.org/Graphics/SVG/1.1/DTD/svg11.dtd">
<svg version="1.1" id="Layer_1" xmlns="http://www.w3.org/2000/svg" xmlns:xlink="http://www.w3.org/1999/xlink" x="0px" y="0px"
	 width="144px" height="144px" viewBox="0 0 144 144" enable-background="new 0 0 144 144" xml:space="preserve">
<g>
	<defs>
		<rect id="SVGID_1_" x="-6" y="-52.073" width="155.145" height="198.263"/>
	</defs>
	<clipPath id="SVGID_2_">
		<use xlink:href="#SVGID_1_"  overflow="visible"/>
	</clipPath>
	<path clip-path="url(#SVGID_2_)" fill="#FFCB0B" d="M105.419,42.571c-0.298,0-0.586,0.02-0.89,0.054
		c-1.71-4.26-5.323-6.887-10.423-6.887c-0.692,0-1.381,0.043-2.085,0.123c-2.409-6.063-7.502-9.823-14.746-9.823
		c-14.362,0-31.659,14.857-38.617,33.165c-6.985,18.327-0.974,33.19,13.381,33.19c7.217,0,15.209-3.769,22.233-9.85
		c0.633,0.102,1.294,0.155,1.983,0.155c5.098,0,10.711-2.632,15.659-6.898c0.277,0.018,0.577,0.029,0.861,0.029
		c7.187,0,15.872-7.437,19.365-16.627C115.628,50.033,112.633,42.571,105.419,42.571 M60.32,85.543
		c-11.1,0-15.741-12.544-10.362-27.982c5.4-15.473,18.759-27.996,29.869-27.996c4.937,0,8.583,2.475,10.663,6.585
		c-9.308,2.06-19.369,11.613-23.723,23.053c-4.094,10.788-1.848,19.869,4.848,22.635C67.849,84.196,63.96,85.543,60.32,85.543
		 M81.41,77.141c-7.868,0-11.143-8.87-7.341-19.796c3.812-10.961,13.263-19.812,21.147-19.812c3.728,0,6.445,2,7.832,5.304
		c-6.621,1.372-13.856,8.177-16.978,16.366c-2.754,7.241-1.467,13.388,2.713,15.686C86.313,76.324,83.783,77.141,81.41,77.141
		 M111.2,57.972c-2.704,7.737-9.403,14.011-14.98,14.011c-5.557,0-7.88-6.274-5.166-14.011c2.695-7.739,9.401-14.026,14.951-14.026
		C111.566,43.947,113.891,50.233,111.2,57.972"/>
	<path clip-path="url(#SVGID_2_)" fill="#010101" d="M39.022,103.54c-2.368-1.308-4.387-1.896-6.596-1.896
		c-4.38,0-7.621,2.954-7.621,6.962c0,4.087,3.141,6.905,7.746,6.905c2.144,0,4.501-0.713,6.651-2.059v2.861
		c-1.873,0.931-3.912,1.605-6.919,1.605c-7.175,0-10.303-5.263-10.303-9.072c0-5.554,4.403-9.614,10.486-9.614
		c1.953,0,3.942,0.466,6.556,1.51V103.54z"/>
	<path clip-path="url(#SVGID_2_)" fill="#010101" d="M54.397,111.557c0,3.792-2.791,6.36-6.808,6.36c-3.869,0-6.64-2.677-6.64-6.36
		c0-3.44,2.881-6.106,6.64-6.106C51.531,105.451,54.397,108.01,54.397,111.557 M43.488,111.557c0,2.546,1.664,4.217,4.069,4.217
		c2.639,0,4.289-1.606,4.289-4.185c0-2.319-1.805-4.006-4.289-4.006C45.202,107.583,43.488,109.27,43.488,111.557"/>
	<path clip-path="url(#SVGID_2_)" fill="#010101" d="M65.867,108.823c-1.417-0.913-2.38-1.181-3.474-1.181
		c-2.262,0-3.833,1.626-3.833,4.058c0,2.468,1.69,3.969,4.255,3.969c1.069,0,2.082-0.27,3.331-0.809v2.361
		c-0.84,0.37-2.441,0.695-3.753,0.695c-3.754,0-6.385-2.478-6.385-6.004c0-3.947,2.402-6.46,6.224-6.46
		c1.447,0,2.428,0.329,3.635,0.836V108.823z"/>
	<path clip-path="url(#SVGID_2_)" fill="#010101" d="M70.796,107.27h0.052c0.963-1.153,2.355-1.821,3.754-1.821
		c2.462,0,4.287,1.612,4.287,4.878v7.351h-2.487v-7.416c0-1.762-0.965-2.92-2.461-2.92c-1.095,0-1.967,0.482-3.145,1.739v8.597
		h-2.505v-18.2h2.505V107.27z"/>
	<rect x="81.895" y="99.479" clip-path="url(#SVGID_2_)" fill="#010101" width="2.475" height="18.2"/>
	<path clip-path="url(#SVGID_2_)" fill="#010101" d="M97.94,116.504c-1.514,0.951-2.889,1.412-5.009,1.412
		c-3.929,0-6.126-3.081-6.126-6.369c0-3.636,2.412-6.095,5.89-6.095c3.347,0,5.464,2.159,5.464,6.583h-8.847
		c0.395,2.375,1.812,3.608,4.233,3.608c1.505,0,2.932-0.538,4.394-1.438V116.504z M95.702,110.462
		c-0.091-1.808-1.178-2.956-2.95-2.956c-1.905,0-3.045,1.065-3.388,2.956H95.702z"/>
	<path clip-path="url(#SVGID_2_)" fill="#010101" d="M110.075,116.97c-1.153,0.725-1.628,0.947-2.407,0.947
		c-1.097,0-1.698-0.39-1.912-1.231c-1.103,0.822-2.246,1.231-3.39,1.231c-1.857,0-3.084-1.397-3.084-2.947
		c0-2.371,2.269-3.084,4.287-3.778l2.201-0.752v-0.631c0-1.512-0.731-2.118-2.26-2.118c-1.362,0-2.766,0.606-3.963,1.976v-2.587
		c0.963-1.097,2.344-1.63,4.165-1.63c2.532,0,4.558,1.226,4.558,3.954v6.156c0,0.463,0.177,0.611,0.481,0.611
		c0.248,0,0.758-0.234,1.324-0.647V116.97z M105.77,111.747c-2.119,0.693-3.956,1.401-3.956,2.805c0,0.974,0.749,1.68,1.769,1.68
		c0.797,0,1.517-0.379,2.187-0.992V111.747z"/>
	<path clip-path="url(#SVGID_2_)" fill="#010101" d="M114.393,105.685v2.755h0.064c1.263-2.118,2.466-2.99,3.651-2.99
		c1.01,0,1.955,0.452,2.997,1.396l-1.322,2.05c-0.749-0.692-1.737-1.176-2.321-1.176c-1.71,0-3.068,1.624-3.068,3.686v6.274h-2.477
		v-11.996H114.393z"/>
	<path clip-path="url(#SVGID_2_)" fill="#010101" d="M127.491,112.989c-2.11,0-3.808-1.707-3.808-3.819
		c0-2.11,1.698-3.804,3.808-3.804s3.817,1.694,3.817,3.804C131.308,111.282,129.602,112.989,127.491,112.989 M127.491,105.997
		c-1.76,0-3.177,1.417-3.177,3.174c0,1.76,1.417,3.188,3.177,3.188c1.758,0,3.184-1.428,3.184-3.188
		C130.676,107.414,129.25,105.997,127.491,105.997 M125.824,107.187h1.812c1.013,0,1.354,0.629,1.354,1.076
		c0,0.663-0.475,1.136-1.169,1.178v0.021c0.354,0.125,0.611,0.477,0.952,1.026l0.497,0.795h-0.808l-0.363-0.64
		c-0.516-0.922-0.713-1.099-1.219-1.099h-0.393v1.739h-0.665V107.187z M127.439,108.977c0.507,0,0.849-0.198,0.849-0.624
		c0-0.37-0.3-0.608-0.736-0.608h-1.063v1.231H127.439z"/>
</g>
</svg>
