<svg xmlns="http://www.w3.org/2000/svg" xmlns:xlink="http://www.w3.org/1999/xlink" preserveAspectRatio="xMidYMid" width="32" height="51" viewBox="0 0 32 51">
  <defs>
    <style>

      .cls-2 {
        fill: #000000;
        filter: url(#color-overlay-1);
      }
    </style>

    <filter id="color-overlay-1" filterUnits="userSpaceOnUse">
      <feFlood flood-color="#fc912f" flood-opacity="1"/>
      <feComposite operator="in" in2="SourceGraphic"/>
      <feBlend mode="normal" in2="SourceGraphic" result="colorOverlay"/>
    </filter>
  </defs>
  <path d="M16.000,0.011 C7.164,0.011 0.000,7.170 0.000,16.004 C0.000,18.478 0.562,20.823 1.567,22.913 C1.623,23.032 16.000,51.189 16.000,51.189 C16.000,51.189 30.259,23.263 30.259,23.263 C31.372,21.086 32.000,18.619 32.000,16.004 C32.000,7.170 24.838,0.011 16.000,0.011 ZM16.000,25.600 C10.699,25.600 6.400,21.301 6.400,16.004 C6.400,10.706 10.699,6.408 16.000,6.408 C21.300,6.408 25.600,10.706 25.600,16.004 C25.600,21.301 21.300,25.600 16.000,25.600 Z" id="path-1" class="cls-2" fill-rule="evenodd"/>
</svg>
