<svg xmlns="http://www.w3.org/2000/svg" xmlns:xlink="http://www.w3.org/1999/xlink" preserveAspectRatio="xMidYMid" width="15" height="8" viewBox="0 0 15 8">
  <defs>
    <style>

      .cls-2 {
        fill: #000000;
        filter: url(#color-overlay-1);
      }
    </style>

    <filter id="color-overlay-1" filterUnits="userSpaceOnUse">
      <feFlood flood-color="#333333" flood-opacity="1"/>
      <feComposite operator="in" in2="SourceGraphic"/>
      <feBlend mode="normal" in2="SourceGraphic" result="colorOverlay"/>
    </filter>
  </defs>
  <path d="M7.122,8.001 C6.866,8.001 6.610,7.904 6.415,7.713 C6.415,7.713 0.273,1.674 0.273,1.674 C-0.118,1.291 -0.118,0.668 0.273,0.284 C0.663,-0.100 1.297,-0.100 1.688,0.284 C1.688,0.284 7.122,5.626 7.122,5.626 C7.122,5.626 12.557,0.284 12.557,0.284 C12.948,-0.100 13.581,-0.100 13.972,0.284 C14.363,0.668 14.363,1.291 13.972,1.675 C13.972,1.675 7.829,7.713 7.829,7.713 C7.634,7.904 7.378,8.001 7.122,8.001 Z" id="path-1" class="cls-2" fill-rule="evenodd"/>
</svg>
