<svg xmlns="http://www.w3.org/2000/svg" xmlns:xlink="http://www.w3.org/1999/xlink" preserveAspectRatio="xMidYMid" width="31" height="25" viewBox="0 0 31 25">
  <defs>
    <style>

      .cls-2 {
        fill: #000000;
        filter: url(#color-overlay-1);
      }
    </style>

    <filter id="color-overlay-1" filterUnits="userSpaceOnUse">
      <feFlood flood-color="#333333" flood-opacity="1"/>
      <feComposite operator="in" in2="SourceGraphic"/>
      <feBlend mode="normal" in2="SourceGraphic" result="colorOverlay"/>
    </filter>
  </defs>
  <path d="M27.157,16.326 C27.157,16.326 30.808,5.416 30.808,5.416 C30.991,4.891 30.853,4.576 30.706,4.367 C30.327,3.835 29.549,3.830 29.398,3.830 C29.398,3.830 8.765,3.826 8.765,3.826 C8.765,3.826 8.215,1.217 8.215,1.217 C8.067,0.602 7.627,0.015 6.741,0.015 C6.741,0.015 0.943,0.015 0.943,0.015 C0.342,0.015 0.015,0.296 0.015,0.857 C0.015,0.857 0.015,2.363 0.015,2.363 C0.015,2.905 0.341,3.047 0.964,3.047 C0.964,3.047 5.860,3.047 5.860,3.047 C5.860,3.047 9.607,18.930 9.607,18.930 C9.012,19.560 8.687,20.478 8.687,21.333 C8.687,23.217 10.190,24.953 12.108,24.953 C13.920,24.953 15.278,23.258 15.498,22.248 C15.498,22.248 22.796,22.248 22.796,22.248 C23.016,23.258 24.116,24.993 26.185,24.993 C28.070,24.993 29.603,23.362 29.603,21.482 C29.603,19.612 28.465,17.953 26.203,17.953 C25.263,17.953 24.148,18.458 23.630,19.216 C23.630,19.216 14.663,19.216 14.663,19.216 C14.013,18.206 13.124,17.892 12.225,17.857 C12.225,17.857 12.102,17.195 12.102,17.195 C12.102,17.195 25.745,17.195 25.745,17.195 C26.773,17.195 26.975,16.821 27.157,16.326 C27.157,16.326 27.157,16.326 27.157,16.326 ZM10.780,21.441 C10.780,20.724 11.364,20.141 12.081,20.141 C12.797,20.141 13.380,20.724 13.380,21.441 C13.380,22.157 12.797,22.740 12.081,22.740 C11.364,22.739 10.780,22.157 10.780,21.441 ZM26.211,22.723 C25.503,22.723 24.925,22.148 24.925,21.440 C24.925,20.732 25.502,20.157 26.211,20.157 C26.921,20.157 27.496,20.732 27.496,21.440 C27.496,22.148 26.920,22.723 26.211,22.723 Z" id="path-1" class="cls-2" fill-rule="evenodd"/>
</svg>
