<?xml version="1.0" encoding="utf-8"?>
<!-- Generator: Adobe Illustrator 18.1.0, SVG Export Plug-In . SVG Version: 6.00 Build 0)  -->
<!DOCTYPE svg PUBLIC "-//W3C//DTD SVG 1.1//EN" "http://www.w3.org/Graphics/SVG/1.1/DTD/svg11.dtd">
<svg version="1.1" id="Layer_1" xmlns="http://www.w3.org/2000/svg" xmlns:xlink="http://www.w3.org/1999/xlink" x="0px" y="0px"
	 viewBox="-230 338.2 149.8 117.4" enable-background="new -230 338.2 149.8 117.4" xml:space="preserve">
<g>
	<path fill="#EC691F" d="M-165.7,338.3c-0.5,0.1-1.9,0.2-3.2,0.4c-6.7,0.6-17.6,2.9-23,4.9c-6.4,2.2-12.5,5.7-17.5,9.9
		c-11.2,9.4-18.3,22.3-20.2,36.6c-0.4,2.9-0.5,9.6-0.3,11.5c0.6,4.4,0.8,5.7,1.2,7.4c2,8.8,6.5,17.7,12.5,24.5c2,2.4,5.8,6,7.9,7.6
		c6.8,5.2,13.5,8.5,22.1,10.7c13.6,3.5,25.1,4.5,38.3,3.3c9.8-0.9,21.8-3.6,31.3-7.2c5.1-1.9,11.5-4.9,15.3-7.1l1.5-0.9v-12.7
		c0-8.1-0.1-12.7-0.2-12.7c-0.1,0-0.9,0.4-1.7,0.9c-9.7,5.7-20.5,9.3-30.9,10.4c-8.5,0.9-14.1,0-20-3.1c-6.6-3.4-11.9-9.6-14.2-16.7
		c-2.9-8.8-1.6-17.8,3.6-25.7c1.3-1.9,5.3-6,7.4-7.5c3.1-2.2,7-3.9,11-4.8c1.6-0.4,2.3-0.4,6.6-0.4c5.2,0,7.1,0.2,12.2,1.2
		c4.3,0.9,9.5,2.4,13.7,4.2c2.5,1,7.7,3.6,10.1,5c1.2,0.7,2.2,1.2,2.3,1.2c0.1,0,0.1-5.7,0.1-12.8v-12.8l-1.4-0.8
		c-4.9-2.8-12.2-6-18.7-8.3c-8.1-2.8-18.2-5-26.3-5.8c-1.6-0.1-3.5-0.4-4.1-0.5C-151.5,338.1-164.4,338.1-165.7,338.3L-165.7,338.3z
		 M-191.2,365.2c2.2,0.5,3.3,0.8,4.4,1.3c0.5,0.2,1.1,0.5,1.3,0.6c1.9,0.7,5.9,4.2,7.5,6.7c2.9,4.2,3.9,7.8,3.7,12.8
		c-0.2,4-1.5,8.1-3.5,10.6c-0.3,0.4-0.5,0.8-0.5,0.8c0,0.3-3.6,3.7-4.6,4.4c-1.9,1.3-4.1,2.3-6.3,2.9c-0.5,0.1-1,0.3-1.2,0.4
		c-0.5,0.3-6.1,0.4-7.4,0.1c-1.9-0.4-1.8,0-1.8-6.2v-5.4l0.4,0.1c0.2,0.1,1,0.3,1.8,0.5c2.5,0.7,6.2,0.1,8.2-1.3
		c1.4-1,2.8-2.6,3.4-4.1c0.6-1.2,0.6-1.6,0.7-3.3c0.1-2.3-0.3-4.4-1.2-5.7c-0.9-1.4-3-3.2-4.5-4l-1.4-0.7h-2.7c-1.7,0-2.8,0.1-3,0.2
		c-0.1,0.1-0.7,0.4-1.2,0.5c-0.6,0.2-1.3,0.8-2.4,1.8c-1.4,1.4-2.2,2.6-2.8,4.1c-0.1,0.4-0.2,7.6-0.3,23.7l-0.1,23.2l-1-0.1
		c-1.1-0.1-2.9-0.6-3.5-1.1c-0.3-0.2-0.6-0.4-0.7-0.4c-0.1,0-0.4-0.2-0.6-0.5s-0.5-0.5-0.6-0.5c-0.4,0-3.1-3.3-3.1-3.8
		c0-0.1-0.1-0.3-0.3-0.6c-0.8-1.1-0.8-1.3-0.7-21.4l0.1-19.2l0.5-1.7c0.9-2.9,2.6-6.2,4.4-8.3C-205.4,366.5-197.9,363.8-191.2,365.2
		L-191.2,365.2z"/>
	<path fill="#EC691F" d="M-119.3,388v5.9h4.8h4.8l0,8.8l0.1,8.8l9.8,0.1l9.8,0l0.1-0.6c0.1-0.3,0.1-4.3,0.1-8.7l-0.1-8.1h4.9h4.9v-6
		v-6h-19.6h-19.6C-119.3,382.1-119.3,388-119.3,388z"/>
</g>
</svg>
