<svg xmlns="http://www.w3.org/2000/svg" xmlns:xlink="http://www.w3.org/1999/xlink" preserveAspectRatio="xMidYMid" width="37" height="27" viewBox="0 0 37 27">
  <defs>
    <style>

      .cls-2 {
        fill: #000000;
        filter: url(#color-overlay-1);
      }
    </style>

    <filter id="color-overlay-1" filterUnits="userSpaceOnUse">
      <feFlood flood-color="#fc912f" flood-opacity="1"/>
      <feComposite operator="in" in2="SourceGraphic"/>
      <feBlend mode="normal" in2="SourceGraphic" result="colorOverlay"/>
    </filter>
  </defs>
  <path d="M23.939,13.265 C23.939,13.265 36.557,2.294 36.557,2.294 C36.557,2.294 36.557,23.981 36.557,23.981 C36.557,23.981 23.939,13.265 23.939,13.265 ZM0.836,0.722 C1.306,0.282 1.939,0.011 2.635,0.011 C2.635,0.011 33.928,0.011 33.928,0.011 C34.629,0.011 35.261,0.279 35.731,0.718 C35.731,0.718 18.281,15.668 18.281,15.668 C18.281,15.668 0.836,0.722 0.836,0.722 ZM0.006,23.981 C0.006,23.981 0.006,2.301 0.006,2.301 C0.006,2.301 12.624,13.265 12.624,13.265 C12.624,13.265 0.006,23.981 0.006,23.981 ZM18.281,18.278 C18.281,18.278 22.804,14.321 22.804,14.321 C22.804,14.321 35.725,25.398 35.725,25.398 C35.256,25.837 34.624,26.107 33.928,26.107 C33.928,26.107 2.635,26.107 2.635,26.107 C1.935,26.107 1.301,25.837 0.831,25.398 C0.831,25.398 13.760,14.321 13.760,14.321 C13.760,14.321 18.281,18.278 18.281,18.278 Z" id="path-1" class="cls-2" fill-rule="evenodd"/>
</svg>
