<svg xmlns="http://www.w3.org/2000/svg" xmlns:xlink="http://www.w3.org/1999/xlink" preserveAspectRatio="xMidYMid" width="36" height="33" viewBox="0 0 36 33">
  <defs>
    <style>

      .cls-2 {
        fill: #000000;
        filter: url(#color-overlay-1);
      }
    </style>

    <filter id="color-overlay-1" filterUnits="userSpaceOnUse">
      <feFlood flood-color="#fc912f" flood-opacity="1"/>
      <feComposite operator="in" in2="SourceGraphic"/>
      <feBlend mode="normal" in2="SourceGraphic" result="colorOverlay"/>
    </filter>
  </defs>
  <path d="M18.199,5.841 C12.181,5.777 7.940,5.359 7.372,12.760 C7.372,12.760 0.028,12.760 0.028,12.760 C0.028,1.509 9.116,-0.007 18.007,-0.007 C26.897,-0.007 35.986,1.509 35.986,12.760 C35.986,12.760 28.585,12.760 28.585,12.760 C28.071,5.498 24.270,5.906 18.199,5.841 ZM7.405,13.682 C7.405,14.023 7.380,14.318 7.335,14.578 C7.001,16.492 5.501,16.376 3.698,16.376 C1.651,16.376 -0.008,16.530 -0.008,13.682 C-0.008,13.682 7.320,13.682 7.320,13.682 C7.320,13.682 7.405,13.682 7.405,13.682 ZM10.304,11.743 C10.304,11.743 10.304,10.611 10.304,10.611 C10.304,10.105 10.844,10.074 11.510,10.074 C11.510,10.074 12.600,10.074 12.600,10.074 C13.267,10.074 13.807,10.105 13.807,10.611 C13.807,10.611 13.807,11.586 13.807,11.586 C13.807,11.586 13.807,12.343 13.807,12.343 C13.807,12.343 21.514,12.343 21.514,12.343 C21.514,12.343 21.514,11.586 21.514,11.586 C21.514,11.586 21.514,10.611 21.514,10.611 C21.514,10.105 22.054,10.074 22.721,10.074 C22.721,10.074 23.810,10.074 23.810,10.074 C24.476,10.074 25.017,10.105 25.017,10.611 C25.017,10.611 25.017,11.743 25.017,11.743 C25.017,11.743 25.017,12.731 25.017,12.731 C26.773,14.700 32.517,23.080 32.723,24.065 C32.723,24.065 32.723,30.873 32.723,30.873 C32.723,31.498 32.252,32.007 31.673,32.007 C31.673,32.007 3.648,32.007 3.648,32.007 C3.068,32.007 2.597,31.498 2.597,30.873 C2.597,30.873 2.594,24.099 2.594,24.099 C2.803,23.084 8.548,14.700 10.304,12.731 C10.304,12.731 10.304,11.743 10.304,11.743 ZM21.835,25.011 C22.399,25.011 22.856,24.518 22.856,23.908 C22.856,23.299 22.399,22.805 21.835,22.805 C21.270,22.805 20.813,23.299 20.813,23.908 C20.813,24.518 21.270,25.011 21.835,25.011 ZM21.835,21.230 C22.399,21.230 22.856,20.736 22.856,20.127 C22.856,19.517 22.399,19.024 21.835,19.024 C21.270,19.024 20.813,19.517 20.813,20.127 C20.813,20.736 21.270,21.230 21.835,21.230 ZM21.835,17.448 C22.399,17.448 22.856,16.954 22.856,16.345 C22.856,15.736 22.399,15.243 21.835,15.243 C21.270,15.243 20.813,15.736 20.813,16.345 C20.813,16.954 21.270,17.448 21.835,17.448 ZM17.631,25.011 C18.195,25.011 18.652,24.518 18.652,23.908 C18.652,23.299 18.195,22.805 17.631,22.805 C17.067,22.805 16.609,23.299 16.609,23.908 C16.609,24.518 17.067,25.011 17.631,25.011 ZM17.631,21.230 C18.195,21.230 18.652,20.736 18.652,20.127 C18.652,19.517 18.195,19.024 17.631,19.024 C17.067,19.024 16.609,19.517 16.609,20.127 C16.609,20.736 17.067,21.230 17.631,21.230 ZM17.631,17.448 C18.195,17.448 18.652,16.954 18.652,16.345 C18.652,15.736 18.195,15.243 17.631,15.243 C17.067,15.243 16.609,15.736 16.609,16.345 C16.609,16.954 17.067,17.448 17.631,17.448 ZM13.427,25.011 C13.991,25.011 14.449,24.518 14.449,23.908 C14.449,23.299 13.991,22.805 13.427,22.805 C12.863,22.805 12.406,23.299 12.406,23.908 C12.406,24.518 12.863,25.011 13.427,25.011 ZM13.427,21.230 C13.991,21.230 14.449,20.736 14.449,20.127 C14.449,19.517 13.991,19.024 13.427,19.024 C12.863,19.024 12.406,19.517 12.406,20.127 C12.406,20.736 12.863,21.230 13.427,21.230 ZM13.427,17.448 C13.991,17.448 14.449,16.954 14.449,16.345 C14.449,15.736 13.991,15.243 13.427,15.243 C12.863,15.243 12.406,15.736 12.406,16.345 C12.406,16.954 12.863,17.448 13.427,17.448 ZM28.642,14.578 C28.591,14.321 28.564,14.025 28.564,13.682 C28.564,13.682 28.633,13.682 28.633,13.682 C28.633,13.682 36.012,13.682 36.012,13.682 C36.012,16.380 34.345,16.234 32.288,16.234 C30.492,16.234 28.993,16.344 28.642,14.578 Z" id="path-1" class="cls-2" fill-rule="evenodd"/>
</svg>
