<svg xmlns="http://www.w3.org/2000/svg" xmlns:xlink="http://www.w3.org/1999/xlink" preserveAspectRatio="xMidYMid" width="36" height="26" viewBox="0 0 36 26">
  <defs>
    <style>

      .cls-2 {
        fill: #000000;
        filter: url(#color-overlay-1);
      }
    </style>

    <filter id="color-overlay-1" filterUnits="userSpaceOnUse">
      <feFlood flood-color="#333333" flood-opacity="1"/>
      <feComposite operator="in" in2="SourceGraphic"/>
      <feBlend mode="normal" in2="SourceGraphic" result="colorOverlay"/>
    </filter>
  </defs>
  <path d="M18.199,4.742 C12.181,4.690 7.940,4.350 7.372,10.366 C7.372,10.366 0.028,10.366 0.028,10.366 C0.028,1.221 9.116,-0.011 18.007,-0.011 C26.897,-0.011 35.986,1.221 35.986,10.366 C35.986,10.366 28.585,10.366 28.585,10.366 C28.071,4.463 24.270,4.794 18.199,4.742 ZM7.405,11.115 C7.405,11.393 7.380,11.632 7.335,11.844 C7.001,13.400 5.501,13.305 3.698,13.305 C1.651,13.305 -0.008,13.431 -0.008,11.115 C-0.008,11.115 7.320,11.115 7.320,11.115 C7.320,11.115 7.405,11.115 7.405,11.115 ZM10.304,9.540 C10.304,9.540 10.304,8.619 10.304,8.619 C10.304,8.208 10.844,8.182 11.510,8.182 C11.510,8.182 12.600,8.182 12.600,8.182 C13.267,8.182 13.807,8.208 13.807,8.619 C13.807,8.619 13.807,9.412 13.807,9.412 C13.807,9.412 13.807,10.027 13.807,10.027 C13.807,10.027 21.514,10.027 21.514,10.027 C21.514,10.027 21.514,9.412 21.514,9.412 C21.514,9.412 21.514,8.619 21.514,8.619 C21.514,8.208 22.054,8.182 22.721,8.182 C22.721,8.182 23.810,8.182 23.810,8.182 C24.476,8.182 25.017,8.208 25.017,8.619 C25.017,8.619 25.017,9.540 25.017,9.540 C25.017,9.540 25.017,10.342 25.017,10.342 C26.773,11.943 32.517,18.755 32.723,19.555 C32.723,19.555 32.723,25.089 32.723,25.089 C32.723,25.597 32.252,26.011 31.673,26.011 C31.673,26.011 3.648,26.011 3.648,26.011 C3.069,26.011 2.597,25.597 2.597,25.089 C2.597,25.089 2.594,19.583 2.594,19.583 C2.803,18.757 8.548,11.943 10.304,10.342 C10.304,10.342 10.304,9.540 10.304,9.540 ZM21.834,20.324 C22.399,20.324 22.856,19.923 22.856,19.428 C22.856,18.932 22.399,18.532 21.834,18.532 C21.270,18.532 20.813,18.932 20.813,19.428 C20.813,19.923 21.270,20.324 21.834,20.324 ZM21.834,17.250 C22.399,17.250 22.856,16.850 22.856,16.354 C22.856,15.859 22.399,15.458 21.834,15.458 C21.270,15.458 20.813,15.859 20.813,16.354 C20.813,16.850 21.270,17.250 21.834,17.250 ZM21.834,14.177 C22.399,14.177 22.856,13.776 22.856,13.280 C22.856,12.785 22.399,12.384 21.834,12.384 C21.270,12.384 20.813,12.785 20.813,13.280 C20.813,13.776 21.270,14.177 21.834,14.177 ZM17.631,20.324 C18.195,20.324 18.652,19.923 18.652,19.428 C18.652,18.932 18.195,18.532 17.631,18.532 C17.067,18.532 16.609,18.932 16.609,19.428 C16.609,19.923 17.067,20.324 17.631,20.324 ZM17.631,17.250 C18.195,17.250 18.652,16.850 18.652,16.354 C18.652,15.859 18.195,15.458 17.631,15.458 C17.067,15.458 16.609,15.859 16.609,16.354 C16.609,16.850 17.067,17.250 17.631,17.250 ZM17.631,14.177 C18.195,14.177 18.652,13.776 18.652,13.280 C18.652,12.785 18.195,12.384 17.631,12.384 C17.067,12.384 16.609,12.785 16.609,13.280 C16.609,13.776 17.067,14.177 17.631,14.177 ZM13.427,20.324 C13.991,20.324 14.449,19.923 14.449,19.428 C14.449,18.932 13.991,18.532 13.427,18.532 C12.863,18.532 12.406,18.932 12.406,19.428 C12.406,19.923 12.863,20.324 13.427,20.324 ZM13.427,17.250 C13.991,17.250 14.449,16.850 14.449,16.354 C14.449,15.859 13.991,15.458 13.427,15.458 C12.863,15.458 12.406,15.859 12.406,16.354 C12.406,16.850 12.863,17.250 13.427,17.250 ZM13.427,14.177 C13.991,14.177 14.449,13.776 14.449,13.280 C14.449,12.785 13.991,12.384 13.427,12.384 C12.863,12.384 12.406,12.785 12.406,13.280 C12.406,13.776 12.863,14.177 13.427,14.177 ZM28.642,11.844 C28.591,11.635 28.564,11.394 28.564,11.115 C28.564,11.115 28.633,11.115 28.633,11.115 C28.633,11.115 36.012,11.115 36.012,11.115 C36.012,13.309 34.345,13.190 32.288,13.190 C30.492,13.190 28.993,13.279 28.642,11.844 Z" id="path-1" class="cls-2" fill-rule="evenodd"/>
</svg>
