<svg xmlns="http://www.w3.org/2000/svg" xmlns:xlink="http://www.w3.org/1999/xlink" preserveAspectRatio="xMidYMid" width="19" height="18" viewBox="0 0 19 18">
  <defs>
    <style>

      .cls-2 {
        fill: #000000;
        filter: url(#color-overlay-1);
      }
    </style>

    <filter id="color-overlay-1" filterUnits="userSpaceOnUse">
      <feFlood flood-color="#333333" flood-opacity="1"/>
      <feComposite operator="in" in2="SourceGraphic"/>
      <feBlend mode="normal" in2="SourceGraphic" result="colorOverlay"/>
    </filter>
  </defs>
  <path d="M11.652,12.639 C11.191,12.566 11.181,11.300 11.181,11.300 C11.181,11.300 12.533,9.961 12.828,8.159 C13.622,8.159 14.111,6.245 13.318,5.571 C13.351,4.862 14.338,0.005 9.344,0.005 C4.350,0.005 5.336,4.862 5.369,5.571 C4.576,6.245 5.066,8.159 5.859,8.159 C6.154,9.961 7.507,11.300 7.507,11.300 C7.507,11.300 7.496,12.566 7.036,12.639 C5.553,12.875 0.015,15.317 0.015,17.996 C0.015,17.996 9.344,17.996 9.344,17.996 C9.344,17.996 18.673,17.996 18.673,17.996 C18.673,15.317 13.135,12.875 11.652,12.639 Z" id="path-1" class="cls-2" fill-rule="evenodd"/>
</svg>
