<svg xmlns="http://www.w3.org/2000/svg" xmlns:xlink="http://www.w3.org/1999/xlink" preserveAspectRatio="xMidYMid" width="24" height="17" viewBox="0 0 24 17">
  <defs>
    <style>

      .cls-2 {
        fill: #000000;
        filter: url(#color-overlay-1);
      }
    </style>

    <filter id="color-overlay-1" filterUnits="userSpaceOnUse">
      <feFlood flood-color="#d7d7cc" flood-opacity="1"/>
      <feComposite operator="in" in2="SourceGraphic"/>
      <feBlend mode="normal" in2="SourceGraphic" result="colorOverlay"/>
    </filter>
  </defs>
  <path d="M5.266,6.000 C8.164,6.000 10.513,8.347 10.513,11.242 C10.513,14.137 8.164,16.483 5.266,16.483 C2.368,16.483 0.019,14.137 0.019,11.242 C0.019,11.242 -0.004,10.493 -0.004,10.493 C-0.004,4.703 4.694,0.010 10.489,0.010 C10.489,0.010 10.489,3.005 10.489,3.005 C8.487,3.005 6.605,3.784 5.189,5.198 C4.917,5.470 4.668,5.760 4.444,6.064 C4.712,6.022 4.986,6.000 5.266,6.000 ZM18.758,6.000 C21.655,6.000 24.004,8.347 24.004,11.242 C24.004,14.137 21.655,16.483 18.758,16.483 C15.860,16.483 13.511,14.137 13.511,11.242 C13.511,11.242 13.487,10.493 13.487,10.493 C13.487,4.703 18.185,0.010 23.981,0.010 C23.981,0.010 23.981,3.005 23.981,3.005 C21.979,3.005 20.097,3.784 18.681,5.198 C18.408,5.470 18.160,5.760 17.935,6.064 C18.203,6.022 18.478,6.000 18.758,6.000 Z" id="path-1" class="cls-2" fill-rule="evenodd"/>
</svg>
