<svg xmlns="http://www.w3.org/2000/svg" xmlns:xlink="http://www.w3.org/1999/xlink" preserveAspectRatio="xMidYMid" width="18" height="18" viewBox="0 0 18 18">
  <defs>
    <style>

      .cls-2 {
        fill: #000000;
        filter: url(#color-overlay-1);
      }
    </style>

    <filter id="color-overlay-1" filterUnits="userSpaceOnUse">
      <feFlood flood-color="#333333" flood-opacity="1"/>
      <feComposite operator="in" in2="SourceGraphic"/>
      <feBlend mode="normal" in2="SourceGraphic" result="colorOverlay"/>
    </filter>
  </defs>
  <path d="M12.014,2.053 C9.268,-0.693 4.798,-0.693 2.052,2.053 C-0.693,4.800 -0.693,9.269 2.052,12.015 C4.498,14.460 8.307,14.722 11.051,12.812 C11.109,13.086 11.242,13.347 11.453,13.559 C11.453,13.559 15.453,17.557 15.453,17.557 C16.035,18.139 16.977,18.139 17.557,17.557 C18.139,16.976 18.139,16.034 17.557,15.453 C17.557,15.453 13.558,11.454 13.558,11.454 C13.346,11.242 13.085,11.109 12.812,11.052 C14.722,8.308 14.460,4.500 12.014,2.053 ZM10.752,10.752 C8.701,12.802 5.365,12.802 3.315,10.752 C1.266,8.702 1.266,5.367 3.315,3.316 C5.365,1.267 8.701,1.267 10.752,3.316 C12.802,5.367 12.802,8.702 10.752,10.752 Z" id="path-1" class="cls-2" fill-rule="evenodd"/>
</svg>
