<svg xmlns="http://www.w3.org/2000/svg" xmlns:xlink="http://www.w3.org/1999/xlink" preserveAspectRatio="xMidYMid" width="152" height="134" viewBox="0 0 152 134">
  <defs>
    <style>

      .cls-2 {
        fill: #ec691f;
        stroke: #f5f5ea;
        stroke-width: 1px;
      }
    </style>
  </defs>
  <path d="M127.662,87.120 C127.662,87.120 122.446,84.318 116.975,79.634 C116.975,79.634 116.975,92.155 116.975,92.155 C116.975,93.862 115.594,95.241 113.888,95.241 C113.888,95.241 113.888,95.239 113.888,95.239 C113.888,95.239 112.758,95.239 112.758,95.239 C109.957,99.544 104.602,102.431 104.602,102.431 C104.602,102.431 99.248,99.544 96.446,95.239 C96.446,95.239 73.331,95.239 73.331,95.239 C74.084,96.284 74.614,97.625 74.787,99.335 C75.897,110.196 60.213,118.605 60.213,118.605 C60.213,118.605 44.536,110.196 45.647,99.335 C45.820,97.625 46.350,96.284 47.102,95.239 C47.102,95.239 31.173,95.239 31.173,95.239 C29.467,95.239 28.084,93.861 28.084,92.152 C28.084,92.152 28.084,90.976 28.084,90.976 C26.257,89.310 24.486,86.984 24.757,84.357 C24.985,82.112 26.455,81.136 28.084,81.043 C28.084,81.043 28.084,72.944 28.084,72.944 C28.084,71.239 29.468,69.858 31.173,69.858 C31.173,69.858 47.198,69.858 47.198,69.858 C47.198,69.858 47.198,66.683 47.198,66.683 C47.198,66.683 46.361,66.683 46.361,66.683 C46.361,66.683 46.361,58.537 46.361,58.537 C46.361,58.537 39.119,58.537 39.119,58.537 C37.413,58.537 36.031,57.154 36.031,55.450 C36.031,55.450 36.031,53.190 36.031,53.190 C29.857,60.191 21.548,64.657 21.548,64.657 C21.548,64.657 -0.998,52.556 0.593,36.937 C1.822,24.801 15.129,24.998 21.548,30.856 C26.773,26.076 36.579,25.071 40.694,31.437 C40.694,31.437 85.745,31.437 85.745,31.437 C85.745,31.437 87.461,31.437 87.461,31.437 C87.461,31.437 96.449,31.437 96.449,31.437 C92.302,27.937 87.828,22.706 88.439,16.730 C89.291,8.292 98.546,8.428 103.005,12.499 C107.474,8.428 116.724,8.292 117.581,16.730 C118.124,22.080 114.595,26.832 110.874,30.281 C110.874,30.281 110.874,31.437 110.874,31.437 C110.874,31.437 113.888,31.437 113.888,31.437 C115.594,31.437 116.975,32.818 116.975,34.524 C116.975,34.524 116.975,45.829 116.975,45.829 C117.461,45.845 117.948,45.876 118.435,45.936 C118.435,45.936 118.435,38.982 118.435,38.982 C118.435,38.982 119.703,38.982 121.267,38.982 C122.832,38.982 124.099,40.363 124.099,42.070 C124.099,42.070 124.099,47.655 124.099,47.655 C125.406,48.310 126.619,49.121 127.662,50.073 C134.687,43.655 149.271,43.438 150.623,56.742 C152.379,73.859 127.662,87.120 127.662,87.120 ZM103.250,41.341 C104.245,41.341 105.052,40.535 105.052,39.540 C105.052,38.546 104.245,37.738 103.250,37.738 C102.255,37.738 101.447,38.544 101.447,39.540 C101.447,40.535 102.255,41.341 103.250,41.341 ZM101.447,47.130 C101.447,48.124 102.255,48.932 103.250,48.932 C104.245,48.932 105.052,48.124 105.052,47.130 C105.052,46.136 104.245,45.329 103.250,45.329 C102.255,45.329 101.447,46.136 101.447,47.130 ZM107.110,39.540 C107.110,40.535 107.916,41.341 108.910,41.341 C109.905,41.341 110.714,40.535 110.714,39.540 C110.714,38.546 109.905,37.738 108.910,37.738 C107.916,37.738 107.110,38.544 107.110,39.540 ZM108.910,45.329 C107.916,45.329 107.110,46.136 107.110,47.130 C107.110,47.897 107.591,48.548 108.266,48.808 C109.005,48.113 109.825,47.544 110.711,47.100 C110.695,46.120 109.895,45.329 108.910,45.329 ZM104.693,56.742 C104.841,55.291 105.157,54.014 105.593,52.876 C105.593,52.876 96.813,52.876 96.813,52.876 C96.813,52.876 96.813,58.449 96.813,58.449 C96.813,58.449 104.609,58.449 104.609,58.449 C104.610,57.884 104.634,57.316 104.693,56.742 ZM97.586,48.932 C98.580,48.932 99.388,48.124 99.388,47.130 C99.388,46.136 98.580,45.329 97.586,45.329 C96.591,45.329 95.783,46.136 95.783,47.130 C95.783,48.124 96.591,48.932 97.586,48.932 ZM62.406,48.931 C62.406,48.931 62.406,49.660 62.406,49.660 C63.360,49.557 64.321,50.003 64.454,51.302 C64.608,52.798 63.434,54.097 62.406,54.933 C62.406,54.933 62.406,55.449 62.406,55.449 C62.406,57.153 61.024,58.535 59.317,58.535 C59.317,58.535 49.063,58.535 49.063,58.535 C49.063,58.535 49.063,62.952 49.063,62.952 C49.063,62.952 52.025,62.952 52.025,62.952 C52.025,62.952 52.025,63.724 52.025,63.724 C52.025,63.724 49.063,63.724 49.063,63.724 C49.063,63.724 49.063,66.683 49.063,66.683 C49.063,66.683 48.227,66.683 48.227,66.683 C48.227,66.683 48.227,69.858 48.227,69.858 C48.227,69.858 52.108,69.858 52.108,69.858 C51.768,69.094 51.583,68.274 51.671,67.414 C52.016,64.060 55.692,64.119 57.458,65.732 C59.232,64.119 62.908,64.060 63.246,67.414 C63.334,68.274 63.150,69.094 62.809,69.858 C62.809,69.858 82.592,69.858 82.592,69.858 C82.595,69.829 82.590,69.802 82.593,69.773 C82.799,67.740 84.230,66.967 85.719,67.027 C85.726,66.940 85.745,66.857 85.745,66.769 C85.745,66.769 85.745,56.134 85.745,56.134 C85.745,52.156 82.517,48.931 78.537,48.931 C78.537,48.931 62.406,48.931 62.406,48.931 ZM95.783,39.540 C95.783,40.535 96.591,41.341 97.586,41.341 C98.580,41.341 99.388,40.535 99.388,39.540 C99.388,38.546 98.580,37.738 97.586,37.738 C96.591,37.738 95.783,38.544 95.783,39.540 ZM131.097,38.722 C131.097,38.722 124.869,35.380 125.312,31.066 C125.648,27.711 129.324,27.770 131.097,29.385 C132.871,27.770 136.547,27.711 136.883,31.066 C137.326,35.380 131.097,38.722 131.097,38.722 ZM81.328,6.786 C81.328,6.786 77.572,4.773 77.837,2.167 C78.039,0.144 80.260,0.181 81.328,1.153 C82.399,0.181 84.617,0.144 84.819,2.167 C85.090,4.773 81.328,6.786 81.328,6.786 ZM59.364,26.308 C59.364,26.308 46.787,19.559 47.679,10.850 C48.361,4.081 55.784,4.189 59.364,7.454 C62.938,4.189 70.362,4.081 71.048,10.850 C71.944,19.559 59.364,26.308 59.364,26.308 ZM77.828,127.163 C78.895,126.182 81.112,126.151 81.319,128.170 C81.586,130.780 77.828,132.795 77.828,132.795 C77.828,132.795 74.068,130.780 74.337,128.170 C74.539,126.151 76.762,126.182 77.828,127.163 ZM88.379,106.579 C90.152,104.958 93.828,104.901 94.168,108.256 C94.611,112.570 88.379,115.912 88.379,115.912 C88.379,115.912 82.154,112.570 82.593,108.256 C82.933,104.901 86.609,104.958 88.379,106.579 Z" id="path-1" class="cls-2" fill-rule="evenodd"/>
</svg>
