<svg xmlns="http://www.w3.org/2000/svg" xmlns:xlink="http://www.w3.org/1999/xlink" version="1.1" id="Layer_1" x="0px" y="0px" width="150px" height="110px" viewBox="0 0 150 110" enable-background="new 0 0 150 110" xml:space="preserve">
<g>
	<path fill="#FFFFFF" d="M9.194 79.66c-0.768 0-1.398 0.157-1.89 0.47c-0.492 0.313-0.738 0.787-0.738 1.4 s0.246 1.1 0.7 1.454c0.492 0.3 1.5 0.7 3.1 1.085c1.603 0.4 2.8 0.9 3.6 1.6 c0.813 0.7 1.2 1.7 1.2 3.099c0 1.364-0.514 2.472-1.543 3.321c-1.029 0.85-2.379 1.276-4.049 1.3 c-2.446 0-4.616-0.843-6.509-2.528l1.655-1.99c1.581 1.4 3.2 2.1 4.9 2.058c0.85 0 1.524-0.182 2.024-0.548 c0.499-0.365 0.749-0.85 0.749-1.454c0-0.604-0.235-1.074-0.705-1.409c-0.47-0.336-1.278-0.641-2.427-0.917 c-1.148-0.276-2.021-0.53-2.617-0.76c-0.597-0.232-1.126-0.533-1.588-0.907c-0.925-0.7-1.387-1.774-1.387-3.221 c0-1.446 0.526-2.561 1.577-3.344c1.051-0.783 2.352-1.174 3.903-1.174c0.999 0 2 0.2 3 0.5 c0.984 0.3 1.8 0.8 2.5 1.386l-1.409 1.991c-0.463-0.417-1.088-0.76-1.879-1.029C10.741 79.8 10 79.7 9.2 79.66z"/>
	<path fill="#FFFFFF" d="M26.808 93.238h-2.684v-6.174l-5.816-9.462h2.886l4.273 7.113l4.272-7.113h2.886l-5.816 9.462V93.238z"/>
	<path fill="#FFFFFF" d="M39.491 93.238h-2.639V77.602h4.116l4.719 9.82l4.72-9.82H54.5v15.636h-2.64V81.025l-5.458 10.848h-1.476 l-5.436-10.848V93.238z"/>
	<path fill="#FFFFFF" d="M63.715 93.238h-2.639V77.602h4.116l4.719 9.82l4.72-9.82h4.094v15.636h-2.64V81.025l-5.458 10.848h-1.476 l-5.436-10.848V93.238z"/>
	<path fill="#FFFFFF" d="M96.283 77.602v2.484H87.94v4.137h7.494v2.349H87.94v4.182h8.612v2.484H85.3V77.602H96.283z"/>
	<path fill="#FFFFFF" d="M108.071 80.018v13.22h-2.64v-13.22h-4.742v-2.416h12.123v2.416H108.071z"/>
	<path fill="#FFFFFF" d="M130.394 82.68c0 2.58-1.126 4.205-3.378 4.877l4.094 5.682h-3.355l-3.736-5.257h-3.467v5.257h-2.639 V77.602h5.816c2.385 0 4.1 0.4 5.1 1.208C129.88 79.6 130.4 80.9 130.4 82.68z M126.882 84.9 c0.537-0.462 0.805-1.205 0.805-2.226c0-1.021-0.276-1.722-0.828-2.103c-0.552-0.38-1.536-0.57-2.953-0.57h-3.355v5.592h3.289 C125.331 85.6 126.3 85.4 126.9 84.895z"/>
	<path fill="#FFFFFF" d="M142.294 93.238h-2.684v-6.174l-5.816-9.462h2.886l4.273 7.113l4.272-7.113h2.886l-5.816 9.462V93.238z"/>
	<path fill="#009D48" d="M53.934 108h-1.452v-8.599h2.264l2.596 5.401l2.596-5.401h2.252V108h-1.452v-6.717l-3.002 5.967h-0.812 l-2.989-5.967V108z"/>
	<path fill="#009D48" d="M71.846 99.401v1.365h-4.588v2.276h4.121v1.292h-4.121v2.3h4.736V108h-6.188v-8.599H71.846z"/>
	<path fill="#009D48" d="M81.59 100.526c0.828 0.8 1.2 1.8 1.2 3.131c0 1.337-0.402 2.395-1.206 3.2 c-0.804 0.78-2.034 1.169-3.691 1.169h-2.854v-8.599h2.953C79.576 99.4 80.8 99.8 81.6 100.526z M81.368 103.7 c0-1.968-1.128-2.953-3.383-2.953h-1.452v5.894h1.612c1.041 0 1.839-0.248 2.392-0.745 C81.092 105.4 81.4 104.7 81.4 103.695z"/>
	<path fill="#009D48" d="M85.932 99.401h1.452V108h-1.452V99.401z"/>
	<path fill="#009D48" d="M92.219 106.044L91.358 108h-1.55l3.789-8.599h1.55L98.936 108h-1.55l-0.861-1.956H92.219z M95.935 104.7 l-1.562-3.543l-1.562 3.543H95.935z"/>
	<g>
		<polygon fill="#005926" points="97.7,34.4 95.1,40.8 80.5,34.9 92.2,31.3"/>
		<polygon fill="#005926" points="109.7,52.6 103.2,42.7 95.3,44.9 95.6,52.8 110.3,62.7 116.3,62.7"/>
		<linearGradient id="SVGID_1_" gradientUnits="userSpaceOnUse" x1="93.1" y1="67.7" x2="98.2" y2="53.8">
			<stop offset="0" style="stop-color:#00AF4C"/>
			<stop offset="0.4186" style="stop-color:#10B24E"/>
			<stop offset="1" style="stop-color:#45B755"/>
			<stop offset="1" style="stop-color:#4BB752"/>
		</linearGradient>
		<polygon fill="url(#SVGID_1_)" points="110.3,62.7 95.6,52.8 95.8,59.3 79.5,62.7"/>
		<polygon fill="#005926" points="67,14.1 73,13.9 79.5,6.8 75.6,1"/>
		<linearGradient id="SVGID_2_" gradientUnits="userSpaceOnUse" x1="85" y1="28.6" x2="89.2" y2="17.1">
			<stop offset="0" style="stop-color:#BAD532"/>
			<stop offset="0.3931" style="stop-color:#C2D834"/>
			<stop offset="1" style="stop-color:#D6E040"/>
		</linearGradient>
		<polygon fill="url(#SVGID_2_)" points="79.2,22.2 85.3,15.6 92.2,31.3"/>
		<linearGradient id="SVGID_3_" gradientUnits="userSpaceOnUse" x1="82.5" y1="35.7" x2="86.4" y2="24.8">
			<stop offset="0" style="stop-color:#62BB46"/>
			<stop offset="0.4435" style="stop-color:#6CBE49"/>
			<stop offset="1" style="stop-color:#7EC353"/>
		</linearGradient>
		<polygon fill="url(#SVGID_3_)" points="79.2,22.2 78.2,34 80.5,34.9 92.2,31.3"/>
		<polygon fill="#00A84F" points="97.7,34.4 85.3,15.6 92.2,31.3"/>
		<polygon fill="#00A84F" points="79.5,6.8 73,13.9 76.1,13.7 85.3,15.6"/>
		<polygon fill="#005926" points="64.9,44 51,38.3 65.9,30.9"/>
		<linearGradient id="SVGID_4_" gradientUnits="userSpaceOnUse" x1="63.9" y1="52.6" x2="68.8" y2="39.3">
			<stop offset="0" style="stop-color:#50B848"/>
			<stop offset="0.4038" style="stop-color:#69BD45"/>
			<stop offset="1" style="stop-color:#82C341"/>
		</linearGradient>
		<polygon fill="url(#SVGID_4_)" points="73,40.8 64.9,44 55.7,48.4 72.5,55.8 73.9,50.6"/>
		<polygon fill="#005926" points="79.5,62.7 72.5,55.8 95.8,59.3"/>
		<polygon fill="#00A84F" points="86.8,51.2 72.5,55.8 95.8,59.3"/>
		<polygon fill="#007F3E" points="51,38.3 50.7,46.8 55.7,48.4 64.9,44"/>
		<polygon fill="#005926" points="50.7,46.8 41.3,53.1 46,62.7 59.6,62.7 52.2,58.9"/>
		<polygon fill="#007F3E" points="34.9,62.7 46,62.7 41.3,53.1"/>
		<linearGradient id="SVGID_5_" gradientUnits="userSpaceOnUse" x1="97.7" y1="45.7" x2="101.3" y2="35.7">
			<stop offset="0" style="stop-color:#ADD136"/>
			<stop offset="0.3931" style="stop-color:#B6D439"/>
			<stop offset="1" style="stop-color:#CADB44"/>
		</linearGradient>
		<polygon fill="url(#SVGID_5_)" points="97.7,34.4 95.1,40.8 95.3,44.9 103.2,42.7"/>
		<polygon fill="#007F3E" points="79.2,22.2 85.3,15.6 76.1,13.7"/>
		<polygon fill="#005926" points="79.2,22.2 71.9,23.4 61.7,22.2 76.1,13.7"/>
		<linearGradient id="SVGID_6_" gradientUnits="userSpaceOnUse" x1="66.7" y1="24" x2="71.1" y2="11.9">
			<stop offset="0" style="stop-color:#72BF44"/>
			<stop offset="0.4435" style="stop-color:#79C147"/>
			<stop offset="1" style="stop-color:#86C552"/>
		</linearGradient>
		<polygon fill="url(#SVGID_6_)" points="67,14.1 61.7,22.2 76.1,13.7"/>
		<linearGradient id="SVGID_7_" gradientUnits="userSpaceOnUse" x1="56.4" y1="40.3" x2="62.8" y2="22.6">
			<stop offset="0" style="stop-color:#50B848"/>
			<stop offset="0.3194" style="stop-color:#5CBA49"/>
			<stop offset="0.8252" style="stop-color:#77C151"/>
			<stop offset="1" style="stop-color:#81C454"/>
		</linearGradient>
		<polygon fill="url(#SVGID_7_)" points="65.9,30.9 61.7,22.2 51,38.3"/>
		<polygon fill="#007F3E" points="86.8,51.2 95.8,59.3 95.1,40.8"/>
		<polygon fill="#007F3E" points="72.5,55.8 64.9,57 52.2,58.9 59.6,62.7 79.5,62.7"/>
		<polygon fill="#0DB14B" points="50.7,46.8 52.2,58.9 55.7,48.4"/>
		<linearGradient id="SVGID_8_" gradientUnits="userSpaceOnUse" x1="82.2" y1="49.6" x2="86.7" y2="37.1">
			<stop offset="0" style="stop-color:#85C441"/>
			<stop offset="0.4186" style="stop-color:#8DC743"/>
			<stop offset="1" style="stop-color:#A0CD4E"/>
		</linearGradient>
		<polygon fill="url(#SVGID_8_)" points="86.8,51.2 78.2,34 95.1,40.8"/>
		<polygon fill="#00A651" points="86.8,51.2 78.2,34 73,40.8"/>
		<linearGradient id="SVGID_9_" gradientUnits="userSpaceOnUse" x1="77.7" y1="52" x2="80.8" y2="43.7">
			<stop offset="0" style="stop-color:#39B54A"/>
			<stop offset="0.648" style="stop-color:#49B749"/>
			<stop offset="1" style="stop-color:#54B948"/>
		</linearGradient>
		<polygon fill="url(#SVGID_9_)" points="86.8,51.2 73,40.8 73.9,50.6"/>
		<polygon fill="#005926" points="73.9,50.6 72.5,55.8 86.8,51.2"/>
		<polygon fill="#00A651" points="79.2,22.2 78.2,34 71.9,23.4"/>
		<linearGradient id="SVGID_10_" gradientUnits="userSpaceOnUse" x1="66.3" y1="44.6" x2="70.6" y2="32.7">
			<stop offset="0" style="stop-color:#39B54A"/>
			<stop offset="0.4435" style="stop-color:#47B74D"/>
			<stop offset="1" style="stop-color:#5CBB56"/>
		</linearGradient>
		<polygon fill="url(#SVGID_10_)" points="65.9,30.9 64.9,44 73,40.8"/>
		<linearGradient id="SVGID_11_" gradientUnits="userSpaceOnUse" x1="64.1" y1="30.3" x2="67.2" y2="21.7">
			<stop offset="0" style="stop-color:#ADD136"/>
			<stop offset="0.3931" style="stop-color:#B6D439"/>
			<stop offset="1" style="stop-color:#CADB44"/>
		</linearGradient>
		<polygon fill="url(#SVGID_11_)" points="71.9,23.4 61.7,22.2 65.9,30.9"/>
		<linearGradient id="SVGID_12_" gradientUnits="userSpaceOnUse" x1="69.4" y1="39.5" x2="72.2" y2="31.8">
			<stop offset="0" style="stop-color:#85C441"/>
			<stop offset="0.4186" style="stop-color:#8DC743"/>
			<stop offset="1" style="stop-color:#A0CD4E"/>
		</linearGradient>
		<polygon fill="url(#SVGID_12_)" points="73,40.8 65.9,30.9 78.2,34"/>
		<polygon fill="#007F3E" points="71.9,23.4 65.9,30.9 78.2,34"/>
		<polygon fill="#00A651" points="50.7,46.8 51,38.3 41.3,53.1"/>
		<linearGradient id="SVGID_13_" gradientUnits="userSpaceOnUse" x1="60.5" y1="62" x2="64.3" y2="51.5">
			<stop offset="0" style="stop-color:#50B848"/>
			<stop offset="0.5264" style="stop-color:#5CBA47"/>
			<stop offset="1" style="stop-color:#6CBE45"/>
		</linearGradient>
		<polygon fill="url(#SVGID_13_)" points="72.5,55.8 52.2,58.9 55.7,48.4"/>
	</g>
</g>
</svg>
