<?xml version="1.0" encoding="utf-8"?>
<!-- Generator: Adobe Illustrator 17.0.0, SVG Export Plug-In . SVG Version: 6.00 Build 0)  -->
<!DOCTYPE svg PUBLIC "-//W3C//DTD SVG 1.1//EN" "http://www.w3.org/Graphics/SVG/1.1/DTD/svg11.dtd">
<svg version="1.1" id="Layer_1" xmlns="http://www.w3.org/2000/svg" xmlns:xlink="http://www.w3.org/1999/xlink" x="0px" y="0px"
	 width="360px" height="52.254px" viewBox="0 0 360 52.254" enable-background="new 0 0 360 52.254" xml:space="preserve">
<g>
	<defs>
		<rect id="SVGID_1_" y="0" width="360" height="52.254"/>
	</defs>
	<clipPath id="SVGID_2_">
		<use xlink:href="#SVGID_1_"  overflow="visible"/>
	</clipPath>
	<path clip-path="url(#SVGID_2_)" fill="none" stroke="#FFFFFF" stroke-width="2.69" d="M9.414,1.345c0,0-8.069,0-8.069,8.069V42.84
		c0,0,0,8.069,8.069,8.069h341.172c0,0,8.069,0,8.069-8.069V9.414c0,0,0-8.069-8.069-8.069H9.414z"/>
</g>
<g>
	<path fill="#FFFFFF" d="M57.029,36.417V17.216h6.115c2.322,0,4.088,0.501,5.297,1.504s1.813,2.498,1.813,4.485
		c0,2.066-0.643,3.646-1.929,4.741c-1.286,1.095-3.115,1.642-5.486,1.642H61.1v6.829H57.029z M61.1,26.252h1.339
		c1.252,0,2.189-0.247,2.811-0.742c0.622-0.495,0.933-1.215,0.933-2.16c0-0.954-0.261-1.659-0.781-2.115
		c-0.521-0.455-1.338-0.683-2.45-0.683H61.1V26.252z"/>
	<path fill="#FFFFFF" d="M73.918,36.417V17.216h4.071v15.812h7.788v3.389H73.918z"/>
	<path fill="#FFFFFF" d="M86.697,36.417l6.465-19.279h4.984l6.491,19.279h-4.071l-1.394-4.597h-7.009l-1.394,4.597H86.697z
		 M93.188,28.431h5.01c-1.289-4.141-2.014-6.483-2.177-7.026c-0.162-0.543-0.278-0.972-0.348-1.287
		C95.384,21.239,94.556,24.01,93.188,28.431z"/>
	<path fill="#FFFFFF" d="M105.254,17.216h4.413l3.993,7.906l4.019-7.906h4.387l-6.37,11.728v7.473h-4.071v-7.342L105.254,17.216z"/>
	<path fill="#FFFFFF" d="M130.588,26.777c0-3.2,0.773-5.644,2.321-7.332c1.547-1.688,3.766-2.532,6.655-2.532
		c2.889,0,5.098,0.851,6.628,2.552c1.53,1.701,2.295,4.146,2.295,7.338c0,3.174-0.771,5.613-2.315,7.318
		c-1.543,1.705-3.755,2.558-6.635,2.558c-2.881,0-5.092-0.853-6.636-2.558C131.359,32.417,130.588,29.968,130.588,26.777z
		 M134.659,26.803c0,2.149,0.407,3.768,1.223,4.855s2.034,1.632,3.656,1.632c3.252,0,4.879-2.162,4.879-6.487
		c0-4.334-1.618-6.501-4.853-6.501c-1.622,0-2.845,0.546-3.669,1.638C135.071,23.033,134.659,24.654,134.659,26.803z"/>
	<path fill="#FFFFFF" d="M152.717,29.588V17.216h4.071V28.99c0,1.481,0.297,2.569,0.892,3.262c0.594,0.693,1.578,1.039,2.95,1.039
		c1.329,0,2.292-0.349,2.891-1.046c0.599-0.697,0.898-1.791,0.898-3.281V17.216h4.071V29.64c0,1.418-0.318,2.661-0.953,3.729
		s-1.553,1.887-2.753,2.456c-1.2,0.569-2.62,0.854-4.258,0.854c-2.472,0-4.391-0.633-5.758-1.897
		C153.4,33.516,152.717,31.785,152.717,29.588z"/>
	<path fill="#FFFFFF" d="M173.178,36.417V17.216h5.578c2.601,0,4.526,0.475,5.775,1.425c1.248,0.95,1.872,2.393,1.872,4.328
		c0,1.133-0.308,2.142-0.924,3.025c-0.615,0.883-1.487,1.575-2.614,2.076c2.882,4.308,4.761,7.09,5.637,8.348h-4.518l-4.568-7.342
		h-2.167v7.342H173.178z M177.25,25.739h1.313c1.287,0,2.237-0.214,2.85-0.644c0.612-0.429,0.919-1.103,0.919-2.022
		c0-0.911-0.313-1.559-0.939-1.944s-1.595-0.578-2.909-0.578h-1.234V25.739z"/>
	<path fill="#FFFFFF" d="M196.762,35.514v-3.796c1.296,0.577,2.393,0.983,3.29,1.219c0.897,0.236,1.718,0.354,2.462,0.354
		c0.89,0,1.573-0.17,2.049-0.511s0.714-0.848,0.714-1.521c0-0.375-0.105-0.709-0.314-1.002c-0.21-0.293-0.518-0.574-0.924-0.846
		c-0.405-0.271-1.232-0.703-2.48-1.297c-1.178-0.551-2.062-1.079-2.651-1.586c-0.591-0.506-1.062-1.096-1.415-1.769
		s-0.528-1.459-0.528-2.359c0-1.698,0.577-3.033,1.731-4.004c1.154-0.972,2.751-1.458,4.788-1.458c0.999,0,1.952,0.118,2.86,0.354
		c0.907,0.237,1.856,0.569,2.847,0.999l-1.317,3.165c-1.025-0.42-1.873-0.714-2.543-0.88c-0.67-0.167-1.329-0.25-1.978-0.25
		c-0.769,0-1.357,0.179-1.768,0.538c-0.411,0.359-0.615,0.827-0.615,1.404c0,0.358,0.082,0.671,0.248,0.937
		c0.166,0.267,0.43,0.524,0.792,0.773s1.22,0.697,2.573,1.343c1.798,0.856,3.03,1.714,3.698,2.574
		c0.667,0.861,1.001,1.916,1.001,3.165c0,1.74-0.624,3.111-1.872,4.113c-1.249,1.002-2.985,1.503-5.21,1.503
		C200.15,36.679,198.338,36.291,196.762,35.514z"/>
	<path fill="#FFFFFF" d="M212.735,36.417V17.216h4.071v7.525h7.604v-7.525h4.071v19.201h-4.071V28.13h-7.604v8.287H212.735z"/>
	<path fill="#FFFFFF" d="M232.461,26.777c0-3.2,0.774-5.644,2.321-7.332c1.548-1.688,3.767-2.532,6.655-2.532
		c2.89,0,5.099,0.851,6.629,2.552c1.53,1.701,2.295,4.146,2.295,7.338c0,3.174-0.771,5.613-2.314,7.318s-3.755,2.558-6.636,2.558
		c-2.88,0-5.092-0.853-6.635-2.558C233.232,32.417,232.461,29.968,232.461,26.777z M236.532,26.803c0,2.149,0.408,3.768,1.224,4.855
		s2.034,1.632,3.655,1.632c3.253,0,4.879-2.162,4.879-6.487c0-4.334-1.617-6.501-4.853-6.501c-1.622,0-2.845,0.546-3.669,1.638
		S236.532,24.654,236.532,26.803z"/>
	<path fill="#FFFFFF" d="M252.306,17.216h4.006l2.456,10.48c0.429,1.936,0.739,3.612,0.932,5.03c0.053-0.499,0.186-1.27,0.399-2.312
		c0.213-1.043,0.379-1.856,0.499-2.44l2.82-10.757h3.879l2.82,10.745c0.124,0.48,0.271,1.217,0.442,2.207
		c0.171,0.991,0.317,1.84,0.439,2.546c0.086-0.682,0.222-1.533,0.41-2.552c0.188-1.02,0.358-1.844,0.513-2.474l2.382-10.472h4.006
		l-4.886,19.201h-4.643l-2.604-10.085c-0.096-0.358-0.249-1.101-0.46-2.226c-0.21-1.125-0.351-1.881-0.423-2.267
		c0.065,0.502-0.012,1.277-0.23,2.324c-0.219,1.047-0.375,1.793-0.468,2.239l-2.652,10.015h-4.739L252.306,17.216z"/>
	<path fill="#FFFFFF" d="M280.726,36.417V17.216h5.578c2.602,0,4.526,0.475,5.775,1.425c1.248,0.95,1.872,2.393,1.872,4.328
		c0,1.133-0.308,2.142-0.924,3.025c-0.615,0.883-1.487,1.575-2.614,2.076c2.882,4.308,4.761,7.09,5.637,8.348h-4.518l-4.568-7.342
		h-2.167v7.342H280.726z M284.797,25.739h1.313c1.287,0,2.237-0.214,2.851-0.644c0.612-0.429,0.919-1.103,0.919-2.022
		c0-0.911-0.313-1.559-0.939-1.944s-1.596-0.578-2.908-0.578h-1.235V25.739z"/>
	<path fill="#FFFFFF" d="M298.481,36.417V17.216h11.059v3.336h-6.987v4.216h6.501v3.335h-6.501v4.925h6.987v3.389H298.481z"/>
	<path fill="#FFFFFF" d="M313.545,36.417V17.216h11.059v3.336h-6.987v4.216h6.501v3.335h-6.501v4.925h6.987v3.389H313.545z"/>
	<path fill="#FFFFFF" d="M328.608,36.417V17.216h4.071v15.812h7.788v3.389H328.608z"/>
</g>
<g>
	<defs>
		<rect id="SVGID_3_" y="0" width="360" height="52.254"/>
	</defs>
	<clipPath id="SVGID_4_">
		<use xlink:href="#SVGID_3_"  overflow="visible"/>
	</clipPath>
	<path clip-path="url(#SVGID_4_)" fill="#FFFFFF" d="M40.942,26.853l-13.167,7.332V19.521L40.942,26.853z M45.639,26.853
		c0-7.463-6.05-13.514-13.514-13.514c-7.463,0-13.513,6.051-13.513,13.514s6.05,13.513,13.513,13.513
		C39.589,40.366,45.639,34.316,45.639,26.853"/>
</g>
</svg>
