<?xml version="1.0" standalone="no"?>
<!DOCTYPE svg PUBLIC "-//W3C//DTD SVG 1.1//EN" "http://www.w3.org/Graphics/SVG/1.1/DTD/svg11.dtd" >
<svg>
<metadata>
Created by FontForge 20090914 at Thu Aug  1 14:17:38 2013
 By www-data
Copyright Erik Spiekermann, 1991, 93, 98. Published by FontShop International for  FontFont Release 23. Copyright (c) ParaType, Inc., 2000. All rights reserved. Meta is a trademark of FSI Fonts and Software GmbH.
</metadata>
<defs>
<font id="MetaMediumC" horiz-adv-x="271" >
  <font-face 
    font-family="MetaMediumC"
    font-weight="500"
    font-stretch="normal"
    units-per-em="1000"
    panose-1="0 0 6 0 0 0 0 0 0 0"
    ascent="784"
    descent="-216"
    x-height="506"
    cap-height="692"
    bbox="-42.999 -216 925 915.002"
    underline-thickness="50"
    underline-position="-100"
    unicode-range="U+0020-U+F6D4"
  />
<missing-glyph horiz-adv-x="225" 
 />
    <glyph glyph-name=".notdef" horiz-adv-x="225" 
 />
    <glyph glyph-name="space" unicode=" " horiz-adv-x="225" 
 />
    <glyph glyph-name="space" unicode="&#xa0;" horiz-adv-x="225" 
 />
    <glyph glyph-name="exclam" unicode="!" horiz-adv-x="286" 
d="M208 706l-24 -494h-84l-25 475zM216 64c0 -20.667 -7.33203 -38.167 -21.999 -52.5s-32 -21.5 -52 -21.5c-20.667 0 -37.834 7.16699 -51.501 21.5s-20.5 31.833 -20.5 52.5c0 20 7 37.167 21 51.5s31.333 21.5 52 21.5c20 0 37.167 -7.16699 51.5 -21.5
s21.5 -31.5 21.5 -51.5z" />
    <glyph glyph-name="quotedbl" unicode="&#x22;" horiz-adv-x="443" 
d="M373 442h-102v267h102v-267zM172 442h-102v267h102v-267z" />
    <glyph glyph-name="numbersign" unicode="#" horiz-adv-x="556" 
d="M526 425h-100l-20 -141h90v-77h-100l-29 -207h-83l29 207h-112l-29 -207h-82l28 207h-88v77h99l19 141h-89v77h100l28 206h83l-29 -206h112l29 206h82l-28 -206h90v-77zM343 425h-112l-20 -141h113z" />
    <glyph glyph-name="dollar" unicode="$" horiz-adv-x="579" 
d="M539 210c0 -61.333 -21.501 -111.833 -64.501 -151.5s-95.5 -62.834 -157.5 -69.501v-88h-72v87c-72.667 2 -141 22 -205 60l44 89c65.333 -37.333 129.333 -56 192 -56c43.333 0 76.333 10.333 99 31s34 46.667 34 78c0 50 -31.667 84.333 -95 103l-84 25
c-62.667 18.667 -106 44.667 -130 78c-22 30 -33 65.667 -33 107c0 55.333 17.5 100.333 52.5 135s83.167 56.334 144.5 65.001v76h72v-76c68.667 -4 131 -26 187 -66l-52 -81c-58.667 35.333 -111.667 53 -159 53c-39.333 0 -68.833 -7.83301 -88.5 -23.5
s-29.5 -37.167 -29.5 -64.5c0 -42.667 26.667 -71 80 -85l94 -26c54.667 -14.667 96.334 -39 125.001 -73c30.667 -34.667 46 -77 46 -127z" />
    <glyph glyph-name="percent" unicode="%" horiz-adv-x="834" 
d="M804 162c0 -51.333 -14.833 -92.6689 -44.5 -124.002s-70.5 -47 -122.5 -47c-51.333 0 -91.833 15.333 -121.5 46s-44.5 72.334 -44.5 125.001c0 52 15.167 93.5 45.5 124.5s70.166 46.5 119.499 46.5c52.667 0 93.834 -15.167 123.501 -45.5s44.5 -72.166 44.5 -125.499
zM633 689.997l-351 -690h-79l350 690h80zM363 527.997c0 -52.667 -14.998 -94.001 -44.998 -124.001c-30.667 -30.667 -71.334 -46 -122.001 -46c-51.333 0 -91.833 15.333 -121.5 46s-44.5 72.334 -44.5 125.001c0 52 15.167 93.5 45.5 124.5s70.166 46.5 119.499 46.5
c52 0 93 -15 123 -45s45 -72.333 45 -127zM713.002 159.996c0 38.667 -6.16699 66.5 -18.5 83.5s-31.833 25.5 -58.5 25.5c-50 0 -75 -34.333 -75 -103c0 -40 6 -68.333 18 -85s31.667 -25 59 -25c50 0 75 34.667 75 104zM272.002 526.996c0 38 -6.16699 65.667 -18.5 83
s-31.833 26 -58.5 26c-50 0 -75 -34.667 -75 -104c0 -39.333 6.16699 -67.5 18.5 -84.5s31.833 -25.5 58.5 -25.5c50 0 75 35 75 105z" />
    <glyph glyph-name="ampersand" unicode="&#x26;" horiz-adv-x="689" 
d="M689 0l-151 -0.000976562l-53 53c-44 -44 -108.333 -66 -193 -66c-77.333 0 -137 16.667 -179 50s-63 78.666 -63 135.999c0 40.667 11.167 74.5 33.5 101.5s55.5 51.167 99.5 72.5c-32.667 26 -55.667 50.5 -69 73.5s-20 49.5 -20 79.5c0 46.667 17.833 85.5 53.5 116.5
s81.167 46.5 136.5 46.5c56 0 102.333 -14.167 139 -42.5s55 -66.166 55 -113.499c0 -36.667 -11.667 -67.667 -35 -93s-57.333 -48.666 -102 -69.999l136 -132c9.33301 24 14 64.667 14 122h92c0 -80.667 -11.333 -145.667 -34 -195zM362 506.999
c0 23.333 -7.16699 42.334 -21.5 57.001s-32.833 22 -55.5 22s-41.167 -6.66699 -55.5 -20s-21.5 -32 -21.5 -56c0 -16.667 5 -32.834 15 -48.501s29 -36.5 57 -62.5c54.667 27.333 82 63.333 82 108zM420 115l-178 174c-49.333 -27.333 -74 -65 -74 -113
c0 -34 11.333 -60.667 34 -80s54 -29 94 -29c56 0 97.333 16 124 48z" />
    <glyph glyph-name="quotesingle" unicode="'" horiz-adv-x="242" 
d="M172 442h-102v267h102v-267z" />
    <glyph glyph-name="parenleft" unicode="(" horiz-adv-x="303" 
d="M323 -103l-29.001 -59.9971c-45.333 16.667 -85.5 42.667 -120.5 78s-62.5 77.666 -82.5 126.999c-27.333 68 -41 161.333 -41 280c0 97.333 11.667 176 35 236c40 102.667 109.333 176 208 220l28 -61c-60 -40.667 -101.333 -88.334 -124 -143.001
c-24 -56 -36 -139.333 -36 -250c0 -90.667 7 -164.334 21 -221.001c12.667 -50 29.334 -91.667 50.001 -125s51 -60.333 91 -81z" />
    <glyph glyph-name="parenright" unicode=")" horiz-adv-x="304" 
d="M254 310c0 -97.333 -10.665 -177.998 -31.998 -241.998c-18 -52.667 -45.333 -99.334 -82 -140.001s-80.334 -71 -131.001 -91l-29 61c63.333 36 108.333 93.333 135 172c18 54 27 134 27 240c0 64 -6.33301 129.333 -19 196c-18 95.333 -65 165.666 -141 210.999l28 61
c87.333 -34.667 153.666 -99.334 198.999 -194.001c30 -63.333 45 -154.666 45 -273.999z" />
    <glyph glyph-name="asterisk" unicode="*" horiz-adv-x="456" 
d="M431 531l-136 -45l86 -118l-67 -51l-87 121l-84 -118l-66 50l86 116l-138 47l27 79l136 -48v144h82v-144l136 46z" />
    <glyph glyph-name="plus" unicode="+" horiz-adv-x="600" 
d="M550 232h-199v-200h-102v200h-199v104h199v200h102v-200h199v-104z" />
    <glyph glyph-name="comma" unicode="," horiz-adv-x="282" 
d="M222 35c0 -40.667 -12.332 -77.332 -36.999 -109.999s-56.334 -55.667 -95.001 -69l-40 50c20 6.66699 36.333 16.667 49 30s19 27 19 41c0 8 -7.33301 15 -22 21c-28.667 11.333 -43 33.666 -43 66.999c0 22.667 7.66699 41.667 23 57s34 23 56 23
c26 0 47.5 -10.333 64.5 -31s25.5 -47 25.5 -79z" />
    <glyph glyph-name="hyphen" unicode="-" horiz-adv-x="319" 
d="M269 221h-219v102h219v-102z" />
    <glyph glyph-name="hyphen" unicode="&#xad;" horiz-adv-x="319" 
d="M269 221h-219v102h219v-102z" />
    <glyph glyph-name="period" unicode="." horiz-adv-x="277" 
d="M217 67c0 -22.667 -7.66797 -42 -23.001 -58s-33.666 -24 -54.999 -24c-22 0 -40.667 8 -56 24s-23 35.333 -23 58c0 22 7.5 40.667 22.5 56s33.167 23 54.5 23c22 0 40.833 -7.66699 56.5 -23s23.5 -34 23.5 -56z" />
    <glyph glyph-name="slash" unicode="/" horiz-adv-x="440" 
d="M390 762l-264 -913h-76l263 913h77z" />
    <glyph glyph-name="zero" unicode="0" horiz-adv-x="562" 
d="M512 252c0 -80 -21.167 -144.167 -63.5 -192.5s-98.166 -72.5 -167.499 -72.5c-71.333 0 -127.666 23.833 -168.999 71.5s-62 112.167 -62 193.5c0 80.667 21.167 145.167 63.5 193.5s98.166 72.5 167.499 72.5c71.333 0 127.666 -24 168.999 -72s62 -112.667 62 -194z
M392 245c0 70.667 -9.33301 120.167 -28 148.5s-46.667 42.5 -84 42.5c-73.333 0 -110 -59 -110 -177c0 -70 9.33301 -119.167 28 -147.5s46.667 -42.5 84 -42.5c73.333 0 110 58.667 110 176z" />
    <glyph glyph-name="one" unicode="1" horiz-adv-x="430" 
d="M385 0h-294v89h103v301c-38.667 -24 -81 -45 -127 -63l-27 58l183 132h77v-428h85v-89z" />
    <glyph glyph-name="two" unicode="2" horiz-adv-x="551" 
d="M491 91l-22.999 -91.0039h-401v98l119 77c59.333 38 100.666 68.833 123.999 92.5s35 49.834 35 78.501c0 24.667 -8.16699 43.5 -24.5 56.5s-38.833 19.5 -67.5 19.5c-42.667 0 -90.667 -21 -144 -63l-59 64c72 64 149.667 96 233 96c56 0 101.333 -14.167 136 -42.5
s52 -66.166 52 -113.499c0 -41.333 -17 -80.666 -51 -117.999s-88.333 -78.666 -163 -123.999l-56 -34c29.333 2.66699 63 4 101 4h189z" />
    <glyph glyph-name="three" unicode="3" horiz-adv-x="524" 
d="M474 51c0 -46.667 -15.6699 -88.3301 -47.0029 -124.997c-65.333 -72.667 -165 -109 -299 -109c-26 0 -49 1.33301 -69 4l-25 75c42 -7.33301 86.333 -7 133 1s84.334 22.667 113.001 44c44.667 32.667 67 72.334 67 119.001c0 42.667 -19.333 72.667 -58 90
c-17.333 8 -45 12 -83 12h-57v88c24 -2 44.667 -3 62 -3c83.333 0 125 30.333 125 91c0 27.333 -8.83301 49.166 -26.5 65.499s-42.167 24.5 -73.5 24.5c-45.333 0 -95.666 -18.333 -150.999 -55l-55 65c30.667 26 65.834 46.167 105.501 60.5s78.834 21.5 117.501 21.5
c59.333 0 108.166 -15.833 146.499 -47.5s57.5 -71.834 57.5 -120.501c0 -72.667 -37.667 -122.334 -113 -149.001c41.333 -12.667 73.333 -32.334 96 -59.001s34 -57.667 34 -93z" />
    <glyph glyph-name="four" unicode="4" horiz-adv-x="535" 
d="M505 8h-47l-31 2c2.66699 -11.333 4 -23.333 4 -36v-143l-105 -18v164l1 32c-12.667 -0.666992 -25 -1 -37 -1h-260v78l205 437h115l-160 -342c-10.667 -23.333 -21 -43 -31 -59l-15 -25c12 2 22.333 3 31 3h120l35 -1c-3.33301 24.667 -1 79 7 163l8 88l86 21v-185
l-3 -87c14 0.666992 25.333 1 34 1h43v-92z" />
    <glyph glyph-name="five" unicode="5" horiz-adv-x="510" 
d="M450 63c0 -72.667 -28.833 -132.167 -86.5 -178.5s-129.834 -69.5 -216.501 -69.5c-27.333 0 -52 2.66699 -74 8l-23 80c30 -8.66699 58.333 -13 85 -13c56.667 0 103.5 15.5 140.5 46.5s55.5 69.833 55.5 116.5c0 36 -11.5 64.5 -34.5 85.5s-53.5 31.5 -91.5 31.5
c-42 0 -87.667 -8.33301 -137 -25l32 361h320l-16 -93h-203l-15 -163c23.333 3.33301 42.333 5 57 5c60.667 0 110.334 -17.5 149.001 -52.5s58 -81.5 58 -139.5z" />
    <glyph glyph-name="six" unicode="6" horiz-adv-x="576" 
d="M521 209c0 -63.333 -21.668 -116.169 -65.001 -158.502s-97.333 -63.5 -162 -63.5c-70.667 0 -128.167 25.667 -172.5 77s-66.5 118 -66.5 200c0 62.667 14.167 121.834 42.5 177.501s66.5 104.5 114.5 146.5c64.667 56.667 139.334 97.334 224.001 122.001l24 -77
c-72.667 -23.333 -131.334 -57.333 -176.001 -102c-45.333 -45.333 -76.666 -99 -93.999 -161c33.333 29.333 75 44 125 44c56.667 0 105.167 -19.333 145.5 -58s60.5 -87.667 60.5 -147zM402.999 206.997c0 37.333 -9.66699 66.668 -29 88.001s-45 32 -77 32
c-36 0 -74.667 -13.667 -116 -41c-2 -16.667 -3 -36.334 -3 -59.001c0 -50.667 9.66699 -89.167 29 -115.5s47 -39.5 83 -39.5c34.667 0 62.167 12 82.5 36s30.5 57 30.5 99z" />
    <glyph glyph-name="seven" unicode="7" horiz-adv-x="498" 
d="M468 506l-20.001 -100c-33.333 -48 -63 -95 -89 -141c-51.333 -88.667 -90.666 -176.667 -117.999 -264c-20 -44.667 -37 -99 -51 -163l-124 -32c14.667 65.333 35 132.333 61 201c28 73.333 58.333 141 91 203c43.333 82 87 149.667 131 203
c-11.333 -2.66699 -33 -4 -65 -4h-254l25 97h413z" />
    <glyph glyph-name="eight" unicode="8" horiz-adv-x="587" 
d="M537 191c0 -59.333 -22.5 -108.171 -67.5 -146.504s-106.167 -57.5 -183.5 -57.5c-71.333 0 -128.5 17.333 -171.5 52s-64.5 80 -64.5 136c0 40.667 12.167 76.334 36.5 107.001s55.5 52.667 93.5 66c-33.333 12.667 -59.833 33.334 -79.5 62.001s-29.5 59 -29.5 91
c0 52.667 20.667 95.334 62 128.001s96.333 49 165 49c63.333 0 114.833 -15.333 154.5 -46s59.5 -70.334 59.5 -119.001c0 -30 -10.5 -59.167 -31.5 -87.5s-55.5 -50.166 -103.5 -65.499c106.667 -39.333 160 -95.666 160 -168.999zM394 513.995
c0 26.667 -9.33301 47.4971 -28 62.4971s-44.667 22.5 -78 22.5c-32 0 -57.667 -8 -77 -24s-29 -37.333 -29 -64c0 -21.333 7.83301 -39.666 23.5 -54.999s46.167 -33.666 91.5 -54.999c64.667 32.667 97 70.334 97 113.001zM415 167.992c0 32 -11.168 56.667 -33.501 74
s-65.5 39 -129.5 65c-54.667 -31.333 -82 -72.333 -82 -123c0 -35.333 11.5 -63.5 34.5 -84.5s54.167 -31.5 93.5 -31.5c34.667 0 62.834 9.33301 84.501 28s32.5 42.667 32.5 72z" />
    <glyph glyph-name="nine" unicode="9" horiz-adv-x="561" 
d="M511 257c0 -125.333 -50 -235.999 -150 -331.999c-72 -67.333 -150.667 -112.333 -236 -135l-59 66c63.333 14 125 46 185 96c52 43.333 88.333 93.666 109 150.999c-34.667 -20.667 -69 -31 -103 -31c-59.333 0 -108.666 20.5 -147.999 61.5s-59 92.833 -59 155.5
c0 66 22.167 120.833 66.5 164.5s99.833 65.5 166.5 65.5c69.333 0 124.666 -23.5 165.999 -70.5s62 -110.833 62 -191.5zM392 279.001c0 47.333 -10.167 85.001 -30.5 113.001s-47.5 42 -81.5 42c-33.333 0 -60 -13 -80 -39s-30 -60.333 -30 -103c0 -40.667 10 -73 30 -97
s47 -36 81 -36c35.333 0 69 14.667 101 44c6.66699 27.333 10 52.666 10 75.999z" />
    <glyph glyph-name="colon" unicode=":" horiz-adv-x="295" 
d="M225 372c0 -22 -7.66797 -40.501 -23.001 -55.501s-33.666 -22.5 -54.999 -22.5c-20.667 0 -38.5 7.33301 -53.5 22s-22.5 32.667 -22.5 54c0 22 7.5 40.667 22.5 56s33.167 23.333 54.5 24c21.333 0 39.5 -7.66699 54.5 -23s22.5 -33.666 22.5 -54.999zM223.999 62.999
c0 -21.333 -7.66797 -39.5 -23.001 -54.5s-33.666 -22.5 -54.999 -22.5s-39.333 7.5 -54 22.5s-22 33.167 -22 54.5c0 22 7.5 41 22.5 57s33.5 23.667 55.5 23c20.667 0 38.5 -7.83301 53.5 -23.5s22.5 -34.5 22.5 -56.5z" />
    <glyph glyph-name="semicolon" unicode=";" horiz-adv-x="313" 
d="M229 371c0 -21.333 -7.50098 -39.666 -22.501 -54.999s-33.167 -23 -54.5 -23s-39.666 7.66699 -54.999 23s-23 33.666 -23 54.999s7.5 39.833 22.5 55.5s32.833 23.5 53.5 23.5c21.333 0.666992 39.833 -7 55.5 -23s23.5 -34.667 23.5 -56zM242.999 32
c0 -40 -12.5 -76.334 -37.5 -109.001s-56.833 -55.667 -95.5 -69l-40 49c20 6.66699 36.333 16.667 49 30s19 26.666 19 39.999c0 6 -3.33301 11.333 -10 16s-14.167 8.83398 -22.5 12.501s-15.833 10.834 -22.5 21.501s-10 23.667 -10 39
c0 22.667 7.66699 41.834 23 57.501s34 23.5 56 23.5c26.667 0 48.5 -10.333 65.5 -31s25.5 -47.334 25.5 -80.001z" />
    <glyph glyph-name="less" unicode="&#x3c;" horiz-adv-x="368" 
d="M328 81l-88 -69l-220 287l220 288l88 -71l-165 -217z" />
    <glyph glyph-name="equal" unicode="=" horiz-adv-x="635" 
d="M585 344h-535v101h535v-101zM585 162h-535v101h535v-101z" />
    <glyph glyph-name="greater" unicode="&#x3e;" horiz-adv-x="367" 
d="M347 299l-219 -287l-88 69l164 218l-164 217l88 71z" />
    <glyph glyph-name="question" unicode="?" horiz-adv-x="463" 
d="M403 543c0 -22 -3.33398 -41.834 -10.001 -59.501s-16.334 -33.167 -29.001 -46.5s-22.5 -22.666 -29.5 -27.999s-16.5 -12 -28.5 -20c-44.667 -30 -67 -72.333 -67 -127c0 -13.333 1 -26.333 3 -39h-94c-5.33301 23.333 -8 44 -8 62c0 56.667 26 106 78 148
c4 2.66699 10.667 7.5 20 14.5s16.333 12.5 21 16.5s10.167 9.5 16.5 16.5s10.833 14.5 13.5 22.5s4 17 4 27c0 24.667 -8.16699 43.667 -24.5 57s-37.166 20 -62.499 20c-40.667 0 -80 -15 -118 -45l-48 71c50.667 46 113.334 69 188.001 69
c49.333 0 90.833 -14.5 124.5 -43.5s50.5 -67.5 50.5 -115.5zM281.999 63.999c0 -21.333 -7.49902 -39.5 -22.499 -54.5s-32.833 -22.5 -53.5 -22.5s-38.167 7.5 -52.5 22.5s-21.5 33.167 -21.5 54.5c0 20.667 7.16699 38.167 21.5 52.5s32.166 21.5 53.499 21.5
c20 0 37.5 -7.16699 52.5 -21.5s22.5 -31.833 22.5 -52.5z" />
    <glyph glyph-name="at" unicode="@" horiz-adv-x="911" 
d="M861 276c0 -86 -22.002 -155.831 -66.002 -209.498s-97.667 -80.5 -161 -80.5c-36.667 0 -64.5 8.16699 -83.5 24.5s-29.5 37.166 -31.5 62.499c-42 -50 -92 -75 -150 -75c-33.333 0 -62.166 12.5 -86.499 37.5s-36.5 60.833 -36.5 107.5c0 84.667 24.5 157.5 73.5 218.5
s116.5 91.5 202.5 91.5c46.667 0 92.334 -12 137.001 -36c-13.333 -44.667 -34.333 -134.334 -63 -269.001c-8 -38.667 -9 -64.167 -3 -76.5s20.667 -18.5 44 -18.5c36 0 66.833 21.333 92.5 64s38.5 95.667 38.5 159c0 79.333 -28.167 146.166 -84.5 200.499
s-129.5 81.5 -219.5 81.5c-94 0 -170.833 -35.167 -230.5 -105.5s-89.5 -152.833 -89.5 -247.5c0 -87.333 29 -159.333 87 -216s129.667 -85 215 -85c52 0 100 7.33301 144 22l18 -68c-46.667 -15.333 -100.667 -23 -162 -23c-53.333 0 -103.666 8.16699 -150.999 24.5
s-89.333 39.833 -126 70.5s-65.667 69.667 -87 117s-32 100 -32 158c0 118.667 39.167 218.334 117.5 299.001s177.166 121 296.499 121c114 0 208.667 -32.167 284 -96.5s113 -148.5 113 -252.5zM555.998 380.002c-10 4.66699 -23.667 7 -41 7
c-39.333 0 -73 -13.333 -101 -40s-47.667 -58 -59 -94s-17 -74 -17 -114c0 -25.333 4.16699 -43 12.5 -53s21.5 -15 39.5 -15c24 0 49 11.5 75 34.5s43.333 54.833 52 95.5z" />
    <glyph glyph-name="A" unicode="A" horiz-adv-x="577" 
d="M579 0h-126l-56 182h-224l-56 -182h-119l227 692h133zM201 278h170c-34.667 115.333 -62 215.333 -82 300c-20.667 -75.333 -50 -175.333 -88 -300z" />
    <glyph glyph-name="B" unicode="B" horiz-adv-x="601" 
d="M551 196c0 -130.667 -89.999 -196.002 -269.999 -196.002h-201v692h183c51.333 0 89.166 -2.33301 113.499 -7s47.166 -13.667 68.499 -27c52 -33.333 78 -78.666 78 -135.999c0 -37.333 -10.333 -69.166 -31 -95.499s-50 -44.833 -88 -55.5
c52.667 -12.667 90.334 -35 113.001 -67s34 -68 34 -108zM402.001 502.998c0 20 -5.16797 38 -15.501 54s-23.833 27 -40.5 33c-14.667 5.33301 -36.334 8 -65.001 8h-86v-190h95c22.667 0 39.834 1.66699 51.501 5s22.834 10.333 33.501 21c18 18.667 27 41.667 27 69z
M423 205.998c0 24.667 -6.00098 46.5 -18.001 65.5s-27.667 31.167 -47 36.5c-13.333 4 -34.666 6 -63.999 6h-99v-220h102c42 0 73.5 10.333 94.5 31s31.5 47.667 31.5 81z" />
    <glyph glyph-name="C" unicode="C" horiz-adv-x="567" 
d="M537 51c-53.333 -40.667 -116.333 -60.998 -189 -60.998c-90.667 0 -163.667 33.333 -219 100c-52.667 64 -79 145.333 -79 244c0 82 15.333 151.667 46 209c26 49.333 61.5 88.166 106.5 116.499s94.5 42.5 148.5 42.5c71.333 0 128.666 -18 171.999 -54l-53 -75
c-35.333 26 -74.666 39 -117.999 39c-60.667 0 -106.667 -27.667 -138 -83c-24 -42 -36 -102.333 -36 -181c0 -74.667 9 -131.334 27 -170.001c30 -65.333 81.333 -98 154 -98c46 0 87.333 14.667 124 44z" />
    <glyph glyph-name="D" unicode="D" horiz-adv-x="621" 
d="M571 344c0 -102.667 -24.3311 -185 -72.998 -247c-28.667 -36.667 -60.834 -62 -96.501 -76s-85.834 -21 -150.501 -21h-171v692h144c66.667 0 120.667 -7.33301 162 -22s78 -40 110 -76c50 -58 75 -141.333 75 -250zM443.002 333c0 99.333 -14.667 169 -44 209
c-16 22 -33.833 37.5 -53.5 46.5s-45.167 13.5 -76.5 13.5h-74v-508h77c60 0 103.5 19.667 130.5 59s40.5 99.333 40.5 180z" />
    <glyph glyph-name="E" unicode="E" horiz-adv-x="499" 
d="M474 0h-394v692h384l-15 -94h-252v-189h211v-94h-211v-217h277v-98z" />
    <glyph glyph-name="F" unicode="F" horiz-adv-x="431" 
d="M446 692l-14 -94h-237v-188h193v-94h-193v-316h-115v692h366z" />
    <glyph glyph-name="G" unicode="G" horiz-adv-x="639" 
d="M569 48c-64 -38.667 -136.001 -58 -216.001 -58c-98 0 -173.333 32.667 -226 98c-51.333 62.667 -77 147 -77 253c0 140 43.333 242.333 130 307c47.333 36 104.333 54 171 54c80.667 0 149.334 -24.333 206.001 -73l-58 -70c-46 35.333 -94.667 53 -146 53
c-116.667 0 -175 -91.667 -175 -275c0 -98 17 -167 51 -207c29.333 -34.667 73 -52 131 -52c34 0 64.667 7.33301 92 22v180h-118l-16 94h251v-326z" />
    <glyph glyph-name="H" unicode="H" horiz-adv-x="626" 
d="M546 0h-115v320h-236v-320h-115v692h115v-278h236v278h115v-692z" />
    <glyph glyph-name="I" unicode="I" horiz-adv-x="278" 
d="M198 0h-118v692h118v-692z" />
    <glyph glyph-name="J" unicode="J" horiz-adv-x="283" 
d="M203 128c0 -55.333 -3 -96 -9 -122s-16.667 -49.667 -32 -71c-27.333 -38 -66.333 -66.333 -117 -85l-54 61c39.333 21.333 66.333 47.333 81 78c10.667 22 16 65 16 129v574h115v-564z" />
    <glyph glyph-name="K" unicode="K" horiz-adv-x="571" 
d="M581 0h-150l-233 369l225 323h142l-240 -321zM195 0h-115v692h115v-692z" />
    <glyph glyph-name="L" unicode="L" horiz-adv-x="463" 
d="M453 94l-19 -94h-354v692h115v-598h258z" />
    <glyph glyph-name="M" unicode="M" horiz-adv-x="816" 
d="M756 0l-113 -0.000976562l-32 429c-3.33301 48.667 -5 88.667 -5 120c-10.667 -49.333 -19.667 -86.333 -27 -111l-126 -438h-98l-115 419c-12.667 44 -22.667 87.667 -30 131c0 -21.333 -2.33301 -65.333 -7 -132l-30 -418h-113l63 692h153l106 -392
c7.33301 -27.333 16 -66.666 26 -117.999c4.66699 33.333 13 72 25 116l109 394h153z" />
    <glyph glyph-name="N" unicode="N" horiz-adv-x="629" 
d="M549 0h-120.999l-155 325c-42 87.333 -72 155.666 -90 204.999l-3 -3c3.33301 -36.667 5.66602 -100.667 6.99902 -192l4 -335h-111v692h130l168 -338c35.333 -71.333 58.333 -130.666 69 -177.999l3 3c-6.66699 78 -10 143.667 -10 197l-2 316h111v-692z" />
    <glyph glyph-name="O" unicode="O" horiz-adv-x="678" 
d="M628 346c0 -109.333 -25.001 -196.001 -75.001 -260.001s-119.667 -96 -209 -96c-95.333 0 -168.166 32.833 -218.499 98.5s-75.5 151.834 -75.5 258.501c0 112 26.167 199.167 78.5 261.5s122.5 93.5 210.5 93.5c94 0 165.667 -33 215 -99s74 -151.667 74 -257z
M499.999 339.999c0 90 -11.833 158.167 -35.5 204.5s-64.834 69.5 -123.501 69.5c-57.333 0 -98.833 -21.833 -124.5 -65.5s-38.5 -108.167 -38.5 -193.5c0 -92 13 -161.167 39 -207.5s68.333 -69.5 127 -69.5c52.667 0 91.834 20.833 117.501 62.5s38.5 108.167 38.5 199.5
z" />
    <glyph glyph-name="P" unicode="P" horiz-adv-x="555" 
d="M535 485c0 -66.667 -21.333 -120.167 -64 -160.5s-96 -60.5 -160 -60.5h-116v-264h-115v692h184c48.667 0 85.167 -2.5 109.5 -7.5s46.5 -13.5 66.5 -25.5c63.333 -37.333 95 -95.333 95 -174zM407 479c0 38.667 -9.33301 67.667 -28 87
c-21.333 22.667 -53.333 34 -96 34h-88v-244h88c82.667 0 124 41 124 123z" />
    <glyph glyph-name="Q" unicode="Q" horiz-adv-x="680" 
d="M702 -39l-30.9971 -77c-16.667 -7.33301 -34.667 -11 -54 -11c-39.333 0 -84 16.667 -134 50c-48.667 32.667 -96.334 55 -143.001 67c-93.333 0 -165 33 -215 99s-75 152 -75 258c0 111.333 26.167 198.333 78.5 261s122.166 94 209.499 94
c92.667 0 164.167 -32 214.5 -96s75.5 -151 75.5 -261c0 -152.667 -47.333 -258.667 -142 -318c15.333 -6 40.666 -19.667 75.999 -41c32 -19.333 64.333 -29 97 -29c14.667 0 29 1.33301 43 4zM500.003 339c0 93.333 -12 162.499 -36 207.499s-65 67.5 -123 67.5
c-56.667 0 -98 -21.333 -124 -64s-39 -108 -39 -196c0 -100 14 -171 42 -213s69.667 -63 125 -63c52 0 90.833 20.333 116.5 61s38.5 107.334 38.5 200.001z" />
    <glyph glyph-name="R" unicode="R" horiz-adv-x="573" 
d="M553 0l-137.001 -0.000976562l-60 107c-46 81.333 -85.333 138.333 -118 171c-13.333 13.333 -27.666 20.333 -42.999 21v-299h-115v692h211c74 0 130 -18.667 168 -56s57 -84.666 57 -141.999c0 -52 -15.667 -96.667 -47 -134s-73 -56 -125 -56
c21.333 -10.667 57 -56.667 107 -138zM395.999 493.999c0 36 -10.833 62.667 -32.5 80s-57.5 26 -107.5 26h-61v-220h57c56 0 93.667 9.66699 113 29c20.667 20.667 31 49 31 85z" />
    <glyph glyph-name="S" unicode="S" horiz-adv-x="587" 
d="M542 212c0 -61.333 -23.998 -113.668 -71.998 -157.001s-114 -65 -198 -65c-82.667 0 -158.334 20.667 -227.001 62l44 89c65.333 -38 127.666 -57 186.999 -57c42.667 0 76 9.66699 100 29s36 46.333 36 81c0 46.667 -34.333 79.667 -103 99l-74 21
c-64.667 18.667 -109.334 46.334 -134.001 83.001c-19.333 28.667 -29 62 -29 100c0 60.667 21.833 110 65.5 148s100.167 57 169.5 57c83.333 0 156.333 -22 219 -66l-52 -81c-59.333 35.333 -113.666 53 -162.999 53c-34 0 -61.333 -8.5 -82 -25.5s-31 -39.833 -31 -68.5
c0 -21.333 6.83301 -38.166 20.5 -50.499s37.5 -23.5 71.5 -33.5l82 -24c52.667 -15.333 94.167 -39.333 124.5 -72s45.5 -73.334 45.5 -122.001z" />
    <glyph glyph-name="T" unicode="T" horiz-adv-x="474" 
d="M494 692l-15 -96h-174v-596h-115v596h-175v96h479z" />
    <glyph glyph-name="U" unicode="U" horiz-adv-x="629" 
d="M554 196c0 -64 -21.167 -114.333 -63.5 -151s-101.166 -55 -176.499 -55c-84.667 0 -145.667 18.833 -183 56.5s-56 87.167 -56 148.5v497h115v-463c0 -52 9.66699 -88.5 29 -109.5s50.666 -31.5 93.999 -31.5c84 0 126 47 126 141v463h115v-496z" />
    <glyph glyph-name="V" unicode="V" horiz-adv-x="558" 
d="M568 692l-238.001 -695.001h-107l-233 695h126l125 -392c16 -49.333 28 -95.666 36 -138.999h1c12.667 48.667 26.334 95 41.001 139l129 392h120z" />
    <glyph glyph-name="W" unicode="W" horiz-adv-x="816" 
d="M811 692l-164.001 -695.999h-132l-71 321c-15.333 69.333 -26.666 136 -33.999 200h-2c-8.66699 -56 -20.667 -121.667 -36 -197l-67 -324h-135l-165 696h123l69 -322c16 -72.667 28.333 -146.334 37 -221.001h2c14.667 86 27.667 157 39 213l72 330h129l72 -344
c11.333 -55.333 22.666 -120.333 33.999 -195h2c10.667 68.667 24.334 143.667 41.001 225l66 314h120z" />
    <glyph glyph-name="X" unicode="X" horiz-adv-x="540" 
d="M550 0h-138l-143 274l-138 -274h-141l212 371l-186 321h140l111 -214l109 214h136l-176 -313z" />
    <glyph glyph-name="Y" unicode="Y" horiz-adv-x="518" 
d="M-20 692h139l107 -223c6.66699 -13.333 18 -41 34 -83l38 87l106 219h134l-223 -413v-279h-115v280z" />
    <glyph glyph-name="Z" unicode="Z" horiz-adv-x="531" 
d="M491 94l-29.001 -93.999h-422v84l270 449c12.667 22 28 45 46 69c-22 -2.66699 -47 -4 -75 -4h-228l26 94h406v-87l-269 -454c-9.33301 -16.667 -22.666 -36.334 -39.999 -59.001c20 1.33301 43 2 69 2h246z" />
    <glyph glyph-name="bracketleft" unicode="[" horiz-adv-x="289" 
d="M269 -155h-189v888h189v-76h-91v-738h91v-74z" />
    <glyph glyph-name="backslash" unicode="\" horiz-adv-x="410" 
d="M400 -19l-92 -30l-298 776l91 31z" />
    <glyph glyph-name="bracketright" unicode="]" horiz-adv-x="289" 
d="M209 -155h-189v74h91v738h-91v76h189v-888z" />
    <glyph glyph-name="asciicircum" unicode="^" horiz-adv-x="600" 
d="M550 318h-112l-138 286l-138 -286h-112l194 390h112z" />
    <glyph glyph-name="underscore" unicode="_" horiz-adv-x="500" 
d="M500 -125h-500v50h500v-50z" />
    <glyph glyph-name="grave" unicode="`" horiz-adv-x="314" 
d="M284 623l-34 -63l-220 102l50 93z" />
    <glyph glyph-name="a" unicode="a" horiz-adv-x="515" 
d="M478 49l-57.001 -70.001c-34 13.333 -57 36 -69 68c-35.333 -40 -81.666 -60 -138.999 -60c-56 0 -98 13.5 -126 40.5s-42 63.5 -42 109.5c0 58 21.333 101.833 64 131.5s104.667 44.5 186 44.5h34v27c0 32 -4.66699 54.833 -14 68.5s-28 20.5 -56 20.5
c-21.333 0 -44.666 -4.83301 -69.999 -14.5s-45 -19.167 -59 -28.5l-22 -15l-49 79c72.667 46 144.334 69 215.001 69c80 0 131.333 -28 154 -84c6 -15.333 8.66699 -56.666 8 -123.999l-2 -145c-0.666992 -34.667 1.66602 -59.5 6.99902 -74.5s17.666 -29.167 36.999 -42.5
zM326.999 237.999c-8 0.666992 -14.666 0.999023 -19.999 0.999023c-53.333 0 -90.5 -7.66699 -111.5 -23s-31.5 -39.666 -31.5 -72.999c0 -24 6.16699 -42.667 18.5 -56s29.5 -20 51.5 -20c37.333 0 67.666 17 90.999 51z" />
    <glyph glyph-name="b" unicode="b" horiz-adv-x="557" 
d="M507 262c0 -81.333 -18.832 -147.167 -56.499 -197.5s-86.167 -75.5 -145.5 -75.5c-50.667 0 -91.667 19.333 -123 58c-4.66699 -22.667 -9.33398 -38.334 -14.001 -47.001h-101c8.66699 22 13 59.667 13 113v477c0 54.667 -4.33301 95.334 -13 122.001l114 25
c5.33301 -32 8 -65.667 8 -101v-117l-3 -48l4 -1c33.333 32.667 73.333 49 120 49c60.667 0 108.667 -23.167 144 -69.5s53 -108.833 53 -187.5zM385.001 259.999c0 52 -7.00098 92.667 -21.001 122s-39.333 44 -76 44c-38.667 0 -71.667 -17 -99 -51v-249
c28 -29.333 60.333 -44 97 -44c34.667 0 59.834 13.833 75.501 41.5s23.5 73.167 23.5 136.5z" />
    <glyph glyph-name="c" unicode="c" horiz-adv-x="457" 
d="M427 54c-44.667 -44.667 -98.665 -67 -161.998 -67c-68.667 0 -121.667 22.833 -159 68.5s-56 109.5 -56 191.5c0 86.667 21.833 153.667 65.5 201s96.167 71 157.5 71c54 0 100.667 -18.333 140 -55l-55 -73c-28.667 26 -57 39 -85 39
c-36.667 0 -63.334 -17 -80.001 -51c-14 -28.667 -21 -75.667 -21 -141c0 -67.333 11.333 -113.333 34 -138c17.333 -19.333 39.666 -29 66.999 -29c34.667 0 68.667 16.667 102 50z" />
    <glyph glyph-name="d" unicode="d" horiz-adv-x="555" 
d="M491 0l-101 0.00195312c-5.33301 12 -8.33301 25 -9 39c-33.333 -33.333 -74.666 -50 -123.999 -50c-56 0 -101.333 17.333 -136 52c-47.333 46 -71 116 -71 210c0 93.333 26 165.333 78 216c37.333 35.333 82 53 134 53c43.333 0 78.666 -15.333 105.999 -46l2 1
c-2.66699 17.333 -4 44.666 -4 81.999v180l109 -17v-544c0 -86.667 5.33301 -145.334 16 -176.001zM366 130.002v256.001c-25.333 27.333 -56 41 -92 41c-26 0 -47 -8 -63 -24c-26 -26 -39 -77 -39 -153c0 -72.667 11.333 -120.334 34 -143.001
c16.667 -16.667 39 -25 67 -25c41.333 0 72.333 16 93 48z" />
    <glyph glyph-name="e" unicode="e" horiz-adv-x="513" 
d="M473 224l-301.999 -0.000976562v-9c0 -41.333 9.5 -75.666 28.5 -102.999s51.167 -41 96.5 -41s87.333 16.667 126 50l43 -67c-52.667 -44.667 -113.334 -67 -182.001 -67c-71.333 0 -128 24 -170 72s-63 112.667 -63 194c0 84 21 150 63 198c39.333 45.333 91 68 155 68
c54.667 0 101 -17.333 139 -52c44 -40 66 -113.333 66 -220v-23zM359.001 305.999c0 40.667 -8.16602 72.667 -24.499 96s-38.5 35 -66.5 35c-30.667 0 -54.334 -11.5 -71.001 -34.5s-25 -55.167 -25 -96.5h187z" />
    <glyph glyph-name="f" unicode="f" horiz-adv-x="307" 
d="M347 706l-36.001 -70.999c-23.333 12 -43 18 -59 18c-18 0 -33 -5.33301 -45 -16c-12.667 -12.667 -19 -33.334 -19 -62.001v-69h132l-28 -76h-103v-430h-109v430h-47v76h46c-1.33301 20 -2 36.333 -2 49c0 64 13.667 110 41 138s66 42 116 42
c40.667 0 78.334 -9.66699 113.001 -29z" />
    <glyph glyph-name="g" unicode="g" horiz-adv-x="536" 
d="M500 528l50.9951 -70.0039c-25.333 -22 -54.666 -33 -87.999 -33c-12.667 0 -25.667 2 -39 6v1c22 -25.333 33 -55 33 -89c0 -40.667 -13.667 -74.667 -41 -102c-37.333 -37.333 -87.666 -55.333 -150.999 -54l-7 -3l-17.5 -7.5c-7 -3 -13.167 -6.16699 -18.5 -9.5
c-16.667 -10 -25 -19.333 -25 -28c0 -5.33301 1.66699 -9.66602 5 -12.999c4 -4 19 -6.33301 45 -7l52 -1c22.667 -0.666992 40.834 -1.66699 54.501 -3s30.5 -5.66602 50.5 -12.999s36.667 -17.666 50 -30.999c24.667 -24.667 37 -57 37 -97c0 -43.333 -14 -79 -42 -107
c-39.333 -39.333 -101 -59 -185 -59c-90 0 -153.667 18.667 -191 56c-22 22 -33 49.333 -33 82c0 18 3.33301 36 10 54h97c-1.33301 -8 -2 -16.333 -2 -25c0 -25.333 7 -44.666 21 -57.999c18 -17.333 48 -26 90 -26c48 0 82.333 11 103 33c12 12.667 18 28 18 46
s-5.66699 32.667 -17 44c-14 12.667 -38 20.667 -72 24c-21.333 1.33301 -37 2 -47 2c-28 0 -49 0.666992 -63 2c-42 3.33301 -71.667 12.333 -89 27c-12 11.333 -18 26.666 -18 45.999c0 20.667 6.66699 37.667 20 51c14.667 14.667 40 27.334 76 38.001
c-25.333 6.66699 -50.666 20.667 -75.999 42c-26 26 -39 60 -39 102c0 44 14 81 42 111c36.667 40 89.667 60 159 60c28 0 61.667 -5.33301 101 -16c26.667 -6.66699 45.334 -10 56.001 -10c33.333 0 63.333 11.667 90 35zM339.995 348.996c0 28.667 -7.33301 50.333 -22 65
s-36.334 22 -65.001 22c-28 0 -49.667 -7.66699 -65 -23c-14.667 -15.333 -22 -37 -22 -65c0 -28.667 7.66699 -50.334 23 -65.001c14.667 -14 36 -21 64 -21c28.667 0 50.334 7.33301 65.001 22s22 36.334 22 65.001z" />
    <glyph glyph-name="h" unicode="h" horiz-adv-x="564" 
d="M484 0l-109.001 -0.000976562v345c0 30 -5.16699 51 -15.5 63s-26.5 18 -48.5 18c-41.333 0 -82 -20.667 -122 -62v-364h-109v602c0 44.667 -3.33301 81.334 -10 110.001l111 24c6.66699 -27.333 10 -67 10 -119v-107l-2 -57c48.667 44 100.334 66 155.001 66
c28.667 0 54 -6 76 -18s37.667 -26.667 47 -44c11.333 -22 17 -55 17 -99v-358z" />
    <glyph glyph-name="i" unicode="i" 
d="M209 654c0 -20 -7.16699 -37.167 -21.5 -51.5s-31.833 -21.5 -52.5 -21.5c-20 0 -36.833 7.16699 -50.5 21.5s-20.5 31.5 -20.5 51.5c0 20.667 7 38.167 21 52.5s31.333 21.5 52 21.5c20 0 37 -7.16699 51 -21.5s21 -31.833 21 -52.5zM190 0h-109v498l109 20v-518z" />
    <glyph glyph-name="j" unicode="j" 
d="M208 656c0 -20.667 -7.16699 -38.334 -21.5 -53.001s-31.833 -22 -52.5 -22c-20 0 -37 7 -51 21s-21 31.333 -21 52c0 20 7.16699 37.333 21.5 52s31.5 22 51.5 22s37.167 -7.16699 51.5 -21.5s21.5 -31.166 21.5 -50.499zM189 12c0 -70 -12.332 -120.667 -36.999 -152
c-24.667 -30.667 -56.334 -54.667 -95.001 -72l-45 64c26 18 43.833 38.5 53.5 61.5s14.5 55.5 14.5 97.5v487l109 20v-506z" />
    <glyph glyph-name="k" unicode="k" horiz-adv-x="511" 
d="M521 0h-133l-191 286l150 220h133l-173 -214zM189 0h-109v589c0 45.333 -3.66699 86 -11 122l110 27c6.66699 -35.333 10 -80 10 -134v-604z" />
    <glyph glyph-name="l" unicode="l" horiz-adv-x="272" 
d="M257 1c-20 -8 -42 -12.0039 -66 -12.0039c-21.333 0 -39.333 3.83301 -54 11.5s-25.667 16.167 -33 25.5s-13 21.833 -17 37.5s-6.16699 27.834 -6.5 36.501s-0.5 19.334 -0.5 32.001v431c0 58.667 -3.33301 108 -10 148l110 25c6 -23.333 9 -69.666 9 -138.999v-429
c0 -49.333 3.66699 -79.666 11 -90.999c8 -12 21 -14.667 39 -8z" />
    <glyph glyph-name="m" unicode="m" horiz-adv-x="798" 
d="M717 0l-109 0.000976562v350c0 29.333 -3.66699 49.333 -11 60s-21 16 -41 16c-28.667 0 -63.667 -19.333 -105 -58v-368h-105v348c0 29.333 -3.83301 49.666 -11.5 60.999s-21.5 17 -41.5 17c-33.333 0 -68 -16.667 -104 -50v-376h-109v363c0 58 -6 100.667 -18 128
l100 28c10 -16 16 -37.333 18 -64c41.333 42.667 86 64 134 64c50 0 90.333 -24.667 121 -74c48.667 49.333 98.667 74 150 74c88 0 132 -49.333 132 -148v-371z" />
    <glyph glyph-name="n" unicode="n" horiz-adv-x="546" 
d="M466 0l-109.001 0.00195312v338c0 34 -4.16699 57.167 -12.5 69.5s-23.166 18.5 -44.499 18.5c-16 0 -34.333 -5.33301 -55 -16s-39.334 -24.334 -56.001 -41.001v-369h-109v372c0 47.333 -6.33301 87.333 -19 120l100 28c12 -22.667 18 -46.334 18 -71.001
c54.667 46.667 106.334 70 155.001 70c40 0 72 -12 96 -36s36 -58.667 36 -104v-379z" />
    <glyph glyph-name="o" unicode="o" horiz-adv-x="537" 
d="M492 252c0 -82 -20.167 -146.668 -60.5 -194.001s-94.833 -71 -163.5 -71s-123 24 -163 72s-60 112.667 -60 194c0 80.667 20 145.167 60 193.5s93.667 72.5 161 72.5c70.667 0 126 -24.167 166 -72.5s60 -113.166 60 -194.499zM370 250.999
c0 68 -8.83301 115.999 -26.5 143.999s-43.5 42 -77.5 42c-34.667 0 -59.834 -14 -75.501 -42s-23.5 -72.667 -23.5 -134c0 -71.333 8.33301 -121.166 25 -149.499s42.334 -42.5 77.001 -42.5c67.333 0 101 60.667 101 182z" />
    <glyph glyph-name="p" unicode="p" horiz-adv-x="550" 
d="M70 501l101 17.998c5.33301 -22.667 8 -42.667 8 -60c34 40 79 60 135 60c49.333 0 90.333 -16.333 123 -49c45.333 -45.333 68 -115.666 68 -210.999c0 -101.333 -24.333 -175.666 -73 -222.999c-34 -32.667 -77.333 -49 -130 -49c-43.333 0 -83 14 -119 42
c2 -22.667 3 -45.667 3 -69v-148l-106 -27v590c0 54.667 -3.33301 96.667 -10 126zM186 373.998l-0.00195312 -249.001c31.333 -30 65 -45 101 -45c22.667 0 41.334 7 56.001 21c29.333 26.667 44 77.334 44 152.001c0 76 -11.667 126 -35 150
c-14.667 15.333 -33.667 23 -57 23c-39.333 0 -75.666 -17.333 -108.999 -52z" />
    <glyph glyph-name="q" unicode="q" horiz-adv-x="555" 
d="M487 506c-8 -30.667 -12 -78.666 -12 -143.999v-551l-106 -27v187l2 67c-34 -34 -73.667 -51 -119 -51c-58 0 -106.167 21.833 -144.5 65.5s-57.5 106.5 -57.5 188.5c0 87.333 18 155.5 54 204.5s86 73.5 150 73.5c26.667 0 51.667 -5.5 75 -16.5
s41.333 -26.167 54 -45.5c0.666992 19.333 3.66699 35.666 9 48.999h95zM369 135.001l0.000976562 241c-24.667 33.333 -57.334 50 -98.001 50c-68.667 0 -103 -55 -103 -165c0 -67.333 9 -114.333 27 -141s44.333 -40 79 -40c18.667 0 36.5 5.16699 53.5 15.5
s30.833 23.5 41.5 39.5z" />
    <glyph glyph-name="r" unicode="r" horiz-adv-x="340" 
d="M350 512l-33.998 -101.999c-12.667 4.66699 -23.334 7 -32.001 7c-22.667 0 -42.834 -7.33301 -60.501 -22s-29.167 -32.334 -34.5 -53.001v-342h-109v357c0 56.667 -6 102 -18 136l101 26c12.667 -24 19 -50.667 19 -80c39.333 54 82.333 81 129 81
c14.667 0 27.667 -2.66699 39 -8z" />
    <glyph glyph-name="s" unicode="s" horiz-adv-x="474" 
d="M434 158c0 -51.333 -19.001 -92.833 -57.001 -124.5s-87.333 -47.5 -148 -47.5c-62 0 -126.667 18.667 -194 56l39 79c61.333 -35.333 116 -53 164 -53c24 0 43.667 6.66699 59 20s23 30.333 23 51c0 19.333 -6.5 34.5 -19.5 45.5s-33.833 19.5 -62.5 25.5l-61 13
c-38 8 -67.667 24.333 -89 49s-32 54.667 -32 90c0 47.333 17.333 85.333 52 114s80 43 136 43c56.667 0 112.334 -14.667 167.001 -44l-36 -76c-46 25.333 -87.333 38 -124 38c-24 0 -42.833 -5.33301 -56.5 -16s-20.5 -25.667 -20.5 -45c0 -16 5 -28.5 15 -37.5
s27.667 -16.833 53 -23.5l63 -16c86 -22 129 -69 129 -141z" />
    <glyph glyph-name="t" unicode="t" horiz-adv-x="331" 
d="M311 9c-32 -14.667 -65 -22.001 -99 -22.001c-46 0 -79.5 11.833 -100.5 35.5s-31.5 55.167 -31.5 94.5v313h-56v76h56c0 58 1.66699 99.667 5 125l113 27c-6 -49.333 -9 -100 -9 -152h121l-29 -76h-92v-284c0 -31.333 4.33301 -52.666 13 -63.999s25 -17 49 -17
c12.667 0 28 3.33301 46 10z" />
    <glyph glyph-name="u" unicode="u" horiz-adv-x="542" 
d="M493 36l-75.999 -51.999c-21.333 15.333 -36 37 -44 65c-36.667 -41.333 -84.667 -62 -144 -62c-56 0 -98 16.667 -126 50c-18.667 22.667 -28 62.667 -28 120v341l109 20v-339c0 -36 4.66699 -63.167 14 -81.5s28.333 -27.5 57 -27.5c18 0 36.667 6.5 56 19.5
s33.333 28.5 42 46.5v362l109 20v-381c0 -22.667 2.66699 -42.334 8 -59.001s10.666 -28 15.999 -34z" />
    <glyph glyph-name="v" unicode="v" horiz-adv-x="473" 
d="M468 506l-184 -508h-97l-182 504l113 16l88 -273c10.667 -34 21 -71.667 31 -113h1c8 38.667 18.333 77.667 31 117l84 257h115z" />
    <glyph glyph-name="w" unicode="w" horiz-adv-x="698" 
d="M688 506l-143.001 -508h-103l-62 233c-7.33301 27.333 -18.333 73.333 -33 138h-1c-10 -48 -21.333 -95.667 -34 -143l-61 -228h-103l-138 501l109 15l55 -245c10 -43.333 18.333 -87.666 25 -132.999h2c8 42.667 18.333 88 31 136l65 234h108l57 -228
c10.667 -44 21.667 -92 33 -144h1c8.66699 51.333 17.334 96.666 26.001 135.999l52 236h114z" />
    <glyph glyph-name="x" unicode="x" horiz-adv-x="477" 
d="M487 0h-137.998c-32 51.333 -68.667 114.333 -110 189c-9.33301 -18.667 -27.5 -51.167 -54.5 -97.5s-45.5 -76.833 -55.5 -91.5h-139l188 274l-146 217l119 24c35.333 -58 66 -112.667 92 -164c7.33301 18 20.666 45.833 39.999 83.5s32.666 61.5 39.999 71.5h128
l-149 -230z" />
    <glyph glyph-name="y" unicode="y" horiz-adv-x="483" 
d="M360 506h117.999l-187 -540c-18.667 -54 -41.667 -95.667 -69 -125c-24.667 -25.333 -64.667 -44.333 -120 -57l-36 71c38 10 66 24.667 84 44c22.667 22.667 40.334 56.334 53.001 101.001h-35c-10.667 38.667 -25 86.334 -43 143.001l-120 355l112 19l93 -308
c9.33301 -30.667 18.333 -68.334 27 -113.001h2c10 41.333 22.333 86.666 37 135.999z" />
    <glyph glyph-name="z" unicode="z" horiz-adv-x="459" 
d="M424 78l-32 -78h-357v73l254 355h-234v78h358v-78l-240 -350h251z" />
    <glyph glyph-name="braceleft" unicode="{" horiz-adv-x="348" 
d="M328 -155l-90 -0.00195312c-33.333 0 -61.333 11.667 -84 35s-34 57.333 -34 102v174c0 20 -6.33301 37 -19 51s-26 23.333 -40 28s-27.667 7.33398 -41 8.00098v91c22 0.666992 44.167 8.33398 66.5 23.001s33.5 36.334 33.5 65.001v175c0 44 11.167 77.667 33.5 101
s50.5 35 84.5 35h90v-91h-49c-24.667 0 -41 -6.5 -49 -19.5s-12 -30.167 -12 -51.5v-168c0 -66.667 -31 -104.334 -93 -113.001v-4c62 -6.66699 93 -43.667 93 -111v-168c0 -48 20.333 -72 61 -72h49v-90z" />
    <glyph glyph-name="bar" unicode="|" horiz-adv-x="260" 
d="M180 -207h-100v964h100v-964z" />
    <glyph glyph-name="braceright" unicode="}" horiz-adv-x="348" 
d="M328 243c-23.333 -0.666992 -45.834 -7.99805 -67.501 -21.998s-32.5 -35.667 -32.5 -65v-175c0 -44.667 -11.167 -78.5 -33.5 -101.5s-50.5 -34.5 -84.5 -34.5h-90v90h48c41.333 0 62 24 62 72v167c0 68 31.333 105.333 94 112v5c-62.667 6.66699 -94 43.667 -94 111
v169c0 21.333 -4 38.5 -12 51.5s-24.667 19.5 -50 19.5h-48v91h91c32.667 0 60.334 -11.667 83.001 -35s34 -57.333 34 -102v-174c0 -28.667 11 -50.334 33 -65.001s44.333 -22.334 67 -23.001v-91z" />
    <glyph glyph-name="asciitilde" unicode="~" horiz-adv-x="556" 
d="M506 305c-32.667 -58.667 -73.6699 -88 -123.003 -88c-22 0 -57.667 11 -107 33l-37 17c-11.333 5.33301 -23.333 10 -36 14s-24 6 -34 6c-18 0 -33.667 -6 -47 -18s-26.666 -28.667 -39.999 -50l-32 84c33.333 58 74.333 87 123 87c24.667 0 60.334 -10.667 107.001 -32
c16 -8 34.333 -16.333 55 -25s38 -13 52 -13c12.667 0 24.834 4 36.501 12s20.5 15.667 26.5 23s14 18.333 24 33z" />
    <glyph glyph-name="sterling" unicode="&#xa3;" horiz-adv-x="582" 
d="M562 656l-81.001 -87c-31.333 30 -63.666 45 -96.999 45c-81.333 0 -122 -48.667 -122 -146v-62h158v-86h-158v-223h250v-97h-472v97h100v223h-96v86h96v77c0 70 21 127 63 171s98.667 66 170 66c80 0 143 -21.333 189 -64z" />
    <glyph glyph-name="currency" unicode="&#xa4;" horiz-adv-x="627" 
d="M91 702l100 -99.001c34.667 25.333 74.334 38 119.001 38c45.333 0 85.666 -12.667 120.999 -38l99 99l51 -52l-99 -100c24.667 -34.667 37 -74 37 -118c0 -43.333 -12.333 -82.666 -37 -117.999l99 -100l-51 -51l-99 99c-34.667 -25.333 -74.667 -38 -120 -38
c-46 0 -86 12.667 -120 38l-100 -99l-51 51l99 100c-24.667 34.667 -37 74 -37 118s12.333 83.333 37 118l-99 100zM311 566.999c-36.667 0 -68.3301 -13.333 -94.9971 -40s-40 -58.334 -40 -95.001c0 -37.333 13.167 -69 39.5 -95s58.166 -39 95.499 -39
s69.166 13.167 95.499 39.5s39.5 57.833 39.5 94.5s-13.333 68.334 -40 95.001s-58.334 40 -95.001 40z" />
    <glyph glyph-name="section" unicode="&#xa7;" horiz-adv-x="552" 
d="M512 282c0 -28 -8 -53.502 -24 -76.502s-37 -41.167 -63 -54.5c41.333 -31.333 62 -72 62 -122c0 -30 -6.83301 -56.667 -20.5 -80s-31.834 -41.833 -54.501 -55.5s-47.167 -24 -73.5 -31s-53.166 -10.5 -80.499 -10.5c-107.333 0 -180 41 -218 123l106 51
c7.33301 -24.667 21.833 -43.334 43.5 -56.001s46.167 -19 73.5 -19c24.667 0 46.334 5.66699 65.001 17s28 28.666 28 51.999c0 11.333 -2.83301 21.5 -8.5 30.5s-15 17.5 -28 25.5s-24.167 14.167 -33.5 18.5s-23.666 10.5 -42.999 18.5
c-49.333 20.667 -89.333 41.334 -120 62.001c-44.667 31.333 -67 72.333 -67 123c0 62 31.667 110.667 95 146c-47.333 30 -71 69 -71 117c0 52.667 20.667 93.5 62 122.5s89 43.5 143 43.5c44 0 84.667 -8 122 -24s64.666 -41.667 81.999 -77l-104 -59
c-8 19.333 -20.833 34.333 -38.5 45s-37.167 16 -58.5 16c-22.667 0 -42 -5.83301 -58 -17.5s-24 -28.167 -24 -49.5c0 -27.333 18 -50.333 54 -69l52 -23c27.333 -12 43.666 -19.333 48.999 -22c22.667 -10.667 41.167 -20.167 55.5 -28.5s29.833 -19.166 46.5 -32.499
s29 -28.666 37 -45.999s12 -36.666 12 -57.999zM398 259.998c0 33.333 -26.334 62.3311 -79.001 86.998l-95 45c-36.667 -17.333 -55 -40.666 -55 -69.999c0 -12.667 2.16699 -23.667 6.5 -33s11.333 -17.666 21 -24.999s17.834 -12.833 24.501 -16.5s16.667 -8.5 30 -14.5
l99 -46c32 16 48 40.333 48 73z" />
    <glyph glyph-name="dieresis" unicode="&#xa8;" horiz-adv-x="444" 
d="M394 630c0 -19.333 -6.66699 -35.833 -20 -49.5s-29.333 -20.5 -48 -20.5s-34.5 6.83301 -47.5 20.5s-19.5 30.167 -19.5 49.5s6.66699 35.833 20 49.5s29.333 20.5 48 20.5c18 0 33.667 -6.83301 47 -20.5s20 -30.167 20 -49.5zM184 630
c0 -19.333 -6.5 -35.833 -19.5 -49.5s-28.833 -20.5 -47.5 -20.5s-34.5 6.83301 -47.5 20.5s-19.5 30.167 -19.5 49.5s6.5 35.833 19.5 49.5s28.833 20.5 47.5 20.5s34.5 -6.83301 47.5 -20.5s19.5 -30.167 19.5 -49.5z" />
    <glyph glyph-name="copyright" unicode="&#xa9;" horiz-adv-x="840" 
d="M790 355c0 -103.333 -36.167 -191.166 -108.5 -263.499s-159.5 -108.5 -261.5 -108.5s-189.167 36.167 -261.5 108.5s-108.5 160.166 -108.5 263.499s36.167 191.166 108.5 263.499s159.5 108.5 261.5 108.5s189.167 -36.167 261.5 -108.5s108.5 -160.166 108.5 -263.499
zM706 355c0 82.667 -27.835 152.998 -83.502 210.998s-123.167 87 -202.5 87s-146.666 -29 -201.999 -87s-83 -128.333 -83 -211c0 -83.333 27.833 -154.166 83.5 -212.499s122.834 -87.5 201.501 -87.5c79.333 0 146.833 29.333 202.5 88s83.5 129.334 83.5 212.001z
M545.998 178.998c-32 -26 -70.666 -39 -115.999 -39c-56.667 0 -102 19.333 -136 58c-33.333 38.667 -50 88.334 -50 149.001c0 51.333 9.33301 94.666 28 129.999c16 30.667 38.167 54.5 66.5 71.5s59.5 25.5 93.5 25.5c43.333 0 78.333 -11 105 -33l-38 -57
c-21.333 15.333 -43.333 23 -66 23c-30.667 0 -54.334 -12 -71.001 -36c-15.333 -23.333 -23 -59 -23 -107c0 -54.667 5.66699 -92 17 -112c17.333 -31.333 44 -47 80 -47c25.333 0 49.333 9 72 27z" />
    <glyph glyph-name="guillemotleft" unicode="&#xab;" horiz-adv-x="507" 
d="M477 70l-74 -50l-152 226l152 227l74 -50l-116 -177zM255 70l-74 -50l-151 226l151 227l74 -50l-115 -177z" />
    <glyph glyph-name="logicalnot" unicode="&#xac;" horiz-adv-x="525" 
d="M475 66h-107v140h-318v93h425v-233z" />
    <glyph glyph-name="registered" unicode="&#xae;" horiz-adv-x="840" 
d="M790 355c0 -103.333 -36.167 -191.166 -108.5 -263.499s-159.5 -108.5 -261.5 -108.5s-189.167 36.167 -261.5 108.5s-108.5 160.166 -108.5 263.499s36.167 191.166 108.5 263.499s159.5 108.5 261.5 108.5s189.167 -36.167 261.5 -108.5s108.5 -160.166 108.5 -263.499
zM706 355c0 82.667 -27.835 152.998 -83.502 210.998s-123.167 87 -202.5 87s-146.666 -29 -201.999 -87s-83 -128.333 -83 -211c0 -83.333 27.833 -154.166 83.5 -212.499s122.834 -87.5 201.501 -87.5c79.333 0 146.833 29.333 202.5 88s83.5 129.334 83.5 212.001z
M591.998 148.998l-99.002 -0.000976562l-39 69c-21.333 38.667 -36.333 64.667 -45 78s-16.667 21.333 -24 24c-4 2 -8.33301 3 -13 3v-174h-82v417h155c36.667 0 66.334 -11.167 89.001 -33.5s34 -51.833 34 -88.5c0 -31.333 -9.16699 -58.166 -27.5 -80.499
s-40.166 -33.833 -65.499 -34.5c7.33301 -6.66699 13 -12.667 17 -18c10 -12.667 29.333 -43 58 -91zM478.996 441.997c0 26 -10 43 -30 51c-12 4 -27.667 6 -47 6h-30v-113h28c32 0 53 4.66699 63 14c10.667 10.667 16 24.667 16 42z" />
    <glyph glyph-name="degree" unicode="&#xb0;" horiz-adv-x="393" 
d="M363 528c0 -52.667 -15 -94.168 -45 -124.501s-70.667 -45.5 -122 -45.5s-91.833 15.333 -121.5 46s-44.5 72.334 -44.5 125.001c0 52 15.167 93.5 45.5 124.5s70.166 46.5 119.499 46.5c52.667 0 93.834 -15.167 123.501 -45.5s44.5 -72.5 44.5 -126.5zM272 526.999
c0 38 -6.16699 65.667 -18.5 83s-31.833 26 -58.5 26c-50 0 -75 -34.667 -75 -104c0 -38 6.16699 -65.833 18.5 -83.5s31.833 -26.5 58.5 -26.5c50 0 75 35 75 105z" />
    <glyph glyph-name="plusminus" unicode="&#xb1;" horiz-adv-x="507" 
d="M457 277h-150v-143h-107v143h-150v100h150v137h107v-137h150v-100zM455 0h-403v100h403v-100z" />
    <glyph glyph-name="acute" unicode="&#xb4;" horiz-adv-x="314" 
d="M284 662l-220 -102l-34 63l204 132z" />
    <glyph glyph-name="mu" unicode="&#xb5;" horiz-adv-x="546" 
d="M497 37l-76 -51c-21.333 16 -36 37 -44 63c-36.667 -42 -84.667 -63 -144 -63c-19.333 0 -34.666 5.66699 -45.999 17c2 -20 3 -35 3 -45v-146l-110 -27v714l108 21v-349c0 -38 6 -63.667 18 -77c13.333 -14.667 31 -22 53 -22c20 0 39.667 6.16699 59 18.5
s33 27.5 41 45.5v360l107 22v-384c0 -21.333 2.66699 -40 8 -56s10.666 -26.667 15.999 -32z" />
    <glyph glyph-name="mu" unicode="&#x3bc;" horiz-adv-x="546" 
d="M497 37l-76 -51c-21.333 16 -36 37 -44 63c-36.667 -42 -84.667 -63 -144 -63c-19.333 0 -34.666 5.66699 -45.999 17c2 -20 3 -35 3 -45v-146l-110 -27v714l108 21v-349c0 -38 6 -63.667 18 -77c13.333 -14.667 31 -22 53 -22c20 0 39.667 6.16699 59 18.5
s33 27.5 41 45.5v360l107 22v-384c0 -21.333 2.66699 -40 8 -56s10.666 -26.667 15.999 -32z" />
    <glyph glyph-name="paragraph" unicode="&#xb6;" horiz-adv-x="597" 
d="M517 -125h-79.001v767h-115v-767h-80v458c-63.333 0 -114.666 17.167 -153.999 51.5s-59 77.833 -59 130.5c0 64 20.333 112.333 61 145s96.667 49 168 49h258v-834z" />
    <glyph glyph-name="guillemotright" unicode="&#xbb;" horiz-adv-x="508" 
d="M478 246l-152 -226l-74 50l116 176l-116 177l74 50zM256 246l-151 -226l-75 50l117 176l-117 177l75 50z" />
    <glyph glyph-name="divide" unicode="&#xf7;" horiz-adv-x="605" 
d="M378 472c0 -22 -7.66797 -40.501 -23.001 -55.501s-33.666 -22.5 -54.999 -22.5s-39.333 7.33301 -54 22s-22 32.667 -22 54c0 22 7.5 40.667 22.5 56s33.167 23.333 54.5 24c21.333 0 39.5 -7.66699 54.5 -23s22.5 -33.666 22.5 -54.999zM554.999 219.999h-505v93h505
v-93zM376.999 62.999c0 -21.333 -7.66797 -39.5 -23.001 -54.5s-33.666 -22.5 -54.999 -22.5s-39.333 7.5 -54 22.5s-22 33.167 -22 54.5c0 22 7.5 41 22.5 57s33.5 23.667 55.5 23c20.667 0 38.5 -7.83301 53.5 -23.5s22.5 -34.5 22.5 -56.5z" />
    <glyph glyph-name="dotlessi" unicode="&#x131;" 
d="M191 0h-111v498l111 20v-518z" />
    <glyph glyph-name="florin" unicode="&#x192;" horiz-adv-x="319" 
d="M369 707l-34.9971 -69.999c-22.667 12 -41.667 18 -57 18c-18.667 0 -33.834 -6.16699 -45.501 -18.5s-18.167 -29.833 -19.5 -52.5l-5 -78h123l-29 -78h-98l-26 -387c-4.66699 -76.667 -14.834 -129 -30.501 -157s-50.834 -59.667 -105.501 -95l-51 75
c34 25.333 55.833 47.5 65.5 66.5s15.834 49.833 18.501 92.5l26 405h-43v78h51l4 76c2.66699 52 18.5 90.833 47.5 116.5s64.5 38.167 106.5 37.5c39.333 -0.666992 73.666 -10.334 102.999 -29.001z" />
    <glyph glyph-name="dotaccent" unicode="&#x2d9;" horiz-adv-x="206" 
d="M176 653c0 -20.667 -7.16699 -38.334 -21.5 -53.001s-31.833 -22 -52.5 -22c-20 0 -37 7.33301 -51 22s-21 32.334 -21 53.001s7.16699 38.334 21.5 53.001s31.5 22 51.5 22s37.167 -7.33301 51.5 -22s21.5 -32.334 21.5 -53.001z" />
    <glyph glyph-name="Delta" unicode="&#x394;" horiz-adv-x="614" 
d="M160 65h292l-149 416zM349 588l225 -588h-534l221 588h88z" />
    <glyph glyph-name="Delta" unicode="&#x2206;" horiz-adv-x="614" 
d="M160 65h292l-149 416zM349 588l225 -588h-534l221 588h88z" />
    <glyph glyph-name="afii10023" unicode="&#x401;" horiz-adv-x="499" 
d="M445 807c0 -18.667 -6.66699 -34.834 -20 -48.501s-29 -20.5 -47 -20.5s-33.5 6.83301 -46.5 20.5s-19.5 29.834 -19.5 48.501s6.5 34.667 19.5 48s28.833 20 47.5 20c18 0 33.5 -6.66699 46.5 -20s19.5 -29.333 19.5 -48zM232 807c0 -18.667 -6.5 -34.834 -19.5 -48.501
s-28.5 -20.5 -46.5 -20.5s-33.5 6.83301 -46.5 20.5s-19.5 29.834 -19.5 48.501s6.5 34.667 19.5 48s28.5 20 46.5 20s33.5 -6.66699 46.5 -20s19.5 -29.333 19.5 -48zM474 0h-394v692h384l-15 -94h-254v-189h213v-94h-211v-217h277v-98z" />
    <glyph glyph-name="afii10051" unicode="&#x402;" horiz-adv-x="659" 
d="M470 692l-13.999 -96h-186v-192c47.333 22 92.333 33 135 33c54.667 0 98.667 -15.333 132 -46c41.333 -38.667 62 -98 62 -178c0 -76.667 -18.333 -135 -55 -175c-30.667 -33.333 -71 -50 -121 -50c-31.333 0 -64.666 7.33301 -99.999 22l20 83
c19.333 -12 40.666 -18 63.999 -18c22.667 0 39.667 8 51 24c12.667 18.667 19 55.667 19 111c0 52 -7.66699 87.333 -23 106c-16.667 20.667 -42.334 31 -77.001 31c-35.333 0 -71 -9 -107 -27v-320h-115v596h-165v96h480z" />
    <glyph glyph-name="afii10052" unicode="&#x403;" horiz-adv-x="471" 
d="M456 692l-14 -94h-247v-598h-115v692h376zM399 822l-220 -102l-34 63l204 132z" />
    <glyph glyph-name="afii10053" unicode="&#x404;" horiz-adv-x="571" 
d="M382 403l-0.000976562 -89.999h-224v-9c0 -85.333 15 -145 45 -179c26.667 -30 66.667 -45 120 -45c57.333 0 107 18 149 54l49 -74c-23.333 -20.667 -51.333 -37 -84 -49c-38 -14 -78 -21 -120 -21c-88 0 -156.667 26 -206 78c-54 57.333 -81 145.666 -81 264.999
c0 132 31.667 229.333 95 292c52.667 51.333 119.667 77 201 77c70.667 0 132.334 -19 185.001 -57l-51 -78c-37.333 30 -82.333 45 -135 45c-48.667 0 -87 -14 -115 -42c-33.333 -33.333 -50 -86 -50 -158v-9h222z" />
    <glyph glyph-name="afii10054" unicode="&#x405;" horiz-adv-x="587" 
d="M542 212c0 -61.333 -23.998 -113.668 -71.998 -157.001s-114 -65 -198 -65c-82.667 0 -158.334 20.667 -227.001 62l44 89c65.333 -38 127.666 -57 186.999 -57c42.667 0 76 9.66699 100 29s36 46.333 36 81c0 46.667 -34.333 79.667 -103 99l-74 21
c-64.667 18.667 -109.334 46.334 -134.001 83.001c-19.333 28.667 -29 62 -29 100c0 60.667 21.833 110 65.5 148s100.167 57 169.5 57c83.333 0 156.333 -22 219 -66l-52 -81c-59.333 35.333 -113.666 53 -162.999 53c-34 0 -61.333 -8.5 -82 -25.5s-31 -39.833 -31 -68.5
c0 -21.333 6.83301 -38.166 20.5 -50.499s37.5 -23.5 71.5 -33.5l82 -24c52.667 -15.333 94.167 -39.333 124.5 -72s45.5 -73.334 45.5 -122.001z" />
    <glyph glyph-name="afii10055" unicode="&#x406;" horiz-adv-x="278" 
d="M198 0h-118v692h118v-692z" />
    <glyph glyph-name="afii10056" unicode="&#x407;" horiz-adv-x="278" 
d="M198 0h-118v692h118v-692zM269 808c0 -19.333 -5.66602 -35.833 -16.999 -49.5s-25 -20.5 -41 -20.5c-15.333 0 -28.833 7 -40.5 21s-17.5 30.333 -17.5 49c0 19.333 5.83301 35.833 17.5 49.5s25.5 20.5 41.5 20.5c15.333 0 28.666 -6.83301 39.999 -20.5
s17 -30.167 17 -49.5zM124.001 808c0 -18.667 -5.83301 -35 -17.5 -49s-25.167 -21 -40.5 -21s-28.666 6.83301 -39.999 20.5s-17 30.167 -17 49.5s5.66699 35.833 17 49.5s24.666 20.5 39.999 20.5s28.833 -6.83301 40.5 -20.5s17.5 -30.167 17.5 -49.5z" />
    <glyph glyph-name="afii10057" unicode="&#x408;" horiz-adv-x="283" 
d="M203 128c0 -55.333 -3 -96 -9 -122s-16.667 -49.667 -32 -71c-27.333 -38 -66.333 -66.333 -117 -85l-54 61c39.333 21.333 66.333 47.333 81 78c10.667 22 16 65 16 129v574h115v-564z" />
    <glyph glyph-name="afii10058" unicode="&#x409;" horiz-adv-x="901" 
d="M399 0l-0.000976562 598h-147l-5 -112c-4 -102.667 -12 -198.334 -24 -287.001c-10 -73.333 -29.667 -124.666 -59 -153.999c-27.333 -26.667 -68 -43.334 -122 -50.001l-31 -4l-21 81l20 5c25.333 6.66699 45.666 17.334 60.999 32.001
c13.333 12.667 24 29.834 32 51.501s13 40.167 15 55.5s5 41 9 77c8.66699 89.333 14.334 184.666 17.001 285.999l3 113h367v-278h96c78.667 0 137.667 -15.333 177 -46c49.333 -38.667 74 -92.667 74 -162c0 -58.667 -17.667 -105.667 -53 -141
c-43.333 -43.333 -112.666 -65 -207.999 -65h-201zM513.999 94h75.001c53.333 0 91 10.667 113 32c20.667 20.667 31 48 31 82s-10 61 -30 81c-20.667 20.667 -53.334 31 -98.001 31h-91v-226z" />
    <glyph glyph-name="afii10059" unicode="&#x40a;" horiz-adv-x="933" 
d="M431 0l-0.000976562 320h-236v-320h-115v692h115v-278h236v278h115v-278h96c78.667 0 137.667 -15.333 177 -46c49.333 -38.667 74 -92.667 74 -162c0 -58.667 -17.667 -105.667 -53 -141c-43.333 -43.333 -112.666 -65 -207.999 -65h-201zM545.999 94h75.001
c53.333 0 91 10.667 113 32c20.667 20.667 31 48 31 82s-10 61 -30 81c-20.667 20.667 -53.334 31 -98.001 31h-91v-226z" />
    <glyph glyph-name="afii10060" unicode="&#x40b;" horiz-adv-x="653" 
d="M471 692l-15.001 -96h-186v-193c48.667 22.667 96.334 34 143.001 34c57.333 0 102.333 -15 135 -45c30 -28.667 45 -68.667 45 -120v-272h-115v241c0 36.667 -8.33301 63.667 -25 81c-15.333 16.667 -39 25 -71 25c-34 0 -71.333 -9 -112 -27v-320h-115v596h-165v96h481
z" />
    <glyph glyph-name="afii10061" unicode="&#x40c;" horiz-adv-x="610" 
d="M555 701l22.001 -78.998l-32 -8c-19.333 -4.66699 -32.333 -10.334 -39 -17.001c-8.66699 -8.66699 -15.667 -23.667 -21 -45l-18 -72c-9.33301 -39.333 -23 -67.333 -41 -84c-14 -12.667 -30.333 -22 -49 -28v-2c17.333 -6 31.666 -14.333 42.999 -25
c20 -18.667 34.667 -45 44 -79l31 -111c6.66699 -25.333 14.334 -41.666 23.001 -48.999c8.66699 -8.66699 22.667 -15.667 42 -21l30 -9l-21 -81l-38 4c-51.333 4.66699 -88 17.667 -110 39c-6 6 -11.333 13 -16 21s-8 15.667 -10 23s-4 15.166 -6 23.499
s-3.66699 15.833 -5 22.5l-23 106c-8 33.333 -18.667 56 -32 68c-15.333 14 -38 21 -68 21h-66v-319h-115v692h115v-279h76c31.333 0 54.666 7.33301 69.999 22c10.667 10.667 20 32.334 28 65.001l19 84c8 36.667 20.333 63 37 79c7.33301 7.33301 16 13.166 26 17.499
s18.5 7.16602 25.5 8.49902s19.5 3.33301 37.5 6zM459.001 822.002l-220 -102l-34 63l204 132z" />
    <glyph glyph-name="afii10062" unicode="&#x40e;" horiz-adv-x="519" 
d="M427 855c-9.33301 -12.667 -20.832 -26.334 -34.499 -41.001s-33.667 -30.834 -60 -48.501s-50.833 -26.5 -73.5 -26.5s-47.334 8.83301 -74.001 26.5s-46.667 33.834 -60 48.501s-24.666 28.334 -33.999 41.001l33 43c47.333 -44.667 93.666 -67 138.999 -67
c39.333 0 84 22.333 134 67zM118.001 692l112 -294.001c18.667 -49.333 32.334 -90.666 41.001 -123.999c8.66699 35.333 23.334 83 44.001 143l93 275h121l-188 -523c-26.667 -75.333 -50.667 -123 -72 -143c-26 -24 -66 -40 -120 -48l-29 -4l-21 84l19 5
c35.333 10 60.666 23 75.999 39c13.333 14 25.666 38 36.999 72l11 32l-56 -7l-196 493h128z" />
    <glyph glyph-name="afii10145" unicode="&#x40f;" horiz-adv-x="615" 
d="M80 692h115v-598h225v598h115v-692h-173v-176h-108v176h-174v692z" />
    <glyph glyph-name="afii10017" unicode="&#x410;" horiz-adv-x="577" 
d="M579 0h-126l-56 182h-224l-56 -182h-119l227 692h133zM201 278h170c-34.667 115.333 -62 215.333 -82 300c-20.667 -75.333 -50 -175.333 -88 -300z" />
    <glyph glyph-name="afii10018" unicode="&#x411;" horiz-adv-x="599" 
d="M80 692h415.999l-15 -94h-286v-184h96c26 0 47.333 -0.666992 64 -2s39.167 -6.66602 67.5 -15.999s51.833 -23.333 70.5 -42c37.333 -36.667 56 -87.334 56 -152.001c0 -58.667 -16.333 -104.667 -49 -138c-41.333 -42.667 -112.666 -64 -213.999 -64h-206v692z
M194.999 94h98.001c43.333 0 76 10.333 98 31c20 19.333 30 47 30 83s-10 63.333 -30 82c-20.667 20 -53.334 30 -98.001 30h-98v-226z" />
    <glyph glyph-name="afii10019" unicode="&#x412;" horiz-adv-x="601" 
d="M551 196c0 -130.667 -89.999 -196.002 -269.999 -196.002h-201v692h183c51.333 0 89.166 -2.33301 113.499 -7s47.166 -13.667 68.499 -27c52 -33.333 78 -78.666 78 -135.999c0 -37.333 -10.333 -69.166 -31 -95.499s-50 -44.833 -88 -55.5
c52.667 -12.667 90.334 -35 113.001 -67s34 -68 34 -108zM402.001 502.998c0 20 -5.16797 38 -15.501 54s-23.833 27 -40.5 33c-14.667 5.33301 -36.334 8 -65.001 8h-86v-190h95c22.667 0 39.834 1.66699 51.501 5s22.834 10.333 33.501 21c18 18.667 27 41.667 27 69z
M423 205.998c0 24.667 -6.00098 46.5 -18.001 65.5s-27.667 31.167 -47 36.5c-13.333 4 -34.666 6 -63.999 6h-99v-220h102c42 0 73.5 10.333 94.5 31s31.5 47.667 31.5 81z" />
    <glyph glyph-name="afii10020" unicode="&#x413;" horiz-adv-x="471" 
d="M456 692l-14 -94h-247v-598h-115v692h376z" />
    <glyph glyph-name="afii10021" unicode="&#x414;" horiz-adv-x="636" 
d="M540 692l-0.00195312 -600h71v-266h-108v174h-390v-174h-108v266h45c40.667 80 70.334 164.667 89.001 254c14.667 68.667 24.334 157.667 29.001 267l3 79h369zM266.998 600l-5 -80c-5.33301 -85.333 -15.333 -159 -30 -221c-17.333 -72 -43.333 -141 -78 -207h271v508
h-158z" />
    <glyph glyph-name="afii10022" unicode="&#x415;" horiz-adv-x="499" 
d="M474 0h-394v692h384l-15 -94h-252v-189h211v-94h-211v-217h277v-98z" />
    <glyph glyph-name="afii10024" unicode="&#x416;" horiz-adv-x="891" 
d="M840 702l23.001 -79l-33 -8c-15.333 -3.33301 -28 -9.66602 -38 -18.999c-7.33301 -7.33301 -14.333 -22.333 -21 -45l-21 -78c-10.667 -36.667 -23.667 -62.667 -39 -78c-12 -12 -27.333 -21.333 -46 -28v-2c16.667 -6 31 -14.667 43 -26c18 -17.333 32 -43 42 -77
l30 -107c6.66699 -26 15 -44 25 -54s27.333 -18 52 -24l19 -5l-21 -81l-46 5c-46.667 4.66699 -79.334 16.334 -98.001 35.001s-32.334 49.667 -41.001 93l-21 99c-7.33301 37.333 -17.666 62.333 -30.999 75c-14.667 14 -38.334 21 -71.001 21h-44v-319h-115v319h-44
c-32.667 0 -56.334 -7 -71.001 -21c-13.333 -12.667 -23.666 -37.667 -30.999 -75l-21 -99c-8.66699 -43.333 -22.334 -74.333 -41.001 -93s-51.334 -30.334 -98.001 -35.001l-46 -5l-21 81l19 5c24.667 6 42 14 52 24s18.333 28 25 54l30 107c10 34 24 59.667 42 77
c11.333 11.333 25.666 20 42.999 26v2c-18.667 6.66699 -34 16 -46 28c-15.333 15.333 -28.333 41.333 -39 78l-21 78c-6.66699 22.667 -13.667 37.667 -21 45c-10 9.33301 -22.667 15.666 -38 18.999l-33 8l23 79l38 -6c8.66699 -1.33301 17.334 -2.83301 26.001 -4.5
s16.834 -3.5 24.501 -5.5s15.167 -5 22.5 -9s14.333 -9.33301 21 -16c14.667 -13.333 25.334 -36 32.001 -68l21 -93c8 -32.667 18 -54.667 30 -66c15.333 -14 36.666 -21 63.999 -21h58v279h115v-279h58c27.333 0 48.666 7 63.999 21c12 11.333 22 33.333 30 66l21 93
c6.66699 32 17.334 54.667 32.001 68c6.66699 6.66699 13.667 12 21 16s14.833 7 22.5 9s15.834 3.83301 24.501 5.5s17.334 3.16699 26.001 4.5z" />
    <glyph glyph-name="afii10025" unicode="&#x417;" horiz-adv-x="552" 
d="M224 313h-62.998v88h70c38 0 67.333 9 88 27c20.667 18.667 31 45.334 31 80.001c0 31.333 -9.66699 56 -29 74c-20 20 -49.667 30 -89 30c-28.667 0 -54.334 -5 -77.001 -15c-18.667 -8 -35.667 -18.333 -51 -31l-54 76c25.333 18.667 53.666 33 84.999 43
c34 11.333 72.667 17 116 17c64 0 115 -13.667 153 -41c47.333 -34.667 71 -82.334 71 -143.001c0 -46 -14.667 -83.333 -44 -112c-19.333 -19.333 -43.333 -33.333 -72 -42c40.667 -7.33301 73.334 -23.333 98.001 -48c30 -30 45 -69 45 -117c0 -56 -19 -103 -57 -141
c-44.667 -45.333 -111.334 -68 -200.001 -68c-52 0 -97.667 7.33301 -137 22c-23.333 8.66699 -49.333 22.667 -78 42l53 78c46 -34.667 98 -52 156 -52c43.333 0 76 10.667 98 32s33 51.333 33 90c0 34.667 -10.333 61.667 -31 81c-22 20 -60.333 30 -115 30z" />
    <glyph glyph-name="afii10026" unicode="&#x418;" horiz-adv-x="645" 
d="M565 0l-115.001 -0.000976562v397c0 38.667 2 85.334 6 140.001c-13.333 -38.667 -30 -78.667 -50 -120l-207 -417h-119v692h115v-401c0 -35.333 -2.33301 -79.333 -7 -132c12.667 38 30.334 80 53.001 126l200 407h124v-692z" />
    <glyph glyph-name="afii10027" unicode="&#x419;" horiz-adv-x="645" 
d="M565 0l-115.001 -0.000976562v397c0 38.667 2 85.334 6 140.001c-13.333 -38.667 -30 -78.667 -50 -120l-207 -417h-119v692h115v-401c0 -35.333 -2.33301 -79.333 -7 -132c12.667 38 30.334 80 53.001 126l200 407h124v-692zM421.999 872.999l57 -31.999
c-8 -22 -20 -41.667 -36 -59c-28 -29.333 -67.667 -44 -119 -44s-92 15.667 -122 47c-14 14 -25.667 32.667 -35 56l57 31c8.66699 -16.667 21.667 -30.334 39 -41.001c16 -10 36 -15 60 -15s44 5 60 15c16.667 10 29.667 24 39 42z" />
    <glyph glyph-name="afii10028" unicode="&#x41a;" horiz-adv-x="610" 
d="M555 701l22.001 -78.998l-32 -8c-19.333 -4.66699 -32.333 -10.334 -39 -17.001c-8.66699 -8.66699 -15.667 -23.667 -21 -45l-18 -72c-9.33301 -39.333 -23 -67.333 -41 -84c-14 -12.667 -30.333 -22 -49 -28v-2c17.333 -6 31.666 -14.333 42.999 -25
c20 -18.667 34.667 -45 44 -79l31 -111c6.66699 -25.333 14.334 -41.666 23.001 -48.999c8.66699 -8.66699 22.667 -15.667 42 -21l30 -9l-21 -81l-38 4c-51.333 4.66699 -88 17.667 -110 39c-6 6 -11.333 13 -16 21s-8 15.667 -10 23s-4 15.166 -6 23.499
s-3.66699 15.833 -5 22.5l-23 106c-8 33.333 -18.667 56 -32 68c-15.333 14 -38 21 -68 21h-66v-319h-115v692h115v-279h76c31.333 0 54.666 7.33301 69.999 22c10.667 10.667 20 32.334 28 65.001l19 84c8 36.667 20.333 63 37 79c7.33301 7.33301 16 13.166 26 17.499
s18.5 7.16602 25.5 8.49902s19.5 3.33301 37.5 6z" />
    <glyph glyph-name="afii10029" unicode="&#x41b;" horiz-adv-x="594" 
d="M252 598l-5 -112c-4 -102.667 -12 -198.334 -24 -287.001c-10 -73.333 -29.667 -124.666 -59 -153.999c-27.333 -26.667 -68 -43.334 -122 -50.001l-31 -4l-21 81l20 5c25.333 6.66699 45.666 17.334 60.999 32.001c13.333 12.667 24 29.834 32 51.501s13 40.167 15 55.5
s5 41 9 77c8.66699 89.333 14.334 184.666 17.001 285.999l3 113h367v-692h-115v598h-147z" />
    <glyph glyph-name="afii10030" unicode="&#x41c;" horiz-adv-x="816" 
d="M756 0l-113 -0.000976562l-32 429c-3.33301 48.667 -5 88.667 -5 120c-10.667 -49.333 -19.667 -86.333 -27 -111l-126 -438h-98l-115 419c-12.667 44 -22.667 87.667 -30 131c0 -21.333 -2.33301 -65.333 -7 -132l-30 -418h-113l63 692h153l106 -392
c7.33301 -27.333 16 -66.666 26 -117.999c4.66699 33.333 13 72 25 116l109 394h153z" />
    <glyph glyph-name="afii10031" unicode="&#x41d;" horiz-adv-x="626" 
d="M546 0h-115v320h-236v-320h-115v692h115v-278h236v278h115v-692z" />
    <glyph glyph-name="afii10032" unicode="&#x41e;" horiz-adv-x="678" 
d="M628 346c0 -109.333 -25.001 -196.001 -75.001 -260.001s-119.667 -96 -209 -96c-95.333 0 -168.166 32.833 -218.499 98.5s-75.5 151.834 -75.5 258.501c0 112 26.167 199.167 78.5 261.5s122.5 93.5 210.5 93.5c94 0 165.667 -33 215 -99s74 -151.667 74 -257z
M499.999 339.999c0 90 -11.833 158.167 -35.5 204.5s-64.834 69.5 -123.501 69.5c-57.333 0 -98.833 -21.833 -124.5 -65.5s-38.5 -108.167 -38.5 -193.5c0 -92 13 -161.167 39 -207.5s68.333 -69.5 127 -69.5c52.667 0 91.834 20.833 117.501 62.5s38.5 108.167 38.5 199.5
z" />
    <glyph glyph-name="afii10033" unicode="&#x41f;" horiz-adv-x="606" 
d="M526 0h-115v598h-216v-598h-115v692h446v-692z" />
    <glyph glyph-name="afii10034" unicode="&#x420;" horiz-adv-x="555" 
d="M535 485c0 -66.667 -21.333 -120.167 -64 -160.5s-96 -60.5 -160 -60.5h-116v-264h-115v692h184c48.667 0 85.167 -2.5 109.5 -7.5s46.5 -13.5 66.5 -25.5c63.333 -37.333 95 -95.333 95 -174zM407 479c0 38.667 -9.33301 67.667 -28 87
c-21.333 22.667 -53.333 34 -96 34h-88v-244h88c82.667 0 124 41 124 123z" />
    <glyph glyph-name="afii10035" unicode="&#x421;" horiz-adv-x="567" 
d="M537 51c-53.333 -40.667 -116.333 -60.998 -189 -60.998c-90.667 0 -163.667 33.333 -219 100c-52.667 64 -79 145.333 -79 244c0 82 15.333 151.667 46 209c26 49.333 61.5 88.166 106.5 116.499s94.5 42.5 148.5 42.5c71.333 0 128.666 -18 171.999 -54l-53 -75
c-35.333 26 -74.666 39 -117.999 39c-60.667 0 -106.667 -27.667 -138 -83c-24 -42 -36 -102.333 -36 -181c0 -74.667 9 -131.334 27 -170.001c30 -65.333 81.333 -98 154 -98c46 0 87.333 14.667 124 44z" />
    <glyph glyph-name="afii10036" unicode="&#x422;" horiz-adv-x="474" 
d="M494 692l-15 -96h-174v-596h-115v596h-175v96h479z" />
    <glyph glyph-name="afii10037" unicode="&#x423;" horiz-adv-x="519" 
d="M118 692l112 -294.001c18.667 -49.333 32.334 -90.666 41.001 -123.999c8.66699 35.333 23.334 83 44.001 143l93 275h121l-188 -523c-26.667 -75.333 -50.667 -123 -72 -143c-26 -24 -66 -40 -120 -48l-29 -4l-21 84l19 5c35.333 10 60.666 23 75.999 39
c13.333 14 25.666 38 36.999 72l11 32l-56 -7l-196 493h128z" />
    <glyph glyph-name="afii10038" unicode="&#x424;" horiz-adv-x="749" 
d="M432 0h-115v106h-10c-82 0 -145.333 23 -190 69c-44.667 44.667 -67 108.334 -67 191.001c0 88 23 154.333 69 199c44 43.333 107 65 189 65h9v103h115v-103h9c82 0 145 -21.667 189 -65c46 -44.667 69 -111 69 -199c0 -82.667 -22.333 -146.334 -67 -191.001
c-44.667 -46 -108 -69 -190 -69h-10v-106zM427 550v-364h13c42 0 74.333 11.667 97 35c26.667 27.333 40 74 40 140c0 76 -13.667 127.667 -41 155c-22.667 22.667 -54.667 34 -96 34h-13zM322 550h-13c-41.333 0 -73.333 -11.333 -96 -34c-27.333 -27.333 -41 -79 -41 -155
c0 -66 13.333 -112.667 40 -140c22.667 -23.333 55 -35 97 -35h13v364z" />
    <glyph glyph-name="afii10039" unicode="&#x425;" horiz-adv-x="540" 
d="M550 0h-138l-143 274l-138 -274h-141l212 371l-186 321h140l111 -214l109 214h136l-176 -313z" />
    <glyph glyph-name="afii10040" unicode="&#x426;" horiz-adv-x="631" 
d="M80 692h115v-598h225v598h115v-598h71v-270h-108v176h-418v692z" />
    <glyph glyph-name="afii10041" unicode="&#x427;" horiz-adv-x="580" 
d="M500 0l-114.998 -0.000976562v297c-44.667 -21.333 -94.334 -32 -149.001 -32c-60 0 -106 16 -138 48c-28.667 28.667 -43 69.334 -43 122.001v257h115v-225c0 -40 8 -68.333 24 -85c16.667 -18 43 -27 79 -27c37.333 0 74.666 8 111.999 24v313h115v-692z" />
    <glyph glyph-name="afii10042" unicode="&#x428;" horiz-adv-x="885" 
d="M195 692v-598h190v598h115v-598h190v598h115v-692h-725v692h115z" />
    <glyph glyph-name="afii10043" unicode="&#x429;" horiz-adv-x="904" 
d="M195 692v-598h191v598h115v-598h191v598h115v-598h72v-270h-108v176h-691v692h115z" />
    <glyph glyph-name="afii10044" unicode="&#x42a;" horiz-adv-x="701" 
d="M199 0l-0.000976562 598h-192l-7 94h314v-278h96c78.667 0 137.667 -15.333 177 -46c49.333 -38.667 74 -92.667 74 -162c0 -58.667 -17.667 -105.667 -53 -141c-43.333 -43.333 -112.666 -65 -207.999 -65h-201zM313.999 94h75.001c53.333 0 91 10.667 113 32
c20.667 20.667 31 48 31 82s-10 61 -30 81c-20.667 20.667 -53.334 31 -98.001 31h-91v-226z" />
    <glyph glyph-name="afii10045" unicode="&#x42b;" horiz-adv-x="826" 
d="M80 692h114.999v-278h90c78.667 0 137.667 -15.333 177 -46c49.333 -38.667 74 -92.667 74 -162c0 -58.667 -17.667 -105.667 -53 -141c-43.333 -43.333 -112.666 -65 -207.999 -65h-195v692zM630.999 692h115v-692h-115v692zM194.999 94h74.999
c53.333 0 91 10.667 113 32c20.667 19.333 31 47.333 31 84c0 34 -10 60.333 -30 79c-21.333 20.667 -57.666 31 -108.999 31h-80v-226z" />
    <glyph glyph-name="afii10046" unicode="&#x42c;" horiz-adv-x="582" 
d="M80 0l-0.000976562 692h115v-278h96c78.667 0 137.667 -15.333 177 -46c49.333 -38.667 74 -92.667 74 -162c0 -58.667 -17.667 -105.667 -53 -141c-43.333 -43.333 -112.666 -65 -207.999 -65h-201zM194.999 94h75.001c53.333 0 91 10.667 113 32
c20.667 20.667 31 48 31 82s-10 61 -30 81c-20.667 20.667 -53.334 31 -98.001 31h-91v-226z" />
    <glyph glyph-name="afii10047" unicode="&#x42d;" horiz-adv-x="575" 
d="M173 408l221.998 0.00195312v4c0 74 -17 127.667 -51 161c-26 26 -63.333 39 -112 39c-31.333 0 -58.666 -5 -81.999 -15c-20.667 -8 -39 -18.667 -55 -32l-48 76c24 18 49.333 32 76 42c32.667 12.667 69.667 19 111 19c80 0 145.667 -25.667 197 -77
c62.667 -63.333 94 -157 94 -281c0 -120.667 -29.667 -211.334 -89 -272.001c-53.333 -54.667 -125 -82 -215 -82c-44 0 -84.333 7.33301 -121 22c-25.333 10 -48.666 24 -69.999 42l53 80c18 -15.333 36 -27.333 54 -36c25.333 -12 55.333 -18 90 -18
c54 0 94.333 15.667 121 47c32.667 37.333 49 97.666 49 180.999v10h-224v90z" />
    <glyph glyph-name="afii10048" unicode="&#x42e;" horiz-adv-x="913" 
d="M195 414h111c7.33301 90.667 36 162 86 214c47.333 49.333 110 74 188 74c77.333 0 140 -24.333 188 -73c63.333 -64 95 -157.667 95 -281c0 -124.667 -33 -220 -99 -286c-48.667 -48 -109.667 -72 -183 -72c-74 0 -133.667 22.333 -179 67c-32 30.667 -56 70 -72 118
s-24 96.333 -24 145h-111v-320h-115v692h115v-278zM735 346c0 118.667 -19.333 196.667 -58 234c-24 22.667 -55.667 34 -95 34s-71 -11.333 -95 -34c-38.667 -37.333 -58 -115.333 -58 -234s19.333 -196.667 58 -234c24 -22.667 55.667 -34 95 -34s71 11.333 95 34
c38.667 37.333 58 115.333 58 234z" />
    <glyph glyph-name="afii10049" unicode="&#x42f;" horiz-adv-x="606" 
d="M526 0l-114.997 -0.000976562v294h-55c-42 0 -72 -8.33301 -90 -25c-15.333 -14 -27 -39 -35 -75l-15 -72c-9.33301 -43.333 -22.666 -73.666 -39.999 -90.999c-8.66699 -8 -19.334 -14.667 -32.001 -20s-22.334 -8.5 -29.001 -9.5s-18 -2.5 -34 -4.5l-50 -6l-21 81l25 7
c21.333 6 36.666 13.333 45.999 22c10.667 9.33301 19.667 27.333 27 54l19 74c8.66699 34.667 22 61 40 79c15.333 15.333 34.666 26 57.999 32v3c-40.667 8 -72.667 23.333 -96 46c-30.667 30.667 -46 70.667 -46 120c0 51.333 16.667 93 50 125
c40 38.667 101.333 58 184 58h209v-692zM411.003 599.999l-83 -0.000976562c-42.667 0 -74 -10 -94 -30c-18.667 -17.333 -28 -42.666 -28 -75.999c0 -35.333 10.333 -62.333 31 -81c20.667 -18 55 -27 103 -27h71v214z" />
    <glyph glyph-name="afii10065" unicode="&#x430;" horiz-adv-x="515" 
d="M478 49l-57.001 -70.001c-34 13.333 -57 36 -69 68c-35.333 -40 -81.666 -60 -138.999 -60c-56 0 -98 13.5 -126 40.5s-42 63.5 -42 109.5c0 58 21.333 101.833 64 131.5s104.667 44.5 186 44.5h34v27c0 32 -4.66699 54.833 -14 68.5s-28 20.5 -56 20.5
c-21.333 0 -44.666 -4.83301 -69.999 -14.5s-45 -19.167 -59 -28.5l-22 -15l-49 79c72.667 46 144.334 69 215.001 69c80 0 131.333 -28 154 -84c6 -15.333 8.66699 -56.666 8 -123.999l-2 -145c-0.666992 -34.667 1.66602 -59.5 6.99902 -74.5s17.666 -29.167 36.999 -42.5
zM326.999 237.999c-8 0.666992 -14.666 0.999023 -19.999 0.999023c-53.333 0 -90.5 -7.66699 -111.5 -23s-31.5 -39.666 -31.5 -72.999c0 -24 6.16699 -42.667 18.5 -56s29.5 -20 51.5 -20c37.333 0 67.666 17 90.999 51z" />
    <glyph glyph-name="afii10066" unicode="&#x431;" horiz-adv-x="543" 
d="M441 774l40 -88.999c-14 -9.33301 -33 -19.333 -57 -30l-59 -24l-131 -54c-51.333 -21.333 -81.333 -63.333 -90 -126l-4 -31l5 -1c12.667 22.667 29.334 41.334 50.001 56.001c29.333 20.667 63.333 31 102 31c58 0 106 -22.333 144 -67c38 -46.667 57 -110 57 -190
s-20 -143.667 -60 -191c-41.333 -47.333 -96.333 -71 -165 -71c-68 0 -122 23.667 -162 71c-18 21.333 -31.833 47.166 -41.5 77.499s-15.334 57.333 -17.001 81s-2.5 54.167 -2.5 91.5c0 89.333 8 158.666 24 207.999c12.667 39.333 33 73 61 101
c28.667 27.333 65 50.333 109 69l158 67zM274 424.001c-34 0 -59.333 -13.999 -76 -41.999c-17.333 -28.667 -26 -74 -26 -136c0 -60 8.66699 -105 26 -135c16.667 -28 42 -42 76 -42s59.333 14 76 42c17.333 28.667 26 73.667 26 135s-8.66699 106.666 -26 135.999
c-16.667 28 -42 42 -76 42z" />
    <glyph glyph-name="afii10067" unicode="&#x432;" horiz-adv-x="526" 
d="M75 506h209.999c60.667 0 104.334 -13.333 131.001 -40c22 -22 33 -51.333 33 -88c0 -31.333 -9.33301 -57.333 -28 -78c-14 -15.333 -30.667 -26 -50 -32c26 -4.66699 48 -16 66 -34c22.667 -22.667 34 -52 34 -88c0 -44 -13.667 -79 -41 -105
c-31.333 -27.333 -74.333 -41 -129 -41h-226v506zM183.999 432v-133h71c30.667 0 53 6.66699 67 20c12 11.333 18 27 18 47c0 22 -6.33301 38.667 -19 50c-12 10.667 -32.667 16 -62 16h-75zM183.999 227v-153.001h80c33.333 0 57.333 6.66699 72 20
c13.333 12 20 29.667 20 53c0 30.667 -8.66699 52.334 -26 65.001c-13.333 10 -35.333 15 -66 15h-80z" />
    <glyph glyph-name="afii10068" unicode="&#x433;" horiz-adv-x="411" 
d="M184 424v-424h-109v506h316l-13 -82h-194z" />
    <glyph glyph-name="afii10069" unicode="&#x434;" horiz-adv-x="524" 
d="M504 80v-223h-102v143h-295v-143h-102v223h39c29.333 52 51.333 108.333 66 169c12.667 53.333 19.667 114.333 21 183l2 74h308v-426h63zM332 426h-113l-2 -47c-2 -56 -9 -109 -21 -159c-11.333 -45.333 -29.333 -92 -54 -140h190v346z" />
    <glyph glyph-name="afii10070" unicode="&#x435;" horiz-adv-x="513" 
d="M473 224l-301.999 -0.000976562v-9c0 -41.333 9.5 -75.666 28.5 -102.999s51.167 -41 96.5 -41s87.333 16.667 126 50l43 -67c-52.667 -44.667 -113.334 -67 -182.001 -67c-71.333 0 -128 24 -170 72s-63 112.667 -63 194c0 84 21 150 63 198c39.333 45.333 91 68 155 68
c54.667 0 101 -17.333 139 -52c44 -40 66 -113.333 66 -220v-23zM359.001 305.999c0 40.667 -8.16602 72.667 -24.499 96s-38.5 35 -66.5 35c-30.667 0 -54.334 -11.5 -71.001 -34.5s-25 -55.167 -25 -96.5h187z" />
    <glyph glyph-name="afii10072" unicode="&#x436;" horiz-adv-x="713" 
d="M302 497l109 21v-212h39c20 0 35.333 5.33301 46 16c8 8 14.333 23.333 19 46l12 56c5.33301 26 15.333 46.333 30 61c16 16 38.667 25 68 27l47 4l20 -75l-26 -5c-12.667 -2.66699 -22 -7 -28 -13c-5.33301 -4.66699 -10.333 -14.334 -15 -29.001l-18 -58
c-6.66699 -20 -14.667 -34.667 -24 -44c-10 -10 -24 -17.667 -42 -23v-2c14 -4 26.667 -11.333 38 -22c11.333 -11.333 21.666 -30.333 30.999 -57l21 -63c7.33301 -21.333 14 -34.333 20 -39c9.33301 -8 23 -14 41 -18l13 -3l-20 -75l-38 3c-42 2.66699 -72 12.667 -90 30
c-13.333 12.667 -23.666 35 -30.999 67l-12 60c-6.66699 30 -14.667 49.667 -24 59c-10.667 10 -27.667 15 -51 15h-26v-224h-109v224h-26c-23.333 0 -40.333 -5 -51 -15c-9.33301 -9.33301 -17.333 -29 -24 -59l-12 -60c-7.33301 -32 -17.666 -54.333 -30.999 -67
c-18 -17.333 -48 -27.333 -90 -30l-38 -3l-20 75l13 3c18 4 31.667 10 41 18c6 4.66699 12.667 17.667 20 39l21 63c9.33301 26.667 19.666 45.667 30.999 57c11.333 10.667 24 18 38 22v2c-18 5.33301 -32 13 -42 23c-9.33301 9.33301 -17.333 24 -24 44l-18 58
c-4.66699 14.667 -9.66699 24.334 -15 29.001c-6 6 -15.333 10.333 -28 13l-26 5l20 75l47 -4c29.333 -2 52 -11 68 -27c14.667 -14.667 24.667 -35 30 -61l12 -56c4.66699 -22.667 11 -38 19 -46c10.667 -10.667 26 -16 46 -16h39v191z" />
    <glyph glyph-name="afii10073" unicode="&#x437;" horiz-adv-x="448" 
d="M132 306l58.001 -0.000976562c29.333 0 51 6.66699 65 20c12 11.333 18 26 18 44c0 18.667 -5.66699 33.334 -17 44.001c-14.667 14 -36.334 21 -65.001 21c-20 0 -41.667 -4.33301 -65 -13c-13.333 -5.33301 -28.666 -14 -45.999 -26l-44 69
c23.333 16 46.666 28.333 69.999 37c30 11.333 65 17 105 17c61.333 0 107.666 -15 138.999 -45c26 -24.667 39 -56 39 -94c0 -32.667 -11.667 -60.334 -35 -83.001c-13.333 -13.333 -29.666 -23 -48.999 -29c24.667 -6 46 -18 64 -36c22.667 -22.667 34 -51 34 -85
c0 -44 -15 -80.333 -45 -109c-35.333 -34 -86.666 -51 -153.999 -51c-55.333 0 -101.333 10.333 -138 31c-12.667 7.33301 -28 18 -46 32l48 71c15.333 -13.333 32 -24.333 50 -33c23.333 -11.333 48 -17 74 -17c29.333 0 51.666 7 66.999 21s23 32.333 23 55
s-7 40.334 -21 53.001c-16 14.667 -41 22 -75 22h-54v84z" />
    <glyph glyph-name="afii10074" unicode="&#x438;" horiz-adv-x="560" 
d="M75 0v498.001l109 21v-265c0 -30.667 -1.33301 -68.667 -4 -114h2c16 43.333 34 82.666 54 117.999l135 241l114 20v-519h-109v230c0 48 1.66699 91.667 5 131h-2c-12.667 -36 -29.667 -73.333 -51 -112l-139 -249h-114z" />
    <glyph glyph-name="afii10075" unicode="&#x439;" horiz-adv-x="560" 
d="M75 0v498.001l109 21v-265c0 -30.667 -1.33301 -68.667 -4 -114h2c16 43.333 34 82.666 54 117.999l135 241l114 20v-519h-109v230c0 48 1.66699 91.667 5 131h-2c-12.667 -36 -29.667 -73.333 -51 -112l-139 -249h-114zM384 699.001l55.001 -31
c-12.667 -35.333 -31.334 -61 -56.001 -77c-27.333 -20.667 -62 -31 -104 -31s-76.667 10.333 -104 31c-24.667 16 -43.334 41.667 -56.001 77l55 31c8 -11.333 15 -20.333 21 -27c20.667 -22 49.334 -33 86.001 -33c34 0 61.333 11 82 33c6 6.66699 13 15.667 21 27z" />
    <glyph glyph-name="afii10076" unicode="&#x43a;" horiz-adv-x="518" 
d="M75 0l-0.000976562 496.999l109 21v-212h47c26.667 0 45.334 5 56.001 15c9.33301 9.33301 16.333 25 21 47l13 57c5.33301 25.333 14.333 44.666 27 57.999c14 15.333 41 25 81 29l37 4l20 -75l-25 -5c-12.667 -2.66699 -22 -6.66699 -28 -12
c-6.66699 -6 -12.667 -17.333 -18 -34l-16 -54c-5.33301 -19.333 -13.666 -34.666 -24.999 -45.999c-10.667 -10.667 -24 -17.667 -40 -21v-2c12.667 -3.33301 25 -10 37 -20c12.667 -12.667 22.667 -30.667 30 -54l25 -75c5.33301 -14.667 11.666 -26 18.999 -34
c6 -6 17 -11 33 -15l20 -4l-20 -75l-34 3c-47.333 4 -79.333 14 -96 30c-14 14 -24.333 36.333 -31 67l-16 71c-5.33301 24.667 -13 41.334 -23 50.001s-26.333 13 -49 13h-45v-224h-109z" />
    <glyph glyph-name="afii10077" unicode="&#x43b;" horiz-adv-x="529" 
d="M137 506l317 0.00195312v-506h-109v424h-114l-4 -55c-2.66699 -42 -5.66699 -81 -9 -117c-6.66699 -65.333 -11.667 -108.333 -15 -129c-6 -41.333 -19 -72 -39 -92c-21.333 -20.667 -56.333 -33.334 -105 -38.001l-27 -3l-22 75l22 5c20.667 5.33301 37 14 49 26
c9.33301 9.33301 16.5 22.166 21.5 38.499s8.33301 33.5 10 51.5l5.5 60c4 39.333 8.33301 94.333 13 165z" />
    <glyph glyph-name="afii10078" unicode="&#x43c;" horiz-adv-x="685" 
d="M100 506h134l81 -266c15.333 -51.333 24 -82.333 26 -93c4.66699 18.667 13.334 49 26.001 91l83 268h134l51 -506h-103l-25 295c-1.33301 22.667 -2 51 -2 85h-4c-7.33301 -35.333 -14 -61.333 -20 -78l-99 -302h-87l-92 293c-10.667 32 -18.334 61 -23.001 87h-4
c0 -40.667 -0.666992 -67.667 -2 -81l-23 -299h-101z" />
    <glyph glyph-name="afii10079" unicode="&#x43d;" horiz-adv-x="539" 
d="M184 228v-228h-109v497l109 21v-208h171v187l109 21v-518h-109v228h-171z" />
    <glyph glyph-name="afii10080" unicode="&#x43e;" horiz-adv-x="537" 
d="M492 252c0 -82 -20.167 -146.668 -60.5 -194.001s-94.833 -71 -163.5 -71s-123 24 -163 72s-60 112.667 -60 194c0 80.667 20 145.167 60 193.5s93.667 72.5 161 72.5c70.667 0 126 -24.167 166 -72.5s60 -113.166 60 -194.499zM370 250.999
c0 68 -8.83301 115.999 -26.5 143.999s-43.5 42 -77.5 42c-34.667 0 -59.834 -14 -75.501 -42s-23.5 -72.667 -23.5 -134c0 -71.333 8.33301 -121.166 25 -149.499s42.334 -42.5 77.001 -42.5c67.333 0 101 60.667 101 182z" />
    <glyph glyph-name="afii10081" unicode="&#x43f;" horiz-adv-x="530" 
d="M184 0h-109v506h380v-506h-109v424h-162v-424z" />
    <glyph glyph-name="afii10082" unicode="&#x440;" horiz-adv-x="550" 
d="M70 501l101 17.998c5.33301 -22.667 8 -42.667 8 -60c34 40 79 60 135 60c49.333 0 90.333 -16.333 123 -49c45.333 -45.333 68 -115.666 68 -210.999c0 -101.333 -24.333 -175.666 -73 -222.999c-34 -32.667 -77.333 -49 -130 -49c-43.333 0 -83 14 -119 42
c2 -22.667 3 -45.667 3 -69v-148l-106 -27v590c0 54.667 -3.33301 96.667 -10 126zM186 373.998l-0.00195312 -249.001c31.333 -30 65 -45 101 -45c22.667 0 41.334 7 56.001 21c29.333 26.667 44 77.334 44 152.001c0 76 -11.667 126 -35 150
c-14.667 15.333 -33.667 23 -57 23c-39.333 0 -75.666 -17.333 -108.999 -52z" />
    <glyph glyph-name="afii10083" unicode="&#x441;" horiz-adv-x="457" 
d="M427 54c-44.667 -44.667 -98.665 -67 -161.998 -67c-68.667 0 -121.667 22.833 -159 68.5s-56 109.5 -56 191.5c0 86.667 21.833 153.667 65.5 201s96.167 71 157.5 71c54 0 100.667 -18.333 140 -55l-55 -73c-28.667 26 -57 39 -85 39
c-36.667 0 -63.334 -17 -80.001 -51c-14 -28.667 -21 -75.667 -21 -141c0 -67.333 11.333 -113.333 34 -138c17.333 -19.333 39.666 -29 66.999 -29c34.667 0 68.667 16.667 102 50z" />
    <glyph glyph-name="afii10084" unicode="&#x442;" horiz-adv-x="380" 
d="M240 424v-424h-109v424h-136v82h390l-14 -82h-131z" />
    <glyph glyph-name="afii10085" unicode="&#x443;" horiz-adv-x="483" 
d="M360 506h117.999l-187 -540c-18.667 -54 -41.667 -95.667 -69 -125c-24.667 -25.333 -64.667 -44.333 -120 -57l-36 71c38 10 66 24.667 84 44c22.667 22.667 40.334 56.334 53.001 101.001h-35c-10.667 38.667 -25 86.334 -43 143.001l-120 355l112 19l93 -308
c9.33301 -30.667 18.333 -68.334 27 -113.001h2c10 41.333 22.333 86.666 37 135.999z" />
    <glyph glyph-name="afii10086" unicode="&#x444;" horiz-adv-x="739" 
d="M424 737v-255c27.333 24 59.333 36 96 36c48 0 87.667 -19.667 119 -59c36.667 -46 55 -112 55 -198c0 -90 -17 -158.667 -51 -206c-32.667 -45.333 -76 -68 -130 -68c-35.333 0 -65 10 -89 30v-217h-109v217c-24 -20 -53.667 -30 -89 -30c-54 0 -97.333 22.667 -130 68
c-34 47.333 -51 116 -51 206c0 86 18.333 152 55 198c31.333 39.333 71 59 119 59c36.667 0 68.667 -12 96 -36v230zM424 398v-295.001c20 -18.667 43 -28 69 -28c27.333 0 48.333 11.333 63 34s22 73.334 22 152.001c0 70.667 -8 117 -24 139c-14.667 20 -34 30 -58 30
c-24.667 0 -48.667 -10.667 -72 -32zM315 102.999v295.001c-23.333 21.333 -47.333 32 -72 32c-24 0 -43.333 -10 -58 -30c-16 -22 -24 -68.333 -24 -139c0 -78.667 7.33301 -129.334 22 -152.001s35.667 -34 63 -34c26 0 49 9.33301 69 28z" />
    <glyph glyph-name="afii10087" unicode="&#x445;" horiz-adv-x="477" 
d="M487 0h-137.998c-32 51.333 -68.667 114.333 -110 189c-9.33301 -18.667 -27.5 -51.167 -54.5 -97.5s-45.5 -76.833 -55.5 -91.5h-139l188 274l-146 217l119 24c35.333 -58 66 -112.667 92 -164c7.33301 18 20.666 45.833 39.999 83.5s32.666 61.5 39.999 71.5h128
l-149 -230z" />
    <glyph glyph-name="afii10088" unicode="&#x446;" horiz-adv-x="538" 
d="M341 497l109 21v-436h63v-225h-102v143h-336v497l109 21v-436h157v415z" />
    <glyph glyph-name="afii10089" unicode="&#x447;" horiz-adv-x="489" 
d="M305 497l109 21v-518h-109v202c-35.333 -14 -70 -21 -104 -21c-53.333 0 -93.333 13.333 -120 40c-24 24 -36 59.667 -36 107v169l109 21v-178c0 -28.667 6.66699 -49 20 -61c12 -10.667 30.333 -16 55 -16c28.667 0 54 5.66699 76 17v217z" />
    <glyph glyph-name="afii10090" unicode="&#x448;" horiz-adv-x="753" 
d="M75 497l109 21v-436h138v415l109 21v-436h138v415l109 21v-518h-603v497z" />
    <glyph glyph-name="afii10091" unicode="&#x449;" horiz-adv-x="766" 
d="M75 497l109 21v-436h138v415l109 21v-436h138v415l109 21v-436h63v-225h-102v143h-564v497z" />
    <glyph glyph-name="afii10092" unicode="&#x44a;" horiz-adv-x="553" 
d="M247 319h73c72.667 0 125 -16.333 157 -49c27.333 -28 41 -65.667 41 -113c0 -46.667 -13 -83.667 -39 -111c-30 -30.667 -80 -46 -150 -46h-191v424h-129l-9 82h247v-187zM247 241v-162.998h63c33.333 0 57.333 7.33301 72 22c13.333 13.333 20 32.666 20 57.999
c0 27.333 -7 47.666 -21 60.999c-15.333 14.667 -40 22 -74 22h-60z" />
    <glyph glyph-name="afii10093" unicode="&#x44b;" horiz-adv-x="712" 
d="M75 497l109 21v-199h69c72.667 0 125 -16.333 157 -49c27.333 -28 41 -65.667 41 -113c0 -46.667 -13 -83.667 -39 -111c-30 -30.667 -80 -46 -150 -46h-187v497zM528 497l109 21v-518h-109v497zM184 241v-163h57c34 0 58.667 7.33301 74 22
c13.333 12.667 20 31.667 20 57c0 28.667 -7.66699 50 -23 64c-14 13.333 -37.667 20 -71 20h-57z" />
    <glyph glyph-name="afii10094" unicode="&#x44c;" horiz-adv-x="490" 
d="M75 497l109 21v-199h73c72.667 0 125 -16.333 157 -49c27.333 -28 41 -65.667 41 -113c0 -46.667 -13 -83.667 -39 -111c-30 -30.667 -80 -46 -150 -46h-191v497zM184 241v-162.998h63c33.333 0 57.333 7.33301 72 22c13.333 13.333 20 32.666 20 57.999
c0 27.333 -7 47.666 -21 60.999c-15.333 14.667 -40 22 -74 22h-60z" />
    <glyph glyph-name="afii10095" unicode="&#x44d;" horiz-adv-x="467" 
d="M155 224v81.999h145v9c0 41.333 -10.333 73 -31 95c-17.333 18 -41.333 27 -72 27c-22 0 -42.333 -4.66699 -61 -14c-14 -6.66699 -27 -16 -39 -28l-53 66c18 16.667 40 30.334 66 41.001c26.667 11.333 57.667 17 93 17c62 0 111 -18 147 -54
c48 -47.333 72 -119.333 72 -216c0 -90.667 -21 -158 -63 -202c-38 -40 -90.667 -60 -158 -60c-41.333 0 -77.666 7.66699 -108.999 23c-22 10.667 -42.667 25.667 -62 45l53 65c5.33301 -5.33301 11.166 -10.5 17.499 -15.5s11.5 -8.83301 15.5 -11.5l6 -4
c20.667 -13.333 44.667 -20 72 -20c34 0 59.333 8.66699 76 26c20 20.667 30 58.667 30 114v15h-145z" />
    <glyph glyph-name="afii10096" unicode="&#x44e;" horiz-adv-x="740" 
d="M184 307h80.999c2 62.667 23 114.667 63 156c37.333 37.333 86.333 56 147 56c62.667 0 113 -19.667 151 -59c46 -46 69 -115.667 69 -209c0 -94 -22 -163.333 -66 -208c-36.667 -37.333 -85.667 -56 -147 -56c-65.333 0 -116.666 19.333 -153.999 58
c-40.667 42.667 -62 102.667 -64 180h-80v-225h-109v498l109 21v-212zM378.999 253c0 -82.667 11.667 -136 35 -160c16 -16 36.333 -24 61 -24s45 8 61 24c23.333 24 35 77.333 35 160s-11.667 136 -35 160c-16 16 -36.333 24 -61 24s-45 -8 -61 -24
c-23.333 -24 -35 -77.333 -35 -160z" />
    <glyph glyph-name="afii10097" unicode="&#x44f;" horiz-adv-x="514" 
d="M439 506l-0.000976562 -506.001h-109v200h-46c-24 0 -41.667 -5.33301 -53 -16c-8 -7.33301 -15.333 -23 -22 -47l-14 -50c-8.66699 -30 -18.667 -50.667 -30 -62c-17.333 -17.333 -48 -28 -92 -32l-39 -3l-19 75l16 4c16 4 29 10 39 18
c8 7.33301 15.333 20.666 22 39.999l15 45c6.66699 20 15.334 34.667 26.001 44c12.667 12.667 26.667 20.334 42 23.001v2c-30 2.66699 -55.667 14.667 -77 36c-21.333 22.667 -32 51.667 -32 87c0 40.667 13 73.334 39 98.001c30.667 29.333 79.667 44 147 44h187z
M329.999 425.999l-63 0.000976562c-30.667 0 -52.667 -6.33301 -66 -19s-20 -30.334 -20 -53.001c0 -23.333 6.66699 -41.333 20 -54c16 -14.667 38.333 -22 67 -22h62v148z" />
    <glyph glyph-name="afii10071" unicode="&#x451;" horiz-adv-x="513" 
d="M431 648c0 -18.667 -6.33203 -34.5 -18.999 -47.5s-27.667 -19.5 -45 -19.5s-32.333 6.5 -45 19.5s-19 28.833 -19 47.5s6.33301 34.334 19 47.001s28 19 46 19c17.333 0 32.166 -6.33301 44.499 -19s18.5 -28.334 18.5 -47.001zM232.001 648
c0 -18.667 -6.33301 -34.5 -19 -47.5s-27.667 -19.5 -45 -19.5s-32.166 6.5 -44.499 19.5s-18.5 28.833 -18.5 47.5s6.16699 34.334 18.5 47.001s27.166 19 44.499 19s32.333 -6.33301 45 -19s19 -28.334 19 -47.001zM473.001 224l-301.999 -0.000976562v-9
c0 -41.333 9.5 -75.666 28.5 -102.999s51.167 -41 96.5 -41s87.333 16.667 126 50l43 -67c-52.667 -44.667 -113.334 -67 -182.001 -67c-71.333 0 -128 24 -170 72s-63 112.667 -63 194c0 84 21 150 63 198c39.333 45.333 91 68 155 68c54.667 0 101 -17.333 139 -52
c44 -40 66 -113.333 66 -220v-23zM359.002 305.999c0 40.667 -8.16602 72.667 -24.499 96s-38.5 35 -66.5 35c-30.667 0 -54.334 -11.5 -71.001 -34.5s-25 -55.167 -25 -96.5h187z" />
    <glyph glyph-name="afii10099" unicode="&#x452;" horiz-adv-x="579" 
d="M204 620l182 0.000976562l-23 -64h-159v-58l-3 -54c46.667 42 99.334 63 158.001 63c45.333 0 80.333 -12.667 105 -38c23.333 -24.667 35 -63 35 -115v-286c0 -92.667 -15.333 -160.334 -46 -203.001c-26 -35.333 -58.667 -60.333 -98 -75l-48 64
c22.667 14 40.334 31 53.001 51c13.333 19.333 21.666 38.5 24.999 57.5s5 44.833 5 77.5v294c0 32 -5.33301 53.333 -16 64s-26.334 16 -47.001 16s-43 -6.33301 -67 -19c-22 -11.333 -40.667 -25.333 -56 -42v-353h-109v556h-55v64h55v117l109 -17v-100z" />
    <glyph glyph-name="afii10100" unicode="&#x453;" horiz-adv-x="411" 
d="M184 424v-424h-109v506h316l-13 -82h-194zM359 662l-220 -102l-34 63l204 132z" />
    <glyph glyph-name="afii10101" unicode="&#x454;" horiz-adv-x="467" 
d="M312 219l-145 0.000976562v-10c0 -55.333 10 -93.333 30 -114c16.667 -17.333 42 -26 76 -26c27.333 0 51.333 6.66699 72 20l6 4c4 2.66699 9.16699 6.5 15.5 11.5s12.166 10.167 17.499 15.5l53 -65c-19.333 -19.333 -40 -34.333 -62 -45
c-31.333 -15.333 -67.666 -23 -108.999 -23c-67.333 0 -120 20 -158 60c-42 44 -63 111.333 -63 202c0 96.667 24 168.667 72 216c36 36 85 54 147 54c35.333 0 66.333 -5.66699 93 -17c26 -10.667 48 -24.334 66 -41.001l-53 -66c-12 12 -25 21.333 -39 28
c-18.667 9.33301 -39 14 -61 14c-30.667 0 -54.667 -9 -72 -27c-20.667 -22 -31 -53.667 -31 -95v-14h145v-82z" />
    <glyph glyph-name="afii10102" unicode="&#x455;" horiz-adv-x="474" 
d="M434 158c0 -51.333 -19.001 -92.833 -57.001 -124.5s-87.333 -47.5 -148 -47.5c-62 0 -126.667 18.667 -194 56l39 79c61.333 -35.333 116 -53 164 -53c24 0 43.667 6.66699 59 20s23 30.333 23 51c0 19.333 -6.5 34.5 -19.5 45.5s-33.833 19.5 -62.5 25.5l-61 13
c-38 8 -67.667 24.333 -89 49s-32 54.667 -32 90c0 47.333 17.333 85.333 52 114s80 43 136 43c56.667 0 112.334 -14.667 167.001 -44l-36 -76c-46 25.333 -87.333 38 -124 38c-24 0 -42.833 -5.33301 -56.5 -16s-20.5 -25.667 -20.5 -45c0 -16 5 -28.5 15 -37.5
s27.667 -16.833 53 -23.5l63 -16c86 -22 129 -69 129 -141z" />
    <glyph glyph-name="afii10103" unicode="&#x456;" 
d="M209 654c0 -20 -7.16699 -37.167 -21.5 -51.5s-31.833 -21.5 -52.5 -21.5c-20 0 -36.833 7.16699 -50.5 21.5s-20.5 31.5 -20.5 51.5c0 20.667 7 38.167 21 52.5s31.333 21.5 52 21.5c20 0 37 -7.16699 51 -21.5s21 -31.833 21 -52.5zM190 0h-109v498l109 20v-518z" />
    <glyph glyph-name="afii10104" unicode="&#x457;" 
d="M190 0h-109v498l109 20v-518zM259 648c0 -18.667 -5.33203 -34.499 -15.999 -47.499s-23.667 -19.5 -39 -19.5c-14.667 0 -27.5 6.66699 -38.5 20s-16.5 29 -16.5 47s5.5 33.5 16.5 46.5s24.167 19.5 39.5 19.5s28.166 -6.33301 38.499 -19s15.5 -28.334 15.5 -47.001z
M122.001 648.001c0 -18 -5.5 -33.668 -16.5 -47.001s-23.833 -20 -38.5 -20c-15.333 0 -28.333 6.5 -39 19.5s-16 28.833 -16 47.5s5.33301 34.334 16 47.001s23.667 19 39 19c14.667 0 27.5 -6.5 38.5 -19.5s16.5 -28.5 16.5 -46.5z" />
    <glyph glyph-name="afii10105" unicode="&#x458;" 
d="M208 656c0 -20.667 -7.16699 -38.334 -21.5 -53.001s-31.833 -22 -52.5 -22c-20 0 -37 7 -51 21s-21 31.333 -21 52c0 20 7.16699 37.333 21.5 52s31.5 22 51.5 22s37.167 -7.16699 51.5 -21.5s21.5 -31.166 21.5 -50.499zM189 12c0 -70 -12.332 -120.667 -36.999 -152
c-24.667 -30.667 -56.334 -54.667 -95.001 -72l-45 64c26 18 43.833 38.5 53.5 61.5s14.5 55.5 14.5 97.5v487l109 20v-506z" />
    <glyph glyph-name="afii10106" unicode="&#x459;" horiz-adv-x="760" 
d="M454 319l73 0.00195312c72.667 0 125 -16.333 157 -49c27.333 -28 41 -65.667 41 -113c0 -46.667 -13 -83.667 -39 -111c-30 -30.667 -80 -46 -150 -46h-191v424h-114l-4 -55c-2.66699 -42 -5.66699 -81 -9 -117c-6.66699 -65.333 -11.667 -108.333 -15 -129
c-6 -41.333 -19 -72 -39 -92c-21.333 -20.667 -56.333 -33.334 -105 -38.001l-27 -3l-22 75l22 5c20.667 5.33301 37 14 49 26c9.33301 9.33301 16.5 22.166 21.5 38.499s8.33301 33.5 10 51.5l5.5 60c4 39.333 8.33301 94.333 13 165l6 95h317v-187zM454 241.002v-162.998
h63c33.333 0 57.333 7.33301 72 22c13.333 13.333 20 32.666 20 57.999c0 27.333 -7 47.666 -21 60.999c-15.333 14.667 -40 22 -74 22h-60z" />
    <glyph glyph-name="afii10107" unicode="&#x45a;" horiz-adv-x="770" 
d="M355 497l109 21v-199h73c72.667 0 125 -16.333 157 -49c27.333 -28 41 -65.667 41 -113c0 -46.667 -13 -83.667 -39 -111c-30 -30.667 -80 -46 -150 -46h-191v241h-171v-241h-109v497l109 21v-199h171v178zM464 241v-162.998h63c33.333 0 57.333 7.33301 72 22
c13.333 13.333 20 32.666 20 57.999c0 27.333 -7 47.666 -21 60.999c-15.333 14.667 -40 22 -74 22h-60z" />
    <glyph glyph-name="afii10108" unicode="&#x45b;" horiz-adv-x="580" 
d="M500 0h-108.999v334c0 31.333 -5.33301 52.666 -16 63.999c-10 10.667 -25 16 -45 16c-22 0 -45 -6.33301 -69 -19c-20.667 -11.333 -39.667 -25.333 -57 -42v-353h-109v556h-55v64h55v117l109 -17v-100h182l-23 -64h-159v-58l-2 -54c18 16.667 41 31.334 69 44.001
c30 12.667 59 19 87 19c45.333 0 80.666 -12.667 105.999 -38c24 -24 36 -62.333 36 -115v-354z" />
    <glyph glyph-name="afii10109" unicode="&#x45c;" horiz-adv-x="518" 
d="M75 0l-0.000976562 496.999l109 21v-212h47c26.667 0 45.334 5 56.001 15c9.33301 9.33301 16.333 25 21 47l13 57c5.33301 25.333 14.333 44.666 27 57.999c14 15.333 41 25 81 29l37 4l20 -75l-25 -5c-12.667 -2.66699 -22 -6.66699 -28 -12
c-6.66699 -6 -12.667 -17.333 -18 -34l-16 -54c-5.33301 -19.333 -13.666 -34.666 -24.999 -45.999c-10.667 -10.667 -24 -17.667 -40 -21v-2c12.667 -3.33301 25 -10 37 -20c12.667 -12.667 22.667 -30.667 30 -54l25 -75c5.33301 -14.667 11.666 -26 18.999 -34
c6 -6 17 -11 33 -15l20 -4l-20 -75l-34 3c-47.333 4 -79.333 14 -96 30c-14 14 -24.333 36.333 -31 67l-16 71c-5.33301 24.667 -13 41.334 -23 50.001s-26.333 13 -49 13h-45v-224h-109zM408.999 661.999l-220 -102l-34 63l204 132z" />
    <glyph glyph-name="afii10110" unicode="&#x45e;" horiz-adv-x="483" 
d="M361 695c-9.33301 -12.667 -20.832 -26.334 -34.499 -41.001s-33.667 -30.834 -60 -48.501s-50.833 -26.5 -73.5 -26.5s-47.334 8.83301 -74.001 26.5s-46.667 33.834 -60 48.501s-24.666 28.334 -33.999 41.001l33 43c47.333 -44.667 93.666 -67 138.999 -67
c39.333 0 84 22.333 134 67zM312.001 506h117.999l-187 -540c-18.667 -54 -41.667 -95.667 -69 -125c-24.667 -25.333 -64.667 -44.333 -120 -57l-36 71c38 10 66 24.667 84 44c22.667 22.667 40.334 56.334 53.001 101.001h-35c-10.667 38.667 -25 86.334 -43 143.001
l-120 355l112 19l93 -308c9.33301 -30.667 18.333 -68.334 27 -113.001h2c10 41.333 22.333 86.666 37 135.999z" />
    <glyph glyph-name="afii10193" unicode="&#x45f;" horiz-adv-x="525" 
d="M341 497l109 21v-518h-138v-149h-98v149h-139v497l109 21v-436h157v415z" />
    <glyph glyph-name="afii10050" unicode="&#x490;" horiz-adv-x="471" 
d="M195 0h-115v692h272v156h104v-250h-261v-598z" />
    <glyph glyph-name="afii10098" unicode="&#x491;" horiz-adv-x="423" 
d="M184 424v-424h-109v506h223v144h100v-226h-214z" />
    <glyph glyph-name="endash" unicode="&#x2013;" horiz-adv-x="583" 
d="M533 233h-483v87h483v-87z" />
    <glyph glyph-name="emdash" unicode="&#x2014;" horiz-adv-x="809" 
d="M759 233h-709v87h709v-87z" />
    <glyph glyph-name="quoteleft" unicode="&#x2018;" horiz-adv-x="267" 
d="M222 665c-20 -6.66699 -36.332 -16.499 -48.999 -29.499s-19 -26.167 -19 -39.5c0 -6 3.33301 -11.167 10 -15.5s14.167 -8.33301 22.5 -12s15.833 -10.834 22.5 -21.501s10 -24.334 10 -41.001c0 -22 -7.66699 -40.833 -23 -56.5s-34 -23.5 -56 -23.5
c-26 0 -47.5 10.333 -64.5 31s-25.5 47.334 -25.5 80.001c0 39.333 12.167 75.333 36.5 108s56.166 56 95.499 70z" />
    <glyph glyph-name="quoteright" unicode="&#x2019;" horiz-adv-x="267" 
d="M217 597c0 -42 -13 -80.001 -39 -114.001c-23.333 -29.333 -54 -50.666 -92 -63.999l-41 49c20.667 6.66699 37.167 16.5 49.5 29.5s18.5 26.833 18.5 41.5c0 7.33301 -7.33301 14.333 -22 21c-28.667 12 -43 34.333 -43 67c0 22.667 7.66699 41.667 23 57s34 23 56 23
c26 0 47.5 -10.333 64.5 -31s25.5 -47 25.5 -79z" />
    <glyph glyph-name="quotedblleft" unicode="&#x201c;" horiz-adv-x="481" 
d="M436 665c-20 -6 -36.334 -15.499 -49.001 -28.499s-19 -26.833 -19 -41.5c0 -4.66699 3.33301 -9.33398 10 -14.001s14.334 -9 23.001 -13c22 -12.667 33 -33.334 33 -62.001c0 -22 -7.83301 -40.833 -23.5 -56.5s-34.5 -23.5 -56.5 -23.5c-26 0 -47.333 10.333 -64 31
s-25 47.334 -25 80.001c0 42 12.667 79.333 38 112c22.667 30 53.667 52 93 66zM221.999 665.001c-20.667 -6 -37.333 -15.502 -50 -28.502s-19 -26.833 -19 -41.5c0 -5.33301 3.5 -10.166 10.5 -14.499s14.5 -8.5 22.5 -12.5s15.5 -11.333 22.5 -22s10.5 -24 10.5 -40
c0 -22 -7.66699 -40.833 -23 -56.5s-34.333 -23.5 -57 -23.5c-26 0 -47.333 10.333 -64 31s-25 47.334 -25 80.001c0 40.667 13 78 39 112c24 30.667 54.667 52.667 92 66z" />
    <glyph glyph-name="quotedblright" unicode="&#x201d;" horiz-adv-x="482" 
d="M432 597c0 -42 -12.166 -78.834 -36.499 -110.501s-55.833 -54.167 -94.5 -67.5l-41 49c20.667 6.66699 37.167 16.5 49.5 29.5s18.5 26.833 18.5 41.5c0 2.66699 -2.33301 6.33398 -7 11.001s-9.33398 8 -14.001 10c-28.667 12 -43 34.333 -43 67
c0 22.667 7.5 41.667 22.5 57s33.833 23 56.5 23c26 0 47.333 -10.333 64 -31s25 -47 25 -79zM218.001 596.999c0 -40 -12.1689 -76.333 -36.502 -109s-56.166 -55.667 -95.499 -69l-41 49c20.667 6.66699 37.334 16.5 50.001 29.5s19 26.833 19 41.5
c0 2.66699 -2.5 6.33398 -7.5 11.001s-9.83301 8 -14.5 10c-28.667 11.333 -43 33.666 -43 66.999c0 22.667 7.5 41.667 22.5 57s33.833 23 56.5 23c26 0 47.5 -10.333 64.5 -31s25.5 -47 25.5 -79z" />
    <glyph glyph-name="quotedblbase" unicode="&#x201e;" horiz-adv-x="482" 
d="M432 35c0 -41.333 -12.168 -77.8311 -36.501 -109.498s-56.166 -54.834 -95.499 -69.501l-40 50c20 6.66699 36.333 16.667 49 30s19 27 19 41c0 8 -7.33301 15 -22 21c-28.667 11.333 -43 33.666 -43 66.999c0 22.667 7.66699 41.667 23 57s34 23 56 23
c26 0 47.5 -10.333 64.5 -31s25.5 -47 25.5 -79zM216.999 35.002c0 -41.333 -12.168 -77.8311 -36.501 -109.498s-56.166 -54.834 -95.499 -69.501l-40 50c20 6.66699 36.333 16.667 49 30s19 27 19 41c0 8 -7.33301 15 -22 21c-28.667 11.333 -43 33.666 -43 66.999
c0 22.667 7.66699 41.667 23 57s34 23 56 23c26 0 47.5 -10.333 64.5 -31s25.5 -47 25.5 -79z" />
    <glyph glyph-name="dagger" unicode="&#x2020;" horiz-adv-x="476" 
d="M451 536l-17 -97h-143v-439h-109v439h-152v97h152v156h109v-156h160z" />
    <glyph glyph-name="bullet" unicode="&#x2022;" horiz-adv-x="490" 
d="M420 355c0 -49.333 -17 -91.166 -51 -125.499s-75.333 -51.5 -124 -51.5s-90 17.167 -124 51.5s-51 76.166 -51 125.499s17 91.166 51 125.499s75.333 51.5 124 51.5s90 -17.167 124 -51.5s51 -76.166 51 -125.499z" />
    <glyph glyph-name="ellipsis" unicode="&#x2026;" horiz-adv-x="762" 
d="M702 67c0 -22.667 -7.66699 -42 -23 -58s-33.666 -24 -54.999 -24c-22 0 -40.667 8 -56 24s-23 35.333 -23 58c0 22 7.66699 40.667 23 56s33.666 23 54.999 23s39.833 -7.66699 55.5 -23s23.5 -34 23.5 -56zM459 67c0 -22.667 -7.66797 -42 -23.001 -58
s-33.666 -24 -54.999 -24c-22 0 -40.5 8 -55.5 24s-22.5 35.333 -22.5 58c0 22 7.5 40.667 22.5 56s33.167 23 54.5 23c22 0 40.667 -7.66699 56 -23s23 -34 23 -56zM216.999 67c0 -22.667 -7.66797 -42 -23.001 -58s-33.666 -24 -54.999 -24c-22 0 -40.667 8 -56 24
s-23 35.333 -23 58c0 22 7.5 40.667 22.5 56s33.167 23 54.5 23c22 0 40.833 -7.66699 56.5 -23s23.5 -34 23.5 -56z" />
    <glyph glyph-name="Euro" unicode="&#x20ac;" horiz-adv-x="562" 
d="M519 489v-79c-34 23.333 -83 35 -147 35c-94.667 0 -149.667 -35.333 -165 -106h276l-29 -61h-258c-0.666992 -4 -1 -11.333 -1 -22c0 -12.667 0.333008 -21 1 -25h235l-29 -62h-195c15.333 -72.667 70.666 -109 165.999 -109c60.667 0 109.334 12 146.001 36v-80
c-32.667 -18.667 -86 -28 -160 -28c-147.333 0 -233.666 60.333 -258.999 181h-79l29 62h42c-1.33301 8 -2 16.333 -2 25c0 6.66699 0.666992 14 2 22h-71l29 61h49c27.333 119.333 114 179 260 179c69.333 0 122.666 -9.66699 159.999 -29z" />
    <glyph glyph-name="afii61352" unicode="&#x2116;" horiz-adv-x="978" 
d="M913 202h-271v58h271v-58zM549 0l-121.001 -0.00292969l-155 325l-56 122c-13.333 30.667 -24.666 58.334 -33.999 83.001l-3 -3c4 -45.333 6.33301 -106.666 7 -183.999l4 -343h-111v692h130l168 -338c14 -28.667 28.667 -62.667 44 -102
c10 -25.333 18.333 -50.666 25 -75.999l3 3c-2 21.333 -4 50.333 -6 87c-2.66699 36 -4 72.667 -4 110l-2 316h111v-692zM917.999 527.997c0 -57.333 -14 -100 -42 -128c-24.667 -24.667 -57.334 -37 -98.001 -37c-41.333 0 -74.333 12.333 -99 37
c-28 28 -42 70.667 -42 128c0 56 14 98.333 42 127c24.667 24.667 57.667 37 99 37c40.667 0 73.334 -12.333 98.001 -37c28 -28.667 42 -71 42 -127zM776.999 633.997c-16 0 -28.333 -4.33398 -37 -13.001c-14 -13.333 -21 -44.333 -21 -93c0 -49.333 7 -80.666 21 -93.999
c8.66699 -8.66699 21 -13 37 -13c16.667 0 29.334 4.33301 38.001 13c14 14 21 45.333 21 94c0 48 -7 79 -21 93c-8.66699 8.66699 -21.334 13 -38.001 13z" />
    <glyph glyph-name="trademark" unicode="&#x2122;" horiz-adv-x="985" 
d="M925 296h-89v301h-5l-113 -301h-58l-112 299l-5 1v-300h-89v412h127l109 -290l108 290h127v-412zM365 627h-123v-331h-89v331h-123v81h335v-81z" />
    <glyph glyph-name="radical" unicode="&#x221a;" horiz-adv-x="571" 
d="M571 718l-261 -725.998h-97l-149 434h-64v82h152l85 -246c7.33301 -20.667 16.333 -49.334 27 -86.001c4 13.333 12.333 38.666 25 75.999l164 466h118z" />
    <glyph glyph-name="infinity" unicode="&#x221e;" horiz-adv-x="916" 
d="M886 262c0 -56.667 -19.834 -100.335 -59.501 -131.002s-84.834 -46 -135.501 -46c-58 0 -113.667 18.667 -167 56l-77 54l-72 -52c-54 -39.333 -111 -59 -171 -59c-21.333 0 -42.166 2.66699 -62.499 8s-40.5 14 -60.5 26s-36.167 29.667 -48.5 53s-18.5 51 -18.5 83
c0 58.667 19.667 103 59 133s85.333 45 138 45c58 0 116 -20.333 174 -61l71 -49l72 53c52.667 38.667 109.334 58 170.001 58c16.667 0 33.167 -1.5 49.5 -4.5s33 -8.66699 50 -17s31.833 -18.666 44.5 -30.999s23.167 -28.666 31.5 -48.999s12.5 -43.5 12.5 -69.5z
M770.999 260.999c0 20.667 -7.50098 37.833 -22.501 51.5s-34.5 20.5 -58.5 20.5c-33.333 0 -69 -13.667 -107 -41l-42 -31l60 -40c32.667 -22 62.334 -33 89.001 -33c28 0 48.5 7.33301 61.5 22s19.5 31.667 19.5 51zM359.998 254.998l-59.001 41.001
c-30 21.333 -60 32 -90 32c-28 0 -48.5 -7.33301 -61.5 -22s-19.5 -31.667 -19.5 -51c0 -20.667 7.5 -37.834 22.5 -51.501s34.5 -20.5 58.5 -20.5c32.667 0 68.334 14 107.001 42z" />
    <glyph glyph-name="approxequal" unicode="&#x2248;" horiz-adv-x="556" 
d="M506 385c-32.667 -58.667 -73.6699 -88 -123.003 -88c-22 0 -57.667 11 -107 33l-37 17c-11.333 5.33301 -23.333 10 -36 14s-24 6 -34 6c-18 0 -33.667 -6 -47 -18s-26.666 -28.667 -39.999 -50l-32 84c33.333 58 74.333 87 123 87c24.667 0 60.334 -10.667 107.001 -32
c16 -8 34.333 -16.333 55 -25s38 -13 52 -13c12.667 0 24.834 4 36.501 12s20.5 15.667 26.5 23s14 18.333 24 33zM505.997 195c-32.667 -58.667 -73.6699 -88 -123.003 -88c-22 0 -57.667 11 -107 33l-37 17c-11.333 5.33301 -23.333 10 -36 14s-24 6 -34 6
c-18 0 -33.667 -6 -47 -18s-26.666 -28.667 -39.999 -50l-32 84c33.333 58 74.333 87 123 87c24.667 0 60.334 -10.667 107.001 -32c16 -8 34.333 -16.333 55 -25s38 -13 52 -13c12.667 0 24.834 4 36.501 12s20.5 15.667 26.5 23s14 18.333 24 33z" />
    <glyph glyph-name="notequal" unicode="&#x2260;" horiz-adv-x="635" 
d="M585 344h-201l-46 -81h247v-101h-305l-63 -111h-88l63 111h-142v101h200l46 81h-246v101h304l63 111h88l-63 -111h143v-101z" />
    <glyph glyph-name="lessequal" unicode="&#x2264;" horiz-adv-x="453" 
d="M413 113l-383 144v86l383 179v-114l-227 -101l227 -83v-111zM413 0h-383v97h383v-97z" />
    <glyph glyph-name="greaterequal" unicode="&#x2265;" horiz-adv-x="453" 
d="M423 257l-383 -144v111l227 83l-227 101v114l383 -179v-86zM423 0h-383v97h383v-97z" />
    <glyph glyph-name="Acute" unicode="&#xf6c9;" horiz-adv-x="314" 
d="M284 822l-220 -102l-34 63l204 132z" />
    <glyph glyph-name="Dieresis" unicode="&#xf6cb;" horiz-adv-x="444" 
d="M394 808c0 -19.333 -6.66699 -35.833 -20 -49.5s-29.333 -20.5 -48 -20.5s-34.5 6.83301 -47.5 20.5s-19.5 30.167 -19.5 49.5s6.66699 35.833 20 49.5s29.333 20.5 48 20.5c18 0 33.667 -6.83301 47 -20.5s20 -30.167 20 -49.5zM184 808
c0 -19.333 -6.5 -35.833 -19.5 -49.5s-28.833 -20.5 -47.5 -20.5s-34.5 6.83301 -47.5 20.5s-19.5 30.167 -19.5 49.5s6.5 35.833 19.5 49.5s28.833 20.5 47.5 20.5s34.5 -6.83301 47.5 -20.5s19.5 -30.167 19.5 -49.5z" />
    <glyph glyph-name="cyrBreve" unicode="&#xf6d1;" horiz-adv-x="472" 
d="M335 877l57 -31.999c-8 -22 -20 -41.667 -36 -59c-28 -29.333 -67.667 -44 -119 -44s-92 15.667 -122 47c-14 14 -25.667 32.667 -35 56l57 31c8.66699 -16.667 21.667 -30.334 39 -41.001c16 -10 36 -15 60 -15s44 5 60 15c16.667 10 29.667 24 39 42z" />
    <glyph glyph-name="cyrbreve" unicode="&#xf6d4;" horiz-adv-x="470" 
d="M340 731l55.001 -31c-12.667 -35.333 -31.334 -61 -56.001 -77c-27.333 -20.667 -62 -31 -104 -31s-76.667 10.333 -104 31c-24.667 16 -43.334 41.667 -56.001 77l55 31c8 -11.333 15 -20.333 21 -27c20.667 -22 49.334 -33 86.001 -33c34 0 61.333 11 82 33
c6 6.66699 13 15.667 21 27z" />
    <glyph glyph-name=".null" horiz-adv-x="0" 
 />
    <glyph glyph-name="nonmarkingreturn" horiz-adv-x="333" 
 />
    <glyph glyph-name="nbspace" horiz-adv-x="225" 
 />
    </font>
</defs>
</svg>
